<svg width="315" height="315" viewBox="0 0 315 315" fill="none" xmlns="http://www.w3.org/2000/svg">
<circle cx="157.5" cy="157.5" r="157.5" fill="#F4DFD9"/>
<mask id="path-2-inside-1" fill="white">
<path fill-rule="evenodd" clip-rule="evenodd" d="M183.967 56.3196C183.967 54.7788 184.302 53.3161 184.902 52C185.089 52.1613 185.283 52.3103 185.483 52.446L201.458 63.3079C203.105 64.4273 204.923 64.4273 206.57 63.3079L222.545 52.446C222.745 52.3103 222.938 52.1613 223.126 52C223.726 53.3161 224.06 54.7788 224.06 56.3196V123.75C224.076 123.776 224.092 123.802 224.108 123.828L299.511 248.723C303.706 255.67 298.703 264.535 290.587 264.535H267.511C263.925 264.535 260.59 262.691 258.683 259.654L224.06 204.514V253.71C224.06 259.467 219.393 264.134 213.636 264.134H194.392C188.634 264.134 183.967 259.467 183.967 253.71V204.514L149.345 259.654C147.438 262.691 144.103 264.535 140.517 264.535H117.44C109.325 264.535 104.322 255.67 108.516 248.723L183.92 123.828C183.935 123.802 183.951 123.776 183.967 123.75V56.3196Z"/>
</mask>
<path fill-rule="evenodd" clip-rule="evenodd" d="M183.967 56.3196C183.967 54.7788 184.302 53.3161 184.902 52C185.089 52.1613 185.283 52.3103 185.483 52.446L201.458 63.3079C203.105 64.4273 204.923 64.4273 206.57 63.3079L222.545 52.446C222.745 52.3103 222.938 52.1613 223.126 52C223.726 53.3161 224.06 54.7788 224.06 56.3196V123.75C224.076 123.776 224.092 123.802 224.108 123.828L299.511 248.723C303.706 255.67 298.703 264.535 290.587 264.535H267.511C263.925 264.535 260.59 262.691 258.683 259.654L224.06 204.514V253.71C224.06 259.467 219.393 264.134 213.636 264.134H194.392C188.634 264.134 183.967 259.467 183.967 253.71V204.514L149.345 259.654C147.438 262.691 144.103 264.535 140.517 264.535H117.44C109.325 264.535 104.322 255.67 108.516 248.723L183.92 123.828C183.935 123.802 183.951 123.776 183.967 123.75V56.3196Z" fill="white"/>
<path d="M184.902 52L190.768 45.1748C188.622 43.3299 185.733 42.6021 182.968 43.2101C180.204 43.8182 177.887 45.6911 176.713 48.2664L184.902 52ZM185.483 52.446L190.543 45.0033L190.543 45.0033L185.483 52.446ZM201.458 63.3079L196.398 70.7506L196.398 70.7506L201.458 63.3079ZM206.57 63.3079L211.63 70.7506L211.63 70.7506L206.57 63.3079ZM222.545 52.446L227.605 59.8886L227.605 59.8886L222.545 52.446ZM223.126 52L231.315 48.2665C230.141 45.6912 227.824 43.8182 225.06 43.2101C222.295 42.6021 219.406 43.3298 217.26 45.1747L223.126 52ZM224.06 123.75H215.06C215.06 125.412 215.521 127.041 216.39 128.458L224.06 123.75ZM224.108 123.828L216.403 128.48L216.403 128.48L224.108 123.828ZM299.511 248.723L307.216 244.071L307.216 244.071L299.511 248.723ZM258.683 259.654L266.305 254.868L266.305 254.868L258.683 259.654ZM224.06 204.514L231.682 199.728C229.549 196.331 225.425 194.755 221.57 195.865C217.715 196.975 215.06 200.503 215.06 204.514H224.06ZM183.967 204.514H192.967C192.967 200.503 190.312 196.975 186.458 195.865C182.603 194.756 178.479 196.331 176.345 199.728L183.967 204.514ZM149.345 259.654L156.967 264.44L156.967 264.44L149.345 259.654ZM108.516 248.723L100.812 244.071L100.812 244.071L108.516 248.723ZM183.92 123.828L176.215 119.176L176.215 119.177L183.92 123.828ZM183.967 123.75L191.638 128.457C192.507 127.04 192.967 125.411 192.967 123.75H183.967ZM176.713 48.2664C175.589 50.7312 174.967 53.4651 174.967 56.3196H192.967C192.967 56.0926 193.014 55.901 193.091 55.7336L176.713 48.2664ZM190.543 45.0033C190.637 45.067 190.711 45.1259 190.768 45.1748L179.035 58.8252C179.467 59.1968 179.929 59.5535 180.422 59.8886L190.543 45.0033ZM206.519 55.8653L190.543 45.0033L180.422 59.8886L196.398 70.7506L206.519 55.8653ZM201.509 55.8653C201.991 55.5379 202.861 55.1475 204.014 55.1475C205.167 55.1475 206.037 55.5379 206.519 55.8653L196.398 70.7506C201.098 73.9464 206.929 73.9464 211.63 70.7506L201.509 55.8653ZM217.485 45.0033L201.509 55.8653L211.63 70.7506L227.605 59.8886L217.485 45.0033ZM217.26 45.1747C217.316 45.1259 217.391 45.067 217.485 45.0033L227.605 59.8886C228.098 59.5535 228.56 59.1968 228.993 58.8253L217.26 45.1747ZM233.06 56.3196C233.06 53.4651 232.439 50.7312 231.315 48.2665L214.937 55.7335C215.013 55.9009 215.06 56.0926 215.06 56.3196H233.06ZM233.06 123.75V56.3196H215.06V123.75H233.06ZM231.813 119.177C231.786 119.132 231.758 119.087 231.731 119.042L216.39 128.458C216.394 128.465 216.399 128.472 216.403 128.48L231.813 119.177ZM307.216 244.071L231.813 119.177L216.403 128.48L291.807 253.374L307.216 244.071ZM290.587 273.535C305.709 273.535 315.032 257.017 307.216 244.071L291.807 253.374C292.38 254.324 291.696 255.535 290.587 255.535V273.535ZM267.511 273.535H290.587V255.535H267.511V273.535ZM251.061 264.44C254.615 270.099 260.828 273.535 267.511 273.535V255.535C267.021 255.535 266.566 255.283 266.305 254.868L251.061 264.44ZM216.438 209.3L251.061 264.44L266.305 254.868L231.682 199.728L216.438 209.3ZM233.06 253.71V204.514H215.06V253.71H233.06ZM213.636 273.134C224.364 273.134 233.06 264.437 233.06 253.71H215.06C215.06 254.496 214.423 255.134 213.636 255.134V273.134ZM194.392 273.134H213.636V255.134H194.392V273.134ZM174.967 253.71C174.967 264.437 183.664 273.134 194.392 273.134V255.134C193.605 255.134 192.967 254.496 192.967 253.71H174.967ZM174.967 204.514V253.71H192.967V204.514H174.967ZM176.345 199.728L141.723 254.868L156.967 264.44L191.589 209.3L176.345 199.728ZM141.723 254.868C141.462 255.283 141.007 255.535 140.517 255.535V273.535C147.199 273.535 153.413 270.099 156.967 264.44L141.723 254.868ZM140.517 255.535H117.44V273.535H140.517V255.535ZM117.44 255.535C116.332 255.535 115.648 254.324 116.221 253.374L100.812 244.071C92.9959 257.017 102.318 273.535 117.44 273.535V255.535ZM116.221 253.374L191.624 128.48L176.215 119.177L100.812 244.071L116.221 253.374ZM191.624 128.48C191.628 128.473 191.633 128.465 191.638 128.457L176.296 119.043C176.27 119.086 176.243 119.131 176.215 119.176L191.624 128.48ZM174.967 56.3196V123.75H192.967V56.3196H174.967Z" fill="#DC6849" mask="url(#path-2-inside-1)"/>
<mask id="path-4-inside-2" fill="white">
<path d="M81 90.5C81 112.868 62.8675 131 40.5 131C18.1325 131 0 112.868 0 90.5C0 68.1325 18.1325 50 40.5 50C62.8675 50 81 68.1325 81 90.5Z"/>
</mask>
<path d="M81 90.5C81 112.868 62.8675 131 40.5 131C18.1325 131 0 112.868 0 90.5C0 68.1325 18.1325 50 40.5 50C62.8675 50 81 68.1325 81 90.5Z" fill="white"/>
<path d="M72 90.5C72 107.897 57.897 122 40.5 122V140C67.8381 140 90 117.838 90 90.5H72ZM40.5 122C23.103 122 9 107.897 9 90.5H-9C-9 117.838 13.1619 140 40.5 140V122ZM9 90.5C9 73.103 23.103 59 40.5 59V41C13.1619 41 -9 63.1619 -9 90.5H9ZM40.5 59C57.897 59 72 73.103 72 90.5H90C90 63.1619 67.8381 41 40.5 41V59Z" fill="#DC6849" mask="url(#path-4-inside-2)"/>
<circle cx="41" cy="91" r="11" fill="#DC6849"/>
<path d="M130.058 113.59C94.3275 118.179 77.2222 83.0006 70 70C89.7661 96.0011 121.569 97.1482 135 94.4717C134.24 97.2757 132.187 105.025 130.058 113.59Z" fill="white" stroke="#DC6849" stroke-width="9"/>
<path d="M141.329 173.238C143.117 172.504 143.972 170.459 143.238 168.671L131.275 139.531C130.541 137.743 128.496 136.888 126.708 137.622C124.92 138.356 124.065 140.401 124.799 142.189L135.433 168.091L109.531 178.725C107.743 179.459 106.888 181.504 107.622 183.292C108.356 185.08 110.401 185.935 112.189 185.201L141.329 173.238ZM72.5863 128.534C88.5792 143.766 105.061 154.92 117.537 162.266C123.779 165.942 129.03 168.671 132.733 170.486C134.584 171.394 136.049 172.074 137.059 172.53C137.563 172.758 137.954 172.93 138.222 173.046C138.356 173.104 138.46 173.148 138.532 173.179C138.567 173.194 138.595 173.206 138.615 173.215C138.625 173.219 138.633 173.222 138.639 173.225C138.642 173.226 138.644 173.227 138.646 173.228C138.647 173.228 138.648 173.228 138.649 173.229C138.65 173.229 138.65 173.229 140 170C141.35 166.771 141.35 166.771 141.351 166.771C141.351 166.771 141.351 166.771 141.351 166.771C141.351 166.771 141.35 166.771 141.349 166.77C141.347 166.769 141.342 166.768 141.336 166.765C141.324 166.76 141.303 166.751 141.274 166.739C141.217 166.715 141.129 166.677 141.01 166.625C140.772 166.522 140.412 166.363 139.939 166.15C138.994 165.723 137.596 165.075 135.814 164.201C132.251 162.454 127.159 159.808 121.088 156.234C108.939 149.08 92.9209 138.234 77.4139 123.466L72.5863 128.534Z" fill="#DC6849"/>
</svg>
