<svg width="88" height="61" viewBox="0 0 88 61" fill="none" xmlns="http://www.w3.org/2000/svg">
<path d="M64.518 25.134C65.73 14.63 74.012 10.388 87.546 8.56997V0.287964C60.882 1.09597 46.54 14.226 46.54 36.042C46.54 50.788 54.822 60.888 67.952 60.888C78.86 60.888 87.546 54.02 87.546 42.708C87.546 32.406 81.284 27.154 72.8 25.134H64.518ZM18.058 25.134C19.27 14.63 27.552 10.388 41.086 8.56997V0.287964C14.422 1.09597 0.0800171 14.226 0.0800171 36.042C0.0800171 50.788 8.36202 60.888 21.492 60.888C32.4 60.888 41.086 54.02 41.086 42.708C41.086 32.406 34.824 27.154 26.34 25.134H18.058Z" fill="white"/>
</svg>
