<svg width="202" height="49" viewBox="0 0 202 49" fill="none" xmlns="http://www.w3.org/2000/svg">
<path d="M3.82891 48.7571C5.24264 48.5332 6.51301 47.5073 7.28493 46.3066C8.18621 44.8633 8.27964 43.0087 8.1117 41.7982C7.88516 40.3433 7.34076 39.1607 6.82778 37.9731C6.40535 36.9933 5.9824 36.0452 5.71863 34.9451C5.28167 32.9525 5.72963 30.5025 6.95615 28.3416C8.21462 26.1439 10.1233 24.4142 12.1733 23.6137C13.9395 22.9216 15.6626 22.9342 16.7155 23.6873C17.4589 24.204 16.705 28.0981 13.3533 33.7041C13.192 33.9834 13.2192 34.2329 13.4679 34.3521C13.7166 34.4713 13.969 34.3679 14.1303 34.0886C16.0963 30.7955 19.2455 24.1748 17.3245 22.8613C16.024 21.9253 14.1134 21.879 12.0001 22.7213C9.66633 23.6302 7.567 25.5169 6.17918 27.9572C4.79083 30.4292 4.2774 33.0481 4.80387 35.312C5.09746 36.5026 5.51989 37.4824 5.97321 38.4891C6.4553 39.6499 6.96987 40.742 7.16658 42.1065C7.33714 43.158 7.18458 44.7999 6.50849 45.8903C5.76798 47.0861 4.15204 48.1667 2.84309 47.7396C2.15721 47.5311 1.60806 46.6347 1.65319 45.8028C1.6999 44.8756 2.33297 44.4898 2.49111 44.4013C2.74402 44.2661 2.87391 43.9918 2.75246 43.7573C2.66296 43.4859 2.41321 43.4303 2.15977 43.5974C1.24289 44.0915 0.759518 44.8976 0.711226 45.9203C0.658187 47.2292 1.3602 48.3551 2.45133 48.6898C2.91889 48.8378 3.35766 48.8318 3.82891 48.7571Z" fill="#E9EDEA"/>
<path d="M15.1755 46.4208C17.249 46.0924 19.0629 44.4094 20.5157 41.832C20.677 41.5527 20.6184 41.3082 20.3691 41.2208C20.1205 41.1016 19.8995 41.2 19.7382 41.4793C18.5436 43.6035 16.8878 45.198 15.1913 45.4667C13.8404 45.6806 12.8808 44.9762 12.8694 43.7726C12.8538 42.8235 13.376 41.5671 14.1431 40.6526C14.6223 40.1009 15.2245 39.6884 15.6957 39.6137C15.9156 39.5789 16.479 39.6165 16.4664 40.3798C16.4632 40.5706 16.3961 40.835 16.2977 41.1044C16.1987 41.4055 16.3207 41.6083 16.6018 41.6589C16.8516 41.7145 17.1045 41.5793 17.2035 41.2781C17.3355 40.8766 17.4036 40.5486 17.4089 40.2305C17.4268 39.1492 16.7169 38.5004 15.7115 38.6596C14.9575 38.779 14.1972 39.2801 13.4945 40.0892C12.5042 41.2294 11.9155 42.7183 11.9264 43.9537C11.9288 45.6979 13.2905 46.7193 15.1755 46.4208Z" fill="#E9EDEA"/>
<path d="M24.3864 44.9619C26.774 44.5837 28.7432 41.0999 28.9694 40.6834C29.1307 40.4041 29.0721 40.1596 28.8229 40.0722C28.5742 39.953 28.3218 40.0564 28.1605 40.3357C27.6755 41.2372 25.973 43.759 24.4022 44.0078C23.8367 44.0974 23.5912 43.7873 23.4996 43.6432C23.1352 42.9397 23.5402 41.1944 25.017 39.0573C25.1448 38.9101 25.1783 38.7779 25.0872 38.6021C25.0275 38.4212 24.9343 38.3725 24.7464 38.3706C24.0573 38.3528 23.4662 38.0975 23.1908 37.697C22.9762 37.4138 22.9522 36.9736 23.0842 36.572C23.1512 36.3076 23.0606 36.0999 22.8109 36.0443C22.5612 35.9887 22.3397 36.119 22.2103 36.3615C22.1129 36.5673 22.0155 36.773 21.8861 37.0155C21.3645 38.2401 20.6794 39.8711 19.7127 41.4834C19.5514 41.7627 19.61 42.0072 19.8587 42.1264C20.1074 42.2456 20.3597 42.1422 20.521 41.8629C21.2312 40.6085 21.7198 39.4843 22.3043 38.2498L23.7587 39.3517L23.5314 39.8318C22.4353 41.6866 22.1597 43.1893 22.6445 44.191C22.9785 44.836 23.5696 45.0913 24.3864 44.9619Z" fill="#E9EDEA"/>
<path d="M37.4447 38.7066C37.196 38.5874 36.9436 38.6908 36.7823 38.9701C36.1691 40.0506 35.2181 40.7087 34.2783 40.699C34.1846 40.6821 34.0908 40.6652 33.9971 40.6484C34.6513 38.9905 34.7666 37.7034 34.374 36.814C34.1018 36.2227 33.6683 35.9107 32.9803 35.8293C32.7615 35.8006 32.5421 35.8036 32.2908 35.8434C30.4058 36.1419 28.2048 38.4889 28.1574 41.3512C28.1247 43.3231 29.3666 44.0145 30.5604 43.8254C31.7228 43.6413 32.802 42.8043 33.5431 41.5767C33.7305 41.6105 33.9179 41.6442 34.1059 41.6462C34.2939 41.6481 34.4819 41.6501 34.6704 41.6202C35.8013 41.4411 36.8167 40.6776 37.5593 39.3546C37.7206 39.0753 37.662 38.8308 37.4447 38.7066ZM30.6076 42.8664C29.6651 43.0156 29.0814 42.3151 29.0999 41.202C29.1389 38.8485 31.0183 36.9965 32.2749 36.7975C32.4006 36.7776 32.5891 36.7477 32.7137 36.7915C33.0577 36.8321 33.3677 37.0368 33.5195 37.33C33.7911 37.953 33.6475 39.0543 33.1568 40.3056C32.7542 40.0205 32.4479 39.5932 32.3621 39.0993C32.304 38.823 32.0868 38.6988 31.8029 38.8072C31.5191 38.9156 31.3589 39.1313 31.417 39.4076C31.5912 40.2364 32.0504 40.8932 32.7022 41.2658C32.091 42.219 31.2359 42.7668 30.6076 42.8664Z" fill="#E9EDEA"/>
<path d="M51.4702 36.4852C51.2215 36.366 50.9691 36.4694 50.8078 36.7487C49.6457 38.8043 48.1187 40.188 46.7364 40.407C45.2912 40.6359 44.5803 40.0506 44.5731 38.5926C49.8024 33.1333 55.317 23.6954 55.3491 21.7554C55.3507 21.66 55.3518 21.5964 55.3214 21.5377C55.1754 20.8948 54.8351 20.6315 54.2696 20.721C52.2275 21.0444 48.6549 26.749 47.9463 27.9079C46.9796 29.5202 43.9154 34.7952 43.6375 38.3285C41.8837 40.1605 40.2981 41.2998 39.1671 41.4789C38.697 41.49 38.3247 41.2635 38.1116 40.8848C37.5646 39.8613 37.9706 38.0524 38.0015 38.0792C39.3756 36.4659 40.8822 34.4192 42.5853 31.8656C42.7455 31.6499 42.9382 31.3656 43.131 31.0814C46.5355 26.0696 50.0719 20.6563 49.9235 18.2691C49.899 17.8606 49.6833 17.641 49.3079 17.6053C47.68 17.5142 43.0418 23.2289 39.8021 29.6419C38.6677 31.9151 35.8269 38.836 37.256 41.4644C37.6518 42.163 38.2109 42.4551 39.0571 42.448L39.1199 42.438C40.4394 42.229 41.9925 41.1583 43.6808 39.4952C43.7959 40.1114 44.0084 40.5218 44.3477 40.8487C44.8717 41.3684 45.621 41.5352 46.7206 41.3611C48.4799 41.0824 50.1969 39.5734 51.6162 37.1282C51.7461 36.8539 51.6874 36.6094 51.4702 36.4852ZM40.643 29.9528C44.3048 22.6482 48.2537 18.819 48.9773 18.641C49.0027 20.8891 44.1853 27.9644 42.3865 30.6283C42.1937 30.9126 42.001 31.1969 41.8408 31.4126C40.5237 33.3658 39.337 35.0129 38.2488 36.3906C38.7858 34.2437 39.7359 31.746 40.643 29.9528ZM48.7228 28.3242C50.9129 24.7419 52.7331 22.6773 53.6532 21.9923C54.3193 21.5062 54.535 21.7258 54.3364 22.3599C53.9069 23.6967 51.9 27.5672 48.5956 32.2142C47.2476 34.1406 45.9667 35.8026 44.7539 37.1366C45.2291 34.9361 46.6615 31.6958 48.7228 28.3242Z" fill="#E9EDEA"/>
<path d="M71.0722 33.2219C70.8549 33.0978 70.6031 33.1694 70.4104 33.4537C69.0268 35.6394 67.6888 36.9616 66.8406 37.0959C66.4636 37.1556 66.1845 36.9778 66.0348 36.5574C65.8542 36.1102 66.0234 35.3538 66.4131 34.5308C66.5419 34.3201 66.7043 33.9772 66.8991 33.5657C67.2552 32.8749 67.7093 31.9465 68.1953 30.9814C68.3252 30.7071 68.2666 30.4626 67.9859 30.3802C67.7367 30.2928 67.5158 30.3912 67.3544 30.6705C67.1926 30.9816 67.0622 31.2877 66.9004 31.5989C66.6894 31.093 66.3167 30.8983 66.0674 30.8109C65.102 30.4563 63.5232 31.1821 62.2774 32.6165C61.5752 33.3939 60.6787 34.5509 60.2795 35.9464C59.7111 38.0982 60.5169 38.6367 60.953 38.7897C61.2023 38.8771 61.4531 38.8691 61.7672 38.8193C62.7726 38.6601 63.946 37.8081 65.0033 36.4036C65.0311 36.6212 65.0588 36.8389 65.1494 37.0466C65.4493 37.8555 66.1666 38.0591 66.2603 38.076L66.3231 38.066C66.4792 38.1048 66.6677 38.0749 66.8562 38.045C68.1757 37.8361 69.578 36.4086 71.1868 33.8699C71.3481 33.5906 71.3209 33.3412 71.0722 33.2219ZM64.483 35.6613C63.2 37.4505 61.8432 38.0143 61.4071 37.8613C61.0642 37.757 60.9192 37.0504 61.1864 36.0565C61.5185 34.9254 62.3192 33.8787 62.9261 33.1799C63.6613 32.3022 64.5473 31.7812 65.1442 31.6867C65.3013 31.6618 65.4893 31.6638 65.6448 31.7343C66.1432 31.9091 66.0992 32.6774 66.0619 33.0322L65.9965 33.2011C65.4157 34.213 64.8365 35.1295 64.483 35.6613Z" fill="#E9EDEA"/>
<path d="M76.162 23.9783C78.1391 20.0173 79.9873 16.2671 80.1491 15.956C80.279 15.6816 80.189 15.4421 79.9398 15.3547C79.6905 15.2673 79.4382 15.3707 79.3083 15.6451L75.0625 24.1524L70.6956 24.8441C70.4128 24.8888 70.2212 25.1095 70.2164 25.3957C70.2117 25.682 70.397 25.8429 70.6798 25.7982L74.544 25.1861L71.8222 30.5973L71.8212 30.6609C71.465 31.3517 71.1738 31.9053 70.9801 32.2532C69.9787 34.0613 69.7985 35.4855 70.3476 36.3818C70.7439 37.0486 71.4915 37.3109 72.5283 37.1467L72.5597 37.1417C72.5911 37.1367 72.6225 37.1317 72.6225 37.1317C72.654 37.1268 72.6854 37.1218 72.7168 37.1168C74.3819 36.8531 76.2079 34.4386 76.9814 33.1425C77.1427 32.8632 77.0841 32.6187 76.8668 32.4945C76.6181 32.3753 76.3658 32.4787 76.2045 32.758C75.2058 34.407 73.6123 36.0234 72.7326 36.1627C72.7012 36.1677 72.6698 36.1726 72.6384 36.1776C72.6384 36.1776 72.6069 36.1826 72.5755 36.1876C72.1357 36.2572 71.4775 36.2663 71.1723 35.7754C70.8064 35.1673 71.0778 33.9189 71.789 32.6009C72.4358 31.3883 74.0232 28.2503 75.6436 25.012L79.5706 24.39C79.8848 24.3402 80.045 24.1245 80.0498 23.8383C80.055 23.5203 79.9006 23.3861 79.5864 23.4359L76.162 23.9783Z" fill="#E9EDEA"/>
<path d="M87.9117 48.667C88.1316 48.6322 88.2908 48.4801 88.3573 48.2475C88.3908 48.1153 88.4249 47.9513 88.4909 47.7506C88.9608 45.8681 90.2667 40.8081 95.3306 30.2045C100.298 19.7431 104.663 11.5975 104.728 11.4922C104.857 11.2496 104.798 11.0052 104.581 10.881C104.332 10.7936 104.112 10.8602 103.919 11.1127C103.855 11.218 96.7814 22.0764 92.7526 28.8365C90.5933 32.4457 88.7601 33.4021 88.2308 33.2005C87.7329 32.9939 87.354 31.2776 88.8535 27.7729C90.1246 24.8119 91.9702 21.2207 93.6209 18.041C94.5275 16.2797 95.4016 14.587 96.0835 13.1468C96.9282 11.3318 97.3897 9.95818 97.5636 8.91558C97.5998 8.62438 97.4464 8.42663 97.1642 8.43961C96.882 8.45259 96.6594 8.64644 96.6233 8.93765C96.4823 9.87985 96.0214 11.2217 95.2421 12.8677C94.5607 14.2761 93.6871 15.937 92.7801 17.7301C91.1607 20.9049 89.2832 24.5328 88.0121 27.4938C86.4801 31.0671 86.4694 33.6064 87.7772 34.0971C89.1155 34.6464 91.3698 32.8619 93.5295 29.221C94.4313 27.7459 95.462 26.0601 96.556 24.3325L98.8105 20.6449C97.9673 22.3644 95.3664 28.0419 94.4892 29.9254C89.3923 40.6294 88.0858 45.7212 87.584 47.6404C87.518 47.8412 87.484 48.0052 87.4504 48.1374C87.3828 48.4336 87.5048 48.6363 87.7865 48.6551C87.8174 48.6819 87.8488 48.677 87.9117 48.667Z" fill="#E9EDEA"/>
<path d="M109.328 27.3214C109.079 27.2022 108.827 27.3056 108.666 27.5849C108.052 28.6654 107.102 29.3235 106.162 29.3138C106.068 29.2969 105.974 29.28 105.881 29.2631C106.535 27.6052 106.65 26.3182 106.257 25.4288C105.985 24.8375 105.552 24.5255 104.864 24.4441C104.645 24.4154 104.425 24.4184 104.174 24.4582C102.289 24.7567 100.088 27.1037 100.041 29.966C100.008 31.9379 101.25 32.6293 102.444 32.4402C103.606 32.2561 104.685 31.4191 105.426 30.1915C105.614 30.2253 105.801 30.259 105.989 30.261C106.177 30.2629 106.365 30.2649 106.554 30.235C107.685 30.0559 108.7 29.2924 109.443 27.9694C109.604 27.6901 109.545 27.4456 109.328 27.3214ZM102.491 31.4812C101.549 31.6304 100.965 30.9299 100.983 29.8168C101.022 27.4633 102.902 25.6113 104.158 25.4123C104.284 25.3924 104.472 25.3625 104.597 25.4062C104.941 25.4469 105.251 25.6516 105.403 25.9447C105.675 26.5678 105.531 27.6691 105.04 28.9204C104.638 28.6353 104.331 28.208 104.245 27.7141C104.187 27.4378 103.97 27.3136 103.686 27.422C103.403 27.5304 103.242 27.7461 103.3 28.0224C103.475 28.8512 103.934 29.508 104.586 29.8806C103.974 30.8338 103.119 31.3816 102.491 31.4812Z" fill="#E9EDEA"/>
<path d="M118.704 25.8364C118.455 25.7172 118.202 25.8524 118.042 26.0999C116.36 29.221 115.01 29.435 114.665 29.4261C114.101 29.4203 113.858 28.9512 113.89 28.9144C113.867 28.4423 115.008 25.7239 116.046 23.5929C116.079 23.5243 116.079 23.4925 116.08 23.4289C116.112 23.3921 116.113 23.3603 116.145 23.3235C116.243 23.0541 116.153 22.8146 115.872 22.764C115.623 22.6766 115.37 22.8118 115.271 23.113C114.846 24.1954 113.296 26.9785 112.494 28.0888C111.243 29.8095 109.98 30.3901 109.544 30.2372C109.263 30.1547 109.087 29.4849 109.387 28.3906C109.654 27.3967 110.172 26.3948 110.949 24.9078L111.369 24.1116C111.499 23.8373 111.44 23.6246 111.191 23.5054C110.942 23.418 110.689 23.5214 110.56 23.7958L110.139 24.5919C109.299 26.1525 108.78 27.1862 108.48 28.2805C107.88 30.4691 108.685 31.0076 109.121 31.1606C109.339 31.2529 109.559 31.2499 109.841 31.2051C110.784 31.0558 111.894 30.2456 112.95 28.9047C112.949 28.9683 112.949 29.0001 112.948 29.0319C112.937 29.7316 113.491 30.3099 114.304 30.4031C114.461 30.4101 114.649 30.412 114.869 30.3772C115.842 30.2229 117.234 29.4633 118.85 26.4794C119.011 26.2001 118.953 25.9556 118.704 25.8364Z" fill="#E9EDEA"/>
<path d="M122.869 29.3637C125.257 28.9856 127.226 25.5017 127.452 25.0852C127.614 24.8059 127.555 24.5614 127.306 24.474C127.057 24.3548 126.805 24.4582 126.643 24.7375C126.159 25.6391 124.456 28.1608 122.885 28.4096C122.32 28.4992 122.074 28.1892 121.983 28.0451C121.618 27.3415 122.023 25.5962 123.5 23.4591C123.628 23.312 123.661 23.1798 123.57 23.0039C123.511 22.823 123.417 22.7743 123.229 22.7724C122.54 22.7546 121.949 22.4993 121.674 22.0989C121.459 21.8157 121.435 21.3754 121.567 20.9738C121.634 20.7095 121.544 20.5018 121.294 20.4462C121.044 20.3906 120.823 20.5208 120.693 20.7633C120.596 20.9691 120.498 21.1748 120.369 21.4174C119.847 22.6419 119.162 24.273 118.196 25.8852C118.034 26.1645 118.093 26.409 118.342 26.5282C118.59 26.6474 118.843 26.544 119.004 26.2647C119.714 25.0103 120.203 23.8861 120.787 22.6516L122.242 23.7535L122.014 24.2336C120.918 26.0884 120.643 27.5912 121.127 28.5929C121.461 29.2378 122.053 29.4931 122.869 29.3637Z" fill="#E9EDEA"/>
<path d="M136.027 27.6605C136.749 27.546 137.761 27.0051 139.232 25.2179C139.488 24.9236 139.712 24.6344 139.969 24.2447C141.81 24.7144 144.455 25.8181 147.282 25.3702C149.607 25.002 150.946 23.6481 152.647 21.1899C152.743 21.0796 152.776 20.9792 152.778 20.852C152.78 20.7248 152.719 20.6075 152.595 20.532C152.471 20.4883 152.377 20.4396 152.283 20.4546C152.158 20.4745 152.03 20.5898 151.934 20.7319C150.329 23.0161 149.183 24.1176 147.298 24.4161C144.753 24.8192 142.232 23.7911 140.516 23.3651C141.355 21.9317 142.231 20.1118 143.204 18.0861C148.091 16.2653 153.994 11.746 156.967 6.29505C157.678 5.00885 158.17 3.66207 158.19 2.48533C158.204 1.62664 157.964 0.966766 157.251 0.540549C156.785 0.265348 156.285 0.217746 155.688 0.312288C153.74 0.620791 151.388 2.61099 149.596 4.89326C146.779 8.4797 144.539 13.1801 142.558 17.3637C141.834 17.6054 141.11 17.7834 140.45 17.8879C140.387 17.8979 140.356 17.9028 140.325 17.9078C138.597 18.1497 137.352 17.6808 136.838 16.5569C136.687 16.2001 136.6 15.738 136.608 15.2927C136.625 14.275 137.084 13.0286 137.852 12.0823C137.948 11.9402 137.949 11.8766 137.951 11.7494C137.954 11.5903 137.924 11.4999 137.8 11.4244C137.707 11.3439 137.645 11.3221 137.488 11.3469C137.362 11.3668 137.268 11.4136 137.14 11.5607C136.18 12.7595 135.687 14.1381 135.666 15.4102C135.655 16.0463 135.772 16.5671 135.983 17.0729C136.376 17.9623 137.388 19.2929 140.277 18.8669C140.34 18.8569 140.403 18.847 140.466 18.837L142.038 18.4928C141.163 20.281 140.383 21.927 139.611 23.1595C138.955 23.0414 138.36 22.9769 137.764 23.0714C136.004 23.3501 134.629 25.0588 134.606 26.3946C134.591 27.3487 135.21 27.7898 136.027 27.6605ZM143.756 16.9202C145.607 13.0428 147.716 8.68026 150.276 5.41987C152.421 2.70122 154.446 1.49226 155.672 1.2982C156.08 1.23351 156.455 1.26921 156.704 1.42023C157.045 1.61992 157.225 2.06712 157.214 2.735C157.202 3.49829 156.902 4.59259 156.158 5.94737C153.508 10.8079 148.175 15.015 143.756 16.9202ZM136.107 26.601C135.73 26.6607 135.545 26.4679 135.55 26.1499C135.562 25.4502 136.522 24.2196 137.779 24.0206L139.128 23.9338C137.75 25.7698 136.704 26.5064 136.107 26.601Z" fill="#E9EDEA"/>
<path d="M154.92 24.1605C156.931 23.8421 159.181 22.312 160.886 19.6312C161.079 19.347 161.02 19.1025 160.771 18.9833C160.554 18.8591 160.302 18.9307 160.141 19.21C159.016 20.9425 156.466 23.5351 153.964 23.2334C153.433 23.159 152.654 22.87 152.637 21.9844C153.925 21.8122 155.379 21.0745 156.298 20.4531C157.755 19.461 158.244 18.3686 158.256 17.6371L158.257 17.5735C158.241 16.6562 157.498 16.1077 156.461 16.2719C154.136 16.6401 151.731 19.9393 151.696 22.0701C151.677 23.215 152.447 24.0129 153.698 24.1638C154.073 24.2313 154.48 24.2302 154.92 24.1605ZM152.81 21.0055C153.274 19.5046 154.969 17.4599 156.445 17.226C157.293 17.0917 157.315 17.6592 157.314 17.7546C157.309 18.0408 157.013 18.9125 155.903 19.6591C155.143 20.1602 153.879 20.8363 152.81 21.0055Z" fill="#E9EDEA"/>
<path d="M163.757 12.4835C164.166 12.4188 164.549 12.0093 164.555 11.6276C164.56 11.3096 164.251 11.0731 163.905 11.1279C163.685 11.1627 163.528 11.2194 163.369 11.3715C163.177 11.5603 163.081 11.7343 163.077 11.9569C163.072 12.2749 163.38 12.5432 163.757 12.4835ZM161.954 22.983C163.431 22.7492 165.054 21.2232 166.379 18.7612C166.509 18.4868 166.451 18.2424 166.201 18.155C165.953 18.0357 165.7 18.1392 165.571 18.4135C164.277 20.807 162.818 21.8946 161.97 22.0289C161.561 22.0936 161.124 22.0042 160.909 21.7846C160.692 21.6287 160.603 21.2937 160.64 20.9707C160.727 19.5296 161.99 17.0457 162.473 16.2396C162.634 15.9603 162.576 15.7158 162.327 15.5966C162.078 15.5092 161.826 15.5808 161.665 15.8601C161.6 15.9973 159.826 19.0696 159.699 21.0564C159.653 21.8883 159.929 22.2887 160.206 22.562C160.607 22.9426 161.231 23.0975 161.954 22.983Z" fill="#E9EDEA"/>
<path d="M174.864 16.9415C174.616 16.8223 174.394 16.9525 174.233 17.2318C173.779 18.1284 173.048 18.7835 172.325 18.8979C171.728 18.9925 171.107 18.6785 170.834 18.1509C170.802 18.1558 170.803 18.124 170.803 18.0922C170.744 17.8796 170.685 17.6351 170.595 17.3956C170.115 16.1076 169.213 13.8716 169.213 13.8398C169.122 13.6639 169.029 13.5835 168.841 13.6133C168.621 13.6163 168.495 13.6681 168.366 13.8788C168.366 13.8788 166.532 16.7703 165.468 18.5883C165.307 18.8676 165.366 19.1121 165.615 19.1995C165.863 19.3187 166.116 19.2153 166.277 18.9678C166.955 17.7502 167.922 16.1061 168.628 15.1061C168.777 15.5583 169.38 17.0172 169.71 17.8847C169.981 18.5714 169.902 19.5037 169.484 20.1727C169.194 20.6309 168.719 20.96 168.185 21.0445C167.965 21.0794 167.684 21.0287 167.561 20.8578C167.47 20.6819 167.506 20.3907 167.539 20.3221C167.856 20.1134 167.986 19.839 167.896 19.5677C167.775 19.3014 167.557 19.2408 167.272 19.381C166.798 19.6465 166.473 20.3641 166.588 20.9803C166.701 21.6919 167.352 22.128 168.169 21.9987C169.049 21.8593 169.746 21.3682 170.26 20.5889C170.454 20.241 170.617 19.8981 170.717 19.5333C171.151 19.8135 171.681 19.9516 172.278 19.857L172.309 19.852C173.409 19.6779 174.362 18.8925 175.042 17.5477C175.204 17.2684 175.145 17.0239 174.864 16.9415Z" fill="#E9EDEA"/>
<path d="M184.298 15.4474C184.049 15.3282 183.796 15.4634 183.635 15.7109C181.954 18.832 180.603 19.0459 180.259 19.037C179.695 19.0312 179.452 18.5621 179.484 18.5254C179.461 18.0533 180.602 15.3348 181.64 13.2038C181.673 13.1352 181.673 13.1034 181.674 13.0398C181.706 13.003 181.707 12.9712 181.739 12.9344C181.837 12.6651 181.747 12.4256 181.466 12.3749C181.217 12.2875 180.964 12.4228 180.865 12.7239C180.44 13.8063 178.89 16.5895 178.088 17.6998C176.837 19.4204 175.574 20.0011 175.138 19.8481C174.857 19.7657 174.681 19.0958 174.981 18.0015C175.248 17.0076 175.766 16.0057 176.542 14.5187L176.963 13.7226C177.093 13.4482 177.034 13.2356 176.785 13.1164C176.536 13.0289 176.283 13.1324 176.154 13.4067L175.733 14.2029C174.892 15.7634 174.374 16.7971 174.074 17.8914C173.474 20.08 174.279 20.6185 174.715 20.7715C174.933 20.8639 175.153 20.8608 175.435 20.8161C176.378 20.6668 177.488 19.8566 178.544 18.5156C178.543 18.5792 178.543 18.611 178.542 18.6428C178.531 19.3425 179.085 19.9208 179.898 20.0141C180.055 20.021 180.243 20.023 180.463 19.9881C181.436 19.8339 182.828 19.0743 184.444 16.0904C184.605 15.8111 184.547 15.5666 184.298 15.4474Z" fill="#E9EDEA"/>
<path d="M188.463 18.9747C190.851 18.5965 192.82 15.1126 193.046 14.6961C193.208 14.4168 193.149 14.1724 192.9 14.085C192.651 13.9657 192.399 14.0692 192.237 14.3485C191.752 15.25 190.05 17.7718 188.479 18.0206C187.914 18.1101 187.668 17.8001 187.577 17.656C187.212 16.9524 187.617 15.2071 189.094 13.07C189.222 12.9229 189.255 12.7907 189.164 12.6148C189.104 12.434 189.011 12.3853 188.823 12.3833C188.134 12.3656 187.543 12.1103 187.268 11.7098C187.053 11.4266 187.029 10.9863 187.161 10.5848C187.228 10.3204 187.138 10.1127 186.888 10.0571C186.638 10.0015 186.417 10.1317 186.287 10.3743C186.19 10.58 186.092 10.7858 185.963 11.0283C185.441 12.2528 184.756 13.8839 183.79 15.4962C183.628 15.7755 183.687 16.0199 183.936 16.1391C184.184 16.2584 184.437 16.1549 184.598 15.8756C185.308 14.6212 185.797 13.4971 186.381 12.2626L187.836 13.3645L187.608 13.8446C186.512 15.6993 186.237 17.2021 186.721 18.2038C187.055 18.8488 187.647 19.104 188.463 18.9747Z" fill="#E9EDEA"/>
<path d="M195.234 17.7755C197.244 17.457 199.494 15.927 201.2 13.2462C201.392 12.9619 201.334 12.7174 201.085 12.5982C200.868 12.474 200.616 12.5457 200.455 12.825C199.329 14.5575 196.779 17.15 194.278 16.8484C193.746 16.774 192.968 16.4849 192.951 15.5994C194.239 15.4272 195.692 14.6894 196.611 14.0681C198.069 13.0759 198.557 11.9836 198.569 11.2521L198.57 11.1885C198.554 10.2711 197.811 9.72269 196.775 9.88689C194.45 10.2551 192.045 13.5542 192.01 15.6851C191.991 16.83 192.761 17.6279 194.012 17.7787C194.387 17.8462 194.794 17.8451 195.234 17.7755ZM193.124 14.6204C193.588 13.1196 195.282 11.0749 196.759 10.841C197.607 10.7067 197.629 11.2741 197.627 11.3695C197.623 11.6558 197.326 12.5275 196.217 13.2741C195.457 13.7751 194.192 14.4512 193.124 14.6204Z" fill="#E9EDEA"/>
</svg>
