<svg xmlns="http://www.w3.org/2000/svg" viewBox="0 0 646 524"><defs><style>.cls-1{fill:#3f47f5;}</style></defs><title>body_1</title><g id="Layer_2" data-name="Layer 2"><g id="Layer_1-2" data-name="Layer 1"><path class="cls-1" d="M605.84,524H40.16A40.21,40.21,0,0,1,0,483.84V40.16A40.21,40.21,0,0,1,40.16,0H605.84A40.21,40.21,0,0,1,646,40.16V483.84A40.21,40.21,0,0,1,605.84,524ZM40.16,30A10.17,10.17,0,0,0,30,40.16V483.84A10.17,10.17,0,0,0,40.16,494H605.84A10.17,10.17,0,0,0,616,483.84V40.16A10.17,10.17,0,0,0,605.84,30Z"/><path class="cls-1" d="M414.63,86.58a10.8,10.8,0,1,1,10.79,10.8A10.63,10.63,0,0,1,414.63,86.58Z"/><path class="cls-1" d="M459.06,59.22h21.09c11.05,0,17.07,5.4,17.07,14.18a13.67,13.67,0,0,1-8.72,13.18L499,102.4H486.43l-9-14.31h-6.84V102.4H459.06ZM470.61,68V79.55h8.54c4,0,6.27-2.38,6.27-6,0-3.39-2.26-5.52-6.27-5.52Z"/><path class="cls-1" d="M505.76,59.22h33.89v9.29H517.31V76h18.32v8.54H517.31v8.53H540.4v9.29H505.76Z"/><path class="cls-1" d="M566.51,58.47c11.3,0,18.58,5.83,20.09,15.81H575.3c-1.13-4.08-4.14-6.27-8.79-6.27C559.73,68,556,73.28,556,80.81s4,12.8,10.79,12.8c4.9,0,7.41-2.19,8.54-6.27h11.3c-1.51,10-8.79,15.81-20.09,15.81-14.75,0-22.34-9.79-22.34-22.34S552.52,58.47,566.51,58.47Z"/><path class="cls-1" d="M158.67,509c-15.17-90.54-16.35-190.42-3.14-297.77.84-6.79,9.41-11.69,17-11.25s7.82,5.09,7.93,7.4c0,0,0,0,0,.06l-.21,6.28c-.93,28.54-1.8,55.51-1.8,65.6a11.6,11.6,0,1,0,23.2,0c0-9.71.87-36.5,1.79-64.84,1-30.73,2-62.51,2-75.25s7.86-17.11,14.59-17.11c6.93,0,14.34,4.64,14.34,17.66V259.85a11.6,11.6,0,1,0,23.2,0V119.35a10.6,10.6,0,0,0-.51-2.54,11,11,0,0,0,.51-2.55c0-10.84,2.94-16.7,5.41-19.71,7.89-9.66,24.27-3.19,24.28,18.42V247.88a11.6,11.6,0,0,0,23.2,0V148.35c0-6.61,1.59-11.81,4.59-15a11.48,11.48,0,0,1,8.6-3.66c7.57,0,15.21,6.22,15.21,18.12,0,13.3-.1,27.66-.22,43.28-.24,33-.52,73.5.11,121.61-36.14-.12-73.65,23-111.88,69.36a11.6,11.6,0,1,0,17.9,14.77c42.77-51.83,82.52-70.65,118.12-56a10.17,10.17,0,0,0,1.44.28,12.19,12.19,0,0,0,2.91.57,11.63,11.63,0,0,0,2.4-.43,11,11,0,0,0,2-.41A11.86,11.86,0,0,0,374.5,339c.27-.23.61-.31.87-.56l.09-.08,0,0c37.12-35.8,58.8-43.1,70.33-42.51a21.5,21.5,0,0,1,7.16,1.38L346.76,410.6c-.09.1-.11.24-.21.33a11.77,11.77,0,0,0-1.32,2.16,11.38,11.38,0,0,0-.94,1.75,9.89,9.89,0,0,0-.31,2,10.71,10.71,0,0,0-.26,2.51c0,.13,0,.25,0,.39A719.06,719.06,0,0,0,358.11,509h24a673.54,673.54,0,0,1-14.73-86.45l111.45-119a11.61,11.61,0,0,0,.12-15.74c-8.82-9.67-19.7-14.78-32.36-15.19-22.58-.72-49.42,13.89-82,44.19-.86-.28-1.73-.56-2.6-.81-.69-49.47-.4-91.08-.15-124.76.11-15.68.22-30.09.22-43.45,0-26.83-19.79-41.32-38.41-41.32a35.44,35.44,0,0,0-13.52,2.69c-1.67-27.41-20.45-42.29-38.35-42.29a34.15,34.15,0,0,0-26.77,13c-4.88,6-8,13.65-9.57,22.49A36.94,36.94,0,0,0,220,98.93c-18.33,0-37.79,14.13-37.79,40.32,0,7.44-.37,21.9-.88,38.86a34.77,34.77,0,0,0-7.93-1.3c-17.7-.63-38.44,11.16-40.95,31.6-13.3,108.06-12.27,208.86,2.67,300.59Z"/><path class="cls-1" d="M385.93,512H355.72l-.53-2.33A727.73,727.73,0,0,1,340.7,420a3.23,3.23,0,0,1,0-.79,12,12,0,0,1,.24-2.55l.06-.35c0-.08,0-.24,0-.39a8.45,8.45,0,0,1,.4-2.08,8.83,8.83,0,0,1,.89-1.77c.08-.14.17-.28.25-.43l.17-.32a12.38,12.38,0,0,1,1.34-2.14,3.21,3.21,0,0,1,.48-.64L447.27,298.9c-.5,0-1-.08-1.53-.1-20.6-1-51.55,25.65-68.16,41.67l-.35.31a4.63,4.63,0,0,1-.92.59h0a14.88,14.88,0,0,1-3.58,2.22,8.38,8.38,0,0,1-2,.48,4,4,0,0,0-.48.08l-.5.11a10.15,10.15,0,0,1-2.52.38,12.85,12.85,0,0,1-3.3-.57l-.38-.1-.18,0a5.53,5.53,0,0,1-1.64-.39c-34.26-14.1-72.84,4.46-114.66,55.14a14.6,14.6,0,0,1-22.53-18.59c37.62-45.58,75-69.25,111.16-70.41-.59-47.83-.29-88.68-.07-118.68.11-14.57.22-29.64.22-43.25,0-10.39-6.33-15.12-12.21-15.12a8.43,8.43,0,0,0-6.41,2.7c-2.47,2.66-3.78,7.16-3.78,13v99.53a14.6,14.6,0,0,1-29.2,0V113c0-7.31-2.52-16.75-9.62-19.28a8.18,8.18,0,0,0-9.34,2.75c-2.16,2.64-4.73,7.87-4.73,17.82a9.33,9.33,0,0,1-.4,2.54,9.4,9.4,0,0,1,.4,2.55v140.5a14.6,14.6,0,1,1-29.2,0V139.78c0-9.18-4.24-14.66-11.34-14.66-5.6,0-11.59,3.71-11.59,14.11,0,12.43-1,43.07-1.94,72.71l-.11,3.53c-.9,27.92-1.76,54.29-1.76,63.85a14.6,14.6,0,1,1-29.2,0c0-10.37.92-38.49,1.8-65.69l.2-6v-.18c-.11-2.32-.23-4.31-5-4.5-6.59-.39-13.3,3.81-13.89,8.63-13.1,106.44-12,206.33,3.12,296.9l.59,3.5H132.6l-.41-2.52c-15-92.33-15.94-193.75-2.68-301.44,2.7-22,25-34.88,44-34.23a35.8,35.8,0,0,1,4.93.56c.52-17.82.77-29,.77-35.12,0-28.14,21-43.32,40.79-43.32a39.4,39.4,0,0,1,13.21,2.29A48.74,48.74,0,0,1,242.72,78a37.09,37.09,0,0,1,29.09-14.09c18.31,0,37.7,14.13,41,41.19a37.85,37.85,0,0,1,10.88-1.59c20.07,0,41.41,15.54,41.41,44.32,0,13.62-.12,28.79-.22,43.47-.24,32.51-.53,72.77.1,121.14,32.26-29.5,59-43.52,81.73-42.78,13.48.44,25.08,5.87,34.47,16.17A14.67,14.67,0,0,1,481,305.6l-110.51,118A672.27,672.27,0,0,0,385,508.29Zm-25.42-6h17.81a684.25,684.25,0,0,1-13.91-83.13l-.15-1.36,112.39-120a8.66,8.66,0,0,0,.09-11.67c-8.26-9.05-18.43-13.83-30.24-14.21-21.6-.66-47.73,13.5-79.84,43.39l-1.29,1.2-1.68-.55c-.83-.27-1.68-.54-2.52-.78l-2.12-.63,0-2.21c-.69-50-.4-91.5-.15-124.82.1-14.67.22-29.84.22-43.43,0-18.57-12.41-38.32-35.41-38.32a32.4,32.4,0,0,0-12.38,2.47l-3.88,1.59-.25-4.18c-1.58-25.92-19-39.48-35.36-39.48a31.17,31.17,0,0,0-24.44,11.89c-4.45,5.43-7.45,12.53-8.94,21.11l-.67,3.83-3.54-1.62A33.83,33.83,0,0,0,220,101.93c-22.6,0-34.79,19.23-34.79,37.32,0,6.56-.28,18.94-.89,38.95l-.11,3.81-3.68-1a31.62,31.62,0,0,0-7.25-1.19c-16.42-.59-35.57,10.33-37.85,29C122.4,314.92,123.16,414.9,137.71,506h17.43c-14.72-90.21-15.59-189.49-2.59-295.14,1.09-8.81,11.49-14.36,20.14-13.88,6.67.26,10.29,3.57,10.72,9.84l0,.09v.53l-.21,6.38c-.88,27.15-1.8,55.23-1.8,65.5a8.6,8.6,0,1,0,17.2,0c0-9.66.86-36.08,1.76-64l.12-3.52c.95-29.59,1.93-60.19,1.93-72.52,0-13.89,8.84-20.11,17.59-20.11,8,0,17.34,5.41,17.34,20.66V259.85a8.6,8.6,0,1,0,17.2,0V119.35a4.88,4.88,0,0,0-.22-1.08l-.21-.77-.16-.69.16-.68.21-.8a4.93,4.93,0,0,0,.22-1.07c0-11.73,3.31-18.23,6.09-21.62a14.12,14.12,0,0,1,16-4.6c6.58,2.34,13.6,10.12,13.61,24.93V247.88a8.6,8.6,0,0,0,17.2,0V148.35c0-7.37,1.86-13.28,5.39-17.07a14.41,14.41,0,0,1,10.8-4.62c9,0,18.21,7.26,18.21,21.12,0,13.63-.11,28.71-.22,43.3-.22,30.59-.53,72.48.11,121.55l0,3.05h-3.31c-35.14,0-71.91,23-109.3,68.27a8.6,8.6,0,1,0,13.27,10.95C286.12,342,327,322.84,363.94,338l.14,0a7.11,7.11,0,0,1,1,.18l.4.11a8.45,8.45,0,0,0,1.76.36,5.59,5.59,0,0,0,1.07-.21l.66-.15c.31-.07.6-.11.88-.15a5.42,5.42,0,0,0,.61-.11,9.39,9.39,0,0,0,2.1-1.37,5,5,0,0,1,.87-.57l0,0C411.77,299.2,434,292.19,446,292.8a24.55,24.55,0,0,1,8.08,1.58l4.16,1.6L349.16,412.43a2.86,2.86,0,0,1-.37.49,8.65,8.65,0,0,0-.71,1.19l-.21.4c-.13.25-.27.47-.4.69a3.45,3.45,0,0,0-.33.59,3.31,3.31,0,0,0-.11.72c0,.23,0,.47-.08.71l-.08.45a6.3,6.3,0,0,0-.15,1.43,4,4,0,0,1,0,.62A721.93,721.93,0,0,0,360.51,506Zm-19.78-86.55v0ZM364,338h0Zm-.15,0Z"/></g></g></svg>