<?xml version="1.0" standalone="no"?>
<!DOCTYPE svg PUBLIC "-//W3C//DTD SVG 20010904//EN"
 "http://www.w3.org/TR/2001/REC-SVG-20010904/DTD/svg10.dtd">
<svg version="1.0" xmlns="http://www.w3.org/2000/svg"
 width="500.000000pt" height="500.000000pt" viewBox="0 0 500.000000 500.000000"
 preserveAspectRatio="xMidYMid meet">
<metadata>
Created by potrace 1.11, written by Peter Selinger 2001-2013
</metadata>
<g transform="translate(0.000000,500.000000) scale(0.100000,-0.100000)"
fill="#000000" stroke="none">
<path d="M283 4981 c-109 -37 -193 -113 -246 -221 l-32 -65 0 -2195 0 -2195
31 -65 c40 -84 117 -161 203 -203 l66 -32 2175 -2 c2376 -3 2216 -7 2318 54
87 50 156 141 191 252 8 24 11 679 11 2191 0 2141 0 2158 -20 2216 -40 116
-112 196 -220 248 l-65 31 -2180 2 c-2068 2 -2183 1 -2232 -16z"/>
</g>
</svg>
