<?xml version="1.0" standalone="no"?>
<!DOCTYPE svg PUBLIC "-//W3C//DTD SVG 20010904//EN"
 "http://www.w3.org/TR/2001/REC-SVG-20010904/DTD/svg10.dtd">
<svg version="1.0" xmlns="http://www.w3.org/2000/svg"
 width="260.000000pt" height="260.000000pt" viewBox="0 0 260.000000 260.000000"
 preserveAspectRatio="xMidYMid meet">
<metadata>
Created by potrace 1.11, written by Peter Selinger 2001-2013
</metadata>
<g transform="translate(0.000000,260.000000) scale(0.100000,-0.100000)"
fill="#000000" stroke="none">
<path d="M1117 1989 c-438 -62 -828 -364 -1001 -775 -34 -81 -71 -208 -81
-279 -4 -22 -8 -51 -10 -65 -7 -41 -8 -140 -2 -146 3 -4 41 -6 84 -6 131 0
119 -6 121 60 1 31 4 68 7 82 2 13 7 42 11 65 9 66 63 215 105 295 168 312
483 528 824 565 75 8 230 6 285 -5 30 -6 68 -13 84 -16 45 -8 144 -43 215 -76
107 -50 201 -117 296 -213 198 -197 301 -426 317 -703 3 -59 -7 -54 120 -54
104 -1 99 -9 83 142 -47 462 -372 887 -800 1049 -33 13 -69 27 -80 31 -119 48
-409 73 -578 49z"/>
<path d="M1188 1725 c-1 -2 -28 -6 -58 -10 -115 -14 -298 -88 -403 -163 -247
-176 -407 -444 -433 -725 -3 -40 -8 -74 -10 -76 -2 -2 1 -11 5 -20 7 -13 24
-16 88 -14 118 2 125 2 120 11 -8 12 21 184 41 242 91 260 301 457 562 525
202 52 408 25 593 -79 138 -76 244 -186 318 -329 55 -106 75 -175 86 -290 3
-37 10 -70 16 -74 5 -3 52 -6 103 -7 l94 -1 0 55 c0 195 -104 454 -243 607
-66 73 -88 94 -150 142 -119 94 -281 166 -437 195 -65 12 -282 21 -292 11z"/>
<path d="M1150 1444 c-250 -52 -456 -231 -547 -474 -24 -64 -32 -100 -40 -187
-4 -49 -2 -63 8 -64 59 -4 178 -1 187 5 7 4 12 22 12 39 0 18 6 55 14 82 113
427 651 546 929 206 66 -81 117 -208 117 -293 0 -43 -11 -39 125 -40 l80 -1
-1 59 c-1 61 -3 78 -24 154 -55 204 -229 393 -440 478 -54 22 -64 25 -148 41
-64 13 -198 10 -272 -5z"/>
</g>
</svg>
