<svg width="254" height="252" viewBox="0 0 254 252" fill="none" xmlns="http://www.w3.org/2000/svg">
<g clip-path="url(#clip0_1_10)">
<path d="M216.136 214.007H178.55V155.725C178.55 141.828 178.299 123.937 159.001 123.937C139.425 123.937 136.43 139.079 136.43 154.714V214.003H98.8436V94.1525H134.926V110.531H135.431C139.043 104.418 144.261 99.3889 150.53 95.9797C156.799 92.5704 163.885 90.9086 171.033 91.1713C209.128 91.1713 216.152 115.982 216.152 148.259L216.136 214.007ZM56.434 77.7697C52.1201 77.7705 47.9027 76.5046 44.3153 74.1321C40.728 71.7597 37.9319 68.3872 36.2803 64.4412C34.6287 60.4952 34.1959 56.1528 35.0368 51.9633C35.8776 47.7738 37.9543 43.9252 41.0042 40.9043C44.0541 37.8834 47.9402 35.8258 52.1711 34.9917C56.402 34.1576 60.7876 34.5845 64.7735 36.2184C68.7593 37.8523 72.1663 40.6199 74.5637 44.171C76.961 47.7222 78.2411 51.8975 78.2418 56.169C78.2424 59.0051 77.6786 61.8136 76.5829 64.434C75.4873 67.0545 73.8812 69.4356 71.8562 71.4414C69.8311 73.4472 67.4268 75.0384 64.7806 76.1242C62.1345 77.2101 59.2984 77.7692 56.434 77.7697ZM75.227 214.007H37.6018V94.1525H75.227V214.007ZM234.874 0.0155253H18.7149C13.8087 -0.0392959 9.08096 1.83676 5.57102 5.23144C2.06109 8.62613 0.056059 13.2617 -0.00381851 18.1195V233.038C0.0540097 237.898 2.05786 242.537 5.56768 245.935C9.0775 249.333 13.8062 251.213 18.7149 251.161H234.874C239.793 251.222 244.534 249.348 248.058 245.95C251.582 242.552 253.599 237.908 253.667 233.038V18.104C253.597 13.2366 251.578 8.59571 248.055 5.20111C244.531 1.80651 239.79 -0.0641836 234.874 1.23923e-05" fill="#1ABCFE"/>
</g>
<defs>
<clipPath id="clip0_1_10">
<rect width="254" height="252" fill="white"/>
</clipPath>
</defs>
</svg>
