<svg width="450" height="451" viewBox="0 0 450 451" fill="none" xmlns="http://www.w3.org/2000/svg">
<path d="M225.473 225.5C225.473 184.501 258.709 151.264 299.709 151.264C340.708 151.264 373.946 184.501 373.946 225.5C373.946 266.5 340.708 299.736 299.709 299.736C258.709 299.736 225.473 266.5 225.473 225.5Z" fill="#1ABCFE"/>
<path d="M77 373.973C77 332.974 110.237 299.736 151.236 299.736H225.473V373.973C225.473 414.973 192.236 448.209 151.236 448.209C110.237 448.209 77 414.973 77 373.973Z" fill="#0ACF83"/>
<path d="M225.473 2.7911V151.264H299.709C340.709 151.264 373.946 118.027 373.946 77.0275C373.946 36.0279 340.709 2.7911 299.709 2.7911H225.473Z" fill="#FF7262"/>
<path d="M77 77.0275C77 118.027 110.237 151.264 151.236 151.264H225.473V2.79105H151.236C110.237 2.79105 77 36.0278 77 77.0275Z" fill="#F24E1E"/>
<path d="M77 225.5C77 266.5 110.237 299.736 151.236 299.736H225.473V151.264H151.236C110.237 151.264 77 184.501 77 225.5Z" fill="#A259FF"/>
</svg>
