<svg width="71" height="21" viewBox="0 0 71 21" fill="none" xmlns="http://www.w3.org/2000/svg">
<path d="M69.0255 20.264C68.0655 20.264 67.2495 19.496 67.2495 18.512C67.2495 17.456 68.0895 16.592 69.0735 16.592C70.0575 16.592 70.8495 17.432 70.8495 18.392C70.8495 19.424 70.0095 20.264 69.0255 20.264Z" fill="#161514"/>
<path d="M56.9389 20C56.3389 20 56.0269 19.616 56.0269 19.088C56.0269 18.728 56.1949 18.416 56.6509 18.2C57.3229 17.888 57.4429 17.528 57.4429 16.688V5.16801C57.4429 4.28001 57.2989 3.89601 56.6029 3.56001C56.1709 3.32001 56.0029 3.03201 56.0029 2.67201C56.0269 2.04801 56.4109 1.76001 56.9149 1.76001H64.4989C65.2189 1.76001 65.6029 1.97601 65.7949 2.55201C66.1549 3.56001 66.5149 5.16801 66.5149 5.81601C66.5149 6.27201 66.2269 6.48801 65.8909 6.48801C65.4589 6.48801 64.9789 5.98401 64.2829 5.26401C63.3709 4.23201 62.7469 3.72801 61.7149 3.72801C60.7789 3.72801 60.4429 4.18401 60.4429 5.38401V8.86401C60.4429 9.29601 60.5629 9.41601 61.0429 9.41601H64.5709C64.9789 9.41601 65.2429 9.58401 65.2429 10.088C65.2429 10.664 64.9789 11.6 64.6429 12.128C64.4989 12.368 64.3069 12.488 64.0909 12.488C63.3229 12.488 62.2669 11.36 61.0909 11.384C60.6589 11.408 60.4669 11.672 60.4669 12.296V16.928C60.4669 17.84 60.9709 18.032 61.9549 18.032C62.9869 18.032 63.6589 17.648 64.5469 16.544C65.4349 15.44 65.7949 14.984 66.2749 14.984C66.6349 14.984 66.8989 15.248 66.8989 15.704C66.8989 16.208 66.5629 17.936 66.2749 18.8C66.0589 19.616 65.7949 20 65.0989 20H56.9389Z" fill="#161514"/>
<path d="M45.5449 20C45.0409 20 44.6809 19.712 44.6809 19.16C44.6809 18.824 44.8249 18.584 45.3289 18.296C45.7609 18.032 45.8809 17.696 45.8809 16.832V8.40805C45.8809 7.59205 45.7369 7.18405 45.1369 6.87205C44.7289 6.65605 44.6089 6.39205 44.6089 6.05605C44.6089 5.50405 44.9689 5.24005 45.4729 5.24005H47.6809C48.1129 5.24005 48.3289 5.45605 48.4489 5.96005L48.5449 6.32005C48.6169 6.56005 48.7849 6.56005 48.9529 6.34405C49.6249 5.40805 50.2969 5.02405 50.9449 5.02405C51.7129 5.02405 52.0729 5.52805 52.0729 6.58405C52.0729 7.95205 51.8089 9.27205 51.1369 9.27205C50.8729 9.27205 50.7049 9.10405 50.5129 8.64805C50.2729 8.16805 50.0809 7.97605 49.7689 7.97605C49.2409 7.97605 48.7609 8.67205 48.7609 9.53605L48.7849 16.856C48.7849 17.696 48.9289 18.056 49.4569 18.32C50.0329 18.584 50.2249 18.824 50.2249 19.16C50.2249 19.712 49.7929 20 49.1929 20H45.5449Z" fill="#161514"/>
<path d="M40.1908 20.264C37.1428 20.264 34.8628 17.144 34.8148 12.68C34.7428 8.33603 37.1188 4.95203 40.1188 4.95203C42.7108 4.95203 44.6548 7.49603 44.6548 10.736C44.6548 12.296 43.9588 13.136 42.6388 13.232C41.8708 13.304 40.9828 13.376 40.3828 13.544C39.7828 13.712 39.0148 13.976 38.4868 14.312C38.2228 14.456 38.0788 14.6 38.0788 14.816C38.0788 15.08 38.1508 15.32 38.2708 15.56C38.7268 16.832 39.5908 17.624 40.5508 17.624C41.6548 17.624 42.3748 16.688 42.8308 15.224C42.9988 14.672 43.1668 14.576 43.8148 14.744C44.4388 14.888 44.5828 15.2 44.4148 15.944C43.7668 18.728 42.4468 20.264 40.1908 20.264ZM37.5988 11.408C37.5988 12.152 37.6708 12.656 37.9348 12.656C38.0308 12.656 38.1028 12.608 38.2708 12.488C38.9908 11.888 39.9508 11.504 41.0068 11.36C41.5588 11.24 41.7508 10.976 41.7508 10.448C41.7508 8.55203 40.8388 6.94403 39.7588 6.94403C38.5348 6.94403 37.5988 8.79203 37.5988 11.408Z" fill="#161514"/>
<path d="M29.7383 20.072C29.5223 20.072 29.1623 20.072 28.9703 20.048C28.3223 20 28.0583 19.712 27.7943 18.968C26.9063 16.592 25.8743 12.056 25.2983 8.19199C25.2263 7.59199 25.0343 7.25599 24.6263 6.91999C24.3623 6.70399 24.2423 6.46399 24.2423 6.10399C24.2423 5.59999 24.5783 5.23999 25.1543 5.23999H28.4663C28.9943 5.23999 29.2823 5.55199 29.2823 6.05599C29.2823 6.43999 29.1383 6.72799 28.8263 6.96799C28.4423 7.25599 28.3223 7.54399 28.3703 8.16799C28.6343 10.736 29.3303 14.072 29.9783 16.064C30.0743 16.4 30.3863 16.376 30.4583 16.064C31.1543 13.688 31.7303 10.304 31.9943 8.14399C32.0903 7.51999 31.9703 7.25599 31.5863 6.96799C31.2503 6.70399 31.0583 6.46399 31.0583 6.07999C31.0583 5.57599 31.4183 5.23999 31.8743 5.23999H34.2263C34.8023 5.23999 35.1143 5.55199 35.1143 6.05599C35.1143 6.43999 34.8983 6.72799 34.6583 6.96799C34.3463 7.25599 34.1783 7.56799 34.1063 8.16799C33.7223 11.456 32.6903 16.136 31.7063 19.064C31.4903 19.736 31.2023 20.072 30.6263 20.072H29.7383Z" fill="#161514"/>
<path d="M20.1671 4.16003C19.7351 4.16003 19.3991 3.87203 19.3991 3.36803C19.3991 2.28803 20.2391 1.28003 21.3911 1.28003C22.5431 1.28003 23.4071 2.28803 23.4071 3.36803C23.4071 3.87203 23.1191 4.16003 22.6391 4.16003H20.1671ZM19.0631 6.05603C19.0631 5.50403 19.4231 5.24003 19.9511 5.24003H22.2551C22.9751 5.24003 23.3351 5.60003 23.3351 6.32003V16.808C23.3111 17.672 23.4551 18.032 23.9111 18.296C24.4391 18.56 24.6071 18.8 24.6071 19.16C24.6071 19.712 24.1991 20 23.6711 20H19.9991C19.5191 20 19.1351 19.712 19.1351 19.16C19.1351 18.824 19.3031 18.584 19.7831 18.296C20.2151 18.032 20.3351 17.696 20.3351 16.832V8.40803C20.3351 7.59203 20.1911 7.18403 19.6151 6.87203C19.1831 6.65603 19.0631 6.39203 19.0631 6.05603Z" fill="#161514"/>
<path d="M13.8351 20C13.3311 20 12.9471 19.712 12.9471 19.16C12.9471 18.824 13.1151 18.584 13.5951 18.296C14.0511 18.032 14.1711 17.6961 14.1471 16.8321V3.96805C14.1711 3.15205 14.0271 2.74405 13.4271 2.43205C13.0191 2.21605 12.8751 1.95205 12.8751 1.61605C12.8991 1.06405 13.2591 0.800049 13.7631 0.800049H16.1871C16.8351 0.800049 17.1711 1.11205 17.1711 1.76005V16.8081C17.1471 17.6721 17.2911 18.032 17.7471 18.296C18.2511 18.56 18.4191 18.8 18.4191 19.16C18.4191 19.712 18.0351 20 17.5071 20H13.8351Z" fill="#161514"/>
<path d="M6.69595 20.264C3.19195 20.264 0.527954 16.496 0.527954 10.64C0.527954 5.31197 3.07195 1.49597 6.76795 1.49597C10.272 1.51997 12.936 5.11997 12.936 10.88C12.936 16.352 10.392 20.264 6.69595 20.264ZM3.71995 9.05597C3.71995 13.544 5.18395 18.08 7.07995 18.08C8.66395 18.08 9.74395 15.92 9.74395 12.584C9.74395 8.09597 8.27995 3.67997 6.33595 3.67997C4.79995 3.65597 3.71995 5.76797 3.71995 9.05597Z" fill="#161514"/>
</svg>
