<svg width="50" height="50" viewBox="0 0 50 50" fill="none" xmlns="http://www.w3.org/2000/svg">
<path d="M25.0749 10C18.9551 10 14 14.8474 14 20.8344V29.1656C14 35.1526 18.9551 40 25.0749 40C31.1947 40 36.1497 35.1526 36.1497 29.1656V20.8344C36.1497 14.8474 31.1947 10 25.0749 10ZM18.64 30.9309C18.64 31.2951 18.344 31.5847 17.9717 31.5847C17.5993 31.5847 17.3034 31.2951 17.3034 30.9309V30.3238C17.3034 29.9595 17.5993 29.67 17.9717 29.67C18.344 29.67 18.64 29.9595 18.64 30.3238V30.9309ZM22.2011 35.6849C22.2011 36.0492 21.9052 36.3387 21.5328 36.3387C21.1605 36.3387 20.8645 36.0492 20.8645 35.6849V35.0778C20.8645 34.7136 21.1605 34.424 21.5328 34.424C21.9052 34.424 22.2011 34.7136 22.2011 35.0778V35.6849ZM22.2011 32.5C22.2011 32.8643 21.9052 33.1538 21.5328 33.1538C21.1605 33.1538 20.8645 32.8643 20.8645 32.5V31.8929C20.8645 31.5286 21.1605 31.2391 21.5328 31.2391C21.9052 31.2391 22.2011 31.5286 22.2011 31.8929V32.5ZM25.7623 37.17C25.7623 37.5342 25.4663 37.8238 25.094 37.8238C24.7216 37.8238 24.4257 37.5342 24.4257 37.17V36.5629C24.4257 36.1986 24.7216 35.9091 25.094 35.9091C25.4663 35.9091 25.7623 36.1986 25.7623 36.5629V37.17ZM25.7623 33.9851C25.7623 34.3493 25.4663 34.6389 25.094 34.6389C24.7216 34.6389 24.4257 34.3493 24.4257 33.9851V33.378C24.4257 33.0137 24.7216 32.7242 25.094 32.7242C25.4663 32.7242 25.7623 33.0137 25.7623 33.378V33.9851ZM29.333 35.6849C29.333 36.0492 29.037 36.3387 28.6647 36.3387C28.2923 36.3387 27.9964 36.0492 27.9964 35.6849V35.0778C27.9964 34.7136 28.2923 34.424 28.6647 34.424C29.037 34.424 29.333 34.7136 29.333 35.0778V35.6849ZM29.333 32.5C29.333 32.8643 29.037 33.1538 28.6647 33.1538C28.2923 33.1538 27.9964 32.8643 27.9964 32.5V31.8929C27.9964 31.5286 28.2923 31.2391 28.6647 31.2391C29.037 31.2391 29.333 31.5286 29.333 31.8929V32.5ZM32.8941 30.9309C32.8941 31.2951 32.5982 31.5847 32.2258 31.5847C31.8535 31.5847 31.5575 31.2951 31.5575 30.9309V30.3238C31.5575 29.9595 31.8535 29.67 32.2258 29.67C32.5982 29.67 32.8941 29.9595 32.8941 30.3238V30.9309ZM25.3899 30.3518C25.2849 30.3705 25.1894 30.3892 25.0844 30.3892C24.9794 30.3892 24.8744 30.3798 24.7789 30.3518C19.4706 29.1376 15.7663 24.944 15.7663 20.1619C15.7663 17.3973 17.0838 14.754 19.2128 13.2597C20.9504 12.0455 23.0127 11.7372 25.0367 12.4097C25.0749 12.4191 25.1131 12.4191 25.1513 12.4097C27.1657 11.7372 29.2375 12.0455 30.9751 13.2597C33.0946 14.754 34.4217 17.3973 34.4217 20.1619C34.393 24.944 30.6887 29.1283 25.3899 30.3518Z" fill="#09263C"/>
<path d="M30.2589 14.203C28.8459 13.213 27.156 12.9608 25.5139 13.5025C25.2275 13.5959 24.922 13.5959 24.6356 13.5025C24.0627 13.3157 23.4899 13.2223 22.917 13.2223C21.8573 13.2223 20.8166 13.5492 19.8905 14.203C18.0766 15.4826 16.9404 17.7615 16.9404 20.1619C16.9404 24.4022 20.2724 28.1289 25.0365 29.2217C25.0652 29.231 25.0843 29.231 25.1129 29.2217C29.877 28.1289 33.209 24.4022 33.209 20.1619C33.209 17.7615 32.0825 15.4732 30.2589 14.203ZM31.2518 19.807C30.975 20.4141 30.5549 20.8904 30.0011 21.236C29.6861 21.4321 29.3424 21.5629 28.9891 21.6469C28.6645 21.7123 28.3495 21.5162 28.2826 21.208C28.2063 20.8904 28.4163 20.5822 28.7314 20.5168C28.9605 20.4701 29.1705 20.3767 29.371 20.2553C29.7243 20.0405 29.9916 19.7323 30.173 19.34C30.2589 19.1438 30.2494 18.9197 30.1348 18.7329C30.0202 18.5461 29.8293 18.434 29.6097 18.4247C29.0655 18.3873 28.6359 18.5461 28.2922 18.8917C27.7098 19.4614 27.4711 20.4981 27.3661 20.9371C27.2802 21.292 26.4591 24.7291 25.9913 26.6719C25.8958 27.0828 25.5235 27.363 25.0938 27.363C24.6642 27.363 24.2919 27.0735 24.1964 26.6719C23.7286 24.7291 22.8979 21.292 22.8216 20.9464C22.7165 20.4981 22.4779 19.4614 21.8955 18.8917C21.5422 18.5461 21.1126 18.3966 20.578 18.4247C20.3584 18.434 20.1674 18.5461 20.0529 18.7329C19.9383 18.9197 19.9192 19.1438 20.0147 19.34C20.1961 19.7323 20.4634 20.0405 20.8166 20.2553C21.0171 20.3767 21.2272 20.4608 21.4563 20.5168C21.7809 20.5915 21.9814 20.8997 21.905 21.208C21.8287 21.5255 21.5136 21.7123 21.1985 21.6469C20.8453 21.5722 20.5016 21.4321 20.1865 21.236C19.6328 20.8904 19.2031 20.4141 18.9358 19.807C18.6876 19.2653 18.7353 18.6301 19.0504 18.1258C19.3654 17.6214 19.9192 17.2945 20.5207 17.2572C21.3895 17.2105 22.1628 17.4813 22.7547 18.0604C23.5758 18.8636 23.8718 20.1339 23.9959 20.6756C24.0627 20.9651 24.6451 23.3935 25.1129 25.3269C25.5807 23.4029 26.1631 20.9745 26.23 20.6849C26.3541 20.1432 26.65 18.873 27.4711 18.0697C28.0535 17.5 28.8268 17.2198 29.7052 17.2665C30.3067 17.3039 30.8604 17.6214 31.1755 18.1351C31.4523 18.6301 31.5001 19.2559 31.2518 19.807Z" fill="#09263C"/>
</svg>
