<svg width="220" height="100" viewBox="0 0 220 100" fill="none" xmlns="http://www.w3.org/2000/svg">
<path fill-rule="evenodd" clip-rule="evenodd" d="M17 13C14.7909 13 13 14.7909 13 17V59C13 61.2091 14.7909 63 17 63H97C99.2091 63 101 61.2091 101 59V17C101 14.7909 99.2091 13 97 13H17ZM18 18V58H96V18H18Z" fill="white"/>
<path fill-rule="evenodd" clip-rule="evenodd" d="M77.4138 76H110C112.209 76 114 74.2091 114 72V4C114 1.79086 112.209 0 110 0H4C1.79086 0 0 1.79086 0 4V72C0 74.2091 1.79086 76 4 76H36.5862L27.7705 94.261C26.4883 96.917 28.4235 100 31.3728 100H82.6272C85.5765 100 87.5117 96.917 86.2295 94.261L77.4138 76ZM5 5V71H109V5H5ZM71.8616 76H42.1384L32.9659 95H81.0341L71.8616 76Z" fill="white"/>
<path fill-rule="evenodd" clip-rule="evenodd" d="M184.939 55.047C193.292 50.6385 199 41.7487 199 31.5C199 16.8645 187.359 5 173 5C158.641 5 147 16.8645 147 31.5C147 41.7487 152.708 50.6385 161.061 55.047C141.165 60.3175 126.5 78.4462 126.5 100H131.5C131.5 77.0802 150.08 58.5 173 58.5C195.92 58.5 214.5 77.0802 214.5 100H219.5C219.5 78.4462 204.835 60.3175 184.939 55.047ZM173 53C184.509 53 194 43.4643 194 31.5C194 19.5357 184.509 10 173 10C161.491 10 152 19.5357 152 31.5C152 43.4643 161.491 53 173 53Z" fill="white"/>
</svg>
