<svg width="160" height="20" viewBox="0 0 160 20" fill="none" xmlns="http://www.w3.org/2000/svg">
<path fill-rule="evenodd" clip-rule="evenodd" d="M139.184 4.43738C139.648 4.8207 140.022 5.3024 140.279 5.84799L142.954 4.17417C142.51 3.21204 141.797 2.39813 140.904 1.82699C139.972 1.26096 138.898 0.976025 137.808 1.00158C137.143 0.995191 136.485 1.12296 135.872 1.37723C135.298 1.61361 134.774 1.95604 134.33 2.38791C133.43 3.27337 132.929 4.48721 132.941 5.74833C132.909 6.55457 133.099 7.35315 133.489 8.05845C133.848 8.66026 134.32 9.18541 134.878 9.60706C135.435 10.03 136.038 10.3916 136.674 10.6816C137.311 10.9742 137.91 11.2566 138.47 11.5313C138.969 11.7664 139.436 12.0641 139.858 12.4181C140.215 12.7132 140.416 13.1553 140.407 13.6166C140.407 14.4164 140.195 14.9952 139.77 15.353C139.292 15.7286 138.696 15.9203 138.089 15.8896C137.639 15.8999 137.192 15.8015 136.789 15.6034C136.412 15.4092 136.075 15.146 135.795 14.8278C135.495 14.488 135.247 14.1046 135.057 13.6932C134.851 13.2562 134.681 12.8052 134.547 12.3427L131.871 13.9922C132.007 14.6592 132.257 15.2968 132.61 15.8781C132.964 16.4672 133.411 16.9949 133.935 17.4395C134.475 17.8969 135.091 18.256 135.757 18.5C136.479 18.7645 137.243 18.8961 138.012 18.8885C138.804 18.8974 139.593 18.7696 140.343 18.5128C141.014 18.2828 141.629 17.9174 142.152 17.4395C142.661 16.9616 143.057 16.3777 143.312 15.7274C143.593 14.9991 143.731 14.2235 143.72 13.4415C143.747 12.68 143.552 11.9248 143.159 11.2694C142.786 10.688 142.307 10.1846 141.744 9.7821C141.168 9.37068 140.554 9.01547 139.91 8.72159C139.255 8.42133 138.645 8.12617 138.075 7.83485C137.562 7.58059 137.086 7.25732 136.662 6.87273C136.299 6.54946 136.094 6.08437 136.101 5.59883C136.088 5.16313 136.264 4.74404 136.585 4.44888C136.918 4.14606 137.357 3.98379 137.808 4.0004C138.302 3.99018 138.786 4.14351 139.184 4.43738ZM155.421 4.43738C155.885 4.8207 156.259 5.3024 156.516 5.84799L159.192 4.17417C158.746 3.21204 158.034 2.39813 157.141 1.82699C156.208 1.26096 155.134 0.976025 154.045 1.00158C153.381 0.995191 152.723 1.12296 152.108 1.37723C151.534 1.61361 151.012 1.95604 150.567 2.38791C149.668 3.27337 149.167 4.48721 149.178 5.74833C149.146 6.55457 149.335 7.35315 149.726 8.05845C150.084 8.66026 150.556 9.18541 151.114 9.60706C151.672 10.03 152.274 10.3916 152.91 10.6816C153.548 10.9742 154.147 11.2566 154.707 11.5313C155.206 11.7664 155.673 12.0641 156.096 12.4181C156.451 12.7132 156.653 13.1553 156.644 13.6166C156.644 14.4164 156.432 14.9952 156.008 15.353C155.53 15.7286 154.932 15.9203 154.325 15.8896C153.875 15.8999 153.429 15.8015 153.025 15.6034C152.648 15.4092 152.311 15.146 152.031 14.8278C151.732 14.488 151.483 14.1046 151.293 13.6932C151.087 13.2562 150.917 12.8052 150.783 12.3427L148.107 13.9922C148.244 14.6592 148.493 15.2968 148.847 15.8781C149.201 16.4672 149.648 16.9949 150.172 17.4395C150.713 17.8969 151.329 18.256 151.993 18.5C152.716 18.7645 153.48 18.8961 154.249 18.8885C155.042 18.8974 155.83 18.7696 156.58 18.5128C157.251 18.2828 157.867 17.9174 158.389 17.4395C158.898 16.9616 159.294 16.3777 159.548 15.7274C159.831 14.9991 159.969 14.2235 159.956 13.4415C159.983 12.68 159.788 11.9248 159.395 11.2694C159.023 10.688 158.543 10.1846 157.98 9.7821C157.405 9.37068 156.791 9.01547 156.147 8.72159C155.493 8.42133 154.881 8.12617 154.312 7.83485C153.798 7.58059 153.322 7.25732 152.898 6.87273C152.536 6.54946 152.332 6.08437 152.337 5.59883C152.324 5.16313 152.5 4.74404 152.821 4.44888C153.156 4.14606 153.594 3.98379 154.045 4.0004C154.54 3.99018 155.023 4.14351 155.421 4.43738ZM51.385 12.0437C51.4067 13.0761 51.2419 14.1046 50.8969 15.0796C50.6081 15.8807 50.1481 16.609 49.5489 17.2146C48.9663 17.7858 48.2609 18.2176 47.4866 18.4757C45.7822 19.0252 43.9473 19.0252 42.2416 18.4757C41.4673 18.2176 40.7633 17.7858 40.1806 17.2146C39.5814 16.609 39.1214 15.8807 38.8326 15.0796C38.4876 14.1046 38.3228 13.0761 38.3445 12.0437V1.20218H41.5925V12.0935C41.5925 14.6247 42.6837 15.8896 44.8648 15.8896C47.0458 15.8896 48.137 14.6247 48.137 12.0935V1.20218H51.385V12.0437ZM88.2742 5.3369C88.853 5.80327 89.3104 6.4038 89.6081 7.08483C89.9825 7.99073 90.1575 8.96564 90.123 9.94565C90.1575 10.9244 89.9825 11.8993 89.6081 12.8052C89.3117 13.4875 88.853 14.0868 88.2742 14.5531C87.7286 14.9786 87.0987 15.2814 86.4266 15.4411C85.7532 15.606 85.0633 15.689 84.3695 15.6903H83.2604V4.19972H84.3695C85.0633 4.201 85.7532 4.28405 86.4266 4.44888C87.0987 4.60987 87.7286 4.9127 88.2742 5.3369ZM80.0124 1.20218V18.6891L85.3737 18.6878C86.378 18.6904 87.3759 18.5205 88.3227 18.1883C89.2798 17.8535 90.1524 17.3181 90.882 16.6154C91.6678 15.8449 92.2811 14.9173 92.6811 13.8925C93.1589 12.6327 93.3864 11.2924 93.3544 9.94565C93.3864 8.59765 93.1589 7.2586 92.6811 5.99748C92.2811 4.97275 91.6678 4.04512 90.882 3.27465C90.1524 2.57318 89.2798 2.03654 88.3227 1.70177C87.3759 1.36956 86.378 1.2009 85.3737 1.20218H80.0124ZM102.695 1.20218V15.6903H110.114V18.6891H99.4466V1.20218H102.695ZM72.0305 18.6891V1.20218H68.7838V12.7426L62.3632 1.20218H58.9414V18.6891H62.1881V7.14744L68.6087 18.6891H72.0305ZM22.9863 4.34922C23.5523 4.11795 24.1567 3.99912 24.7674 4.0004C25.3782 3.99912 25.9838 4.11795 26.5486 4.34922C27.1261 4.58943 27.6423 4.95614 28.0576 5.42379C28.5239 5.96299 28.8766 6.59163 29.09 7.27138C29.3608 8.1364 29.4886 9.03975 29.4707 9.94565C29.4886 10.8503 29.3608 11.7536 29.09 12.6187C28.8766 13.2984 28.5239 13.927 28.0576 14.4662C27.6436 14.9339 27.1274 15.3019 26.5486 15.5408C25.4076 16.0072 24.1286 16.0072 22.9863 15.5408C22.4087 15.3019 21.8925 14.9339 21.4786 14.4662C21.0109 13.927 20.6595 13.2984 20.4449 12.6187C20.174 11.7536 20.0462 10.8503 20.0654 9.94565C20.0462 9.03975 20.174 8.1364 20.4449 7.27138C20.6595 6.59163 21.0109 5.96299 21.4786 5.42379C21.8925 4.95614 22.4087 4.58815 22.9863 4.34922ZM27.7586 1.55228C26.8041 1.18557 25.7896 0.997746 24.7674 1.00158C23.7452 0.997746 22.732 1.18557 21.7775 1.55228C20.8346 1.91388 19.9798 2.47607 19.2745 3.20054C18.5142 3.99784 17.9316 4.94719 17.5649 5.98471C17.1215 7.2586 16.9081 8.59765 16.9362 9.94565C16.9081 11.2924 17.1215 12.6327 17.5649 13.9053C17.9316 14.9428 18.5142 15.8922 19.2745 16.6895C19.9798 17.414 20.8346 17.9762 21.7775 18.3378C23.7044 19.0712 25.8318 19.0712 27.7586 18.3378C28.7015 17.9762 29.5563 17.414 30.2616 16.6895C31.0219 15.8922 31.6032 14.9428 31.97 13.9053C32.4146 12.6327 32.6267 11.2924 32.5999 9.94565C32.6267 8.59765 32.4146 7.2586 31.97 5.98471C31.6032 4.94719 31.0219 3.99784 30.2616 3.20054C29.5551 2.47607 28.7015 1.91515 27.7586 1.55228ZM3.2467 10.9934V15.6903H6.21996C7.23575 15.6903 7.96023 15.4871 8.39337 15.0796C8.84697 14.6183 9.08334 13.9871 9.04374 13.3418C9.08334 12.6979 8.84697 12.0654 8.39337 11.6067C7.96023 11.1978 7.23575 10.9934 6.21996 10.9934H3.2467ZM3.2467 4.19972V7.99712H6.21996C6.75533 8.02907 7.28686 7.88468 7.73151 7.58442C8.08927 7.30971 8.26816 6.81395 8.26816 6.09715C8.26816 5.3829 8.08927 4.88714 7.73151 4.61115C7.26131 4.30578 6.70422 4.16139 6.14458 4.19972H3.2467ZM6.39501 1.20218C7.08371 1.19324 7.76985 1.29035 8.43043 1.48967C9.01179 1.666 9.54844 1.96371 10.0046 2.36236C10.4556 2.76867 10.8057 3.27337 11.0293 3.83813C11.2836 4.50255 11.4062 5.21168 11.3909 5.92338C11.4011 6.59546 11.2465 7.25988 10.9412 7.85913C10.6639 8.41238 10.2167 8.86214 9.66727 9.1458C10.4595 9.44606 11.1367 9.98782 11.603 10.6944C12.0937 11.516 12.3326 12.4628 12.2904 13.4172C12.2904 15.1332 11.7781 16.4403 10.7533 17.3386C9.72988 18.2381 8.31799 18.6891 6.51895 18.6878H0V1.20218H6.39501ZM126.55 4.19972V1.20218H115.734V18.6891H126.8V15.6903H118.982V10.8694H123.803V7.87191H118.982V4.19972H126.55Z" fill="white"/>
</svg>
