<?xml version="1.0" standalone="no"?>
<!DOCTYPE svg PUBLIC "-//W3C//DTD SVG 1.1//EN" "http://www.w3.org/Graphics/SVG/1.1/DTD/svg11.dtd" >
<svg xmlns="http://www.w3.org/2000/svg" xmlns:xlink="http://www.w3.org/1999/xlink" version="1.1">
<metadata>
Created by FontForge 20170731 at Tue Aug  2 10:46:23 2016
 By Aleksey,,,
Copyright (c) 2013 Typonine Type Foundry. All rights reserved.
</metadata>
<defs>
<font id="NocturnoDisplayPro-BoldItalic" horiz-adv-x="600" >
  <font-face 
    font-family="Nocturno Display Pro"
    font-weight="700"
    font-style="italic"
    font-stretch="normal"
    units-per-em="1000"
    panose-1="2 0 0 0 0 0 0 0 0 0"
    ascent="768"
    descent="-232"
    x-height="500"
    cap-height="700"
    bbox="-194 -290 1427 1021"
    underline-thickness="50"
    underline-position="-200"
    unicode-range="U+0020-FB04"
  />
<missing-glyph horiz-adv-x="663" 
d="M0 0v650h663v-650h-663zM20 630v-610h623v610h-623zM452 196l-120 120l-119 -119l-23 23l119 118l-116 116l22 22l116 -116l119 119l22 -22l-118 -119l120 -120z" />
    <glyph glyph-name="f_f" unicode="ff" horiz-adv-x="658" 
d="M32 448l6 45h99l1 3q20 122 102 182t184 60q99 0 117 -53q74 53 175 53q62 0 91.5 -21t29.5 -52q0 -27 -19.5 -44t-41.5 -17q-21 0 -37.5 22t-35 43.5t-44.5 21.5q-9 0 -17 -2.5t-14 -8.5t-11 -12t-9 -18t-6.5 -20t-5.5 -23.5t-4.5 -25t-4 -28.5t-4.5 -28l-5 -32h110
l-6 -45h-112l-72 -448q-20 -124 -99.5 -183t-179.5 -59q-101 0 -119 55q-72 -55 -173 -55q-62 0 -91.5 21t-29.5 52q0 27 19 44t40 17q25 0 56.5 -43.5t58.5 -43.5q37 0 55 69q6 24 18 97l77 477h-98zM345 -29l77 477h-144l-72 -448q-12 -66 -41 -116q1 -1 8 -12t8.5 -13.5
t9 -12.5t11 -13.5t11 -10.5t13.5 -9.5t14.5 -5t16.5 -2.5q37 0 55.5 39.5t32.5 126.5zM286 493h143l1 3q12 71 45 121q-41 74 -94 74q-41 0 -58.5 -39t-31.5 -127z" />
    <glyph glyph-name="fi" unicode="fi" horiz-adv-x="617" 
d="M32 448l7 45h99l1 3q13 82 62 139t109 80t126 23q64 0 102 -22t38 -54q0 -24 -19.5 -41t-41.5 -17q-16 0 -30.5 13.5t-24 30t-26 30t-36.5 13.5q-40 0 -68 -47.5t-39 -118.5l-5 -32h159l137 6l-44 -214q-25 -122 -25 -177q0 -41 12 -63t40 -45h-222l44 214q23 111 23 164
q0 44 -16 70h-116l-72 -448q-20 -124 -99 -183t-179 -59q-62 0 -91.5 21t-29.5 52q0 27 19.5 44t40.5 17q25 0 56 -43.5t59 -43.5q16 0 27.5 9.5t19.5 35.5t12.5 49t12.5 72l77 477h-99z" />
    <glyph glyph-name="fl" unicode="fl" horiz-adv-x="615" 
d="M341 0l91 452q3 13 9 43t9 45.5t6 37t3 36.5q0 77 -72 77q-42 0 -61 -33t-35 -133l-5 -32h110l-5 -45h-113l-72 -448q-20 -124 -99.5 -183t-179.5 -59q-62 0 -91.5 21t-29.5 52q0 27 19.5 44t40.5 17q17 0 31.5 -13.5t24.5 -30t25.5 -30t33.5 -13.5q16 0 27.5 9.5
t19.5 35.5t12.5 49t12.5 72l77 477h-97l5 45h99l1 3q9 35 16.5 57.5t28.5 61.5t48 62.5t74 42t107 18.5q65 0 95 -16l119 5l-40 -194l-51 -258q-26 -132 -26 -177q0 -36 12 -56t42 -42h-222z" />
    <glyph glyph-name="f_f_i" unicode="ffi" horiz-adv-x="908" 
d="M634 0l44 214q23 111 23 164q0 44 -16 70h-115l-72 -448q-20 -126 -91 -184t-168 -58q-53 0 -89.5 15.5t-47.5 40.5q-75 -56 -175 -56q-62 0 -91.5 21t-29.5 52q0 27 19 44t40 17q25 0 56.5 -43.5t58.5 -43.5q37 0 55 69q6 24 18 97l77 477h-98l6 45h99l1 3
q20 122 102 182t184 60q42 0 73 -14.5t42 -36.5q74 51 186 51q132 0 132 -71q0 -29 -19.5 -46t-41.5 -17q-17 0 -31.5 13.5t-23.5 30t-25.5 30t-36.5 13.5q-69 0 -96 -166l-5 -32h158l137 6l-44 -214q-25 -122 -25 -177q0 -41 12 -63t40 -45h-222zM278 448l-72 -448
q-12 -66 -41 -116q1 -1 8 -12t8.5 -13.5t9 -12.5t11 -13.5t11 -10.5t13.5 -9.5t14.5 -5t16.5 -2.5q37 0 55.5 39.5t32.5 126.5l77 477h-144zM430 496q12 72 44 123q-41 72 -93 72q-41 0 -58.5 -39t-31.5 -127l-5 -32h143z" />
    <glyph glyph-name="f_f_l" unicode="ffl" horiz-adv-x="907" 
d="M32 448l6 45h99l1 3q20 122 102 182t184 60q41 0 71.5 -14t42.5 -35q66 49 166 49q65 0 95 -16l119 5l-40 -194l-51 -258q-26 -132 -26 -177q0 -36 12 -56t42 -42h-222l91 452q3 13 9 43t9 45.5t6 37t3 36.5q0 77 -72 77q-42 0 -61 -33t-35 -133l-5 -32h110l-5 -45h-113
l-72 -448q-20 -124 -99.5 -183t-179.5 -59q-101 0 -119 55q-72 -55 -173 -55q-62 0 -91.5 21t-29.5 52q0 27 19 44t40 17q25 0 56.5 -43.5t58.5 -43.5q37 0 55 69q6 24 18 97l77 477h-98zM422 448h-144l-72 -448q-11 -65 -42 -117q52 -78 109 -78q16 0 27.5 9.5t19.5 35.5
t12.5 49t12.5 72zM430 496q18 75 46 121q-41 74 -95 74q-41 0 -58.5 -39t-31.5 -127l-5 -32h143z" />
    <glyph glyph-name="f_h" unicode="fh" horiz-adv-x="916" 
d="M622 727l-98 -489q61 137 118 204.5t123 67.5q49 0 75.5 -34t26.5 -82q0 -17 -3 -32l-16 -74q-29 -134 -29 -184q0 -39 13 -60.5t44 -43.5h-228l46 216l26 122q5 21 -3 40t-32 19q-42 0 -85 -63t-73.5 -152t-46.5 -182h-141l89 452q3 16 12 56.5t13 65.5t4 45
q0 35 -16 53.5t-54 18.5q-42 0 -61 -33t-35 -133l-5 -32h110l-5 -45h-113l-72 -448q-20 -124 -99.5 -183t-179.5 -59q-62 0 -91.5 21t-29.5 52q0 27 19.5 44t40.5 17q17 0 31.5 -13.5t24.5 -30t25.5 -30t33.5 -13.5q16 0 27.5 9.5t19.5 35.5t12.5 49t12.5 72l77 477h-97
l5 45h99l1 3q9 35 16.5 57.5t28.5 61.5t48 62.5t74 42t107 18.5q61 0 91 -16z" />
    <glyph glyph-name="f_b" unicode="fb" horiz-adv-x="892" 
d="M626 727l-106 -520q22 58 36 91.5t37.5 79.5t44 70.5t49.5 43t61 18.5q52 0 86.5 -43.5t34.5 -123.5q0 -63 -23 -125.5t-64.5 -113.5t-106.5 -83t-142 -32q-48 0 -106.5 10t-79.5 22l86 431q3 14 9 43t9 44.5t6 37t3 36.5q0 78 -73 78q-42 0 -61 -33t-35 -133l-5 -32h110
l-5 -45h-113l-72 -448q-20 -124 -99.5 -183t-179.5 -59q-62 0 -91.5 21t-29.5 52q0 27 19.5 44t40.5 17q17 0 31.5 -13.5t24.5 -30t25.5 -30t33.5 -13.5q16 0 27.5 9.5t19.5 35.5t12.5 49t12.5 72l77 477h-97l5 45h99l1 3q2 5 5 16q11 36 18.5 57t29 57.5t47 57.5t71 37.5
t102.5 16.5q66 0 96 -16zM683 413q-35 0 -96 -113t-92 -241q26 -28 65 -28q47 0 84.5 49t55.5 115.5t18 129.5q0 88 -35 88z" />
    <glyph glyph-name="f_j" unicode="fj" horiz-adv-x="597" 
d="M32 448l7 45h99l1 3q13 82 62 139t109 80t126 23q64 0 102 -22t38 -54q0 -24 -19.5 -41t-41.5 -17q-16 0 -30.5 13.5t-24 30t-26 30t-36.5 13.5q-40 0 -68 -47.5t-39 -118.5l-5 -32h137l160 7l-44 -217l-50 -254q-7 -50 -35 -94t-71 -78t-82.5 -57t-88.5 -46
q35 36 62 81.5t45 98t26 82.5t18 77l26 121q23 106 23 160q0 48 -17 74h-117l-72 -448q-20 -124 -99 -183t-179 -59q-62 0 -91.5 21t-29.5 52q0 27 19.5 44t40.5 17q25 0 56 -43.5t59 -43.5q16 0 27.5 9.5t19.5 35.5t12.5 49t12.5 72l77 477h-99z" />
    <glyph glyph-name="f_k" unicode="fk" horiz-adv-x="882" 
d="M626 727l-66 -323q71 106 171 106q48 0 83.5 -27t35.5 -79q0 -27 -12 -50t-25.5 -38t-43.5 -31.5t-46 -23.5t-52 -22q-11 -5 -17 -7q80 -88 194 -182l-113 -88q-37 31 -77.5 71.5t-63 65.5t-70.5 79q78 30 128.5 83t50.5 113q0 54 -43 54q-46 0 -105 -49l-77 -379h-136
l90 452q3 13 9 43t9 45.5t6 37t3 36.5q0 77 -72 77q-42 0 -61 -33t-35 -133l-5 -32h110l-5 -45h-113l-72 -448q-20 -124 -99.5 -183t-179.5 -59q-62 0 -91.5 21t-29.5 52q0 27 19.5 44t40.5 17q17 0 31.5 -13.5t24.5 -30t25.5 -30t33.5 -13.5q16 0 27.5 9.5t19.5 35.5
t12.5 49t12.5 72l77 477h-97l5 45h99l1 3q9 35 16.5 57.5t28.5 61.5t48 62.5t74 42t107 18.5q65 0 95 -16z" />
    <glyph glyph-name="f_f_j" unicode="ffj" horiz-adv-x="886" 
d="M652 93l26 121q23 106 23 161q0 47 -17 73h-114l-72 -448q-20 -126 -91 -184t-168 -58q-52 0 -88.5 15.5t-48.5 40.5q-75 -56 -175 -56q-62 0 -91.5 21t-29.5 52q0 27 19 44t40 17q25 0 56.5 -43.5t58.5 -43.5q37 0 55 69q6 24 18 97l77 477h-98l6 45h99l1 3
q19 119 100.5 180.5t179.5 61.5q96 0 121 -51q74 51 186 51q132 0 132 -71q0 -29 -19.5 -46t-41.5 -17q-17 0 -31.5 13.5t-23.5 30t-25.5 30t-36.5 13.5q-69 0 -96 -166l-5 -32h134l160 7l-44 -217l-50 -254q-7 -50 -35 -94t-71 -78t-82.5 -57t-88.5 -46q35 36 62 81.5
t45 98t26 82.5t18 77zM345 -29l77 477h-144l-72 -448q-12 -66 -41 -116q1 -1 8 -12t8.5 -13.5t9 -12.5t11 -13.5t11 -10.5t13.5 -9.5t14.5 -5t16.5 -2.5q37 0 55.5 39.5t32.5 126.5zM430 496q12 72 44 123q-41 72 -93 72q-41 0 -58.5 -39t-31.5 -127l-5 -32h143z" />
    <glyph glyph-name="f_idieresis" unicode="f&#xef;" horiz-adv-x="616" 
d="M32 448l6 45h99l1 3q13 83 62.5 139.5t109 79.5t124.5 23q111 0 111 -71q0 -35 -24.5 -60.5t-57.5 -25.5q-26 0 -46 16t-20 38q0 30 11 50q-10 7 -25 7q-39 0 -59.5 -44.5t-33.5 -122.5l-5 -32h159l137 6l-44 -214q-25 -122 -25 -177q0 -41 12 -63t40 -45h-222l44 214
q23 111 23 164q0 44 -16 70h-116l-72 -448q-20 -124 -99 -183t-179 -59q-62 0 -91.5 21t-29.5 52q0 27 19.5 44t40.5 17q17 0 31.5 -13.5t24.5 -30t25.5 -30t33.5 -13.5q16 0 27.5 9.5t19.5 35.5t12.5 49t12.5 72l77 477h-98zM583 637q0 33 29 60.5t64 27.5q24 0 39 -15.5
t15 -39.5q0 -34 -27.5 -61.5t-61.5 -27.5q-26 0 -42 15.5t-16 40.5z" />
    <glyph glyph-name="f_igrave" unicode="f&#xec;" horiz-adv-x="617" 
d="M32 448l7 45h99l1 3q20 126 89.5 184t167.5 58q64 0 102 -22t38 -54q0 -24 -19.5 -41t-41.5 -17q-16 0 -28.5 13.5t-19 30t-21 30t-34.5 13.5t-33 -10t-22.5 -39t-13 -44.5t-10.5 -61.5q-1 -3 -1.5 -5.5t-0.5 -5.5l-5 -32h159l137 6l-44 -214q-25 -122 -25 -177
q0 -41 12 -63t40 -45h-222l44 214q23 111 23 164q0 44 -16 70h-116l-72 -448q-20 -124 -99 -183t-179 -59q-62 0 -91.5 21t-29.5 52q0 27 19.5 44t40.5 17q25 0 56 -43.5t59 -43.5q16 0 27.5 9.5t19.5 35.5t12.5 49t12.5 72l77 477h-99zM651 577l-107 130q-24 28 28 56
q26 13 43 13q23 0 25 -21z" />
    <glyph glyph-name=".notdef" horiz-adv-x="663" 
d="M0 0v650h663v-650h-663zM20 630v-610h623v610h-623zM452 196l-120 120l-119 -119l-23 23l119 118l-116 116l22 22l116 -116l119 119l22 -22l-118 -119l120 -120z" />
    <glyph glyph-name=".null" horiz-adv-x="0" 
 />
    <glyph glyph-name="nonmarkingreturn" horiz-adv-x="333" 
 />
    <glyph glyph-name="space" unicode=" " horiz-adv-x="225" 
 />
    <glyph glyph-name="exclam" unicode="!" horiz-adv-x="270" 
d="M6 53q0 43 35.5 78t80.5 35q32 0 51 -19.5t19 -51.5q0 -45 -35.5 -79t-78.5 -34q-32 0 -52 20t-20 51zM120 238q2 19 -1 45q-2 15 -16 81.5t-14 114.5q0 38 5 69q14 89 37 121t65 32q34 0 48.5 -15t14.5 -55q0 -31 -9 -83q-10 -65 -36 -122t-55 -106t-39 -82z" />
    <glyph glyph-name="quotedbl" unicode="&#x22;" horiz-adv-x="343" 
d="M207 701l-108 -302l-14 302q25 15 64 15q37 0 58 -15zM380 701l-108 -302l-14 302q25 15 63 15t59 -15z" />
    <glyph glyph-name="numbersign" unicode="#" horiz-adv-x="617" 
d="M286 0l47 144h-152l-47 -144h-84l47 144h-88l23 79h91l35 106h-93l23 80h96l40 120h84l-40 -120h152l40 120h84l-40 -120h97l-23 -80h-100l-35 -106h103l-25 -79h-104l-47 -144h-84zM242 329l-35 -106h152l35 106h-152z" />
    <glyph glyph-name="dollar" unicode="$" horiz-adv-x="503" 
d="M22 182q9 -12 23 -32.5t20.5 -29.5t17.5 -24t17 -22t15.5 -16.5t16 -14t15.5 -9t17.5 -6.5t18.5 -2l27 174l-33 25q-39 29 -57 44t-33.5 42t-15.5 60q0 70 55 114t138 53l11 66h40l-10 -63q22 0 48 -2.5t58 -7.5t43 -6l8 -1q-21 -115 -25 -163q-69 134 -138 141l-26 -160
l22 -15q73 -53 100.5 -87t27.5 -87q0 -76 -54 -118.5t-152 -44.5l-10 -66h-40l10 67q-26 1 -75.5 8t-77.5 8v44q0 65 -2 131zM269 107q0 34 -23 60l-22 -134q45 21 45 74zM216 422q0 -29 22 -50l19 123q-41 -21 -41 -73z" />
    <glyph glyph-name="percent" unicode="%" horiz-adv-x="686" 
d="M161 284q-112 0 -112 101q0 69 47 113.5t128 44.5q112 0 112 -98q0 -68 -47.5 -114.5t-127.5 -46.5zM175 314q34 0 50 45.5t16 96.5q0 57 -31 57q-32 0 -49 -44.5t-17 -97.5q0 -57 31 -57zM453 -14q-111 0 -111 100q0 69 47 114t127 45q113 0 113 -99q0 -67 -47.5 -113.5
t-128.5 -46.5zM468 16q34 0 49.5 45.5t15.5 96.5q0 57 -30 57q-22 0 -38 -24.5t-22.5 -56t-6.5 -62.5q0 -56 32 -56zM590 453l-253 -186l-211 -232q-39 -39 -59 -39q-12 0 -21 9.5t-9 22.5q0 28 42 58l254 184l197 224q40 47 66 47q14 0 24.5 -11t10.5 -23q0 -21 -41 -54z
" />
    <glyph glyph-name="ampersand" unicode="&#x26;" horiz-adv-x="852" 
d="M459 180q83 94 120 186q-3 0 -11.5 -0.5t-15.5 -0.5q-6 0 -24.5 0.5t-26.5 0.5q3 48 15 70q134 0 321 16q2 -12 2 -29q0 -38 -7 -51l-130 -7q-113 -114 -231 -198q106 -120 218 -120q43 0 83 19q-29 -66 -76 -103t-104 -37q-116 0 -237 151q-55 -45 -99.5 -67.5
t-100.5 -22.5q-73 0 -118.5 38t-45.5 108q0 35 14 66t33 52t51 42t56 32.5t61 27.5q-4 9 -5 16q-19 63 -19 106q0 89 70 163t180 74q42 0 72.5 -12t45.5 -31.5t21.5 -39t6.5 -39.5q0 -124 -239 -196q37 -114 120 -214zM214 329q-30 -33 -47 -76t-17 -82q0 -52 29.5 -81
t69.5 -29q41 0 96 29q-85 111 -131 239zM328 433q2 -10 4 -15q101 75 101 189q0 58 -32 58q-30 0 -57 -40.5t-27 -108.5q0 -37 11 -83z" />
    <glyph glyph-name="quotesingle" unicode="'" horiz-adv-x="170" 
d="M207 701l-108 -302l-14 302q25 15 64 15q37 0 58 -15z" />
    <glyph glyph-name="parenleft" unicode="(" horiz-adv-x="269" 
d="M323 717q-89 -88 -142 -269t-53 -358q0 -180 54 -267q-74 49 -121.5 148t-47.5 213q0 162 93 314t217 219z" />
    <glyph glyph-name="parenright" unicode=")" horiz-adv-x="270" 
d="M-61 -176q89 89 141.5 268.5t52.5 356.5q0 181 -55 269q74 -49 122 -148t48 -214q0 -161 -92.5 -312.5t-216.5 -219.5z" />
    <glyph glyph-name="asterisk" unicode="*" horiz-adv-x="404" 
d="M85 573l64 92l83 -114zM108 410l-34 92l155 32zM329 410l-81 124l145 -32zM404 573l-153 -22l119 114zM165 383l75 149l25 -149h-100zM315 695l-72 -142l-28 142h100z" />
    <glyph glyph-name="plus" unicode="+" horiz-adv-x="446" 
d="M140 79l26 165h-140l16 97h140l24 154h94l-24 -154h142l-16 -97h-142l-26 -165h-94z" />
    <glyph glyph-name="comma" unicode="," horiz-adv-x="262" 
d="M-65 -189q140 80 156 170q-90 0 -90 67q0 45 33 74.5t71 29.5q34 0 59 -26t25 -74q0 -83 -74 -152t-180 -89z" />
    <glyph glyph-name="hyphen" unicode="-" horiz-adv-x="316" 
d="M251 212h-213q2 53 17 106h213q-2 -53 -17 -106z" />
    <glyph glyph-name="period" unicode="." horiz-adv-x="257" 
d="M1 56q0 43 35 76.5t80 33.5q33 0 52 -19.5t19 -52.5q0 -45 -33 -78.5t-77 -33.5q-34 0 -55 21t-21 53z" />
    <glyph glyph-name="slash" unicode="/" horiz-adv-x="441" 
d="M49 -49l-71 28l428 759l72 -28z" />
    <glyph glyph-name="zero" unicode="0" horiz-adv-x="611" 
d="M364 510q96 0 151.5 -53.5t55.5 -153.5q0 -93 -48.5 -165.5t-123.5 -109.5t-159 -37q-96 0 -156.5 51t-60.5 150q0 133 103.5 225.5t237.5 92.5zM260 32q37 0 66 23.5t45.5 58.5t27 79.5t14 80.5t3.5 69q0 63 -18 94t-62 31q-47 0 -80 -34t-48.5 -86.5t-21.5 -98
t-6 -87.5q0 -66 18.5 -98t61.5 -32z" />
    <glyph glyph-name="one" unicode="1" horiz-adv-x="376" 
d="M268 258q-14 -90 -14 -130q0 -34 9.5 -57t20.5 -34t41 -37q-102 2 -138 2l-197 -2q41 27 55.5 38.5t33 39t27.5 65t20 106.5q9 56 9 91q0 55 -20 81t-69 54l273 34q-28 -111 -51 -251z" />
    <glyph glyph-name="two" unicode="2" horiz-adv-x="510" 
d="M202 415q-37 0 -75 -14t-59 -36q44 76 98 110.5t126 34.5q74 0 115.5 -37.5t41.5 -92.5q0 -45 -29.5 -85t-83.5 -72.5t-101 -53.5t-112 -45l335 5l-44 -129h-429l9 58q165 112 224.5 179t59.5 115q0 63 -76 63z" />
    <glyph glyph-name="three" unicode="3" horiz-adv-x="479" 
d="M189 425q-67 0 -129 -42q76 127 208 127q72 0 116.5 -35.5t44.5 -94.5q0 -69 -61.5 -111t-155.5 -53q99 -14 146.5 -64t47.5 -120q0 -96 -79 -163.5t-190 -67.5q-73 0 -118.5 32.5t-53.5 91.5q66 -34 137 -34q63 0 105.5 33t42.5 96q0 35 -14 58.5t-42.5 35.5t-53.5 16.5
t-66 7.5l22 64q82 3 127 43.5t45 101.5q0 78 -79 78z" />
    <glyph glyph-name="four" unicode="4" horiz-adv-x="594" 
d="M385 -182l-148 -12l34 217h-301l12 77l414 404h97l-57 -362h120l-31 -119h-108zM77 141l213 2l39 243z" />
    <glyph glyph-name="five" unicode="5" horiz-adv-x="504" 
d="M114 -111q61 0 104 31.5t43 83.5q0 51 -51 90.5t-172 85.5l96 321h368l-37 -126h-325l-26 -84q146 -53 225 -115.5t79 -154.5q0 -94 -77 -156.5t-183 -62.5q-77 0 -131 37t-60 112q21 -30 62.5 -46t84.5 -16z" />
    <glyph glyph-name="six" unicode="6" horiz-adv-x="598" 
d="M618 659q-369 0 -418 -336q75 107 174 107q71 0 110.5 -50t39.5 -119q0 -43 -16.5 -88t-48 -86.5t-88 -68t-127.5 -26.5q-102 0 -157.5 55.5t-55.5 166.5q0 88 35 172.5t100 156t172.5 115.5t239.5 44q21 0 63 -2q5 -19 -5 -41h-18zM279 342q-39 0 -80 -22
q-7 -52 -7 -114q0 -174 70 -174q35 0 59.5 38.5t33.5 82.5t9 83q0 106 -85 106z" />
    <glyph glyph-name="seven" unicode="7" horiz-adv-x="482" 
d="M505 459l-430 -646h-55l378 562h-374l41 126h447z" />
    <glyph glyph-name="eight" unicode="8" horiz-adv-x="560" 
d="M221 -14q-82 0 -145.5 36t-63.5 109q0 24 7 45t22 38.5t28 30t37 26t35.5 19.5t36.5 17t29 13q-111 91 -111 174q0 79 80 137.5t180 58.5q77 0 126 -37t49 -99q0 -20 -5 -36.5t-17 -30t-22 -23t-31 -19.5t-33 -15t-37.5 -15t-35.5 -14q37 -29 53.5 -43t46.5 -45t43.5 -62
t13.5 -65q0 -58 -44 -105t-109 -71t-133 -24zM249 32q59 0 86.5 33.5t27.5 67.5q0 37 -40 85.5t-110 97.5q-32 -29 -50 -79t-18 -95q0 -49 25 -79.5t79 -30.5zM345 404q38 23 53.5 63.5t15.5 77.5q0 44 -22.5 71.5t-61.5 27.5q-41 0 -70.5 -29t-29.5 -63q0 -33 29.5 -67.5
t85.5 -80.5z" />
    <glyph glyph-name="nine" unicode="9" horiz-adv-x="584" 
d="M-39 -157q367 0 418 335q-74 -106 -174 -106q-71 0 -110.5 50t-39.5 119q0 43 16.5 88t48 86.5t88 68t127.5 26.5q102 0 157.5 -55.5t55.5 -166.5q0 -88 -35 -172.5t-100 -156t-172.5 -115.5t-239.5 -44q-21 0 -63 2q-5 19 5 41h18zM300 160q43 0 79 21q8 49 8 115
q0 174 -70 174q-35 0 -59.5 -38.5t-33.5 -82.5t-9 -83q0 -106 85 -106z" />
    <glyph glyph-name="colon" unicode=":" horiz-adv-x="296" 
d="M18 56q0 43 35 76.5t80 33.5q33 0 52 -19.5t19 -52.5q0 -45 -33 -78.5t-77 -33.5q-34 0 -55 21t-21 53zM71 382q0 43 35 76.5t80 33.5q33 0 52 -19.5t19 -52.5q0 -45 -33 -78.5t-77 -33.5q-34 0 -55 21t-21 53z" />
    <glyph glyph-name="semicolon" unicode=";" horiz-adv-x="279" 
d="M68 382q0 43 35 76.5t80 33.5q33 0 52 -19.5t19 -52.5q0 -45 -33 -78.5t-77 -33.5q-34 0 -55 21t-21 53zM-54 -189q140 80 156 170q-90 0 -90 67q0 45 33 74.5t71 29.5q34 0 59 -26t25 -74q0 -83 -74 -152t-180 -89z" />
    <glyph glyph-name="less" unicode="&#x3c;" horiz-adv-x="334" 
d="M239 43l-205 232l281 242l-153 -235z" />
    <glyph glyph-name="equal" unicode="=" horiz-adv-x="519" 
d="M38 172l14 91h403l-14 -91h-403zM62 328l15 91h403l-15 -91h-403z" />
    <glyph glyph-name="greater" unicode="&#x3e;" horiz-adv-x="334" 
d="M90 517l205 -232l-281 -242l153 235z" />
    <glyph glyph-name="question" unicode="?" horiz-adv-x="425" 
d="M250 445q53 44 53 90q0 36 -31.5 59t-78.5 23q-55 0 -110 -33q19 41 83 84.5t140 43.5q61 0 97 -30t36 -82q0 -29 -11.5 -51.5t-33 -38t-42.5 -27t-49 -25t-44 -23.5q-51 -32 -51 -79q0 -31 19.5 -52.5t53.5 -23.5q-64 -54 -120 -54q-33 0 -52.5 18.5t-19.5 46.5
q0 32 24.5 57t71.5 53.5t65 43.5zM60 53q0 43 35.5 78t80.5 35q32 0 51 -19.5t19 -51.5q0 -45 -35.5 -79t-78.5 -34q-32 0 -52 20t-20 51z" />
    <glyph glyph-name="at" unicode="@" horiz-adv-x="868" 
d="M577 -9q-109 0 -109 85q0 11 4 37l40 200q-27 -69 -48 -116t-51.5 -100t-64 -80.5t-69.5 -27.5q-55 0 -90 43t-35 122q0 85 39 166t114.5 135.5t169.5 54.5q51 0 106 -18l94 7l-44 -224q-18 -92 -20 -159q-2 -75 22 -75q38 0 68 53.5t44 122.5t14 131q0 115 -66 185.5
t-187 70.5q-78 0 -152.5 -31t-134 -86t-96 -140t-36.5 -184q0 -82 25 -144.5t68 -98t94.5 -53t110.5 -17.5q107 0 221 64q-29 -59 -93.5 -88.5t-146.5 -29.5q-152 0 -249 91.5t-97 253.5q0 128 60 246t174.5 195.5t256.5 77.5q143 0 232 -81t89 -239q0 -41 -6 -83.5
t-23.5 -91.5t-44.5 -86.5t-74.5 -62.5t-108.5 -25zM305 175q0 -89 34 -89q36 0 96.5 112t92.5 242q-26 28 -66 28q-46 0 -83.5 -49.5t-55.5 -115.5t-18 -128z" />
    <glyph glyph-name="A" unicode="A" horiz-adv-x="674" 
d="M286 223q-24 0 -72.5 -1.5t-59.5 -1.5q-38 -84 -38 -122q0 -29 17 -50.5t55 -47.5q-98 5 -134 5l-114 -5q47 44 74.5 86.5t76.5 133.5q10 19 15 29l239 448q15 3 66 3q50 0 64 -3l96 -496q11 -56 16 -78.5t17.5 -55t33.5 -67.5q-112 5 -148 5l-145 -5q51 39 63 66.5
t9 68.5q0 1 -4 27.5t-9 59.5q-22 0 -65 0.5t-53 0.5zM393 282l-56 299l-153 -301l-5 -10q33 -1 104 -1q42 0 112 2q-2 8 -2 11z" />
    <glyph glyph-name="B" unicode="B" horiz-adv-x="667" 
d="M233 697q39 0 103.5 2.5t84.5 2.5q104 0 157.5 -37.5t53.5 -101.5q0 -68 -57 -113.5t-144 -62.5q38 -5 73 -17.5t65 -33.5t48 -54t18 -73q0 -91 -86 -152.5t-228 -61.5q-25 0 -96 4t-109 4l-144 -3q23 18 37 33t34 51t36 100.5t30 158.5q25 175 23 231q-3 90 -50 126
q95 -3 151 -3zM292 340q-22 0 -33 -1l-20 -133q-8 -56 -8 -77q0 -40 17 -61t60 -21q65 0 113 44t48 117q0 58 -32 95t-91 37h-54zM280 471l-13 -81q11 -1 31 -1h24q65 0 103.5 37t38.5 107q0 55 -25.5 86t-73.5 31q-12 0 -24.5 -2t-19.5 -4l-7 -1q-18 -69 -34 -172z" />
    <glyph glyph-name="C" unicode="C" horiz-adv-x="691" 
d="M591 20q-23 0 -100.5 -16.5t-143.5 -16.5q-152 0 -232.5 73t-80.5 219q0 189 125 311t311 122q55 0 129.5 -14.5t96.5 -14.5h10q-10 -43 -35 -216q-35 83 -90 138t-129 55q-95 0 -169.5 -90t-74.5 -253q0 -139 54 -209.5t125 -70.5q114 0 257 201q-9 -31 -53 -218z" />
    <glyph glyph-name="D" unicode="D" horiz-adv-x="793" 
d="M317 -1q-21 0 -87 2.5t-100 2.5l-158 -4q52 41 71 72t35 113q13 64 28 158q14 79 21 138q7 58 6 99q-1 80 -51 120q103 -3 154 -3l190 3q166 0 256.5 -77.5t90.5 -223.5q0 -177 -126.5 -288.5t-329.5 -111.5zM325 47q112 0 193.5 90t81.5 244q0 120 -52 194t-149 74
q-43 0 -84 -6q-10 -38 -37 -183q-31 -178 -42 -258q-5 -37 -5 -58q0 -55 23.5 -76t70.5 -21z" />
    <glyph glyph-name="E" unicode="E" horiz-adv-x="637" 
d="M274 466l-13 -82q8 -1 17 -1q79 0 123.5 8.5t65 22.5t50.5 47q-17 -81 -22 -111l-15 -117q-16 28 -22.5 37.5t-21.5 25.5t-31.5 20.5t-44 9t-67.5 4.5q-8 0 -21.5 -0.5t-18.5 -0.5l-11 -75q-15 -101 -15 -125q0 -44 21.5 -60.5t80.5 -16.5q79 0 136 32t146 123l-14 -39
q-14 -39 -32.5 -92t-27.5 -80q-43 6 -108 6l-131 1h-174l-154 -3q45 37 63 63t33.5 85t37.5 195q27 169 27 232q0 45 -11.5 70.5t-39.5 53.5q100 -3 153 -3q30 0 287 2q64 0 110 6q-8 -39 -15 -85q-6 -33 -19 -129q-57 92 -100.5 125.5t-119.5 33.5l-66 -4q-22 -90 -36 -179
z" />
    <glyph glyph-name="F" unicode="F" horiz-adv-x="588" 
d="M258 364l-3 -3q2 0 5.5 -0.5t4.5 -0.5h7q53 0 89 3q33 3 61 11q26 8 46 23q24 20 41 41q-6 -23 -9 -43q-3 -15 -7 -38q-1 -5 -2.5 -15t-2.5 -14t-5 -34l-6 -46q-3 -20 -7 -57q-6 12 -14.5 30.5t-12.5 25.5q-12 22 -29 36q-17 13 -48 19q-30 6 -82 6h-20q-4 0 -10 -0.5
t-8 -0.5l-10 -65q-6 -46 -7 -59q-3 -25 -3 -45q0 -26 5 -48q5 -20 15 -34q10 -15 25 -29q22 -19 35 -29q-10 0 -32 0.5t-32 0.5q-18 1 -58 1q-20 1 -57 1q-31 0 -50 -1q-36 0 -53 -1q-9 0 -28.5 -0.5t-29.5 -0.5q22 18 35 29q16 15 26 30q11 15 20 37q10 23 17 54
q10 34 17 79q1 7 8 46.5t11 65.5q13 80 21 142q6 55 6 92q0 19 -2 41q-3 20 -10 32q-5 11 -16 26q-1 2 -22 25q18 -1 48 -3q7 0 29 -0.5t36 -0.5h97h3h8q12 0 22 1h43q1 0 10 0.5t19 0.5q15 1 49 1t49 1h28q37 0 48 1q7 0 16 0.5t12 0.5t8.5 0.5t8.5 1.5q2 0 7.5 0.5
t9.5 0.5q-9 -48 -14 -85q-1 -2 -5 -31q-4 -26 -6 -40q-4 -26 -5 -38q-3 -18 -3 -29q-14 26 -45 74q-25 35 -48 53q-27 22 -57 32q-31 10 -74 10q-20 0 -28 -1q-4 0 -10 -0.5t-9 -0.5t-8 -0.5t-6 -0.5q-1 -7 -5 -22t-6 -23q-1 -6 -5 -25t-6 -31q-4 -16 -14 -78z" />
    <glyph glyph-name="G" unicode="G" horiz-adv-x="734" 
d="M598 334l129 3q-39 -43 -58 -82.5t-32 -120.5q-8 -40 -16 -114q-22 0 -116.5 -16.5t-157.5 -16.5q-147 0 -231 74.5t-84 217.5q0 97 40 180.5t105 137.5t144.5 84.5t159.5 30.5q49 0 129 -14.5t102 -14.5h11q-5 -24 -34 -216q-52 102 -100 147.5t-119 45.5
q-108 0 -186.5 -93t-78.5 -261q0 -131 49.5 -200.5t132.5 -69.5q48 0 92 22q15 92 15 136q0 50 -18 83t-62 60q120 -3 184 -3z" />
    <glyph glyph-name="H" unicode="H" horiz-adv-x="799" 
d="M238 697l157 3q-58 -45 -80.5 -97.5t-49.5 -213.5q96 -2 149 -2q51 0 149 2q20 131 20 184q0 47 -11.5 72.5t-40.5 54.5q92 -3 156 -3l157 3q-43 -33 -63 -64t-36 -93.5t-38 -199.5q-26 -167 -26 -220q0 -44 11.5 -67t41.5 -56q-94 3 -158 3l-155 -3q44 35 62 60.5t34 83
t37 187.5q-98 2 -149 2q-53 0 -149 -2q-24 -151 -24 -208q0 -45 11 -67.5t42 -55.5q-94 3 -159 3l-154 -3q45 36 63 62.5t33.5 85t37.5 195.5q27 169 27 232q0 45 -11.5 71t-39.5 54q92 -3 156 -3z" />
    <glyph glyph-name="I" unicode="I" horiz-adv-x="350" 
d="M238 697l157 3q-43 -33 -63 -64t-36 -93.5t-38 -199.5q-26 -167 -26 -220q0 -44 11.5 -67t41.5 -56q-94 3 -159 3l-154 -3q44 36 61.5 61t34 83t36.5 185q29 188 29 248q0 45 -11 69.5t-40 53.5q92 -3 156 -3z" />
    <glyph glyph-name="J" unicode="J" horiz-adv-x="336" 
d="M227 128q-32 -201 -337 -256q157 111 193 341l19 116q31 194 31 250q0 45 -13.5 69.5t-49.5 51.5q102 -3 166 -3l147 3q-41 -34 -58 -62.5t-31.5 -91.5t-37.5 -217q-12 -76 -18.5 -120.5t-8.5 -61t-2 -19.5z" />
    <glyph glyph-name="K" unicode="K" horiz-adv-x="700" 
d="M238 697l149 3q-57 -43 -77 -96.5t-48 -231.5q-30 -190 -30 -250q0 -44 11 -67t42 -55q-94 3 -159 3l-154 -3q45 36 63 62.5t33.5 84.5t36.5 193q28 180 28 237q0 46 -11.5 70.5t-39.5 52.5q92 -3 156 -3zM404 133l-100 190l-32 40l39 29l110 112q80 82 80 131
q0 42 -54 65q143 -5 173 -5l153 5q-96 -43 -163 -87t-152 -137l-43 -46q137 -239 184 -307q48 -68 93 -124q-128 4 -166 4l-172 -4q65 33 65 82q0 22 -15 52z" />
    <glyph glyph-name="L" unicode="L" horiz-adv-x="588" 
d="M232 696l171 4q-47 -33 -68 -63.5t-39 -97t-41 -210.5l-14 -85q-10 -65 -10 -98q0 -52 19 -75.5t62 -23.5q58 0 117.5 44t151.5 151l-16 -48q-16 -49 -37 -111.5t-29 -89.5q-43 6 -109 6l-129 1l-136 2l-154 -2q45 36 63 62t33.5 85t37.5 195q27 171 27 233
q0 45 -11.5 70.5t-39.5 53.5q93 -3 151 -3z" />
    <glyph glyph-name="M" unicode="M" horiz-adv-x="953" 
d="M472 151l288 549q74 -3 101 -3q98 0 137 3q-40 -34 -58 -58.5t-40 -101.5t-46 -226q-21 -135 -21 -189q0 -45 11.5 -69t41.5 -56q-111 3 -175 3l-137 -3q44 36 61.5 61t34 83t36.5 185l37 233l-296 -567q-12 -3 -49 -3q-38 0 -47 3l-149 581l-39 -247q-19 -115 -19 -177
q0 -43 11 -71t26 -42t49 -39q-75 3 -139 3l-118 -3q34 29 47.5 43t30.5 49t27 85.5t25 144.5q27 168 27 245q0 52 -11 78.5t-38 54.5q24 -2 117 -2l131 2z" />
    <glyph glyph-name="N" unicode="N" horiz-adv-x="772" 
d="M612 222l19 124q15 98 15 157q0 80 -22.5 119t-74.5 78q88 -3 152 -3l125 3q-43 -35 -64 -69.5t-37.5 -100.5t-39.5 -212q-27 -172 -49 -335q-14 -2 -33 -2q-21 0 -31 2l-373 549l-29 -183q-15 -96 -15 -153q0 -55 14 -93.5t31 -56t53 -46.5q-85 3 -149 3l-128 -3
q41 34 61 64t36.5 90t35.5 178q24 153 24 219q0 54 -13.5 84.5t-44.5 63.5q24 -2 113 -2l87 2z" />
    <glyph glyph-name="O" unicode="O" horiz-adv-x="778" 
d="M470 712q134 0 213 -76t79 -215q0 -183 -129 -308.5t-314 -125.5q-131 0 -209 70.5t-78 213.5q0 125 60 227t160.5 158t217.5 56zM363 39q103 0 165.5 107t62.5 268q0 247 -157 247q-64 0 -111.5 -40t-72.5 -103t-36.5 -125.5t-11.5 -120.5q0 -113 43 -173t118 -60z" />
    <glyph glyph-name="P" unicode="P" horiz-adv-x="611" 
d="M123 3l-151 -3q45 36 63 62.5t33.5 85t37.5 195.5q27 169 27 232q0 45 -11.5 70.5t-39.5 53.5q95 -3 149 -3q30 0 98 1.5t82 1.5q106 0 162.5 -51.5t56.5 -128.5q0 -66 -29 -116t-78.5 -77.5t-107.5 -41t-124 -13.5q-30 0 -45 1l-4 -28q-11 -74 -11 -111
q0 -47 16.5 -74.5t59.5 -59.5q-115 4 -184 4zM276 466l-21 -137q27 -10 57 -10q63 0 105.5 47t42.5 139q0 59 -27.5 101.5t-78.5 42.5l-42 -4q-18 -69 -36 -179z" />
    <glyph glyph-name="Q" unicode="Q" horiz-adv-x="778" 
d="M470 712q134 0 213 -76t79 -215q0 -165 -107 -285.5t-268 -143.5l36 -16q14 -6 55.5 -25t61 -26.5t53.5 -19.5t64 -16.5t62 -4.5q37 0 72 7q-92 -112 -190 -112q-134 0 -261 209q-7 -1 -21 -1q-131 0 -209 70.5t-78 213.5q0 125 60 227t160.5 158t217.5 56zM363 39
q103 0 165.5 107t62.5 268q0 247 -157 247q-64 0 -111.5 -40t-72.5 -103t-36.5 -125.5t-11.5 -120.5q0 -113 43 -173t118 -60z" />
    <glyph glyph-name="R" unicode="R" horiz-adv-x="668" 
d="M419 31q-33 56 -112 257q-12 0 -31.5 0.5t-25.5 0.5v-4q-21 -137 -21 -172q0 -37 11.5 -55.5t45.5 -49.5l3 -3t3 -2.5t3 -2.5q-103 3 -168 3l-154 -3q61 42 82.5 101.5t49.5 237.5q29 187 29 240q0 44 -11.5 70t-39.5 51q96 -5 147 -5q28 0 99 2.5t89 2.5
q111 0 169 -46.5t58 -123.5q0 -75 -53 -129t-136 -80q64 -153 134 -240q24 -31 70 -67q-63 -56 -125 -56q-72 0 -116 73zM316 647q-19 -68 -57 -305q23 -5 51 -5q73 0 117 51t44 127q0 59 -28.5 97t-80.5 38q-25 0 -46 -3z" />
    <glyph glyph-name="S" unicode="S" horiz-adv-x="568" 
d="M21 235q46 -87 103.5 -143t115.5 -56q44 0 78.5 30t34.5 87q0 45 -25 74.5t-94 80.5q-41 30 -61 46t-44 41.5t-33.5 52t-9.5 58.5q0 92 79.5 149t193.5 57q43 0 111 -12t89 -13h11q-24 -128 -33 -211q-40 89 -82.5 137t-101.5 48q-47 0 -79.5 -29.5t-32.5 -76.5
q0 -33 19 -55.5t74 -66.5q12 -9 18 -14q92 -73 128 -119t36 -109q0 -97 -78 -150.5t-201 -53.5q-45 0 -113 11t-106 11q4 55 4 155q0 51 -1 71z" />
    <glyph glyph-name="T" unicode="T" horiz-adv-x="677" 
d="M40 456q14 68 30 173q2 15 9 75q43 -6 108 -6q6 0 110 -1t110 -1q5 0 104 1t106 1q66 0 109 6q-2 -10 -7 -33.5t-8 -41.5q-19 -119 -24 -173q-29 85 -84 139t-120 54q-19 -67 -61 -327q-24 -151 -24 -204q0 -30 7.5 -51t17 -32t34.5 -35q-99 3 -163 3l-161 -3
q50 36 68.5 60.5t34 80t36.5 190.5q44 276 42 318q-79 0 -149 -53.5t-125 -139.5z" />
    <glyph glyph-name="U" unicode="U" horiz-adv-x="720" 
d="M656 368l-20 -125q-10 -61 -36 -108.5t-59 -74.5t-74.5 -44t-77.5 -23t-73 -6q-25 0 -50.5 2.5t-64 13t-67 28.5t-49.5 52.5t-21 81.5q0 18 3 39l26 164q27 168 27 222q0 37 -10 58.5t-36 50.5q92 -3 152 -3l168 4q-39 -25 -56 -39t-35 -41t-27 -64.5t-18 -103.5
l-29 -200q-4 -27 -4 -55q0 -150 137 -150q85 0 139.5 58t70.5 157l30 187q8 55 8 98q0 41 -11.5 68.5t-24.5 40t-49 42.5q82 -1 129 -1l126 3q-42 -34 -60 -63t-30.5 -81.5t-33.5 -187.5z" />
    <glyph glyph-name="V" unicode="V" horiz-adv-x="665" 
d="M222 1q-60 301 -104 498q-16 73 -30.5 113.5t-42.5 87.5q107 -5 144 -5l149 5q-49 -30 -62 -60.5t-10 -74.5q5 -53 24 -147l61 -296l153 309q60 121 60 177q0 34 -19 54.5t-60 37.5q109 -5 144 -5l114 5q-48 -45 -77 -89.5t-89 -159.5q-173 -330 -225 -450q-15 -3 -66 -3
q-50 0 -64 3z" />
    <glyph glyph-name="W" unicode="W" horiz-adv-x="1015" 
d="M852 431q52 104 52 158q0 13 -3.5 24.5t-6.5 19t-13 19t-13.5 15t-19 17t-18.5 16.5q113 -5 149 -5l114 5q-6 -7 -18.5 -21t-17 -19t-14 -16.5t-14.5 -18.5t-14.5 -20.5t-17 -26.5t-19 -32.5t-24 -42t-28.5 -52.5q-144 -265 -224 -450q-16 -3 -67 -3t-64 3
q-5 30 -16 104.5l-22 149t-23 140.5l-173 -394q-15 -3 -66 -3t-65 3q-5 33 -20 133.5t-30 196t-30 168.5q-19 94 -30 129.5t-37 71.5q107 -5 143 -5l150 5q-43 -25 -58.5 -48t-15.5 -53q0 -10 2 -34l15 -147l38 -298l164 349l-6 30q-19 88 -33.5 126t-43.5 75q116 -5 153 -5
l141 5q-43 -28 -58 -52t-15 -56q0 -10 2 -34q3 -51 15 -140l48 -296z" />
    <glyph glyph-name="X" unicode="X" horiz-adv-x="629" 
d="M287 267l-5 10l-104 -113q-33 -38 -33 -81q0 -51 42 -83q-77 3 -113 3l-148 -3q122 93 247 229l87 96l-79 169q-3 7 -16 35.5t-18.5 40t-18.5 36t-22.5 38t-23 30t-27.5 26.5q126 -5 163 -5l144 5q-55 -41 -55 -91q0 -18 8 -42q7 -20 56 -118v-1l69 75q44 49 44 95
t-44 82q90 -5 126 -5l128 5q-28 -20 -51.5 -39.5t-50.5 -47t-41 -42t-51.5 -55.5t-52.5 -58l-53 -58l29 -60l66 -147q56 -126 127 -194q-104 4 -141 4l-175 -4q32 27 46.5 46.5t14.5 43.5q0 23 -17 60z" />
    <glyph glyph-name="Y" unicode="Y" horiz-adv-x="635" 
d="M498 453l-104 -149q-19 -118 -19 -173q0 -16 1 -28t5 -23.5t5.5 -17.5t10 -16.5t11 -13.5t14.5 -16t15 -16q-101 3 -165 3l-167 -3q6 5 23.5 19t21 17t16.5 16t16 20.5t12.5 23.5t13 32.5t10.5 41.5t12.5 55t11.5 69l2 11l-86 199q-5 11 -15.5 36t-14 33t-12 26t-13 26.5
t-13 22.5t-16.5 26t-19 26q144 -5 181 -5l115 5q-66 -47 -66 -85q0 -18 13 -46l84 -197l71 105q68 99 68 145q0 42 -59 78q99 -5 136 -5l99 5q-18 -15 -35.5 -33t-30 -32t-32.5 -40.5t-29.5 -39.5t-35 -50t-36.5 -52z" />
    <glyph glyph-name="Z" unicode="Z" horiz-adv-x="638" 
d="M166 47q89 0 162 15t127.5 43.5t89.5 56t74 66.5q-87 -179 -104 -234q-42 6 -107 6h-424l7 47l456 602q-148 0 -232.5 -44t-144.5 -126q6 26 23 133q9 53 13 94q54 -7 105 -7h423l-7 -44z" />
    <glyph glyph-name="bracketleft" unicode="[" horiz-adv-x="298" 
d="M-1 -175l150 950h218l-6 -39h-119l-138 -872h119l-6 -39h-218z" />
    <glyph glyph-name="backslash" unicode="\" horiz-adv-x="426" 
d="M354 -21l-79 -29l-189 759l80 29z" />
    <glyph glyph-name="bracketright" unicode="]" horiz-adv-x="297" 
d="M299 775l-150 -950h-217l6 39h118l138 872h-119l6 39h218z" />
    <glyph glyph-name="asciicircum" unicode="^" horiz-adv-x="450" 
d="M309 568l-243 -147l241 280h50l162 -280z" />
    <glyph glyph-name="underscore" unicode="_" horiz-adv-x="510" 
d="M-35 -144l15 95h439l-15 -95h-439z" />
    <glyph glyph-name="grave" unicode="`" horiz-adv-x="258" 
d="M341 565l-199 79q-25 9 -25 32q0 10 8 28q14 27 32.5 34.5t29.5 -6.5z" />
    <glyph glyph-name="a" unicode="a" horiz-adv-x="566" 
d="M530 499l-44 -224q-21 -108 -21 -158q0 -46 13 -68t45 -49h-228l60 291q-25 -66 -45.5 -111t-49 -93.5t-61 -73t-67.5 -24.5q-55 0 -90 43t-35 122q0 85 39 166t114.5 135.5t169.5 54.5q50 0 106 -18zM192 86q36 0 96.5 112t92.5 242q-26 28 -66 28q-46 0 -83.5 -49.5
t-55.5 -115.5t-18 -128q0 -89 34 -89z" />
    <glyph glyph-name="b" unicode="b" horiz-adv-x="549" 
d="M4 21l86 431q19 94 19 150q0 13 -1.5 24t-2.5 18.5t-5 16t-6 13t-8.5 12t-8.5 10t-11 11t-11 10.5l228 10l-105 -520q21 55 35 89t37 79.5t43.5 71t49 44.5t58.5 19q56 0 90.5 -43t34.5 -123q0 -64 -23 -126.5t-64.5 -113.5t-106.5 -83t-142 -32q-48 0 -106.5 10
t-79.5 22zM340 413q-35 0 -96 -113t-92 -241q26 -28 66 -28q46 0 83.5 49.5t55.5 115.5t18 128q0 89 -35 89z" />
    <glyph glyph-name="c" unicode="c" horiz-adv-x="432" 
d="M277 466q-51 0 -83.5 -81.5t-32.5 -166.5q0 -67 23.5 -103t62.5 -36q23 0 57.5 10.5t57.5 27.5q-21 -66 -76.5 -97t-114.5 -31q-68 0 -114.5 43.5t-46.5 133.5q0 44 11.5 90t36.5 92t59.5 81.5t85.5 58t111 22.5q66 0 98 -26.5t32 -62.5q0 -25 -15.5 -42.5t-45.5 -17.5
q-24 0 -38.5 16.5t-19 36t-16.5 36t-32 16.5z" />
    <glyph glyph-name="d" unicode="d" horiz-adv-x="568" 
d="M396 502q15 72 15 108q0 28 -9 47.5t-18.5 29t-34.5 30.5l228 10l-91 -452q-21 -101 -21 -158q0 -32 8.5 -54.5t18 -33t31.5 -29.5h-228l59 285q-23 -61 -44 -108t-49 -92.5t-61 -70.5t-68 -25q-55 0 -90 43t-35 122q0 86 39 166.5t115.5 135t171.5 54.5q30 0 63 -8z
M193 86q35 0 96.5 113t92.5 241q-26 28 -66 28q-46 0 -83.5 -49.5t-56 -115.5t-18.5 -128q0 -89 35 -89z" />
    <glyph glyph-name="e" unicode="e" horiz-adv-x="455" 
d="M455 408q0 -46 -45 -81t-107 -53.5t-143 -28.5v-25q0 -71 29.5 -105.5t75.5 -34.5q62 0 121 51q-10 -60 -68 -101t-129 -41q-72 0 -126 44.5t-54 134.5q0 54 21 113t58.5 110.5t97.5 85t130 33.5t104.5 -30t34.5 -72zM271 465q-41 0 -71 -64.5t-38 -142.5q150 36 150 143
q0 64 -41 64z" />
    <glyph glyph-name="f" unicode="f" horiz-adv-x="367" 
d="M40 493l101 -4l1 3q9 62 38 110q29 45 68 74q35 28 85 44q47 14 92 14q30 0 58 -7q23 -5 39 -18q15 -12 20 -26q6 -15 6 -30q0 -27 -18 -44q-18 -15 -42 -15q-26 0 -38 15q-12 14 -23 32q-12 21 -22 32q-12 15 -34 15q-23 0 -36 -15q-13 -14 -20 -38q-8 -24 -11 -52
l-9 -60l-5 -32h110l-8 -45h-110l-72 -448q-10 -65 -40 -114q-29 -47 -67 -75q-40 -29 -83 -41q-49 -13 -88 -13q-30 0 -58 7q-25 8 -38 18q-15 11 -21 25q-6 15 -6 30q0 25 16 44q15 19 45 19q26 0 39 -15q13 -14 23 -32q7 -12 21 -32q9 -15 30 -15q16 0 28 12q10 11 19 34
q9 25 13 52q6 32 12 69l77 477h-100z" />
    <glyph glyph-name="g" unicode="g" horiz-adv-x="550" 
d="M131 -11q-54 0 -89 43t-35 122q0 85 39 165.5t114.5 135.5t169.5 55q50 0 106 -18l94 7l-84 -453q-25 -137 -118 -211t-210 -74q-76 0 -124 30t-48 77q0 74 118 95q-4 -20 -4 -42q0 -54 27 -84t70 -30q58 0 90.5 59.5t59.5 190.5l48 235q-26 -68 -46 -113t-48.5 -93.5
t-61 -72.5t-68.5 -24zM191 86q37 0 97 111.5t92 242.5q-26 28 -65 28q-47 0 -84.5 -50t-55 -116t-17.5 -128q0 -88 33 -88z" />
    <glyph glyph-name="h" unicode="h" horiz-adv-x="580" 
d="M285 727l-97 -490q61 137 118 205t123 68q49 0 75.5 -34t26.5 -82q0 -17 -3 -32l-16 -74q-29 -134 -29 -184q0 -39 13 -60.5t44 -43.5h-228l46 216l26 122q5 21 -3 40t-32 19q-42 0 -85 -63t-73.5 -152t-46.5 -182h-141l89 452q22 111 22 160q0 29 -8 49t-17 28.5
t-32 27.5z" />
    <glyph glyph-name="i" unicode="i" horiz-adv-x="292" 
d="M142 668q0 37 28 69t64 32q29 0 48.5 -23t19.5 -58q0 -39 -27 -68.5t-61 -29.5q-29 0 -50.5 22t-21.5 56zM19 0l44 214q23 109 23 164q0 43 -12.5 65t-43.5 47l228 10l-44 -215q-25 -122 -25 -176q0 -41 12 -63.5t40 -45.5h-222z" />
    <glyph glyph-name="j" unicode="j" horiz-adv-x="277" 
d="M40 93l26 121q23 108 23 162q0 44 -13 66t-44 48l228 10l-44 -217l-50 -254q-7 -50 -35 -94t-71 -78t-82.5 -57t-88.5 -46q35 36 62 81.5t45 98t26 82.5t18 77zM130 668q0 37 26.5 69t62.5 32q30 0 50.5 -23t20.5 -58q0 -39 -27 -68.5t-61 -29.5q-29 0 -50.5 22t-21.5 56
z" />
    <glyph glyph-name="k" unicode="k" horiz-adv-x="541" 
d="M285 727l-66 -325q34 51 79 79.5t93 28.5t83.5 -27t35.5 -79q0 -27 -12 -50t-25.5 -38t-43.5 -31.5t-46 -23.5t-52 -22q-11 -5 -17 -7q80 -88 194 -182l-113 -88q-37 31 -77.5 71.5t-63 65.5t-70.5 79q78 30 128.5 83t50.5 113q0 54 -43 54q-47 0 -106 -49l-76 -379h-136
l90 452q22 110 22 159q0 29 -8 49t-17 29.5t-32 27.5z" />
    <glyph glyph-name="l" unicode="l" horiz-adv-x="279" 
d="M5 0l91 452q21 102 21 157q0 29 -7.5 49t-17 30.5t-30.5 28.5l228 10l-40 -194l-51 -258q-26 -132 -26 -177q0 -36 12 -56t42 -42h-222z" />
    <glyph glyph-name="m" unicode="m" horiz-adv-x="904" 
d="M525 288l-14 -61q63 148 117 215.5t122 67.5q52 0 78 -34.5t26 -81.5q0 -17 -3 -32l-16 -74q-29 -134 -29 -184q0 -39 13 -60.5t44 -43.5h-228l46 216l26 122q5 21 -3 40t-32 19q-42 0 -83.5 -63.5t-70.5 -151.5t-45 -182h-148l37 156l35 182q5 21 -3 40t-32 19
q-42 0 -83.5 -63.5t-70.5 -151.5t-45 -182h-141l42 227q21 114 21 160q0 29 -8 48t-16.5 27.5t-31.5 27.5l228 10l-58 -277q63 149 117.5 218t123.5 69q52 0 78 -34.5t26 -81.5q0 -17 -3 -32z" />
    <glyph glyph-name="n" unicode="n" 
d="M257 500l-59 -278q60 142 118 215t125 73q56 0 82.5 -34t26.5 -81q0 -17 -3 -33l-16 -74q-29 -133 -29 -184q0 -39 13 -60.5t44 -43.5h-228l46 216l26 122q5 21 -3 40t-32 19q-42 0 -85 -63t-73.5 -152t-46.5 -182h-141l42 227q21 114 21 160q0 29 -8 48t-16.5 27.5
t-31.5 27.5z" />
    <glyph glyph-name="o" unicode="o" horiz-adv-x="540" 
d="M318 510q94 0 143.5 -56t49.5 -152q0 -132 -87.5 -222t-213.5 -90q-90 0 -144 50.5t-54 147.5q0 130 89.5 226t216.5 96zM228 28q58 0 95.5 88.5t37.5 215.5q0 70 -15 104.5t-50 34.5q-43 0 -74.5 -50.5t-45.5 -119t-14 -140.5q0 -133 66 -133z" />
    <glyph glyph-name="p" unicode="p" horiz-adv-x="573" 
d="M244 -11q-16 0 -82 7q-16 -79 -16 -121q0 -45 18 -64.5t66 -42.5q-92 4 -164 4l-163 -3q40 29 58 53t36.5 82.5t42.5 185.5l24 124q20 103 20 158q0 32 -7.5 54.5t-17 33.5t-29.5 30l226 10l-57 -297q23 63 38 99t38 81.5t43 69t48 40.5t59 17q54 0 88 -43.5t34 -129.5
q0 -61 -18.5 -120.5t-53.5 -111.5t-95 -84t-136 -32zM363 413q-37 0 -96.5 -111.5t-91.5 -242.5q26 -28 65 -28q47 0 84 49.5t54.5 115t17.5 128.5q0 89 -33 89z" />
    <glyph glyph-name="q" unicode="q" horiz-adv-x="549" 
d="M307 57l49 234q-59 -153 -110 -227.5t-118 -74.5q-52 0 -86.5 44t-34.5 122q0 84 39 164.5t114.5 135.5t169.5 55q50 0 106 -18l94 7l-78 -409q-32 -166 -32 -225q0 -34 8 -54t27 -43q-112 3 -174 3l-147 -4q7 4 23.5 13.5t22.5 13t19 13t18.5 15.5t16 18.5t16 25.5
t14 32t14.5 42t14 52t15 65zM192 86q37 0 97.5 113.5t91.5 240.5q-26 28 -65 28q-47 0 -84.5 -49.5t-55.5 -116t-18 -128.5q0 -88 34 -88z" />
    <glyph glyph-name="r" unicode="r" horiz-adv-x="433" 
d="M257 500l-59 -289q8 20 22.5 56t21.5 53t19 46t19.5 43t18.5 34t20.5 29.5t21 19.5t24 14t26.5 4q30 0 46.5 -19t16.5 -48t-15.5 -52t-43.5 -23q-10 0 -32 4.5t-28 4.5q-26 0 -54.5 -39.5t-51 -100t-39.5 -122t-27 -115.5h-141l42 214q20 100 20 155q0 33 -9 57.5
t-16.5 33t-29.5 30.5z" />
    <glyph glyph-name="s" unicode="s" horiz-adv-x="435" 
d="M233 475q-26 0 -40 -17t-14 -36q0 -25 33 -58.5t73 -63t73 -73t33 -87.5q0 -66 -66 -108.5t-159 -42.5q-68 0 -123 23t-55 70q0 24 15 40t41 16q25 0 41 -17.5t23 -38t24.5 -38t44.5 -17.5q33 0 51 22t18 51q0 28 -20.5 55.5t-50 50t-58.5 46t-49.5 54t-20.5 63.5
q0 62 62.5 101.5t149.5 39.5q58 0 103.5 -18.5t45.5 -57.5q0 -23 -15.5 -41t-42.5 -18q-22 0 -36.5 15.5t-21 34.5t-21.5 34.5t-38 15.5z" />
    <glyph glyph-name="t" unicode="t" horiz-adv-x="357" 
d="M25 445l6 45h81l23 105l147 20l-26 -125h133l-6 -45h-136l-56 -279q-5 -28 -5 -42q0 -46 46 -46q39 0 80 28q-27 -61 -63 -89t-90 -28q-116 0 -116 117q0 25 6 55l53 280l1 4h-78z" />
    <glyph glyph-name="u" unicode="u" 
d="M555 0h-228l59 276q-60 -143 -116.5 -214.5t-126.5 -71.5q-55 0 -81 33t-26 80q0 13 4 35l16 74q29 133 29 180q0 37 -13 57t-44 42l228 10l-46 -217l-26 -122q-5 -22 1.5 -40.5t30.5 -18.5q42 0 85 62.5t73.5 151t46.5 180.5h141l-42 -224q-21 -114 -21 -163
q0 -43 12.5 -64t43.5 -46z" />
    <glyph glyph-name="v" unicode="v" horiz-adv-x="549" 
d="M45 119l14 117q11 87 11 139q0 27 -2.5 43.5t-13.5 30.5t-16 18.5t-27 22.5l226 10l-52 -398q-7 -60 46 -60q46 0 87.5 49.5t63.5 118t22 130.5q0 40 -12 50.5t-50 14.5q-50 6 -50 47q0 58 85 58q71 0 115 -40.5t44 -104.5q0 -73 -53.5 -161t-142 -152t-175.5 -64
q-72 0 -99.5 40.5t-20.5 90.5z" />
    <glyph glyph-name="w" unicode="w" horiz-adv-x="861" 
d="M357 119l33 163q-65 -150 -126 -221t-133 -71q-46 0 -71 27.5t-25 75.5q0 18 5 45l16 74q29 134 29 180q0 36 -12.5 56t-44.5 42l228 10l-46 -216l-26 -122q-4 -22 -4 -33q0 -46 34 -46q41 0 85 68.5t75.5 162t46.5 183.5h141l-67 -375q-14 -80 47 -80q48 0 89 49.5
t63 118t22 130.5q0 40 -12 50.5t-50 14.5q-50 6 -50 47q0 58 85 58q71 0 115 -40.5t44 -104.5q0 -54 -32 -120t-83 -123t-122 -95.5t-141 -38.5q-59 0 -88 26.5t-29 70.5q0 10 4 34z" />
    <glyph glyph-name="x" unicode="x" horiz-adv-x="516" 
d="M246 500l47 -153l3 4q58 89 95 124t72 35q59 0 59 -63q0 -59 -76 -63q-30 -1 -50 -4.5t-48.5 -18t-45.5 -40.5l39 -125q23 -72 52.5 -114.5t85.5 -81.5h-223l-54 168l-19 -29q-27 -43 -40.5 -63t-34 -44.5t-38.5 -34t-39 -9.5q-28 0 -44.5 18t-16.5 45q0 32 22 49t53 19
q103 5 147 72l2 2l-32 100q-27 85 -50.5 124.5t-78.5 72.5z" />
    <glyph glyph-name="y" unicode="y" horiz-adv-x="581" 
d="M561 500l-84 -454q-25 -139 -114 -212t-215 -73q-69 0 -115 22t-46 67q0 74 118 95q-5 -20 -5 -37q0 -42 23 -71.5t65 -29.5q31 0 55 19t41.5 57t29 77t24.5 97l47 214q-60 -142 -115.5 -211.5t-129.5 -69.5q-54 0 -79.5 33t-25.5 80q0 13 4 35l16 74q29 134 29 180
q0 36 -12.5 56t-44.5 42l228 10l-46 -216l-26 -122q-5 -22 1.5 -40.5t30.5 -18.5q42 0 85 63t73.5 152t46.5 182h141z" />
    <glyph glyph-name="z" unicode="z" horiz-adv-x="489" 
d="M384 -8q-43 0 -180.5 4t-206.5 4v21l321 351h-135q-46 0 -83 -15t-78 -61q52 172 56 204q28 -1 100 -1h193l85 1v-16l-318 -356q77 -10 180 -10q45 0 78 13.5t88 49.5q-12 -16 -28 -45t-26.5 -49.5t-27 -55t-18.5 -39.5z" />
    <glyph glyph-name="braceleft" unicode="{" horiz-adv-x="278" 
d="M187 -175q-82 0 -124.5 35t-42.5 98q0 18 3 37l41 206q14 85 -73 93q54 14 75 33.5t28 59.5l26 222q25 164 217 164h23q-41 -13 -67 -28.5t-40 -38t-19 -42t-10 -54.5l-18 -164q-19 -135 -129 -151q87 -11 87 -99q0 -21 -4 -41l-33 -161q-10 -54 -10 -71q0 -32 20 -55
t73 -43h-23z" />
    <glyph glyph-name="bar" unicode="|" horiz-adv-x="231" 
d="M22 -46l127 802h79l-127 -802h-79z" />
    <glyph glyph-name="braceright" unicode="}" horiz-adv-x="278" 
d="M69 773h23q82 0 125 -34t43 -96q0 -21 -4 -40l-41 -206q-16 -85 73 -93q-55 -14 -76 -33.5t-26 -59.5l-27 -222q-10 -79 -66 -121.5t-151 -42.5h-22q78 24 103.5 60t32.5 103l17 164q14 135 129 151q-88 12 -88 97q0 18 5 43l34 161q10 52 10 69q0 33 -20.5 56.5
t-73.5 43.5z" />
    <glyph glyph-name="asciitilde" unicode="~" horiz-adv-x="570" 
d="M201 389q44 0 111.5 -31t104.5 -31q27 0 49 14.5t48 55.5q6 -22 6 -44q0 -58 -38 -99t-89 -41q-33 0 -105 32.5t-115 32.5q-72 0 -121 -67q-8 72 33.5 125t115.5 53z" />
    <glyph glyph-name="exclamdown" unicode="&#xa1;" horiz-adv-x="248" 
d="M235 439q0 -43 -35.5 -78t-80.5 -35q-32 0 -51 19.5t-19 51.5q0 45 35.5 79t78.5 34q32 0 52 -20t20 -51zM121 254q-3 -19 1 -45q2 -15 16 -81.5t14 -114.5q0 -38 -5 -69q-14 -89 -37 -121t-65 -32q-34 0 -48.5 15t-14.5 55q0 30 9 83q10 65 36 122t55 106t39 82z" />
    <glyph glyph-name="cent" unicode="&#xa2;" horiz-adv-x="480" 
d="M194 -84l11 74q-5 -1 -14 -1q-68 0 -114.5 43.5t-46.5 133.5q0 51 16 104.5t46.5 103t81.5 86t114 46.5l11 70h41l-11 -66h5q66 0 98 -26.5t32 -62.5q0 -25 -15.5 -42.5t-45.5 -17.5q-26 0 -39.5 18t-22.5 44t-20 35l-60 -379h6q23 0 57.5 10.5t57.5 27.5
q-29 -94 -134 -121l-13 -80h-41zM181 218q0 -90 41 -124l59 369q-45 -13 -72.5 -90.5t-27.5 -154.5z" />
    <glyph glyph-name="sterling" unicode="&#xa3;" horiz-adv-x="471" 
d="M451 458q-46 12 -79 11q-98 -2 -114 -103l-9 -59h105l-7 -42h-105l-3 -23q-4 -25 -10 -40.5t-20.5 -34t-44 -32t-74.5 -22.5h136q141 0 168 45q9 -26 9 -47q0 -56 -57.5 -83.5t-146.5 -27.5h-213q53 85 76 129t29 79l9 57h-69l7 42h69l11 67q11 73 72.5 119.5t132.5 46.5
q95 0 128 -82z" />
    <glyph glyph-name="currency" unicode="&#xa4;" horiz-adv-x="498" 
d="M362 163l60 -72l-49 -47l-62 74q-45 -28 -94 -28q-48 0 -86 30l-88 -76l-32 47l85 75q-16 34 -16 74q0 62 46 116l-61 74l47 47l65 -77q46 30 94 30q46 0 84 -28l87 75l34 -47l-84 -72q18 -33 18 -73q0 -66 -48 -122zM189 249q0 -23 12.5 -37.5t32.5 -14.5q26 0 45.5 21
t19.5 49q0 21 -12.5 35.5t-32.5 14.5q-26 0 -45.5 -21.5t-19.5 -46.5z" />
    <glyph glyph-name="yen" unicode="&#xa5;" horiz-adv-x="588" 
d="M436 344l-44 -59h102l-9 -57h-133q-1 -10 -3.5 -25.5t-4 -26.5t-2.5 -20h131l-9 -57h-125q0 -16 2 -27.5t8 -22t9 -15t15 -17.5t16 -17q-57 2 -108 2l-176 -2q8 6 22 17.5t19.5 17t14.5 15t14.5 21.5t10.5 28h-125l9 57h130q6 30 12 67v5h-130l9 57h98l-44 98
q-6 13 -16 36t-13.5 31t-12 23t-17.5 28t-23 31q106 -4 135 -4l120 4q-47 -42 -47 -72q0 -17 11 -39l63 -136h1l50 73q47 69 47 104q0 39 -54 70q95 -4 124 -4l79 4q-24 -20 -46 -43.5t-33 -38t-37.5 -52t-39.5 -54.5z" />
    <glyph glyph-name="brokenbar" unicode="&#xa6;" horiz-adv-x="238" 
d="M97 425l52 331h85l-52 -331h-85zM22 -46l53 331h85l-53 -331h-85z" />
    <glyph glyph-name="section" unicode="&#xa7;" horiz-adv-x="522" 
d="M174 291q-6 11 -23 40t-23 40t-18.5 34t-17.5 35.5t-11.5 30.5t-9 33.5t-2.5 30.5q0 78 62 127t141 49q73 0 122 -44t46 -129q-46 41 -80 41q-27 0 -41 -17t-14 -44q0 -8 1 -15t4.5 -16.5t6 -15.5t9.5 -19.5t11.5 -21t15.5 -26.5t18 -31q94 -165 94 -234q0 -71 -56 -122
t-147 -51q-67 0 -116.5 43t-50.5 133q45 -42 78 -42q52 0 52 66q0 23 -9.5 46.5t-41.5 78.5zM228 335q9 -17 20.5 -38.5t16 -31t11.5 -23t9 -19.5t5 -14.5t3.5 -15t0.5 -14.5q0 -50 -28 -84q12 -2 19 -2q43 0 65 29.5t22 74.5q0 25 -13 55.5t-57 105.5q-8 13 -19.5 32.5
t-16 27t-11.5 20.5t-9.5 18.5t-5.5 14t-3.5 15.5t-0.5 16q0 53 32 85q-14 3 -25 3q-40 -1 -63 -23t-23 -59q0 -20 13 -53t58 -120z" />
    <glyph glyph-name="dieresis" unicode="&#xa8;" horiz-adv-x="368" 
d="M109 630q0 34 27.5 61.5t63.5 27.5q25 0 40.5 -15.5t15.5 -39.5q0 -34 -28.5 -61.5t-62.5 -27.5q-25 0 -40.5 15.5t-15.5 39.5zM294 631q0 34 29 61t64 27q25 0 39.5 -15.5t14.5 -39.5q0 -34 -27.5 -61.5t-61.5 -27.5q-25 0 -41.5 16t-16.5 40z" />
    <glyph glyph-name="copyright" unicode="&#xa9;" horiz-adv-x="623" 
d="M263 -7q-104 0 -163 60.5t-59 159.5q0 129 93 224.5t222 95.5q100 0 156.5 -61.5t56.5 -161.5q0 -128 -87 -222.5t-219 -94.5zM270 54q95 0 161 68.5t66 176.5q0 85 -43 129t-114 44q-93 0 -160 -69t-67 -178q0 -84 42.5 -127.5t114.5 -43.5zM396 127q-10 0 -43 -6.5
t-63 -6.5q-141 0 -141 115q0 80 60 133t137 53q22 0 52.5 -6t40.5 -6h4q-12 -81 -13 -84q-32 48 -49 60q-18 13 -39 13q-39 0 -72.5 -38.5t-33.5 -106.5q0 -56 23 -84t54 -28q48 0 104 76q-4 -12 -21 -84z" />
    <glyph glyph-name="ordfeminine" unicode="&#xaa;" horiz-adv-x="497" 
d="M488 766l-34 -170q-15 -71 -15 -115q0 -25 6.5 -42.5t13 -25t24.5 -23.5h-184l52 227q-20 -49 -36.5 -84.5t-39.5 -73t-49 -57.5t-53 -20q-42 0 -70 32.5t-28 89.5q0 104 73 187t183 83q35 0 77 -13zM224 458q24 0 70.5 83.5t70.5 178.5q-19 21 -48 21q-50 0 -83.5 -72.5
t-33.5 -147.5q0 -63 24 -63zM77 292l8 51h367l-8 -51h-367z" />
    <glyph glyph-name="guillemotleft" unicode="&#xab;" horiz-adv-x="467" 
d="M201 49l-178 206l244 207l-106 -204zM373 49l-177 206l243 207l-105 -204z" />
    <glyph glyph-name="logicalnot" unicode="&#xac;" horiz-adv-x="606" 
d="M426 62l30 190h-406l15 95h487l-45 -285h-81z" />
    <glyph glyph-name="registered" unicode="&#xae;" horiz-adv-x="623" 
d="M336 210q-114 0 -182.5 71t-68.5 179q0 106 70.5 178.5t180.5 72.5q115 0 182.5 -71.5t67.5 -179.5q0 -106 -70 -178t-180 -72zM336 263q91 0 137 51.5t46 145.5q0 95 -46 146.5t-137 51.5t-137.5 -51.5t-46.5 -146.5q0 -94 46.5 -145.5t137.5 -51.5zM372 357
q-9 11 -28.5 43t-27.5 49h-10q0 -59 4.5 -71.5t29.5 -31.5q-45 1 -70 1l-65 -1q13 15 17.5 21t9 20.5t4.5 35.5v91q0 22 -4 37.5t-9 23t-18 21.5q42 -2 63 -2q10 0 40 1t38 1q48 0 75 -17t27 -48q0 -50 -60 -69q29 -51 64 -85q20 -18 34 -20q-22 -24 -58 -24q-37 0 -56 24z
M308 578q-2 -28 -2 -112q7 -1 21 -1q45 0 45 47q0 26 -15.5 46t-39.5 20h-9z" />
    <glyph glyph-name="macron" unicode="&#xaf;" horiz-adv-x="322" 
d="M406 619h-286q-2 35 11 70h286q0 -35 -11 -70z" />
    <glyph glyph-name="degree" unicode="&#xb0;" horiz-adv-x="345" 
d="M187 415q-56 0 -87 29t-31 87q0 74 47.5 124.5t125.5 50.5q114 0 114 -118q0 -77 -47 -125t-122 -48zM196 462q38 0 58.5 38.5t20.5 92.5q0 66 -44 66q-40 0 -60 -38.5t-20 -90.5q0 -68 45 -68z" />
    <glyph glyph-name="plusminus" unicode="&#xb1;" horiz-adv-x="489" 
d="M174 140l18 118h-147l16 98h147l22 141h93l-22 -141h146l-16 -98h-146l-18 -118h-93zM8 22l14 91h386l-14 -91h-386z" />
    <glyph glyph-name="twosuperior" unicode="&#xb2;" horiz-adv-x="410" 
d="M129 819q5 63 52 96t116 33q63 0 104 -32.5t41 -88.5q0 -32 -16 -64.5t-38.5 -57.5t-61 -55t-67 -48.5t-75 -47.5t-67.5 -43l313 4l-34 -100h-361l9 62q149 134 205.5 201.5t56.5 128.5q0 37 -19 56t-48 19q-35 0 -66 -17t-44 -46z" />
    <glyph glyph-name="threesuperior" unicode="&#xb3;" horiz-adv-x="379" 
d="M124 855q37 94 154 94q59 0 97 -25t38 -70q0 -50 -48 -86t-124 -46q78 -9 117 -46t39 -93q0 -77 -65 -127t-152 -50q-53 0 -89.5 22t-40.5 70q48 -29 103 -29q49 0 81 27t32 74q0 46 -33.5 66t-103.5 25l18 50q62 1 96.5 33t34.5 78q0 64 -68 64q-53 0 -86 -31z" />
    <glyph glyph-name="acute" unicode="&#xb4;" horiz-adv-x="258" 
d="M340 644l-199 -79l154 167q11 14 29.5 6.5t32.5 -34.5q8 -18 8 -28q0 -23 -25 -32z" />
    <glyph glyph-name="mu" unicode="&#xb5;" horiz-adv-x="637" 
d="M-4 -228l68 427l44 277l159 24q-24 -93 -56 -287q-5 -35 -5 -54q0 -43 17.5 -62.5t53.5 -19.5q35 0 89 15l61 384l153 24q-7 -38 -48 -267q-9 -54 -9 -92q0 -83 44 -124l-214 -31l10 71q-66 -69 -147 -69q-22 0 -42 6l-35 -222h-143z" />
    <glyph glyph-name="paragraph" unicode="&#xb6;" horiz-adv-x="618" 
d="M364 -232l-15 434q-35 -4 -62 -4q-104 0 -172 49.5t-68 150.5q0 56 22 108.5t64 96.5t111 70.5t154 26.5h252q-51 -43 -85.5 -152t-139.5 -534q-38 -155 -61 -246z" />
    <glyph glyph-name="periodcentered" unicode="&#xb7;" horiz-adv-x="240" 
d="M45 329q0 37 31 68.5t70 31.5q29 0 46 -17.5t17 -45.5q0 -38 -32 -68.5t-69 -30.5q-28 0 -45.5 17.5t-17.5 44.5z" />
    <glyph glyph-name="cedilla" unicode="&#xb8;" horiz-adv-x="246" 
d="M218 -128q0 -45 -37.5 -73t-85.5 -28q-39 0 -64 20t-20 56q26 -17 63 -17q26 0 41.5 10.5t15.5 28.5q0 38 -75 52l42 84h46l-32 -40q50 -7 78 -31.5t28 -61.5z" />
    <glyph glyph-name="onesuperior" unicode="&#xb9;" horiz-adv-x="290" 
d="M271 677q-15 -101 -15 -146q0 -13 1 -24.5t2 -19.5t5.5 -16.5t6 -12.5t8 -12t8 -10t10.5 -10.5t11 -10.5q-107 2 -137 2l-136 -2l9 6q42 28 56 49q28 42 53 203q18 109 18 153q0 40 -14.5 58.5t-55.5 40.5l222 25q-19 -72 -52 -273z" />
    <glyph glyph-name="ordmasculine" unicode="&#xba;" horiz-adv-x="487" 
d="M68 292l8 51h368l-8 -51h-368zM324 774q73 0 112.5 -42t39.5 -116q0 -102 -69 -168t-166 -66q-70 0 -113.5 38t-43.5 114q0 99 70.5 169.5t169.5 70.5zM255 413q43 0 70 65t27 164q0 54 -10 77.5t-35 23.5q-48 0 -74 -72.5t-26 -160.5q0 -97 48 -97z" />
    <glyph glyph-name="guillemotright" unicode="&#xbb;" horiz-adv-x="465" 
d="M252 462l177 -206l-243 -207l106 204zM79 462l177 -206l-243 -207l106 204z" />
    <glyph glyph-name="onequarter" unicode="&#xbc;" horiz-adv-x="960" 
d="M288 3h-92l292 358l192 334h91l-278 -337zM788 1l-119 -9l22 135h-229l10 66l315 331h83l-47 -299h94l-24 -98h-85zM554 224l152 1l31 194zM260 439q-15 -101 -15 -146q0 -13 1 -24.5t2 -19.5t5.5 -16.5t6 -12.5t8 -12t8 -10t10.5 -10.5t11 -10.5q-107 2 -137 2l-136 -2
q47 31 59 46q29 37 51 164q4 22 8 48q18 109 18 153q0 40 -14.5 58.5t-55.5 40.5l222 25q-19 -72 -52 -273z" />
    <glyph glyph-name="onehalf" unicode="&#xbd;" horiz-adv-x="1002" 
d="M259 439q-15 -101 -15 -146q0 -13 1 -24.5t2 -19.5t5.5 -16.5t6 -12.5t8 -12t8 -10t10.5 -10.5t11 -10.5q-107 2 -137 2l-136 -2q47 31 59 46q29 37 51 164q4 22 8 48q18 109 18 153q0 40 -14.5 58.5t-55.5 40.5l222 25q-19 -72 -52 -273zM637 404q5 63 52 96t116 33
q63 0 104 -32.5t41 -88.5q0 -32 -16 -64.5t-38.5 -57.5t-61 -55t-67 -48.5t-75 -47.5t-67.5 -43l313 4l-34 -100h-361l9 62q149 134 205.5 201.5t56.5 128.5q0 37 -19 56t-48 19q-35 0 -66 -17t-44 -46zM292 3h-92l292 358l192 334h91l-278 -337z" />
    <glyph glyph-name="threequarters" unicode="&#xbe;" horiz-adv-x="964" 
d="M107 618q37 94 154 94q59 0 97 -25t38 -70q0 -50 -48 -86t-124 -46q78 -9 117 -46t39 -93q0 -77 -65 -127t-152 -50q-53 0 -89.5 22t-40.5 70q48 -29 103 -29q49 0 81 27t32 74q0 46 -33.5 66t-103.5 25l18 50q62 1 96.5 33t34.5 78q0 64 -68 64q-53 0 -86 -31zM301 3
h-92l292 358l192 334h91l-278 -337zM791 1l-119 -9l22 135h-229l10 66l315 331h83l-47 -299h94l-24 -98h-85zM557 224l152 1l31 194z" />
    <glyph glyph-name="questiondown" unicode="&#xbf;" horiz-adv-x="417" 
d="M155 47q-53 -44 -53 -90q0 -36 31.5 -59t78.5 -23q55 0 110 33q-19 -41 -83 -84.5t-140 -43.5q-61 0 -97 30t-36 82q0 29 11.5 51.5t33 38t42.5 27t49 25t44 23.5q51 32 51 79q0 31 -19.5 52.5t-53.5 23.5q64 54 120 54q33 0 52.5 -18.5t19.5 -46.5q0 -32 -24.5 -57
t-71.5 -53.5t-65 -43.5zM345 439q0 -43 -35.5 -78t-80.5 -35q-32 0 -51 19.5t-19 51.5q0 45 35.5 79t78.5 34q32 0 52 -20t20 -51z" />
    <glyph glyph-name="Agrave" unicode="&#xc0;" horiz-adv-x="674" 
d="M286 223q-24 0 -72.5 -1.5t-59.5 -1.5q-38 -84 -38 -122q0 -29 17 -50.5t55 -47.5q-98 5 -134 5l-114 -5q47 44 74.5 86.5t76.5 133.5q10 19 15 29l239 448q15 3 66 3q50 0 64 -3l96 -496q11 -56 16 -78.5t17.5 -55t33.5 -67.5q-112 5 -148 5l-145 -5q51 39 63 66.5
t9 68.5q0 1 -4 27.5t-9 59.5q-22 0 -65 0.5t-53 0.5zM393 282l-56 299l-153 -301l-5 -10q33 -1 104 -1q42 0 112 2q-2 8 -2 11zM467 779l-207 27q-33 5 -33 41q0 31 23 52.5t47 3.5z" />
    <glyph glyph-name="Aacute" unicode="&#xc1;" horiz-adv-x="674" 
d="M286 223q-24 0 -72.5 -1.5t-59.5 -1.5q-38 -84 -38 -122q0 -29 17 -50.5t55 -47.5q-98 5 -134 5l-114 -5q47 44 74.5 86.5t76.5 133.5q10 19 15 29l239 448q15 3 66 3q50 0 64 -3l96 -496q11 -56 16 -78.5t17.5 -55t33.5 -67.5q-112 5 -148 5l-145 -5q51 39 63 66.5
t9 68.5q0 1 -4 27.5t-9 59.5q-22 0 -65 0.5t-53 0.5zM393 282l-56 299l-153 -301l-5 -10q33 -1 104 -1q42 0 112 2q-2 8 -2 11zM573 806l-207 -27l185 128q15 10 32 -2t22 -44q7 -49 -32 -55z" />
    <glyph glyph-name="Acircumflex" unicode="&#xc2;" horiz-adv-x="674" 
d="M286 223q-24 0 -72.5 -1.5t-59.5 -1.5q-38 -84 -38 -122q0 -29 17 -50.5t55 -47.5q-98 5 -134 5l-114 -5q47 44 74.5 86.5t76.5 133.5q10 19 15 29l239 448q15 3 66 3q50 0 64 -3l96 -496q11 -56 16 -78.5t17.5 -55t33.5 -67.5q-112 5 -148 5l-145 -5q51 39 63 66.5
t9 68.5q0 1 -4 27.5t-9 59.5q-22 0 -65 0.5t-53 0.5zM393 282l-56 299l-153 -301l-5 -10q33 -1 104 -1q42 0 112 2q-2 8 -2 11zM417 845l-120 -108q-20 13 -28 27l184 164l128 -125q-44 -52 -59 -62z" />
    <glyph glyph-name="Atilde" unicode="&#xc3;" horiz-adv-x="674" 
d="M286 223q-24 0 -72.5 -1.5t-59.5 -1.5q-38 -84 -38 -122q0 -29 17 -50.5t55 -47.5q-98 5 -134 5l-114 -5q47 44 74.5 86.5t76.5 133.5q10 19 15 29l239 448q15 3 66 3q50 0 64 -3l96 -496q11 -56 16 -78.5t17.5 -55t33.5 -67.5q-112 5 -148 5l-145 -5q51 39 63 66.5
t9 68.5q0 1 -4 27.5t-9 59.5q-22 0 -65 0.5t-53 0.5zM393 282l-56 299l-153 -301l-5 -10q33 -1 104 -1q42 0 112 2q-2 8 -2 11zM281 765q-9 14 -9 33q0 31 23 51.5t60 20.5q17 0 67.5 -10.5t74.5 -10.5q30 0 49 24q19 -18 19 -37q0 -28 -26 -50t-61 -22q-28 0 -80 11t-64 11
q-37 0 -53 -21z" />
    <glyph glyph-name="Adieresis" unicode="&#xc4;" horiz-adv-x="674" 
d="M286 223q-24 0 -72.5 -1.5t-59.5 -1.5q-38 -84 -38 -122q0 -29 17 -50.5t55 -47.5q-98 5 -134 5l-114 -5q47 44 74.5 86.5t76.5 133.5q10 19 15 29l239 448q15 3 66 3q50 0 64 -3l96 -496q11 -56 16 -78.5t17.5 -55t33.5 -67.5q-112 5 -148 5l-145 -5q51 39 63 66.5
t9 68.5q0 1 -4 27.5t-9 59.5q-22 0 -65 0.5t-53 0.5zM393 282l-56 299l-153 -301l-5 -10q33 -1 104 -1q42 0 112 2q-2 8 -2 11zM261 812q0 34 27.5 61.5t63.5 27.5q25 0 40.5 -15.5t15.5 -39.5q0 -34 -29 -61.5t-63 -27.5q-25 0 -40 15.5t-15 39.5zM446 813q0 34 29 61
t64 27q24 0 39 -15.5t15 -39.5q0 -34 -28 -61.5t-62 -27.5q-25 0 -41 15.5t-16 40.5z" />
    <glyph glyph-name="Aring" unicode="&#xc5;" horiz-adv-x="674" 
d="M286 223q-24 0 -72.5 -1.5t-59.5 -1.5q-38 -84 -38 -122q0 -29 17 -50.5t55 -47.5q-98 5 -134 5l-114 -5q47 44 74.5 86.5t76.5 133.5q10 19 15 29l239 448q15 3 66 3q50 0 64 -3l96 -496q11 -56 16 -78.5t17.5 -55t33.5 -67.5q-112 5 -148 5l-145 -5q51 39 63 66.5
t9 68.5q0 1 -4 27.5t-9 59.5q-22 0 -65 0.5t-53 0.5zM404 722q-96 0 -96 95q0 61 40 99t99 38q46 0 70 -24.5t24 -69.5q0 -58 -37.5 -98t-99.5 -40zM393 282l-56 299l-153 -301l-5 -10q33 -1 104 -1q42 0 112 2q-2 8 -2 11zM412 774q29 0 46.5 22t17.5 57q0 51 -41 51
q-28 0 -45 -23t-17 -58q0 -49 39 -49z" />
    <glyph glyph-name="AE" unicode="&#xc6;" horiz-adv-x="923" 
d="M560 466l-13 -82q8 -1 17 -1q79 0 123.5 8.5t65 22.5t50.5 47q-17 -82 -22 -111l-15 -117q-16 28 -22.5 37.5t-21.5 25.5t-31.5 20.5t-44.5 9t-69 4.5q-7 0 -20 -0.5t-18 -0.5l-11 -75q-15 -101 -15 -125q0 -44 21.5 -60.5t79.5 -16.5q79 0 135.5 32t147.5 123l-14 -39
q-14 -39 -32.5 -92t-27.5 -80q-43 6 -108 6l-131 1h-174l-154 -3q38 31 53.5 49.5t30.5 58.5t29 114q-21 0 -59 0.5t-46 0.5q-32 0 -104 -3q-50 -80 -50 -127q0 -50 56 -93q-89 5 -125 5l-123 -5q52 46 87 89t101 136q11 16 17 24l315 447h81q18 0 182 1q163 1 215 7
l-15 -85q-11 -63 -17 -119q-34 89 -79 119t-146 30l-63 -4q-25 -106 -36 -179zM261 269q49 0 117 2l12 72l43 270l-233 -333l-7 -10q21 -1 68 -1z" />
    <glyph glyph-name="Ccedilla" unicode="&#xc7;" horiz-adv-x="692" 
d="M471 -128q0 -45 -37.5 -73t-85.5 -28q-39 0 -64 20t-20 56q26 -17 63 -17q26 0 41.5 10.5t15.5 28.5q0 38 -75 52l33 66q-149 2 -228 75t-79 217q0 189 125 311t311 122q55 0 129.5 -14.5t96.5 -14.5h10q-10 -43 -35 -216q-35 83 -90 138t-129 55q-95 0 -169.5 -90
t-74.5 -253q0 -139 54 -209.5t125 -70.5q114 0 257 201q-9 -31 -53 -218q-25 0 -91.5 -14.5t-117.5 -17.5l-18 -23q50 -7 78 -31.5t28 -61.5z" />
    <glyph glyph-name="Egrave" unicode="&#xc8;" horiz-adv-x="637" 
d="M274 466l-13 -82q8 -1 17 -1q79 0 123.5 8.5t65 22.5t50.5 47q-17 -81 -22 -111l-15 -117q-16 28 -22.5 37.5t-21.5 25.5t-31.5 20.5t-44 9t-67.5 4.5q-8 0 -21.5 -0.5t-18.5 -0.5l-11 -75q-15 -101 -15 -125q0 -44 21.5 -60.5t80.5 -16.5q79 0 136 32t146 123l-14 -39
q-14 -39 -32.5 -92t-27.5 -80q-43 6 -108 6l-131 1h-174l-154 -3q45 37 63 63t33.5 85t37.5 195q27 169 27 232q0 45 -11.5 70.5t-39.5 53.5q100 -3 153 -3q30 0 287 2q64 0 110 6q-8 -39 -15 -85q-6 -33 -19 -129q-57 92 -100.5 125.5t-119.5 33.5l-66 -4q-22 -90 -36 -179
zM498 779l-207 27q-33 5 -33 41q0 31 23 52.5t47 3.5z" />
    <glyph glyph-name="Eacute" unicode="&#xc9;" horiz-adv-x="637" 
d="M274 466l-13 -82q8 -1 17 -1q79 0 123.5 8.5t65 22.5t50.5 47q-17 -81 -22 -111l-15 -117q-16 28 -22.5 37.5t-21.5 25.5t-31.5 20.5t-44 9t-67.5 4.5q-8 0 -21.5 -0.5t-18.5 -0.5l-11 -75q-15 -101 -15 -125q0 -44 21.5 -60.5t80.5 -16.5q79 0 136 32t146 123l-14 -39
q-14 -39 -32.5 -92t-27.5 -80q-43 6 -108 6l-131 1h-174l-154 -3q45 37 63 63t33.5 85t37.5 195q27 169 27 232q0 45 -11.5 70.5t-39.5 53.5q100 -3 153 -3q30 0 287 2q64 0 110 6q-8 -39 -15 -85q-6 -33 -19 -129q-57 92 -100.5 125.5t-119.5 33.5l-66 -4q-22 -90 -36 -179
zM502 806l-207 -27l185 128q15 10 32 -2t22 -44q7 -49 -32 -55z" />
    <glyph glyph-name="Ecircumflex" unicode="&#xca;" horiz-adv-x="637" 
d="M274 466l-13 -82q8 -1 17 -1q79 0 123.5 8.5t65 22.5t50.5 47q-17 -81 -22 -111l-15 -117q-16 28 -22.5 37.5t-21.5 25.5t-31.5 20.5t-44 9t-67.5 4.5q-8 0 -21.5 -0.5t-18.5 -0.5l-11 -75q-15 -101 -15 -125q0 -44 21.5 -60.5t80.5 -16.5q79 0 136 32t146 123l-14 -39
q-14 -39 -32.5 -92t-27.5 -80q-43 6 -108 6l-131 1h-174l-154 -3q45 37 63 63t33.5 85t37.5 195q27 169 27 232q0 45 -11.5 70.5t-39.5 53.5q100 -3 153 -3q30 0 287 2q64 0 110 6q-8 -39 -15 -85q-6 -33 -19 -129q-57 92 -100.5 125.5t-119.5 33.5l-66 -4q-22 -90 -36 -179
zM395 845l-120 -108q-20 13 -28 27l184 164l128 -125q-44 -52 -59 -62z" />
    <glyph glyph-name="Edieresis" unicode="&#xcb;" horiz-adv-x="637" 
d="M274 466l-13 -82q8 -1 17 -1q79 0 123.5 8.5t65 22.5t50.5 47q-17 -81 -22 -111l-15 -117q-16 28 -22.5 37.5t-21.5 25.5t-31.5 20.5t-44 9t-67.5 4.5q-8 0 -21.5 -0.5t-18.5 -0.5l-11 -75q-15 -101 -15 -125q0 -44 21.5 -60.5t80.5 -16.5q79 0 136 32t146 123l-14 -39
q-14 -39 -32.5 -92t-27.5 -80q-43 6 -108 6l-131 1h-174l-154 -3q45 37 63 63t33.5 85t37.5 195q27 169 27 232q0 45 -11.5 70.5t-39.5 53.5q100 -3 153 -3q30 0 287 2q64 0 110 6q-8 -39 -15 -85q-6 -33 -19 -129q-57 92 -100.5 125.5t-119.5 33.5l-66 -4q-22 -90 -36 -179
zM243 812q0 34 27.5 61.5t63.5 27.5q25 0 40.5 -15.5t15.5 -39.5q0 -34 -29 -61.5t-63 -27.5q-25 0 -40 15.5t-15 39.5zM428 813q0 34 29 61t64 27q24 0 39 -15.5t15 -39.5q0 -34 -28 -61.5t-62 -27.5q-25 0 -41 15.5t-16 40.5z" />
    <glyph glyph-name="Igrave" unicode="&#xcc;" horiz-adv-x="350" 
d="M238 697l157 3q-43 -33 -63 -64t-36 -93.5t-38 -199.5q-26 -167 -26 -220q0 -44 11.5 -67t41.5 -56q-94 3 -159 3l-154 -3q44 36 61.5 61t34 83t36.5 185q29 188 29 248q0 45 -11 69.5t-40 53.5q92 -3 156 -3zM336 779l-207 27q-33 5 -33 41q0 31 23 52.5t47 3.5z" />
    <glyph glyph-name="Iacute" unicode="&#xcd;" horiz-adv-x="350" 
d="M238 697l157 3q-43 -33 -63 -64t-36 -93.5t-38 -199.5q-26 -167 -26 -220q0 -44 11.5 -67t41.5 -56q-94 3 -159 3l-154 -3q44 36 61.5 61t34 83t36.5 185q29 188 29 248q0 45 -11 69.5t-40 53.5q92 -3 156 -3zM355 806l-207 -27l185 128q15 10 32 -2t22 -44
q7 -49 -32 -55z" />
    <glyph glyph-name="Icircumflex" unicode="&#xce;" horiz-adv-x="350" 
d="M238 697l157 3q-43 -33 -63 -64t-36 -93.5t-38 -199.5q-26 -167 -26 -220q0 -44 11.5 -67t41.5 -56q-94 3 -159 3l-154 -3q44 36 61.5 61t34 83t36.5 185q29 188 29 248q0 45 -11 69.5t-40 53.5q92 -3 156 -3zM243 845l-120 -108q-20 13 -28 27l184 164l128 -125
q-44 -52 -59 -62z" />
    <glyph glyph-name="Idieresis" unicode="&#xcf;" horiz-adv-x="350" 
d="M238 697l157 3q-43 -33 -63 -64t-36 -93.5t-38 -199.5q-26 -167 -26 -220q0 -44 11.5 -67t41.5 -56q-94 3 -159 3l-154 -3q44 36 61.5 61t34 83t36.5 185q29 188 29 248q0 45 -11 69.5t-40 53.5q92 -3 156 -3zM101 812q0 34 27.5 61.5t63.5 27.5q25 0 40.5 -15.5
t15.5 -39.5q0 -34 -29 -61.5t-63 -27.5q-25 0 -40 15.5t-15 39.5zM286 813q0 34 29 61t64 27q24 0 39 -15.5t15 -39.5q0 -34 -28 -61.5t-62 -27.5q-25 0 -41 15.5t-16 40.5z" />
    <glyph glyph-name="Eth" unicode="&#xd0;" horiz-adv-x="796" 
d="M320 -1q-22 0 -88 2.5t-99 2.5l-158 -4q52 41 71 72t35 113q18 97 26 149h-90q0 25 8 52h91q3 15 14 95q7 58 6 99q-1 80 -51 120q103 -3 154 -3l190 3q166 0 256.5 -77.5t90.5 -223.5q0 -177 -126.5 -288.5t-329.5 -111.5zM328 47q112 0 193.5 90t81.5 244
q0 120 -52 194t-149 74q-44 0 -84 -6q-10 -38 -37 -183l-13 -74h123q0 -25 -8 -52h-124q-13 -75 -20 -132q-5 -37 -5 -58q0 -55 23.5 -76t70.5 -21z" />
    <glyph glyph-name="Ntilde" unicode="&#xd1;" horiz-adv-x="772" 
d="M328 765q-9 14 -9 33q0 31 23 51.5t60 20.5q17 0 67.5 -10.5t74.5 -10.5q30 0 49 24q19 -18 19 -37q0 -28 -26 -50t-61 -22q-28 0 -80 11t-64 11q-37 0 -53 -21zM612 222l19 124q15 98 15 157q0 80 -22.5 119t-74.5 78q88 -3 152 -3l125 3q-43 -35 -64 -69.5
t-37.5 -100.5t-39.5 -212q-27 -172 -49 -335q-14 -2 -33 -2q-21 0 -31 2l-373 549l-29 -183q-15 -96 -15 -153q0 -55 14 -93.5t31 -56t53 -46.5q-85 3 -149 3l-128 -3q41 34 61 64t36.5 90t35.5 178q24 153 24 219q0 54 -13.5 84.5t-44.5 63.5q24 -2 113 -2l87 2z" />
    <glyph glyph-name="Ograve" unicode="&#xd2;" horiz-adv-x="778" 
d="M504 779l-207 27q-33 5 -33 41q0 31 23 52.5t47 3.5zM470 712q134 0 213 -76t79 -215q0 -183 -129 -308.5t-314 -125.5q-131 0 -209 70.5t-78 213.5q0 125 60 227t160.5 158t217.5 56zM363 39q103 0 165.5 107t62.5 268q0 247 -157 247q-64 0 -111.5 -40t-72.5 -103
t-36.5 -125.5t-11.5 -120.5q0 -113 43 -173t118 -60z" />
    <glyph glyph-name="Oacute" unicode="&#xd3;" horiz-adv-x="778" 
d="M600 806l-207 -27l185 128q15 10 32 -2t22 -44q7 -49 -32 -55zM470 712q134 0 213 -76t79 -215q0 -183 -129 -308.5t-314 -125.5q-131 0 -209 70.5t-78 213.5q0 125 60 227t160.5 158t217.5 56zM363 39q103 0 165.5 107t62.5 268q0 247 -157 247q-64 0 -111.5 -40
t-72.5 -103t-36.5 -125.5t-11.5 -120.5q0 -113 43 -173t118 -60z" />
    <glyph glyph-name="Ocircumflex" unicode="&#xd4;" horiz-adv-x="778" 
d="M470 712q134 0 213 -76t79 -215q0 -183 -129 -308.5t-314 -125.5q-131 0 -209 70.5t-78 213.5q0 125 60 227t160.5 158t217.5 56zM363 39q103 0 165.5 107t62.5 268q0 247 -157 247q-64 0 -111.5 -40t-72.5 -103t-36.5 -125.5t-11.5 -120.5q0 -113 43 -173t118 -60z
M445 845l-120 -108q-20 13 -28 27l184 164l128 -125q-44 -52 -59 -62z" />
    <glyph glyph-name="Otilde" unicode="&#xd5;" horiz-adv-x="778" 
d="M330 765q-9 14 -9 33q0 31 23 51.5t60 20.5q17 0 67.5 -10.5t74.5 -10.5q30 0 49 24q19 -18 19 -37q0 -28 -26 -50t-61 -22q-28 0 -80 11t-64 11q-37 0 -53 -21zM470 712q134 0 213 -76t79 -215q0 -183 -129 -308.5t-314 -125.5q-131 0 -209 70.5t-78 213.5q0 125 60 227
t160.5 158t217.5 56zM363 39q103 0 165.5 107t62.5 268q0 247 -157 247q-64 0 -111.5 -40t-72.5 -103t-36.5 -125.5t-11.5 -120.5q0 -113 43 -173t118 -60z" />
    <glyph glyph-name="Odieresis" unicode="&#xd6;" horiz-adv-x="778" 
d="M303 812q0 34 27.5 61.5t63.5 27.5q25 0 40.5 -15.5t15.5 -39.5q0 -34 -29 -61.5t-63 -27.5q-25 0 -40 15.5t-15 39.5zM488 813q0 34 29 61t64 27q24 0 39 -15.5t15 -39.5q0 -34 -28 -61.5t-62 -27.5q-25 0 -41 15.5t-16 40.5zM470 712q134 0 213 -76t79 -215
q0 -183 -129 -308.5t-314 -125.5q-131 0 -209 70.5t-78 213.5q0 125 60 227t160.5 158t217.5 56zM363 39q103 0 165.5 107t62.5 268q0 247 -157 247q-64 0 -111.5 -40t-72.5 -103t-36.5 -125.5t-11.5 -120.5q0 -113 43 -173t118 -60z" />
    <glyph glyph-name="multiply" unicode="&#xd7;" horiz-adv-x="441" 
d="M411 390l-129 -112l86 -108l-78 -69l-84 108l-123 -113l-55 69l123 114l-92 108l76 69l91 -109l130 112z" />
    <glyph glyph-name="Oslash" unicode="&#xd8;" horiz-adv-x="778" 
d="M470 712q108 0 181 -50l46 50h63l-74 -80q76 -78 76 -211q0 -183 -129 -308.5t-314 -125.5q-111 0 -182 48l-44 -48h-62l72 78q-71 73 -71 206q0 125 60 227t160.5 158t217.5 56zM363 39q103 0 165.5 107t62.5 268q0 58 -9 104l-356 -386q40 -93 137 -93zM202 272
q0 -50 9 -90l355 388q-38 91 -132 91q-64 0 -111.5 -40t-72.5 -103t-36.5 -125.5t-11.5 -120.5z" />
    <glyph glyph-name="Ugrave" unicode="&#xd9;" horiz-adv-x="720" 
d="M656 368l-20 -125q-10 -61 -36 -108.5t-59 -74.5t-74.5 -44t-77.5 -23t-73 -6q-25 0 -50.5 2.5t-64 13t-67 28.5t-49.5 52.5t-21 81.5q0 18 3 39l26 164q27 168 27 222q0 37 -10 58.5t-36 50.5q92 -3 152 -3l168 4q-39 -25 -56 -39t-35 -41t-27 -64.5t-18 -103.5
l-29 -200q-4 -27 -4 -55q0 -150 137 -150q85 0 139.5 58t70.5 157l30 187q8 55 8 98q0 41 -11.5 68.5t-24.5 40t-49 42.5q82 -1 129 -1l126 3q-42 -34 -60 -63t-30.5 -81.5t-33.5 -187.5zM536 779l-207 27q-33 5 -33 41q0 31 23 52.5t47 3.5z" />
    <glyph glyph-name="Uacute" unicode="&#xda;" horiz-adv-x="720" 
d="M656 368l-20 -125q-10 -61 -36 -108.5t-59 -74.5t-74.5 -44t-77.5 -23t-73 -6q-25 0 -50.5 2.5t-64 13t-67 28.5t-49.5 52.5t-21 81.5q0 18 3 39l26 164q27 168 27 222q0 37 -10 58.5t-36 50.5q92 -3 152 -3l168 4q-39 -25 -56 -39t-35 -41t-27 -64.5t-18 -103.5
l-29 -200q-4 -27 -4 -55q0 -150 137 -150q85 0 139.5 58t70.5 157l30 187q8 55 8 98q0 41 -11.5 68.5t-24.5 40t-49 42.5q82 -1 129 -1l126 3q-42 -34 -60 -63t-30.5 -81.5t-33.5 -187.5zM573 806l-207 -27l185 128q15 10 32 -2t22 -44q7 -49 -32 -55z" />
    <glyph glyph-name="Ucircumflex" unicode="&#xdb;" horiz-adv-x="720" 
d="M656 368l-20 -125q-10 -61 -36 -108.5t-59 -74.5t-74.5 -44t-77.5 -23t-73 -6q-25 0 -50.5 2.5t-64 13t-67 28.5t-49.5 52.5t-21 81.5q0 18 3 39l26 164q27 168 27 222q0 37 -10 58.5t-36 50.5q92 -3 152 -3l168 4q-39 -25 -56 -39t-35 -41t-27 -64.5t-18 -103.5
l-29 -200q-4 -27 -4 -55q0 -150 137 -150q85 0 139.5 58t70.5 157l30 187q8 55 8 98q0 41 -11.5 68.5t-24.5 40t-49 42.5q82 -1 129 -1l126 3q-42 -34 -60 -63t-30.5 -81.5t-33.5 -187.5zM458 845l-120 -108q-20 13 -28 27l184 164l128 -125q-44 -52 -59 -62z" />
    <glyph glyph-name="Udieresis" unicode="&#xdc;" horiz-adv-x="720" 
d="M656 368l-20 -125q-10 -61 -36 -108.5t-59 -74.5t-74.5 -44t-77.5 -23t-73 -6q-25 0 -50.5 2.5t-64 13t-67 28.5t-49.5 52.5t-21 81.5q0 18 3 39l26 164q27 168 27 222q0 37 -10 58.5t-36 50.5q92 -3 152 -3l168 4q-39 -25 -56 -39t-35 -41t-27 -64.5t-18 -103.5
l-29 -200q-4 -27 -4 -55q0 -150 137 -150q85 0 139.5 58t70.5 157l30 187q8 55 8 98q0 41 -11.5 68.5t-24.5 40t-49 42.5q82 -1 129 -1l126 3q-42 -34 -60 -63t-30.5 -81.5t-33.5 -187.5zM302 812q0 34 28 61.5t63 27.5q25 0 40.5 -15.5t15.5 -39.5q0 -34 -29 -61.5
t-63 -27.5q-25 0 -40 15.5t-15 39.5zM487 813q0 34 29 61t64 27q24 0 39 -15.5t15 -39.5q0 -34 -28 -61.5t-62 -27.5q-25 0 -41 15.5t-16 40.5z" />
    <glyph glyph-name="Yacute" unicode="&#xdd;" horiz-adv-x="635" 
d="M498 453l-104 -149q-19 -118 -19 -173q0 -16 1 -28t5 -23.5t5.5 -17.5t10 -16.5t11 -13.5t14.5 -16t15 -16q-101 3 -165 3l-167 -3q6 5 23.5 19t21 17t16.5 16t16 20.5t12.5 23.5t13 32.5t10.5 41.5t12.5 55t11.5 69l2 11l-86 199q-5 11 -15.5 36t-14 33t-12 26t-13 26.5
t-13 22.5t-16.5 26t-19 26q144 -5 181 -5l115 5q-66 -47 -66 -85q0 -18 13 -46l84 -197l71 105q68 99 68 145q0 42 -59 78q99 -5 136 -5l99 5q-18 -15 -35.5 -33t-30 -32t-32.5 -40.5t-29.5 -39.5t-35 -50t-36.5 -52zM513 806l-207 -27l185 128q15 10 32 -2t22 -44
q7 -49 -32 -55z" />
    <glyph glyph-name="Thorn" unicode="&#xde;" horiz-adv-x="617" 
d="M238 697l157 3q-39 -30 -59 -57.5t-35 -78.5q78 2 97 2q218 0 218 -171q0 -84 -51 -145t-124.5 -87.5t-156.5 -26.5q-18 0 -52 2q-2 -53 9 -78.5t44 -59.5q-94 3 -159 3l-154 -3q44 36 61.5 61t34 83t36.5 185q29 188 29 248q0 45 -11 69.5t-40 53.5q92 -3 156 -3z
M337 516q-4 0 -49 -3q-15 -71 -30 -170q-9 -55 -21 -145q36 -14 67 -14q59 0 101 52t42 128q0 62 -29 107t-81 45z" />
    <glyph glyph-name="germandbls" unicode="&#xdf;" horiz-adv-x="702" 
d="M32 448l7 45h99l1 3q20 123 102 182.5t193 59.5q91 0 159.5 -36t68.5 -99q0 -33 -21.5 -56.5t-52 -36.5t-61.5 -24.5t-52.5 -27.5t-21.5 -39t22 -48.5t54 -49.5t64 -50t54 -60t22 -70q0 -67 -66 -109.5t-158 -42.5q-68 0 -123.5 23.5t-55.5 62.5q0 20 13.5 36.5
t36.5 16.5q21 0 37 -16t25 -34.5t28 -34.5t45 -16q34 0 53.5 23t19.5 52q0 27 -20 52t-48 46t-56 43t-48 51.5t-20 62.5q0 32 19.5 57t47 41.5l55 33t47 43t19.5 60.5q0 46 -30 75.5t-72 29.5q-55 0 -87.5 -49.5t-44.5 -122.5l-85 -525q-10 -65 -37.5 -113t-66 -75.5
t-81 -40.5t-88.5 -13q-62 0 -91.5 21t-29.5 52q0 27 19 44t40 17q25 0 55.5 -43.5t57.5 -43.5q12 0 21 5t16.5 18t12.5 24.5t10 35t7.5 38.5l7.5 45l77 477h-99z" />
    <glyph glyph-name="agrave" unicode="&#xe0;" horiz-adv-x="566" 
d="M530 499l-44 -224q-21 -108 -21 -158q0 -46 13 -68t45 -49h-228l60 291q-25 -66 -45.5 -111t-49 -93.5t-61 -73t-67.5 -24.5q-55 0 -90 43t-35 122q0 85 39 166t114.5 135.5t169.5 54.5q50 0 106 -18zM192 86q36 0 96.5 112t92.5 242q-26 28 -66 28q-46 0 -83.5 -49.5
t-55.5 -115.5t-18 -128q0 -89 34 -89zM423 565l-199 79q-25 9 -25 32q0 10 8 28q14 27 32.5 34.5t29.5 -6.5z" />
    <glyph glyph-name="aacute" unicode="&#xe1;" horiz-adv-x="566" 
d="M530 499l-44 -224q-21 -108 -21 -158q0 -46 13 -68t45 -49h-228l60 291q-25 -66 -45.5 -111t-49 -93.5t-61 -73t-67.5 -24.5q-55 0 -90 43t-35 122q0 85 39 166t114.5 135.5t169.5 54.5q50 0 106 -18zM192 86q36 0 96.5 112t92.5 242q-26 28 -66 28q-46 0 -83.5 -49.5
t-55.5 -115.5t-18 -128q0 -89 34 -89zM515 644l-199 -79l154 167q11 14 29.5 6.5t32.5 -34.5q8 -18 8 -28q0 -23 -25 -32z" />
    <glyph glyph-name="acircumflex" unicode="&#xe2;" horiz-adv-x="566" 
d="M530 499l-44 -224q-21 -108 -21 -158q0 -46 13 -68t45 -49h-228l60 291q-25 -66 -45.5 -111t-49 -93.5t-61 -73t-67.5 -24.5q-55 0 -90 43t-35 122q0 85 39 166t114.5 135.5t169.5 54.5q50 0 106 -18zM192 86q36 0 96.5 112t92.5 242q-26 28 -66 28q-46 0 -83.5 -49.5
t-55.5 -115.5t-18 -128q0 -89 34 -89zM369 659l-111 -104q-20 15 -25 30l171 171l115 -141q-34 -43 -63 -60z" />
    <glyph glyph-name="atilde" unicode="&#xe3;" horiz-adv-x="566" 
d="M530 499l-44 -224q-21 -108 -21 -158q0 -46 13 -68t45 -49h-228l60 291q-25 -66 -45.5 -111t-49 -93.5t-61 -73t-67.5 -24.5q-55 0 -90 43t-35 122q0 85 39 166t114.5 135.5t169.5 54.5q50 0 106 -18zM192 86q36 0 96.5 112t92.5 242q-26 28 -66 28q-46 0 -83.5 -49.5
t-55.5 -115.5t-18 -128q0 -89 34 -89zM238 594q-9 16 -9 34q0 30 23 50.5t60 20.5q17 0 67.5 -10.5t74.5 -10.5q30 0 49 24q19 -19 19 -38q0 -27 -26.5 -49t-61.5 -22q-28 0 -79.5 11t-63.5 11q-37 0 -53 -21z" />
    <glyph glyph-name="adieresis" unicode="&#xe4;" horiz-adv-x="566" 
d="M530 499l-44 -224q-21 -108 -21 -158q0 -46 13 -68t45 -49h-228l60 291q-25 -66 -45.5 -111t-49 -93.5t-61 -73t-67.5 -24.5q-55 0 -90 43t-35 122q0 85 39 166t114.5 135.5t169.5 54.5q50 0 106 -18zM192 86q36 0 96.5 112t92.5 242q-26 28 -66 28q-46 0 -83.5 -49.5
t-55.5 -115.5t-18 -128q0 -89 34 -89zM211 630q0 34 27.5 61.5t63.5 27.5q25 0 40.5 -15.5t15.5 -39.5q0 -34 -28.5 -61.5t-62.5 -27.5q-25 0 -40.5 15.5t-15.5 39.5zM396 631q0 34 29 61t64 27q25 0 39.5 -15.5t14.5 -39.5q0 -34 -27.5 -61.5t-61.5 -27.5q-25 0 -41.5 16
t-16.5 40z" />
    <glyph glyph-name="aring" unicode="&#xe5;" horiz-adv-x="566" 
d="M530 499l-44 -224q-21 -108 -21 -158q0 -46 13 -68t45 -49h-228l60 291q-25 -66 -45.5 -111t-49 -93.5t-61 -73t-67.5 -24.5q-55 0 -90 43t-35 122q0 85 39 166t114.5 135.5t169.5 54.5q50 0 106 -18zM192 86q36 0 96.5 112t92.5 242q-26 28 -66 28q-46 0 -83.5 -49.5
t-55.5 -115.5t-18 -128q0 -89 34 -89zM359 550q-96 0 -96 95q0 60 39 98.5t99 38.5q46 0 70.5 -25t24.5 -70q0 -58 -38 -97.5t-99 -39.5zM367 602q28 0 46 22t18 56q0 52 -42 52q-29 0 -45 -23.5t-16 -57.5q0 -49 39 -49z" />
    <glyph glyph-name="ae" unicode="&#xe6;" horiz-adv-x="788" 
d="M790 407q0 -45 -45.5 -79.5t-110 -53.5t-145.5 -29v-25q0 -71 29.5 -105.5t75.5 -34.5q62 0 121 51q-10 -60 -68 -101t-129 -41q-72 0 -126 44.5t-54 134.5q0 32 7 63q-47 -110 -98.5 -176t-115.5 -66q-54 0 -89 43t-35 118q0 88 39 169.5t114.5 136t169.5 54.5
q50 0 106 -18l95 19l-6 -29q59 28 120 28q70 0 107.5 -30.5t37.5 -72.5zM193 86q53 0 105 104t87 250q-26 28 -66 28q-46 0 -84.5 -49.5t-57.5 -115.5t-19 -128q0 -89 35 -89zM601 465q-41 0 -71.5 -64.5t-38.5 -142.5q79 19 115 56.5t36 85.5q0 65 -41 65z" />
    <glyph glyph-name="ccedilla" unicode="&#xe7;" horiz-adv-x="432" 
d="M277 -129q0 -45 -37.5 -73t-85.5 -28q-39 0 -64 20t-20 56q25 -17 63 -17q26 0 41.5 10.5t15.5 28.5q0 38 -75 52l35 70q-61 7 -100.5 50.5t-39.5 125.5q0 44 11.5 90t36.5 92t59.5 81.5t85.5 58t111 22.5q66 0 98 -26.5t32 -62.5q0 -25 -15.5 -42.5t-45.5 -17.5
q-24 0 -38.5 16.5t-19 36t-16.5 36t-32 16.5q-51 0 -83.5 -81.5t-32.5 -166.5q0 -67 23.5 -103t62.5 -36q23 0 57.5 10.5t57.5 27.5q-19 -60 -66.5 -91t-103.5 -36l-21 -26q50 -7 78 -31.5t28 -61.5z" />
    <glyph glyph-name="egrave" unicode="&#xe8;" horiz-adv-x="455" 
d="M455 408q0 -46 -45 -81t-107 -53.5t-143 -28.5v-25q0 -71 29.5 -105.5t75.5 -34.5q62 0 121 51q-10 -60 -68 -101t-129 -41q-72 0 -126 44.5t-54 134.5q0 54 21 113t58.5 110.5t97.5 85t130 33.5t104.5 -30t34.5 -72zM271 465q-41 0 -71 -64.5t-38 -142.5q150 36 150 143
q0 64 -41 64zM372 565l-199 79q-25 9 -25 32q0 10 8 28q14 27 32.5 34.5t29.5 -6.5z" />
    <glyph glyph-name="eacute" unicode="&#xe9;" horiz-adv-x="455" 
d="M455 408q0 -46 -45 -81t-107 -53.5t-143 -28.5v-25q0 -71 29.5 -105.5t75.5 -34.5q62 0 121 51q-10 -60 -68 -101t-129 -41q-72 0 -126 44.5t-54 134.5q0 54 21 113t58.5 110.5t97.5 85t130 33.5t104.5 -30t34.5 -72zM271 465q-41 0 -71 -64.5t-38 -142.5q150 36 150 143
q0 64 -41 64zM462 644l-199 -79l154 167q11 14 29.5 6.5t32.5 -34.5q8 -18 8 -28q0 -23 -25 -32z" />
    <glyph glyph-name="ecircumflex" unicode="&#xea;" horiz-adv-x="455" 
d="M455 408q0 -46 -45 -81t-107 -53.5t-143 -28.5v-25q0 -71 29.5 -105.5t75.5 -34.5q62 0 121 51q-10 -60 -68 -101t-129 -41q-72 0 -126 44.5t-54 134.5q0 54 21 113t58.5 110.5t97.5 85t130 33.5t104.5 -30t34.5 -72zM308 659l-111 -104q-20 15 -25 30l171 171l115 -141
q-34 -43 -63 -60zM271 465q-41 0 -71 -64.5t-38 -142.5q150 36 150 143q0 64 -41 64z" />
    <glyph glyph-name="edieresis" unicode="&#xeb;" horiz-adv-x="455" 
d="M455 408q0 -46 -45 -81t-107 -53.5t-143 -28.5v-25q0 -71 29.5 -105.5t75.5 -34.5q62 0 121 51q-10 -60 -68 -101t-129 -41q-72 0 -126 44.5t-54 134.5q0 54 21 113t58.5 110.5t97.5 85t130 33.5t104.5 -30t34.5 -72zM271 465q-41 0 -71 -64.5t-38 -142.5q150 36 150 143
q0 64 -41 64zM167 630q0 34 27.5 61.5t63.5 27.5q25 0 40.5 -15.5t15.5 -39.5q0 -34 -28.5 -61.5t-62.5 -27.5q-25 0 -40.5 15.5t-15.5 39.5zM352 631q0 34 29 61t64 27q25 0 39.5 -15.5t14.5 -39.5q0 -34 -27.5 -61.5t-61.5 -27.5q-25 0 -41.5 16t-16.5 40z" />
    <glyph glyph-name="igrave" unicode="&#xec;" horiz-adv-x="292" 
d="M18 0l44 214q23 109 23 164q0 43 -12.5 65t-43.5 47l228 10l-44 -215q-25 -122 -25 -176q0 -41 12 -63.5t40 -45.5h-222zM223 565l-199 79q-25 9 -25 32q0 10 8 28q14 27 32.5 34.5t29.5 -6.5z" />
    <glyph glyph-name="iacute" unicode="&#xed;" horiz-adv-x="292" 
d="M317 644l-199 -79l154 167q11 14 29.5 6.5t32.5 -34.5q8 -18 8 -28q0 -23 -25 -32zM19 0l44 214q23 109 23 164q0 43 -12.5 65t-43.5 47l228 10l-44 -215q-25 -122 -25 -176q0 -41 12 -63.5t40 -45.5h-222z" />
    <glyph glyph-name="icircumflex" unicode="&#xee;" horiz-adv-x="292" 
d="M175 659l-111 -104q-20 15 -25 30l171 171l115 -141q-34 -43 -63 -60zM19 0l44 214q23 109 23 164q0 43 -12.5 65t-43.5 47l228 10l-44 -215q-25 -122 -25 -176q0 -41 12 -63.5t40 -45.5h-222z" />
    <glyph glyph-name="idieresis" unicode="&#xef;" horiz-adv-x="292" 
d="M28 630q0 34 28 61.5t63 27.5q25 0 40.5 -15.5t15.5 -39.5q0 -34 -28.5 -61.5t-62.5 -27.5q-25 0 -40.5 15.5t-15.5 39.5zM213 631q0 34 29 61t64 27q25 0 39.5 -15.5t14.5 -39.5q0 -34 -27.5 -61.5t-61.5 -27.5q-25 0 -41.5 16t-16.5 40zM19 0l44 214q23 109 23 164
q0 43 -12.5 65t-43.5 47l228 10l-44 -215q-25 -122 -25 -176q0 -41 12 -63.5t40 -45.5h-222z" />
    <glyph glyph-name="eth" unicode="&#xf0;" horiz-adv-x="547" 
d="M447 736l-79 -80q148 -127 148 -338q0 -142 -72.5 -236.5t-213.5 -94.5q-108 0 -161.5 57.5t-53.5 158.5q0 95 46.5 167t116 106t149.5 34q17 0 25 -1q-11 54 -31 99l-66 -67l-25 21l75 77q-29 50 -77 99q60 -23 114 -61l80 82zM364 358q0 62 -5 102q-23 10 -43 10
q-66 0 -108 -71.5t-42 -192.5q0 -81 20.5 -130.5t62.5 -49.5q58 0 86.5 92.5t28.5 239.5z" />
    <glyph glyph-name="ntilde" unicode="&#xf1;" 
d="M257 500l-59 -278q60 142 118 215t125 73q56 0 82.5 -34t26.5 -81q0 -17 -3 -33l-16 -74q-29 -133 -29 -184q0 -39 13 -60.5t44 -43.5h-228l46 216l26 122q5 21 -3 40t-32 19q-42 0 -85 -63t-73.5 -152t-46.5 -182h-141l42 227q21 114 21 160q0 29 -8 48t-16.5 27.5
t-31.5 27.5zM227 594q-9 16 -9 34q0 30 23 50.5t60 20.5q17 0 67.5 -10.5t74.5 -10.5q30 0 49 24q19 -19 19 -38q0 -27 -26.5 -49t-61.5 -22q-28 0 -79.5 11t-63.5 11q-37 0 -53 -21z" />
    <glyph glyph-name="ograve" unicode="&#xf2;" horiz-adv-x="540" 
d="M318 510q94 0 143.5 -56t49.5 -152q0 -132 -87.5 -222t-213.5 -90q-90 0 -144 50.5t-54 147.5q0 130 89.5 226t216.5 96zM228 28q58 0 95.5 88.5t37.5 215.5q0 70 -15 104.5t-50 34.5q-43 0 -74.5 -50.5t-45.5 -119t-14 -140.5q0 -133 66 -133zM381 565l-199 79
q-25 9 -25 32q0 10 8 28q14 27 32.5 34.5t29.5 -6.5z" />
    <glyph glyph-name="oacute" unicode="&#xf3;" horiz-adv-x="540" 
d="M453 644l-199 -79l154 167q11 14 29.5 6.5t32.5 -34.5q8 -18 8 -28q0 -23 -25 -32zM318 510q94 0 143.5 -56t49.5 -152q0 -132 -87.5 -222t-213.5 -90q-90 0 -144 50.5t-54 147.5q0 130 89.5 226t216.5 96zM228 28q58 0 95.5 88.5t37.5 215.5q0 70 -15 104.5t-50 34.5
q-43 0 -74.5 -50.5t-45.5 -119t-14 -140.5q0 -133 66 -133z" />
    <glyph glyph-name="ocircumflex" unicode="&#xf4;" horiz-adv-x="540" 
d="M322 659l-111 -104q-20 15 -25 30l171 171l115 -141q-34 -43 -63 -60zM318 510q94 0 143.5 -56t49.5 -152q0 -132 -87.5 -222t-213.5 -90q-90 0 -144 50.5t-54 147.5q0 130 89.5 226t216.5 96zM228 28q58 0 95.5 88.5t37.5 215.5q0 70 -15 104.5t-50 34.5
q-43 0 -74.5 -50.5t-45.5 -119t-14 -140.5q0 -133 66 -133z" />
    <glyph glyph-name="otilde" unicode="&#xf5;" horiz-adv-x="540" 
d="M318 510q94 0 143.5 -56t49.5 -152q0 -132 -87.5 -222t-213.5 -90q-90 0 -144 50.5t-54 147.5q0 130 89.5 226t216.5 96zM228 28q58 0 95.5 88.5t37.5 215.5q0 70 -15 104.5t-50 34.5q-43 0 -74.5 -50.5t-45.5 -119t-14 -140.5q0 -133 66 -133zM176 594q-9 16 -9 34
q0 30 23 50.5t60 20.5q17 0 67.5 -10.5t74.5 -10.5q30 0 49 24q19 -19 19 -38q0 -27 -26.5 -49t-61.5 -22q-28 0 -79.5 11t-63.5 11q-37 0 -53 -21z" />
    <glyph glyph-name="odieresis" unicode="&#xf6;" horiz-adv-x="540" 
d="M163 630q0 34 27.5 61.5t63.5 27.5q25 0 40.5 -15.5t15.5 -39.5q0 -34 -28.5 -61.5t-62.5 -27.5q-25 0 -40.5 15.5t-15.5 39.5zM348 631q0 34 29 61t64 27q25 0 39.5 -15.5t14.5 -39.5q0 -34 -27.5 -61.5t-61.5 -27.5q-25 0 -41.5 16t-16.5 40zM318 510q94 0 143.5 -56
t49.5 -152q0 -132 -87.5 -222t-213.5 -90q-90 0 -144 50.5t-54 147.5q0 130 89.5 226t216.5 96zM228 28q58 0 95.5 88.5t37.5 215.5q0 70 -15 104.5t-50 34.5q-43 0 -74.5 -50.5t-45.5 -119t-14 -140.5q0 -133 66 -133z" />
    <glyph glyph-name="divide" unicode="&#xf7;" horiz-adv-x="461" 
d="M27 237l14 91h388l-14 -91h-388zM173 424q0 34 25.5 62.5t61.5 28.5q28 0 45.5 -18.5t17.5 -47.5q0 -36 -26.5 -62t-60.5 -26q-28 0 -45.5 17.5t-17.5 45.5zM123 113q0 35 26 63t62 28q27 0 44.5 -18.5t17.5 -46.5q0 -36 -26 -62.5t-61 -26.5q-28 0 -45.5 18t-17.5 45z
" />
    <glyph glyph-name="oslash" unicode="&#xf8;" horiz-adv-x="539" 
d="M317 510q93 0 143 -56l54 52l26 -27l-59 -55q29 -50 29 -122q0 -132 -87.5 -222t-213.5 -90q-88 0 -140 46l-53 -50l-26 22l56 54q-35 49 -35 126q0 130 89.5 226t216.5 96zM295 471q-42 0 -73.5 -48t-45.5 -114.5t-15 -138.5l198 189q-2 56 -17 84t-47 28zM227 28
q55 0 91.5 81t40.5 200l-197 -186q8 -95 65 -95z" />
    <glyph glyph-name="ugrave" unicode="&#xf9;" 
d="M555 0h-228l59 276q-60 -143 -116.5 -214.5t-126.5 -71.5q-55 0 -81 33t-26 80q0 13 4 35l16 74q29 133 29 180q0 37 -13 57t-44 42l228 10l-46 -217l-26 -122q-5 -22 1.5 -40.5t30.5 -18.5q42 0 85 62.5t73.5 151t46.5 180.5h141l-42 -224q-21 -114 -21 -163
q0 -43 12.5 -64t43.5 -46zM414 565l-199 79q-25 9 -25 32q0 10 8 28q14 27 32.5 34.5t29.5 -6.5z" />
    <glyph glyph-name="uacute" unicode="&#xfa;" 
d="M555 0h-228l59 276q-60 -143 -116.5 -214.5t-126.5 -71.5q-55 0 -81 33t-26 80q0 13 4 35l16 74q29 133 29 180q0 37 -13 57t-44 42l228 10l-46 -217l-26 -122q-5 -22 1.5 -40.5t30.5 -18.5q42 0 85 62.5t73.5 151t46.5 180.5h141l-42 -224q-21 -114 -21 -163
q0 -43 12.5 -64t43.5 -46zM496 644l-199 -79l154 167q11 14 29.5 6.5t32.5 -34.5q8 -18 8 -28q0 -23 -25 -32z" />
    <glyph glyph-name="ucircumflex" unicode="&#xfb;" 
d="M555 0h-228l59 276q-60 -143 -116.5 -214.5t-126.5 -71.5q-55 0 -81 33t-26 80q0 13 4 35l16 74q29 133 29 180q0 37 -13 57t-44 42l228 10l-46 -217l-26 -122q-5 -22 1.5 -40.5t30.5 -18.5q42 0 85 62.5t73.5 151t46.5 180.5h141l-42 -224q-21 -114 -21 -163
q0 -43 12.5 -64t43.5 -46zM348 659l-111 -104q-20 15 -25 30l171 171l115 -141q-34 -43 -63 -60z" />
    <glyph glyph-name="udieresis" unicode="&#xfc;" 
d="M555 0h-228l59 276q-60 -143 -116.5 -214.5t-126.5 -71.5q-55 0 -81 33t-26 80q0 13 4 35l16 74q29 133 29 180q0 37 -13 57t-44 42l228 10l-46 -217l-26 -122q-5 -22 1.5 -40.5t30.5 -18.5q42 0 85 62.5t73.5 151t46.5 180.5h141l-42 -224q-21 -114 -21 -163
q0 -43 12.5 -64t43.5 -46zM189 630q0 34 27.5 61.5t63.5 27.5q25 0 40.5 -15.5t15.5 -39.5q0 -34 -28.5 -61.5t-62.5 -27.5q-25 0 -40.5 15.5t-15.5 39.5zM374 631q0 34 29 61t64 27q25 0 39.5 -15.5t14.5 -39.5q0 -34 -27.5 -61.5t-61.5 -27.5q-25 0 -41.5 16t-16.5 40z
" />
    <glyph glyph-name="yacute" unicode="&#xfd;" horiz-adv-x="581" 
d="M561 500l-84 -454q-25 -139 -114 -212t-215 -73q-69 0 -115 22t-46 67q0 74 118 95q-5 -20 -5 -37q0 -42 23 -71.5t65 -29.5q31 0 55 19t41.5 57t29 77t24.5 97l47 214q-60 -142 -115.5 -211.5t-129.5 -69.5q-54 0 -79.5 33t-25.5 80q0 13 4 35l16 74q29 134 29 180
q0 36 -12.5 56t-44.5 42l228 10l-46 -216l-26 -122q-5 -22 1.5 -40.5t30.5 -18.5q42 0 85 63t73.5 152t46.5 182h141zM501 644l-199 -79l154 167q11 14 29.5 6.5t32.5 -34.5q8 -18 8 -28q0 -23 -25 -32z" />
    <glyph glyph-name="thorn" unicode="&#xfe;" horiz-adv-x="555" 
d="M226 -11q-16 0 -82 7q-17 -88 -17 -123q0 -22 3.5 -35.5t19 -27.5t23 -18.5t39.5 -23.5q-92 4 -164 4l-163 -3q40 29 58 53t36.5 82.5t42.5 185.5l66 350q20 103 20 158q0 32 -7.5 54.5t-17 33.5t-29.5 30l226 10l-99 -523q24 65 39 101t38 81.5t43 68.5t48 39.5t60 16.5
q52 0 86 -43.5t34 -129.5q0 -61 -18.5 -120.5t-53.5 -111.5t-95 -84t-136 -32zM345 413q-37 0 -96.5 -111.5t-91.5 -242.5q26 -28 65 -28q47 0 84 49.5t54.5 115t17.5 128.5q0 89 -33 89z" />
    <glyph glyph-name="ydieresis" unicode="&#xff;" horiz-adv-x="581" 
d="M561 500l-84 -454q-25 -139 -114 -212t-215 -73q-69 0 -115 22t-46 67q0 74 118 95q-5 -20 -5 -37q0 -42 23 -71.5t65 -29.5q31 0 55 19t41.5 57t29 77t24.5 97l47 214q-60 -142 -115.5 -211.5t-129.5 -69.5q-54 0 -79.5 33t-25.5 80q0 13 4 35l16 74q29 134 29 180
q0 36 -12.5 56t-44.5 42l228 10l-46 -216l-26 -122q-5 -22 1.5 -40.5t30.5 -18.5q42 0 85 63t73.5 152t46.5 182h141zM197 630q0 34 27.5 61.5t63.5 27.5q25 0 40.5 -15.5t15.5 -39.5q0 -34 -28.5 -61.5t-62.5 -27.5q-25 0 -40.5 15.5t-15.5 39.5zM382 631q0 34 29 61t64 27
q25 0 39.5 -15.5t14.5 -39.5q0 -34 -27.5 -61.5t-61.5 -27.5q-25 0 -41.5 16t-16.5 40z" />
    <glyph glyph-name="Amacron" unicode="&#x100;" horiz-adv-x="674" 
d="M286 223q-24 0 -72.5 -1.5t-59.5 -1.5q-38 -84 -38 -122q0 -29 17 -50.5t55 -47.5q-98 5 -134 5l-114 -5q47 44 74.5 86.5t76.5 133.5q10 19 15 29l239 448q15 3 66 3q50 0 64 -3l96 -496q11 -56 16 -78.5t17.5 -55t33.5 -67.5q-112 5 -148 5l-145 -5q51 39 63 66.5
t9 68.5q0 1 -4 27.5t-9 59.5q-22 0 -65 0.5t-53 0.5zM393 282l-56 299l-153 -301l-5 -10q33 -1 104 -1q42 0 112 2q-2 8 -2 11zM566 796h-296q-2 34 11 73h296q0 -33 -11 -73z" />
    <glyph glyph-name="amacron" unicode="&#x101;" horiz-adv-x="566" 
d="M530 499l-44 -224q-21 -108 -21 -158q0 -46 13 -68t45 -49h-228l60 291q-25 -66 -45.5 -111t-49 -93.5t-61 -73t-67.5 -24.5q-55 0 -90 43t-35 122q0 85 39 166t114.5 135.5t169.5 54.5q50 0 106 -18zM192 86q36 0 96.5 112t92.5 242q-26 28 -66 28q-46 0 -83.5 -49.5
t-55.5 -115.5t-18 -128q0 -89 34 -89zM510 619h-286q-2 35 11 70h286q0 -35 -11 -70z" />
    <glyph glyph-name="Abreve" unicode="&#x102;" horiz-adv-x="674" 
d="M286 223q-24 0 -72.5 -1.5t-59.5 -1.5q-38 -84 -38 -122q0 -29 17 -50.5t55 -47.5q-98 5 -134 5l-114 -5q47 44 74.5 86.5t76.5 133.5q10 19 15 29l239 448q15 3 66 3q50 0 64 -3l96 -496q11 -56 16 -78.5t17.5 -55t33.5 -67.5q-112 5 -148 5l-145 -5q51 39 63 66.5
t9 68.5q0 1 -4 27.5t-9 59.5q-22 0 -65 0.5t-53 0.5zM393 282l-56 299l-153 -301l-5 -10q33 -1 104 -1q42 0 112 2q-2 8 -2 11zM431 835q81 0 140 69q-8 -58 -50.5 -103t-105.5 -45q-53 0 -80 33.5t-27 82.5q0 16 3 32q45 -69 120 -69z" />
    <glyph glyph-name="abreve" unicode="&#x103;" horiz-adv-x="566" 
d="M530 499l-44 -224q-21 -108 -21 -158q0 -46 13 -68t45 -49h-228l60 291q-25 -66 -45.5 -111t-49 -93.5t-61 -73t-67.5 -24.5q-55 0 -90 43t-35 122q0 85 39 166t114.5 135.5t169.5 54.5q50 0 106 -18zM192 86q36 0 96.5 112t92.5 242q-26 28 -66 28q-46 0 -83.5 -49.5
t-55.5 -115.5t-18 -128q0 -89 34 -89zM368 650q83 0 140 69q-7 -58 -49.5 -103t-105.5 -45q-54 0 -81 33.5t-27 82.5q0 17 3 32q47 -69 120 -69z" />
    <glyph glyph-name="Aogonek" unicode="&#x104;" horiz-adv-x="674" 
d="M565 -145q-28 -73 -99 -73q-37 0 -57 19.5t-20 54.5q0 49 38 84t105 64q-18 1 -42 1l-145 -5q51 39 63 66.5t9 68.5q0 1 -4 27.5t-9 59.5q-22 0 -65 0.5t-53 0.5q-24 0 -72.5 -1.5t-59.5 -1.5q-38 -84 -38 -122q0 -29 17 -50.5t55 -47.5q-98 5 -134 5l-114 -5
q47 44 74.5 86.5t76.5 133.5q10 19 15 29l239 448q15 3 66 3q50 0 64 -3l96 -496q11 -56 16 -78.5t17.5 -55t33.5 -67.5q-42 2 -82 3q-67 -42 -67 -105q0 -49 43 -49q14 0 33 6zM393 282l-56 299l-153 -301l-5 -10q33 -1 104 -1q42 0 112 2q-2 8 -2 11z" />
    <glyph glyph-name="aogonek" unicode="&#x105;" horiz-adv-x="566" 
d="M450 -145q-28 -73 -99 -73q-37 0 -57 19.5t-20 54.5q0 47 35.5 81t98.5 63h-113l60 291q-25 -66 -45.5 -111t-49 -93.5t-61 -73t-67.5 -24.5q-55 0 -90 43t-35 122q0 85 39 166t114.5 135.5t169.5 54.5q50 0 106 -18l94 7l-44 -224q-21 -108 -21 -158q0 -46 13 -68
t45 -49h-87q-62 -43 -62 -102q0 -49 43 -49q13 0 33 6zM192 86q36 0 96.5 112t92.5 242q-26 28 -66 28q-46 0 -83.5 -49.5t-55.5 -115.5t-18 -128q0 -89 34 -89z" />
    <glyph glyph-name="Cacute" unicode="&#x106;" horiz-adv-x="691" 
d="M591 20q-23 0 -100.5 -16.5t-143.5 -16.5q-152 0 -232.5 73t-80.5 219q0 189 125 311t311 122q55 0 129.5 -14.5t96.5 -14.5h10q-10 -43 -35 -216q-35 83 -90 138t-129 55q-95 0 -169.5 -90t-74.5 -253q0 -139 54 -209.5t125 -70.5q114 0 257 201q-9 -31 -53 -218z
M619 806l-207 -27l185 128q15 10 32 -2t22 -44q7 -49 -32 -55z" />
    <glyph glyph-name="cacute" unicode="&#x107;" horiz-adv-x="432" 
d="M436 644l-199 -79l154 167q11 14 29.5 6.5t32.5 -34.5q8 -18 8 -28q0 -23 -25 -32zM277 466q-51 0 -83.5 -81.5t-32.5 -166.5q0 -67 23.5 -103t62.5 -36q23 0 57.5 10.5t57.5 27.5q-21 -66 -76.5 -97t-114.5 -31q-68 0 -114.5 43.5t-46.5 133.5q0 44 11.5 90t36.5 92
t59.5 81.5t85.5 58t111 22.5q66 0 98 -26.5t32 -62.5q0 -25 -15.5 -42.5t-45.5 -17.5q-24 0 -38.5 16.5t-19 36t-16.5 36t-32 16.5z" />
    <glyph glyph-name="Ccircumflex" unicode="&#x108;" horiz-adv-x="691" 
d="M591 20q-23 0 -100.5 -16.5t-143.5 -16.5q-152 0 -232.5 73t-80.5 219q0 189 125 311t311 122q55 0 129.5 -14.5t96.5 -14.5h10q-10 -43 -35 -216q-35 83 -90 138t-129 55q-95 0 -169.5 -90t-74.5 -253q0 -139 54 -209.5t125 -70.5q114 0 257 201q-9 -31 -53 -218z
M458 845l-120 -108q-20 13 -28 27l184 164l128 -125q-44 -52 -59 -62z" />
    <glyph glyph-name="ccircumflex" unicode="&#x109;" horiz-adv-x="432" 
d="M318 659l-111 -104q-20 15 -25 30l171 171l115 -141q-34 -43 -63 -60zM277 466q-51 0 -83.5 -81.5t-32.5 -166.5q0 -67 23.5 -103t62.5 -36q23 0 57.5 10.5t57.5 27.5q-21 -66 -76.5 -97t-114.5 -31q-68 0 -114.5 43.5t-46.5 133.5q0 44 11.5 90t36.5 92t59.5 81.5
t85.5 58t111 22.5q66 0 98 -26.5t32 -62.5q0 -25 -15.5 -42.5t-45.5 -17.5q-24 0 -38.5 16.5t-19 36t-16.5 36t-32 16.5z" />
    <glyph glyph-name="Cdotaccent" unicode="&#x10a;" horiz-adv-x="691" 
d="M392 813q0 34 28.5 61t63.5 27q26 0 40.5 -15.5t14.5 -39.5q0 -34 -27.5 -61.5t-62.5 -27.5q-25 0 -41 15.5t-16 40.5zM591 20q-23 0 -100.5 -16.5t-143.5 -16.5q-152 0 -232.5 73t-80.5 219q0 189 125 311t311 122q55 0 129.5 -14.5t96.5 -14.5h10q-10 -43 -35 -216
q-35 83 -90 138t-129 55q-95 0 -169.5 -90t-74.5 -253q0 -139 54 -209.5t125 -70.5q114 0 257 201q-9 -31 -53 -218z" />
    <glyph glyph-name="cdotaccent" unicode="&#x10b;" horiz-adv-x="432" 
d="M277 466q-51 0 -83.5 -81.5t-32.5 -166.5q0 -67 23.5 -103t62.5 -36q23 0 57.5 10.5t57.5 27.5q-21 -66 -76.5 -97t-114.5 -31q-68 0 -114.5 43.5t-46.5 133.5q0 44 11.5 90t36.5 92t59.5 81.5t85.5 58t111 22.5q66 0 98 -26.5t32 -62.5q0 -25 -15.5 -42.5t-45.5 -17.5
q-24 0 -38.5 16.5t-19 36t-16.5 36t-32 16.5zM257 631q0 34 26 61t61 27q25 0 42.5 -15.5t17.5 -39.5q0 -34 -27.5 -61.5t-61.5 -27.5q-26 0 -42 15.5t-16 40.5z" />
    <glyph glyph-name="Ccaron" unicode="&#x10c;" horiz-adv-x="691" 
d="M591 20q-23 0 -100.5 -16.5t-143.5 -16.5q-152 0 -232.5 73t-80.5 219q0 189 125 311t311 122q55 0 129.5 -14.5t96.5 -14.5h10q-10 -43 -35 -216q-35 83 -90 138t-129 55q-95 0 -169.5 -90t-74.5 -253q0 -139 54 -209.5t125 -70.5q114 0 257 201q-9 -31 -53 -218z
M500 828l115 108q19 -11 28 -27l-180 -164l-131 125q40 49 59 62z" />
    <glyph glyph-name="ccaron" unicode="&#x10d;" horiz-adv-x="432" 
d="M277 466q-51 0 -83.5 -81.5t-32.5 -166.5q0 -67 23.5 -103t62.5 -36q23 0 57.5 10.5t57.5 27.5q-21 -66 -76.5 -97t-114.5 -31q-68 0 -114.5 43.5t-46.5 133.5q0 44 11.5 90t36.5 92t59.5 81.5t85.5 58t111 22.5q66 0 98 -26.5t32 -62.5q0 -25 -15.5 -42.5t-45.5 -17.5
q-24 0 -38.5 16.5t-19 36t-16.5 36t-32 16.5zM329 642l106 104q20 -15 25 -30l-166 -171l-120 141q39 45 63 60z" />
    <glyph glyph-name="Dcaron" unicode="&#x10e;" horiz-adv-x="793" 
d="M463 828l115 108q19 -11 28 -27l-180 -164l-131 125q40 49 59 62zM317 -1q-21 0 -87 2.5t-100 2.5l-158 -4q52 41 71 72t35 113q13 64 28 158q14 79 21 138q7 58 6 99q-1 80 -51 120q103 -3 154 -3l190 3q166 0 256.5 -77.5t90.5 -223.5q0 -177 -126.5 -288.5
t-329.5 -111.5zM325 47q112 0 193.5 90t81.5 244q0 120 -52 194t-149 74q-43 0 -84 -6q-10 -38 -37 -183q-31 -178 -42 -258q-5 -37 -5 -58q0 -55 23.5 -76t70.5 -21z" />
    <glyph glyph-name="dcaron" unicode="&#x10f;" horiz-adv-x="569" 
d="M396 502q15 72 15 108q0 28 -9 47.5t-18.5 29t-34.5 30.5l228 10l-91 -452q-21 -101 -21 -158q0 -32 8.5 -54.5t18 -33t31.5 -29.5h-228l59 285q-23 -61 -44 -108t-49 -92.5t-61 -70.5t-68 -25q-55 0 -90 43t-35 122q0 86 39 166.5t115.5 135t171.5 54.5q30 0 63 -8z
M193 86q35 0 96.5 113t92.5 241q-26 28 -66 28q-46 0 -83.5 -49.5t-56 -115.5t-18.5 -128q0 -89 35 -89zM736 737l-152 -254l44 254q28 11 55 11q28 0 53 -11z" />
    <glyph glyph-name="Dcroat" unicode="&#x110;" horiz-adv-x="796" 
d="M320 -1q-22 0 -88 2.5t-99 2.5l-158 -4q52 41 71 72t35 113q18 97 26 149h-90q0 25 8 52h91q3 15 14 95q7 58 6 99q-1 80 -51 120q103 -3 154 -3l190 3q166 0 256.5 -77.5t90.5 -223.5q0 -177 -126.5 -288.5t-329.5 -111.5zM328 47q112 0 193.5 90t81.5 244
q0 120 -52 194t-149 74q-44 0 -84 -6q-10 -38 -37 -183l-13 -74h123q0 -25 -8 -52h-124q-13 -75 -20 -132q-5 -37 -5 -58q0 -55 23.5 -76t70.5 -21z" />
    <glyph glyph-name="dcroat" unicode="&#x111;" horiz-adv-x="568" 
d="M396 502q9 41 11 63h-167q0 21 6 41h165q0 22 -3 37.5t-14 29.5t-17.5 20t-27.5 24l228 10l-25 -121h61q0 -21 -6 -41h-63l-58 -290q-21 -101 -21 -158q0 -32 8.5 -54.5t18 -33t31.5 -29.5h-228l59 285q-23 -61 -44 -108t-49 -92.5t-61 -70.5t-68 -25q-55 0 -90 43
t-35 122q0 86 39 166.5t115.5 135t171.5 54.5q30 0 63 -8zM193 86q35 0 96.5 113t92.5 241q-26 28 -66 28q-46 0 -83.5 -49.5t-56 -115.5t-18.5 -128q0 -89 35 -89z" />
    <glyph glyph-name="Emacron" unicode="&#x112;" horiz-adv-x="637" 
d="M274 466l-13 -82q8 -1 17 -1q79 0 123.5 8.5t65 22.5t50.5 47q-17 -81 -22 -111l-15 -117q-16 28 -22.5 37.5t-21.5 25.5t-31.5 20.5t-44 9t-67.5 4.5q-8 0 -21.5 -0.5t-18.5 -0.5l-11 -75q-15 -101 -15 -125q0 -44 21.5 -60.5t80.5 -16.5q79 0 136 32t146 123l-14 -39
q-14 -39 -32.5 -92t-27.5 -80q-43 6 -108 6l-131 1h-174l-154 -3q45 37 63 63t33.5 85t37.5 195q27 169 27 232q0 45 -11.5 70.5t-39.5 53.5q100 -3 153 -3q30 0 287 2q64 0 110 6q-8 -39 -15 -85q-6 -33 -19 -129q-57 92 -100.5 125.5t-119.5 33.5l-66 -4q-22 -90 -36 -179
zM555 796h-296q-2 34 11 73h296q0 -33 -11 -73z" />
    <glyph glyph-name="emacron" unicode="&#x113;" horiz-adv-x="455" 
d="M455 408q0 -46 -45 -81t-107 -53.5t-143 -28.5v-25q0 -71 29.5 -105.5t75.5 -34.5q62 0 121 51q-10 -60 -68 -101t-129 -41q-72 0 -126 44.5t-54 134.5q0 54 21 113t58.5 110.5t97.5 85t130 33.5t104.5 -30t34.5 -72zM477 619h-286q-2 35 11 70h286q0 -35 -11 -70z
M271 465q-41 0 -71 -64.5t-38 -142.5q150 36 150 143q0 64 -41 64z" />
    <glyph glyph-name="Ebreve" unicode="&#x114;" horiz-adv-x="637" 
d="M274 466l-13 -82q8 -1 17 -1q79 0 123.5 8.5t65 22.5t50.5 47q-17 -81 -22 -111l-15 -117q-16 28 -22.5 37.5t-21.5 25.5t-31.5 20.5t-44 9t-67.5 4.5q-8 0 -21.5 -0.5t-18.5 -0.5l-11 -75q-15 -101 -15 -125q0 -44 21.5 -60.5t80.5 -16.5q79 0 136 32t146 123l-14 -39
q-14 -39 -32.5 -92t-27.5 -80q-43 6 -108 6l-131 1h-174l-154 -3q45 37 63 63t33.5 85t37.5 195q27 169 27 232q0 45 -11.5 70.5t-39.5 53.5q100 -3 153 -3q30 0 287 2q64 0 110 6q-8 -39 -15 -85q-6 -33 -19 -129q-57 92 -100.5 125.5t-119.5 33.5l-66 -4q-22 -90 -36 -179
zM405 835q81 0 140 69q-8 -58 -50.5 -103t-105.5 -45q-53 0 -80 33.5t-27 82.5q0 16 3 32q45 -69 120 -69z" />
    <glyph glyph-name="ebreve" unicode="&#x115;" horiz-adv-x="455" 
d="M455 408q0 -46 -45 -81t-107 -53.5t-143 -28.5v-25q0 -71 29.5 -105.5t75.5 -34.5q62 0 121 51q-10 -60 -68 -101t-129 -41q-72 0 -126 44.5t-54 134.5q0 54 21 113t58.5 110.5t97.5 85t130 33.5t104.5 -30t34.5 -72zM271 465q-41 0 -71 -64.5t-38 -142.5q150 36 150 143
q0 64 -41 64zM329 650q83 0 140 69q-7 -58 -49.5 -103t-105.5 -45q-54 0 -81 33.5t-27 82.5q0 17 3 32q47 -69 120 -69z" />
    <glyph glyph-name="Edotaccent" unicode="&#x116;" horiz-adv-x="637" 
d="M274 466l-13 -82q8 -1 17 -1q79 0 123.5 8.5t65 22.5t50.5 47q-17 -81 -22 -111l-15 -117q-16 28 -22.5 37.5t-21.5 25.5t-31.5 20.5t-44 9t-67.5 4.5q-8 0 -21.5 -0.5t-18.5 -0.5l-11 -75q-15 -101 -15 -125q0 -44 21.5 -60.5t80.5 -16.5q79 0 136 32t146 123l-14 -39
q-14 -39 -32.5 -92t-27.5 -80q-43 6 -108 6l-131 1h-174l-154 -3q45 37 63 63t33.5 85t37.5 195q27 169 27 232q0 45 -11.5 70.5t-39.5 53.5q100 -3 153 -3q30 0 287 2q64 0 110 6q-8 -39 -15 -85q-6 -33 -19 -129q-57 92 -100.5 125.5t-119.5 33.5l-66 -4q-22 -90 -36 -179
zM350 813q0 34 28.5 61t63.5 27q26 0 40.5 -15.5t14.5 -39.5q0 -34 -27.5 -61.5t-62.5 -27.5q-25 0 -41 15.5t-16 40.5z" />
    <glyph glyph-name="edotaccent" unicode="&#x117;" horiz-adv-x="455" 
d="M455 408q0 -46 -45 -81t-107 -53.5t-143 -28.5v-25q0 -71 29.5 -105.5t75.5 -34.5q62 0 121 51q-10 -60 -68 -101t-129 -41q-72 0 -126 44.5t-54 134.5q0 54 21 113t58.5 110.5t97.5 85t130 33.5t104.5 -30t34.5 -72zM271 465q-41 0 -71 -64.5t-38 -142.5q150 36 150 143
q0 64 -41 64zM254 631q0 34 26 61t61 27q25 0 42.5 -15.5t17.5 -39.5q0 -34 -27.5 -61.5t-61.5 -27.5q-26 0 -42 15.5t-16 40.5z" />
    <glyph glyph-name="Eogonek" unicode="&#x118;" horiz-adv-x="637" 
d="M274 466l-13 -82q8 -1 17 -1q79 0 123.5 8.5t65 22.5t50.5 47q-17 -81 -22 -111l-15 -117q-16 28 -22.5 37.5t-21.5 25.5t-31.5 20.5t-44 9t-67.5 4.5q-8 0 -21.5 -0.5t-18.5 -0.5l-11 -75q-15 -101 -15 -125q0 -44 21.5 -60.5t80.5 -16.5q79 0 136 32t146 123l-14 -39
q-14 -39 -32.5 -92t-27.5 -80q-18 3 -74 5q-64 -43 -64 -103q0 -49 43 -49q14 0 33 6q-28 -73 -99 -73q-37 0 -57 19.5t-20 54.5q0 48 36.5 82.5t101.5 63.5h-8l-131 1h-174l-154 -3q45 37 63 63t33.5 85t37.5 195q27 169 27 232q0 45 -11.5 70.5t-39.5 53.5q100 -3 153 -3
q30 0 287 2q64 0 110 6q-8 -39 -15 -85q-6 -33 -19 -129q-57 92 -100.5 125.5t-119.5 33.5l-66 -4q-22 -90 -36 -179z" />
    <glyph glyph-name="eogonek" unicode="&#x119;" horiz-adv-x="454" 
d="M454 408q0 -46 -45 -81t-107 -53.5t-143 -28.5v-25q0 -71 29.5 -105.5t75.5 -34.5q62 0 121 51q-8 -47 -46.5 -83t-91.5 -50q-58 -44 -58 -100q0 -49 43 -49q14 0 33 6q-28 -73 -99 -73q-37 0 -57 19.5t-20 54.5q0 76 111 134q-2 0 -6 -0.5t-6 -0.5q-72 0 -126 44.5
t-54 134.5q0 54 21 113t58.5 110.5t97.5 85t130 33.5t104.5 -30t34.5 -72zM270 465q-41 0 -71 -64.5t-38 -142.5q150 36 150 143q0 64 -41 64z" />
    <glyph glyph-name="Ecaron" unicode="&#x11a;" horiz-adv-x="637" 
d="M274 466l-13 -82q8 -1 17 -1q79 0 123.5 8.5t65 22.5t50.5 47q-17 -81 -22 -111l-15 -117q-16 28 -22.5 37.5t-21.5 25.5t-31.5 20.5t-44 9t-67.5 4.5q-8 0 -21.5 -0.5t-18.5 -0.5l-11 -75q-15 -101 -15 -125q0 -44 21.5 -60.5t80.5 -16.5q79 0 136 32t146 123l-14 -39
q-14 -39 -32.5 -92t-27.5 -80q-43 6 -108 6l-131 1h-174l-154 -3q45 37 63 63t33.5 85t37.5 195q27 169 27 232q0 45 -11.5 70.5t-39.5 53.5q100 -3 153 -3q30 0 287 2q64 0 110 6q-8 -39 -15 -85q-6 -33 -19 -129q-57 92 -100.5 125.5t-119.5 33.5l-66 -4q-22 -90 -36 -179
zM434 828l115 108q19 -11 28 -27l-180 -164l-131 125q40 49 59 62z" />
    <glyph glyph-name="ecaron" unicode="&#x11b;" horiz-adv-x="455" 
d="M455 408q0 -46 -45 -81t-107 -53.5t-143 -28.5v-25q0 -71 29.5 -105.5t75.5 -34.5q62 0 121 51q-10 -60 -68 -101t-129 -41q-72 0 -126 44.5t-54 134.5q0 54 21 113t58.5 110.5t97.5 85t130 33.5t104.5 -30t34.5 -72zM337 642l106 104q20 -15 25 -30l-166 -171l-120 141
q39 45 63 60zM271 465q-41 0 -71 -64.5t-38 -142.5q150 36 150 143q0 64 -41 64z" />
    <glyph glyph-name="Gcircumflex" unicode="&#x11c;" horiz-adv-x="734" 
d="M598 334l129 3q-39 -43 -58 -82.5t-32 -120.5q-8 -40 -16 -114q-22 0 -116.5 -16.5t-157.5 -16.5q-147 0 -231 74.5t-84 217.5q0 97 40 180.5t105 137.5t144.5 84.5t159.5 30.5q49 0 129 -14.5t102 -14.5h11q-5 -24 -34 -216q-52 102 -100 147.5t-119 45.5
q-108 0 -186.5 -93t-78.5 -261q0 -131 49.5 -200.5t132.5 -69.5q48 0 92 22q15 92 15 136q0 50 -18 83t-62 60q120 -3 184 -3zM461 845l-120 -108q-20 13 -28 27l184 164l128 -125q-44 -52 -59 -62z" />
    <glyph glyph-name="gcircumflex" unicode="&#x11d;" horiz-adv-x="550" 
d="M131 -11q-54 0 -89 43t-35 122q0 85 39 165.5t114.5 135.5t169.5 55q50 0 106 -18l94 7l-84 -453q-25 -137 -118 -211t-210 -74q-76 0 -124 30t-48 77q0 74 118 95q-4 -20 -4 -42q0 -54 27 -84t70 -30q58 0 90.5 59.5t59.5 190.5l48 235q-26 -68 -46 -113t-48.5 -93.5
t-61 -72.5t-68.5 -24zM191 86q37 0 97 111.5t92 242.5q-26 28 -65 28q-47 0 -84.5 -50t-55 -116t-17.5 -128q0 -88 33 -88zM336 659l-111 -104q-20 15 -25 30l171 171l115 -141q-34 -43 -63 -60z" />
    <glyph glyph-name="Gbreve" unicode="&#x11e;" horiz-adv-x="734" 
d="M488 835q82 0 140 69q-8 -58 -50.5 -103t-105.5 -45q-53 0 -80 33.5t-27 82.5q0 16 3 32q45 -69 120 -69zM598 334l129 3q-39 -43 -58 -82.5t-32 -120.5q-8 -40 -16 -114q-22 0 -116.5 -16.5t-157.5 -16.5q-147 0 -231 74.5t-84 217.5q0 97 40 180.5t105 137.5
t144.5 84.5t159.5 30.5q49 0 129 -14.5t102 -14.5h11q-5 -24 -34 -216q-52 102 -100 147.5t-119 45.5q-108 0 -186.5 -93t-78.5 -261q0 -131 49.5 -200.5t132.5 -69.5q48 0 92 22q15 92 15 136q0 50 -18 83t-62 60q120 -3 184 -3z" />
    <glyph glyph-name="gbreve" unicode="&#x11f;" horiz-adv-x="550" 
d="M131 -11q-54 0 -89 43t-35 122q0 85 39 165.5t114.5 135.5t169.5 55q50 0 106 -18l94 7l-84 -453q-25 -137 -118 -211t-210 -74q-76 0 -124 30t-48 77q0 74 118 95q-4 -20 -4 -42q0 -54 27 -84t70 -30q58 0 90.5 59.5t59.5 190.5l48 235q-26 -68 -46 -113t-48.5 -93.5
t-61 -72.5t-68.5 -24zM191 86q37 0 97 111.5t92 242.5q-26 28 -65 28q-47 0 -84.5 -50t-55 -116t-17.5 -128q0 -88 33 -88zM338 649q83 0 140 69q-7 -58 -49.5 -103t-105.5 -45q-54 0 -81 33.5t-27 82.5q0 17 3 32q47 -69 120 -69z" />
    <glyph glyph-name="Gdotaccent" unicode="&#x120;" horiz-adv-x="734" 
d="M402 813q0 34 28.5 61t63.5 27q26 0 40.5 -15.5t14.5 -39.5q0 -34 -27.5 -61.5t-62.5 -27.5q-25 0 -41 15.5t-16 40.5zM598 334l129 3q-39 -43 -58 -82.5t-32 -120.5q-8 -40 -16 -114q-22 0 -116.5 -16.5t-157.5 -16.5q-147 0 -231 74.5t-84 217.5q0 97 40 180.5
t105 137.5t144.5 84.5t159.5 30.5q49 0 129 -14.5t102 -14.5h11q-5 -24 -34 -216q-52 102 -100 147.5t-119 45.5q-108 0 -186.5 -93t-78.5 -261q0 -131 49.5 -200.5t132.5 -69.5q48 0 92 22q15 92 15 136q0 50 -18 83t-62 60q120 -3 184 -3z" />
    <glyph glyph-name="gdotaccent" unicode="&#x121;" horiz-adv-x="550" 
d="M131 -11q-54 0 -89 43t-35 122q0 85 39 165.5t114.5 135.5t169.5 55q50 0 106 -18l94 7l-84 -453q-25 -137 -118 -211t-210 -74q-76 0 -124 30t-48 77q0 74 118 95q-4 -20 -4 -42q0 -54 27 -84t70 -30q58 0 90.5 59.5t59.5 190.5l48 235q-26 -68 -46 -113t-48.5 -93.5
t-61 -72.5t-68.5 -24zM191 86q37 0 97 111.5t92 242.5q-26 28 -65 28q-47 0 -84.5 -50t-55 -116t-17.5 -128q0 -88 33 -88zM278 631q0 34 26 61t61 27q25 0 42.5 -15.5t17.5 -39.5q0 -34 -27.5 -61.5t-61.5 -27.5q-26 0 -42 15.5t-16 40.5z" />
    <glyph glyph-name="Gcommaaccent" unicode="&#x122;" horiz-adv-x="734" 
d="M446 -84l-120 -206l13 206q28 11 55 11q28 0 52 -11zM598 334l129 3q-39 -43 -58 -82.5t-32 -120.5q-8 -40 -16 -114q-22 0 -116.5 -16.5t-157.5 -16.5q-147 0 -231 74.5t-84 217.5q0 97 40 180.5t105 137.5t144.5 84.5t159.5 30.5q49 0 129 -14.5t102 -14.5h11
q-5 -24 -34 -216q-52 102 -100 147.5t-119 45.5q-108 0 -186.5 -93t-78.5 -261q0 -131 49.5 -200.5t132.5 -69.5q48 0 92 22q15 92 15 136q0 50 -18 83t-62 60q120 -3 184 -3z" />
    <glyph glyph-name="gcommaaccent" unicode="&#x123;" horiz-adv-x="550" 
d="M131 -11q-54 0 -89 43t-35 122q0 85 39 165.5t114.5 135.5t169.5 55q50 0 106 -18l94 7l-84 -453q-25 -137 -118 -211t-210 -74q-76 0 -124 30t-48 77q0 74 118 95q-4 -20 -4 -42q0 -54 27 -84t70 -30q58 0 90.5 59.5t59.5 190.5l48 235q-26 -68 -46 -113t-48.5 -93.5
t-61 -72.5t-68.5 -24zM191 86q37 0 97 111.5t92 242.5q-26 28 -65 28q-47 0 -84.5 -50t-55 -116t-17.5 -128q0 -88 33 -88zM283 564l120 206l-13 -206q-28 -11 -55 -11q-28 0 -52 11z" />
    <glyph glyph-name="Hcircumflex" unicode="&#x124;" horiz-adv-x="799" 
d="M238 697l157 3q-58 -45 -80.5 -97.5t-49.5 -213.5q96 -2 149 -2q51 0 149 2q20 131 20 184q0 47 -11.5 72.5t-40.5 54.5q92 -3 156 -3l157 3q-43 -33 -63 -64t-36 -93.5t-38 -199.5q-26 -167 -26 -220q0 -44 11.5 -67t41.5 -56q-94 3 -158 3l-155 -3q44 35 62 60.5t34 83
t37 187.5q-98 2 -149 2q-53 0 -149 -2q-24 -151 -24 -208q0 -45 11 -67.5t42 -55.5q-94 3 -159 3l-154 -3q45 36 63 62.5t33.5 85t37.5 195.5q27 169 27 232q0 45 -11.5 71t-39.5 54q92 -3 156 -3zM472 845l-120 -108q-20 13 -28 27l184 164l128 -125q-44 -52 -59 -62z" />
    <glyph glyph-name="hcircumflex" unicode="&#x125;" horiz-adv-x="580" 
d="M285 727l-97 -490q61 137 118 205t123 68q49 0 75.5 -34t26.5 -82q0 -17 -3 -32l-16 -74q-29 -134 -29 -184q0 -39 13 -60.5t44 -43.5h-228l46 216l26 122q5 21 -3 40t-32 19q-42 0 -85 -63t-73.5 -152t-46.5 -182h-141l89 452q22 111 22 160q0 29 -8 49t-17 28.5
t-32 27.5zM193 855l-111 -104q-20 15 -25 30l171 171l115 -141q-34 -43 -63 -60z" />
    <glyph glyph-name="Hbar" unicode="&#x126;" horiz-adv-x="800" 
d="M688 697l157 3q-42 -32 -62.5 -62.5t-36.5 -91.5h65q-1 -27 -7 -46h-69q-13 -69 -27 -157q-26 -167 -26 -220q0 -44 11.5 -67t41.5 -56q-94 3 -158 3l-155 -3q44 35 62 60.5t34 83t37 187.5q-98 2 -149 2q-53 0 -149 -2q-24 -151 -24 -208q0 -45 11 -67.5t42 -55.5
q-94 3 -159 3l-154 -3q45 36 63 62.5t33.5 85t37.5 195.5q18 119 22 157h-71q1 27 7 46h68q4 62 -7 91.5t-43 62.5q92 -3 156 -3l157 3q-42 -32 -62.5 -62.5t-36.5 -91.5h286q4 61 -7.5 91t-43.5 63q92 -3 156 -3zM266 389q96 -2 149 -2q51 0 149 2q15 108 15 111h-293z" />
    <glyph glyph-name="hbar" unicode="&#x127;" horiz-adv-x="580" 
d="M416 557h-165l-64 -320q60 137 118 205t124 68q49 0 75.5 -34t26.5 -82q0 -17 -3 -32l-16 -74q-29 -134 -29 -184q0 -39 13 -60.5t44 -43.5h-228l46 216l26 122q5 21 -3 40t-32 19q-42 0 -85 -63t-73.5 -152t-46.5 -182h-141l89 452q13 69 17 105h-60q0 21 6 41h58
q2 34 -5.5 57t-16.5 32t-34 30l228 10l-26 -129h163q0 -21 -6 -41z" />
    <glyph glyph-name="Itilde" unicode="&#x128;" horiz-adv-x="350" 
d="M238 697l157 3q-43 -33 -63 -64t-36 -93.5t-38 -199.5q-26 -167 -26 -220q0 -44 11.5 -67t41.5 -56q-94 3 -159 3l-154 -3q44 36 61.5 61t34 83t36.5 185q29 188 29 248q0 45 -11 69.5t-40 53.5q92 -3 156 -3zM110 765q-9 14 -9 33q0 31 23 51.5t60 20.5q17 0 67.5 -10.5
t74.5 -10.5q30 0 49 24q19 -18 19 -37q0 -28 -26 -50t-61 -22q-28 0 -80 11t-64 11q-37 0 -53 -21z" />
    <glyph glyph-name="itilde" unicode="&#x129;" horiz-adv-x="292" 
d="M19 0l44 214q23 109 23 164q0 43 -12.5 65t-43.5 47l228 10l-44 -215q-25 -122 -25 -176q0 -41 12 -63.5t40 -45.5h-222zM49 594q-9 16 -9 34q0 30 23 50.5t60 20.5q17 0 67.5 -10.5t74.5 -10.5q30 0 49 24q19 -19 19 -38q0 -27 -26.5 -49t-61.5 -22q-28 0 -79.5 11
t-63.5 11q-37 0 -53 -21z" />
    <glyph glyph-name="Imacron" unicode="&#x12a;" horiz-adv-x="350" 
d="M238 697l157 3q-43 -33 -63 -64t-36 -93.5t-38 -199.5q-26 -167 -26 -220q0 -44 11.5 -67t41.5 -56q-94 3 -159 3l-154 -3q44 36 61.5 61t34 83t36.5 185q29 188 29 248q0 45 -11 69.5t-40 53.5q92 -3 156 -3zM390 796h-296q-2 34 11 73h296q0 -33 -11 -73z" />
    <glyph glyph-name="imacron" unicode="&#x12b;" horiz-adv-x="292" 
d="M19 0l44 214q23 109 23 164q0 43 -12.5 65t-43.5 47l228 10l-44 -215q-25 -122 -25 -176q0 -41 12 -63.5t40 -45.5h-222zM321 619h-286q-2 35 11 70h286q0 -35 -11 -70z" />
    <glyph glyph-name="Ibreve" unicode="&#x12c;" horiz-adv-x="350" 
d="M238 697l157 3q-43 -33 -63 -64t-36 -93.5t-38 -199.5q-26 -167 -26 -220q0 -44 11.5 -67t41.5 -56q-94 3 -159 3l-154 -3q44 36 61.5 61t34 83t36.5 185q29 188 29 248q0 45 -11 69.5t-40 53.5q92 -3 156 -3zM262 835q82 0 140 69q-8 -58 -50.5 -103t-105.5 -45
q-53 0 -80 33.5t-27 82.5q0 16 3 32q45 -69 120 -69z" />
    <glyph glyph-name="ibreve" unicode="&#x12d;" horiz-adv-x="292" 
d="M19 0l44 214q23 109 23 164q0 43 -12.5 65t-43.5 47l228 10l-44 -215q-25 -122 -25 -176q0 -41 12 -63.5t40 -45.5h-222zM182 650q83 0 140 69q-7 -58 -49.5 -103t-105.5 -45q-54 0 -81 33.5t-27 82.5q0 17 3 32q47 -69 120 -69z" />
    <glyph glyph-name="Iogonek" unicode="&#x12e;" horiz-adv-x="350" 
d="M177 -145q-28 -73 -99 -73q-37 0 -57 19.5t-20 54.5q0 49 37 83.5t103 63.5h-15l-154 -3q44 36 61.5 61t34 83t36.5 185q29 188 29 248q0 45 -11 69.5t-40 53.5q92 -3 156 -3l157 3q-43 -33 -63 -64t-36 -93.5t-38 -199.5q-26 -167 -26 -220q0 -44 11.5 -67t41.5 -56
q-61 2 -118 3q-66 -45 -66 -105q0 -49 43 -49q14 0 33 6z" />
    <glyph glyph-name="iogonek" unicode="&#x12f;" horiz-adv-x="292" 
d="M19 0l44 214q23 109 23 164q0 43 -12.5 65t-43.5 47l228 10l-44 -215q-25 -122 -25 -176q0 -41 12 -63.5t40 -45.5h-81q-62 -43 -62 -102q0 -49 43 -49q13 0 33 6q-28 -73 -99 -73q-37 0 -57 19.5t-20 54.5q0 47 35.5 81t98.5 63h-113zM142 668q0 37 28 69t64 32
q29 0 48.5 -23t19.5 -58q0 -39 -27 -68.5t-61 -29.5q-29 0 -50.5 22t-21.5 56z" />
    <glyph glyph-name="Idotaccent" unicode="&#x130;" horiz-adv-x="350" 
d="M238 697l157 3q-43 -33 -63 -64t-36 -93.5t-38 -199.5q-26 -167 -26 -220q0 -44 11.5 -67t41.5 -56q-94 3 -159 3l-154 -3q44 36 61.5 61t34 83t36.5 185q29 188 29 248q0 45 -11 69.5t-40 53.5q92 -3 156 -3zM186 813q0 34 28.5 61t63.5 27q26 0 40.5 -15.5t14.5 -39.5
q0 -34 -27.5 -61.5t-62.5 -27.5q-25 0 -41 15.5t-16 40.5z" />
    <glyph glyph-name="dotlessi" unicode="&#x131;" horiz-adv-x="293" 
d="M19 0l44 214q23 109 23 164q0 43 -12.5 65t-43.5 47l228 10l-44 -215q-25 -122 -25 -176q0 -41 12 -63.5t40 -45.5h-222z" />
    <glyph glyph-name="IJ" unicode="&#x132;" horiz-adv-x="686" 
d="M577 128q-32 -201 -337 -256q157 111 193 341l19 116q31 194 31 250q0 45 -13.5 69.5t-49.5 51.5q102 -3 166 -3l147 3q-41 -34 -58 -62.5t-31.5 -91.5t-37.5 -217q-12 -76 -18.5 -120.5t-8.5 -61t-2 -19.5zM238 697l157 3q-43 -33 -63 -64t-36 -93.5t-38 -199.5
q-26 -167 -26 -220q0 -44 11.5 -67t41.5 -56q-94 3 -159 3l-154 -3q44 36 61.5 61t34 83t36.5 185q29 188 29 248q0 45 -11 69.5t-40 53.5q92 -3 156 -3z" />
    <glyph glyph-name="ij" unicode="&#x133;" horiz-adv-x="569" 
d="M142 668q0 37 28 69t64 32q29 0 48.5 -23t19.5 -58q0 -39 -27 -68.5t-61 -29.5q-29 0 -50.5 22t-21.5 56zM19 0l44 214q23 109 23 164q0 43 -12.5 65t-43.5 47l228 10l-44 -215q-25 -122 -25 -176q0 -41 12 -63.5t40 -45.5h-222zM332 93l26 121q23 108 23 162
q0 44 -13 66t-44 48l228 10l-44 -217l-50 -254q-7 -50 -35 -94t-71 -78t-82.5 -57t-88.5 -46q35 36 62 81.5t45 98t26 82.5t18 77zM422 668q0 37 26.5 69t62.5 32q30 0 50.5 -23t20.5 -58q0 -39 -27 -68.5t-61 -29.5q-29 0 -50.5 22t-21.5 56z" />
    <glyph glyph-name="Jcircumflex" unicode="&#x134;" horiz-adv-x="336" 
d="M227 128q-32 -201 -337 -256q157 111 193 341l19 116q31 194 31 250q0 45 -13.5 69.5t-49.5 51.5q102 -3 166 -3l147 3q-41 -34 -58 -62.5t-31.5 -91.5t-37.5 -217q-12 -76 -18.5 -120.5t-8.5 -61t-2 -19.5zM228 845l-120 -108q-20 13 -28 27l184 164l128 -125
q-44 -52 -59 -62z" />
    <glyph glyph-name="jcircumflex" unicode="&#x135;" horiz-adv-x="277" 
d="M181 659l-111 -104q-20 15 -25 30l171 171l115 -141q-34 -43 -63 -60zM40 93l26 121q23 108 23 162q0 44 -13 66t-44 48l228 10l-44 -217l-50 -254q-7 -50 -35 -94t-71 -78t-82.5 -57t-88.5 -46q35 36 62 81.5t45 98t26 82.5t18 77z" />
    <glyph glyph-name="Kcommaaccent" unicode="&#x136;" horiz-adv-x="700" 
d="M376 -84l-120 -206l13 206q28 11 55 11q28 0 52 -11zM238 697l149 3q-57 -43 -77 -96.5t-48 -231.5q-30 -190 -30 -250q0 -44 11 -67t42 -55q-94 3 -159 3l-154 -3q45 36 63 62.5t33.5 84.5t36.5 193q28 180 28 237q0 46 -11.5 70.5t-39.5 52.5q92 -3 156 -3zM404 133
l-100 190l-32 40l39 29l110 112q80 82 80 131q0 42 -54 65q143 -5 173 -5l153 5q-96 -43 -163 -87t-152 -137l-43 -46q137 -239 184 -307q48 -68 93 -124q-128 4 -166 4l-172 -4q65 33 65 82q0 22 -15 52z" />
    <glyph glyph-name="kcommaaccent" unicode="&#x137;" horiz-adv-x="541" 
d="M285 727l-66 -325q34 51 79 79.5t93 28.5t83.5 -27t35.5 -79q0 -27 -12 -50t-25.5 -38t-43.5 -31.5t-46 -23.5t-52 -22q-11 -5 -17 -7q80 -88 194 -182l-113 -88q-37 31 -77.5 71.5t-63 65.5t-70.5 79q78 30 128.5 83t50.5 113q0 54 -43 54q-47 0 -106 -49l-76 -379h-136
l90 452q22 110 22 159q0 29 -8 49t-17 29.5t-32 27.5zM271 -84l-120 -206l13 206q28 11 55 11q28 0 52 -11z" />
    <glyph glyph-name="Lacute" unicode="&#x139;" horiz-adv-x="588" 
d="M347 806l-207 -27l185 128q15 10 32 -2t22 -44q7 -49 -32 -55zM232 696l171 4q-47 -33 -68 -63.5t-39 -97t-41 -210.5l-14 -85q-10 -65 -10 -98q0 -52 19 -75.5t62 -23.5q58 0 117.5 44t151.5 151l-16 -48q-16 -49 -37 -111.5t-29 -89.5q-43 6 -109 6l-129 1l-136 2
l-154 -2q45 36 63 62t33.5 85t37.5 195q27 171 27 233q0 45 -11.5 70.5t-39.5 53.5q93 -3 151 -3z" />
    <glyph glyph-name="lacute" unicode="&#x13a;" horiz-adv-x="279" 
d="M304 804l-207 -27l185 128q15 10 32 -2t22 -44q7 -49 -32 -55zM5 0l91 452q21 102 21 157q0 29 -7.5 49t-17 30.5t-30.5 28.5l228 10l-40 -194l-51 -258q-26 -132 -26 -177q0 -36 12 -56t42 -42h-222z" />
    <glyph glyph-name="Lcommaaccent" unicode="&#x13b;" horiz-adv-x="588" 
d="M302 -84l-120 -206l13 206q28 11 55 11q28 0 52 -11zM232 696l171 4q-47 -33 -68 -63.5t-39 -97t-41 -210.5l-14 -85q-10 -65 -10 -98q0 -52 19 -75.5t62 -23.5q58 0 117.5 44t151.5 151l-16 -48q-16 -49 -37 -111.5t-29 -89.5q-43 6 -109 6l-129 1l-136 2l-154 -2
q45 36 63 62t33.5 85t37.5 195q27 171 27 233q0 45 -11.5 70.5t-39.5 53.5q93 -3 151 -3z" />
    <glyph glyph-name="lcommaaccent" unicode="&#x13c;" horiz-adv-x="279" 
d="M152 -84l-120 -206l13 206q28 11 55 11q28 0 52 -11zM5 0l91 452q21 102 21 157q0 29 -7.5 49t-17 30.5t-30.5 28.5l228 10l-40 -194l-51 -258q-26 -132 -26 -177q0 -36 12 -56t42 -42h-222z" />
    <glyph glyph-name="Lcaron" unicode="&#x13d;" horiz-adv-x="588" 
d="M566 742l-152 -254l44 254q28 11 55 11q28 0 53 -11zM232 696l171 4q-47 -33 -68 -63.5t-39 -97t-41 -210.5l-14 -85q-10 -65 -10 -98q0 -52 19 -75.5t62 -23.5q58 0 117.5 44t151.5 151l-16 -48q-16 -49 -37 -111.5t-29 -89.5q-43 6 -109 6l-129 1l-136 2l-154 -2
q45 36 63 62t33.5 85t37.5 195q27 171 27 233q0 45 -11.5 70.5t-39.5 53.5q93 -3 151 -3z" />
    <glyph glyph-name="lcaron" unicode="&#x13e;" horiz-adv-x="281" 
d="M454 730l-152 -254l44 254q28 11 55 11q28 0 53 -11zM5 0l91 452q21 102 21 157q0 29 -7.5 49t-17 30.5t-30.5 28.5l228 10l-40 -194l-51 -258q-26 -132 -26 -177q0 -36 12 -56t42 -42h-222z" />
    <glyph glyph-name="Ldot" unicode="&#x13f;" horiz-adv-x="588" 
d="M338 324q0 38 34 70t74 32q28 0 45.5 -18t17.5 -46q0 -41 -32.5 -73t-73.5 -32q-29 0 -47 18t-18 49zM232 696l171 4q-47 -33 -68 -63.5t-39 -97t-41 -210.5l-14 -85q-10 -65 -10 -98q0 -52 19 -75.5t62 -23.5q58 0 117.5 44t151.5 151l-16 -48q-16 -49 -37 -111.5
t-29 -89.5q-43 6 -109 6l-129 1l-136 2l-154 -2q45 36 63 62t33.5 85t37.5 195q27 171 27 233q0 45 -11.5 70.5t-39.5 53.5q93 -3 151 -3z" />
    <glyph glyph-name="ldot" unicode="&#x140;" horiz-adv-x="366" 
d="M241 329q0 38 31.5 69t71.5 31q27 0 44.5 -18t17.5 -45q0 -38 -32 -68.5t-70 -30.5q-28 0 -45.5 17.5t-17.5 44.5zM5 0l91 452q21 102 21 157q0 29 -7.5 49t-17 30.5t-30.5 28.5l228 10l-40 -194l-51 -258q-26 -132 -26 -177q0 -36 12 -56t42 -42h-222z" />
    <glyph glyph-name="Lslash" unicode="&#x141;" horiz-adv-x="591" 
d="M235 696l171 4q-42 -29 -62 -54t-37 -76.5t-34 -150.5l133 72l19 -45l-162 -86q-4 -20 -5 -31l-14 -85q-10 -65 -10 -98q0 -52 19 -75.5t62 -23.5q58 0 117.5 44t151.5 151l-16 -48q-16 -49 -37 -111.5t-29 -89.5q-44 6 -109 6l-129 1l-136 2l-154 -2q41 32 58 54t32 70
t32 147l-81 -43l-17 43l108 58q0 5 2 13q27 171 27 233q0 45 -11.5 70.5t-39.5 53.5q93 -3 151 -3z" />
    <glyph glyph-name="lslash" unicode="&#x142;" horiz-adv-x="289" 
d="M10 0l58 290l-76 -37l-14 39l101 50l22 110q21 102 21 157q0 29 -7.5 49t-17 30.5t-30.5 28.5l228 10l-40 -194l-23 -114l87 43l14 -42l-111 -55l-18 -90q-26 -132 -26 -177q0 -36 12 -56t42 -42h-222z" />
    <glyph glyph-name="Nacute" unicode="&#x143;" horiz-adv-x="772" 
d="M564 806l-207 -27l185 128q15 10 32 -2t22 -44q7 -49 -32 -55zM612 222l19 124q15 98 15 157q0 80 -22.5 119t-74.5 78q88 -3 152 -3l125 3q-43 -35 -64 -69.5t-37.5 -100.5t-39.5 -212q-27 -172 -49 -335q-14 -2 -33 -2q-21 0 -31 2l-373 549l-29 -183q-15 -96 -15 -153
q0 -55 14 -93.5t31 -56t53 -46.5q-85 3 -149 3l-128 -3q41 34 61 64t36.5 90t35.5 178q24 153 24 219q0 54 -13.5 84.5t-44.5 63.5q24 -2 113 -2l87 2z" />
    <glyph glyph-name="nacute" unicode="&#x144;" 
d="M257 500l-59 -278q60 142 118 215t125 73q56 0 82.5 -34t26.5 -81q0 -17 -3 -33l-16 -74q-29 -133 -29 -184q0 -39 13 -60.5t44 -43.5h-228l46 216l26 122q5 21 -3 40t-32 19q-42 0 -85 -63t-73.5 -152t-46.5 -182h-141l42 227q21 114 21 160q0 29 -8 48t-16.5 27.5
t-31.5 27.5zM489 644l-199 -79l154 167q11 14 29.5 6.5t32.5 -34.5q8 -18 8 -28q0 -23 -25 -32z" />
    <glyph glyph-name="Ncommaaccent" unicode="&#x145;" horiz-adv-x="772" 
d="M413 -84l-120 -206l13 206q28 11 55 11q28 0 52 -11zM612 222l19 124q15 98 15 157q0 80 -22.5 119t-74.5 78q88 -3 152 -3l125 3q-43 -35 -64 -69.5t-37.5 -100.5t-39.5 -212q-27 -172 -49 -335q-14 -2 -33 -2q-21 0 -31 2l-373 549l-29 -183q-15 -96 -15 -153
q0 -55 14 -93.5t31 -56t53 -46.5q-85 3 -149 3l-128 -3q41 34 61 64t36.5 90t35.5 178q24 153 24 219q0 54 -13.5 84.5t-44.5 63.5q24 -2 113 -2l87 2z" />
    <glyph glyph-name="ncommaaccent" unicode="&#x146;" 
d="M257 500l-59 -278q60 142 118 215t125 73q56 0 82.5 -34t26.5 -81q0 -17 -3 -33l-16 -74q-29 -133 -29 -184q0 -39 13 -60.5t44 -43.5h-228l46 216l26 122q5 21 -3 40t-32 19q-42 0 -85 -63t-73.5 -152t-46.5 -182h-141l42 227q21 114 21 160q0 29 -8 48t-16.5 27.5
t-31.5 27.5zM302 -84l-120 -206l13 206q28 11 55 11q28 0 52 -11z" />
    <glyph glyph-name="Ncaron" unicode="&#x147;" horiz-adv-x="772" 
d="M477 828l115 108q19 -11 28 -27l-180 -164l-131 125q40 49 59 62zM612 222l19 124q15 98 15 157q0 80 -22.5 119t-74.5 78q88 -3 152 -3l125 3q-43 -35 -64 -69.5t-37.5 -100.5t-39.5 -212q-27 -172 -49 -335q-14 -2 -33 -2q-21 0 -31 2l-373 549l-29 -183
q-15 -96 -15 -153q0 -55 14 -93.5t31 -56t53 -46.5q-85 3 -149 3l-128 -3q41 34 61 64t36.5 90t35.5 178q24 153 24 219q0 54 -13.5 84.5t-44.5 63.5q24 -2 113 -2l87 2z" />
    <glyph glyph-name="ncaron" unicode="&#x148;" 
d="M257 500l-59 -278q60 142 118 215t125 73q56 0 82.5 -34t26.5 -81q0 -17 -3 -33l-16 -74q-29 -133 -29 -184q0 -39 13 -60.5t44 -43.5h-228l46 216l26 122q5 21 -3 40t-32 19q-42 0 -85 -63t-73.5 -152t-46.5 -182h-141l42 227q21 114 21 160q0 29 -8 48t-16.5 27.5
t-31.5 27.5zM381 642l106 104q20 -15 25 -30l-166 -171l-120 141q39 45 63 60z" />
    <glyph glyph-name="napostrophe" unicode="&#x149;" 
d="M257 500l-59 -278q60 142 118 215t125 73q56 0 82.5 -34t26.5 -81q0 -17 -3 -33l-16 -74q-29 -133 -29 -184q0 -39 13 -60.5t44 -43.5h-228l46 216l26 122q5 21 -3 40t-32 19q-42 0 -85 -63t-73.5 -152t-46.5 -182h-141l42 227q21 114 21 160q0 29 -8 48t-16.5 27.5
t-31.5 27.5zM71 513q127 74 142 156q-82 0 -82 61q0 41 30 68t65 27q31 0 53.5 -23.5t22.5 -67.5q0 -76 -67 -139.5t-164 -81.5z" />
    <glyph glyph-name="Eng" unicode="&#x14a;" horiz-adv-x="772" 
d="M612 222l19 124q15 98 15 157q0 80 -22.5 119t-74.5 78q88 -3 152 -3l125 3q-43 -35 -64 -69.5t-37.5 -100.5t-39.5 -212q-16 -94 -29 -190l-21 -157q-11 -86 -96.5 -152.5t-210.5 -80.5q116 74 161.5 124.5t66.5 143.5l-357 526l-29 -183q-15 -96 -15 -153
q0 -55 14 -93.5t31 -56t53 -46.5q-85 3 -149 3l-128 -3q41 34 61 64t36.5 90t35.5 178q24 153 24 219q0 54 -13.5 84.5t-44.5 63.5q24 -2 113 -2l87 2z" />
    <glyph glyph-name="eng" unicode="&#x14b;" horiz-adv-x="582" 
d="M351 93l26 123l26 122q5 21 -3 40t-32 19q-42 0 -85 -63t-73.5 -152t-46.5 -182h-141l42 227q21 114 21 160q0 29 -8 48t-16.5 27.5t-31.5 27.5l228 10l-59 -278q60 142 118 215t125 73q56 0 82.5 -34t26.5 -81q0 -17 -3 -33l-70 -333q-34 -164 -277 -275q35 36 62 81.5
t45 98t26 82.5t18 77z" />
    <glyph glyph-name="Omacron" unicode="&#x14c;" horiz-adv-x="778" 
d="M621 796h-296q-2 34 11 73h296q0 -33 -11 -73zM470 712q134 0 213 -76t79 -215q0 -183 -129 -308.5t-314 -125.5q-131 0 -209 70.5t-78 213.5q0 125 60 227t160.5 158t217.5 56zM363 39q103 0 165.5 107t62.5 268q0 247 -157 247q-64 0 -111.5 -40t-72.5 -103
t-36.5 -125.5t-11.5 -120.5q0 -113 43 -173t118 -60z" />
    <glyph glyph-name="omacron" unicode="&#x14d;" horiz-adv-x="540" 
d="M470 619h-286q-2 35 11 70h286q0 -35 -11 -70zM318 510q94 0 143.5 -56t49.5 -152q0 -132 -87.5 -222t-213.5 -90q-90 0 -144 50.5t-54 147.5q0 130 89.5 226t216.5 96zM228 28q58 0 95.5 88.5t37.5 215.5q0 70 -15 104.5t-50 34.5q-43 0 -74.5 -50.5t-45.5 -119
t-14 -140.5q0 -133 66 -133z" />
    <glyph glyph-name="Obreve" unicode="&#x14e;" horiz-adv-x="778" 
d="M474 835q82 0 140 69q-8 -58 -50.5 -103t-105.5 -45q-53 0 -80 33.5t-27 82.5q0 16 3 32q45 -69 120 -69zM470 712q134 0 213 -76t79 -215q0 -183 -129 -308.5t-314 -125.5q-131 0 -209 70.5t-78 213.5q0 125 60 227t160.5 158t217.5 56zM363 39q103 0 165.5 107
t62.5 268q0 247 -157 247q-64 0 -111.5 -40t-72.5 -103t-36.5 -125.5t-11.5 -120.5q0 -113 43 -173t118 -60z" />
    <glyph glyph-name="obreve" unicode="&#x14f;" horiz-adv-x="540" 
d="M318 510q94 0 143.5 -56t49.5 -152q0 -132 -87.5 -222t-213.5 -90q-90 0 -144 50.5t-54 147.5q0 130 89.5 226t216.5 96zM228 28q58 0 95.5 88.5t37.5 215.5q0 70 -15 104.5t-50 34.5q-43 0 -74.5 -50.5t-45.5 -119t-14 -140.5q0 -133 66 -133zM326 650q83 0 140 69
q-7 -58 -49.5 -103t-105.5 -45q-54 0 -81 33.5t-27 82.5q0 17 3 32q47 -69 120 -69z" />
    <glyph glyph-name="Ohungarumlaut" unicode="&#x150;" horiz-adv-x="778" 
d="M470 712q134 0 213 -76t79 -215q0 -183 -129 -308.5t-314 -125.5q-131 0 -209 70.5t-78 213.5q0 125 60 227t160.5 158t217.5 56zM363 39q103 0 165.5 107t62.5 268q0 247 -157 247q-64 0 -111.5 -40t-72.5 -103t-36.5 -125.5t-11.5 -120.5q0 -113 43 -173t118 -60z
M669 806l-207 -27l183 126q15 10 33 -1.5t23 -42.5q7 -50 -32 -55zM511 860l-201 -82l153 170q10 14 31 6.5t34 -34.5q21 -44 -17 -60z" />
    <glyph glyph-name="ohungarumlaut" unicode="&#x151;" horiz-adv-x="540" 
d="M542 644l-199 -79l154 167q12 13 31 5.5t31 -33.5q8 -18 8 -28q0 -23 -25 -32zM383 688l-182 -124l115 195q8 14 25 14q23 0 45 -25q16 -17 16 -32t-19 -28zM318 510q94 0 143.5 -56t49.5 -152q0 -132 -87.5 -222t-213.5 -90q-90 0 -144 50.5t-54 147.5q0 130 89.5 226
t216.5 96zM228 28q58 0 95.5 88.5t37.5 215.5q0 70 -15 104.5t-50 34.5q-43 0 -74.5 -50.5t-45.5 -119t-14 -140.5q0 -133 66 -133z" />
    <glyph glyph-name="OE" unicode="&#x152;" horiz-adv-x="1087" 
d="M724 466l-13 -82q8 -1 17 -1q79 0 123.5 8.5t65 22.5t50.5 47q-17 -81 -22 -111l-15 -117q-16 28 -22.5 37.5t-21.5 25.5t-31.5 20.5t-44 9t-67.5 4.5q-8 0 -21.5 -0.5t-18.5 -0.5l-11 -75q-15 -101 -15 -125q0 -44 21.5 -60.5t80.5 -16.5q79 0 136 32t146 123l-14 -39
q-14 -39 -32.5 -92t-27.5 -80q-43 6 -108 6l-131 1h-174q-57 0 -121 -2q-72 -14 -132 -14q-130 0 -208.5 77t-78.5 220q0 123 59.5 222t160 152.5t220.5 53.5q70 0 131 -15q27 -1 78 -1q30 0 287 2q64 0 110 6q-8 -39 -15 -85q-6 -33 -19 -129q-57 92 -100.5 125.5
t-119.5 33.5l-66 -4q-22 -90 -36 -179zM373 39q60 0 110 23q21 31 35 88t36 193q26 162 26 230q0 28 -2 39q-39 49 -115 49q-59 0 -105 -23.5t-74 -60t-46.5 -85.5t-25.5 -96.5t-7 -97.5q0 -124 44.5 -191.5t123.5 -67.5z" />
    <glyph glyph-name="oe" unicode="&#x153;" horiz-adv-x="801" 
d="M318 510q107 0 157 -74q82 74 187 74q70 0 104.5 -30t34.5 -72q0 -46 -45 -81t-107 -53.5t-143 -28.5v-25q0 -71 29.5 -105.5t75.5 -34.5q62 0 121 51q-10 -60 -68 -101t-129 -41q-92 0 -143 62q-80 -61 -182 -61q-90 0 -144 50.5t-54 147.5q0 130 89.5 226t216.5 96z
M228 28q58 0 95.5 88.5t37.5 215.5q0 70 -15 104.5t-50 34.5q-43 0 -74.5 -50.5t-45.5 -119t-14 -140.5q0 -133 66 -133zM617 465q-38 0 -67.5 -59t-39.5 -134q-2 -10 -2 -14q150 36 150 143q0 64 -41 64z" />
    <glyph glyph-name="Racute" unicode="&#x154;" horiz-adv-x="668" 
d="M419 31q-33 56 -112 257q-12 0 -31.5 0.5t-25.5 0.5v-4q-21 -137 -21 -172q0 -37 11.5 -55.5t45.5 -49.5l3 -3t3 -2.5t3 -2.5q-103 3 -168 3l-154 -3q61 42 82.5 101.5t49.5 237.5q29 187 29 240q0 44 -11.5 70t-39.5 51q96 -5 147 -5q28 0 99 2.5t89 2.5
q111 0 169 -46.5t58 -123.5q0 -75 -53 -129t-136 -80q64 -153 134 -240q24 -31 70 -67q-63 -56 -125 -56q-72 0 -116 73zM316 647q-19 -68 -57 -305q23 -5 51 -5q73 0 117 51t44 127q0 59 -28.5 97t-80.5 38q-25 0 -46 -3zM512 806l-207 -27l185 128q15 10 32 -2t22 -44
q7 -49 -32 -55z" />
    <glyph glyph-name="racute" unicode="&#x155;" horiz-adv-x="433" 
d="M257 500l-59 -289q8 20 22.5 56t21.5 53t19 46t19.5 43t18.5 34t20.5 29.5t21 19.5t24 14t26.5 4q30 0 46.5 -19t16.5 -48t-15.5 -52t-43.5 -23q-10 0 -32 4.5t-28 4.5q-26 0 -54.5 -39.5t-51 -100t-39.5 -122t-27 -115.5h-141l42 214q20 100 20 155q0 33 -9 57.5
t-16.5 33t-29.5 30.5zM433 644l-199 -79l154 167q11 14 29.5 6.5t32.5 -34.5q8 -18 8 -28q0 -23 -25 -32z" />
    <glyph glyph-name="Rcommaaccent" unicode="&#x156;" horiz-adv-x="668" 
d="M419 31q-33 56 -112 257q-12 0 -31.5 0.5t-25.5 0.5v-4q-21 -137 -21 -172q0 -37 11.5 -55.5t45.5 -49.5l3 -3t3 -2.5t3 -2.5q-103 3 -168 3l-154 -3q61 42 82.5 101.5t49.5 237.5q29 187 29 240q0 44 -11.5 70t-39.5 51q96 -5 147 -5q28 0 99 2.5t89 2.5
q111 0 169 -46.5t58 -123.5q0 -75 -53 -129t-136 -80q64 -153 134 -240q24 -31 70 -67q-63 -56 -125 -56q-72 0 -116 73zM316 647q-19 -68 -57 -305q23 -5 51 -5q73 0 117 51t44 127q0 59 -28.5 97t-80.5 38q-25 0 -46 -3zM391 -84l-120 -206l13 206q28 11 55 11
q28 0 52 -11z" />
    <glyph glyph-name="rcommaaccent" unicode="&#x157;" horiz-adv-x="433" 
d="M257 500l-59 -289q8 20 22.5 56t21.5 53t19 46t19.5 43t18.5 34t20.5 29.5t21 19.5t24 14t26.5 4q30 0 46.5 -19t16.5 -48t-15.5 -52t-43.5 -23q-10 0 -32 4.5t-28 4.5q-26 0 -54.5 -39.5t-51 -100t-39.5 -122t-27 -115.5h-141l42 214q20 100 20 155q0 33 -9 57.5
t-16.5 33t-29.5 30.5zM134 -84l-120 -206l13 206q28 11 55 11q28 0 52 -11z" />
    <glyph glyph-name="Rcaron" unicode="&#x158;" horiz-adv-x="668" 
d="M419 31q-33 56 -112 257q-12 0 -31.5 0.5t-25.5 0.5v-4q-21 -137 -21 -172q0 -37 11.5 -55.5t45.5 -49.5l3 -3t3 -2.5t3 -2.5q-103 3 -168 3l-154 -3q61 42 82.5 101.5t49.5 237.5q29 187 29 240q0 44 -11.5 70t-39.5 51q96 -5 147 -5q28 0 99 2.5t89 2.5
q111 0 169 -46.5t58 -123.5q0 -75 -53 -129t-136 -80q64 -153 134 -240q24 -31 70 -67q-63 -56 -125 -56q-72 0 -116 73zM316 647q-19 -68 -57 -305q23 -5 51 -5q73 0 117 51t44 127q0 59 -28.5 97t-80.5 38q-25 0 -46 -3zM402 828l115 108q19 -11 28 -27l-180 -164
l-131 125q40 49 59 62z" />
    <glyph glyph-name="rcaron" unicode="&#x159;" horiz-adv-x="433" 
d="M257 500l-59 -289q8 20 22.5 56t21.5 53t19 46t19.5 43t18.5 34t20.5 29.5t21 19.5t24 14t26.5 4q30 0 46.5 -19t16.5 -48t-15.5 -52t-43.5 -23q-10 0 -32 4.5t-28 4.5q-26 0 -54.5 -39.5t-51 -100t-39.5 -122t-27 -115.5h-141l42 214q20 100 20 155q0 33 -9 57.5
t-16.5 33t-29.5 30.5zM306 642l106 104q20 -15 25 -30l-166 -171l-120 141q39 45 63 60z" />
    <glyph glyph-name="Sacute" unicode="&#x15a;" horiz-adv-x="568" 
d="M21 235q46 -87 103.5 -143t115.5 -56q44 0 78.5 30t34.5 87q0 45 -25 74.5t-94 80.5q-41 30 -61 46t-44 41.5t-33.5 52t-9.5 58.5q0 92 79.5 149t193.5 57q43 0 111 -12t89 -13h11q-24 -128 -33 -211q-40 89 -82.5 137t-101.5 48q-47 0 -79.5 -29.5t-32.5 -76.5
q0 -33 19 -55.5t74 -66.5q12 -9 18 -14q92 -73 128 -119t36 -109q0 -97 -78 -150.5t-201 -53.5q-45 0 -113 11t-106 11q4 55 4 155q0 51 -1 71zM498 806l-207 -27l185 128q15 10 32 -2t22 -44q7 -49 -32 -55z" />
    <glyph glyph-name="sacute" unicode="&#x15b;" horiz-adv-x="435" 
d="M419 644l-199 -79l154 167q11 14 29.5 6.5t32.5 -34.5q8 -18 8 -28q0 -23 -25 -32zM233 475q-26 0 -40 -17t-14 -36q0 -25 33 -58.5t73 -63t73 -73t33 -87.5q0 -66 -66 -108.5t-159 -42.5q-68 0 -123 23t-55 70q0 24 15 40t41 16q25 0 41 -17.5t23 -38t24.5 -38
t44.5 -17.5q33 0 51 22t18 51q0 28 -20.5 55.5t-50 50t-58.5 46t-49.5 54t-20.5 63.5q0 62 62.5 101.5t149.5 39.5q58 0 103.5 -18.5t45.5 -57.5q0 -23 -15.5 -41t-42.5 -18q-22 0 -36.5 15.5t-21 34.5t-21.5 34.5t-38 15.5z" />
    <glyph glyph-name="Scircumflex" unicode="&#x15c;" horiz-adv-x="568" 
d="M21 235q46 -87 103.5 -143t115.5 -56q44 0 78.5 30t34.5 87q0 45 -25 74.5t-94 80.5q-41 30 -61 46t-44 41.5t-33.5 52t-9.5 58.5q0 92 79.5 149t193.5 57q43 0 111 -12t89 -13h11q-24 -128 -33 -211q-40 89 -82.5 137t-101.5 48q-47 0 -79.5 -29.5t-32.5 -76.5
q0 -33 19 -55.5t74 -66.5q12 -9 18 -14q92 -73 128 -119t36 -109q0 -97 -78 -150.5t-201 -53.5q-45 0 -113 11t-106 11q4 55 4 155q0 51 -1 71zM361 845l-120 -108q-20 13 -28 27l184 164l128 -125q-44 -52 -59 -62z" />
    <glyph glyph-name="scircumflex" unicode="&#x15d;" horiz-adv-x="435" 
d="M255 659l-111 -104q-20 15 -25 30l171 171l115 -141q-34 -43 -63 -60zM233 475q-26 0 -40 -17t-14 -36q0 -25 33 -58.5t73 -63t73 -73t33 -87.5q0 -66 -66 -108.5t-159 -42.5q-68 0 -123 23t-55 70q0 24 15 40t41 16q25 0 41 -17.5t23 -38t24.5 -38t44.5 -17.5
q33 0 51 22t18 51q0 28 -20.5 55.5t-50 50t-58.5 46t-49.5 54t-20.5 63.5q0 62 62.5 101.5t149.5 39.5q58 0 103.5 -18.5t45.5 -57.5q0 -23 -15.5 -41t-42.5 -18q-22 0 -36.5 15.5t-21 34.5t-21.5 34.5t-38 15.5z" />
    <glyph glyph-name="Scedilla" unicode="&#x15e;" horiz-adv-x="568" 
d="M348 -128q0 -45 -37.5 -73t-85.5 -28q-39 0 -64 20t-20 56q25 -17 63 -17q26 0 41.5 10.5t15.5 28.5q0 38 -75 52l33 66q-36 1 -99.5 11t-101.5 11q4 55 4 155q0 51 -1 71q46 -87 103.5 -143t115.5 -56q44 0 78.5 30t34.5 87q0 45 -25 74.5t-94 80.5q-41 30 -61 46
t-44 41.5t-33.5 52t-9.5 58.5q0 92 79.5 149t193.5 57q43 0 111 -12t89 -13h11q-24 -128 -33 -211q-40 89 -82.5 137t-101.5 48q-47 0 -79.5 -29.5t-32.5 -76.5q0 -33 19 -55.5t74 -66.5q12 -9 18 -14q92 -73 128 -119t36 -109q0 -92 -71 -145t-185 -58l-18 -23
q50 -7 78 -31.5t28 -61.5z" />
    <glyph glyph-name="scedilla" unicode="&#x15f;" horiz-adv-x="435" 
d="M263 -128q0 -45 -37.5 -73t-85.5 -28q-39 0 -64 20t-20 56q26 -17 63 -17q26 0 41.5 10.5t15.5 28.5q0 38 -75 52l34 69q-61 5 -104 28t-43 64q0 24 15 40t41 16q25 0 41 -17.5t23 -38t24.5 -38t44.5 -17.5q33 0 51 22t18 51q0 28 -20.5 55.5t-50 50t-58.5 46t-49.5 54
t-20.5 63.5q0 62 62.5 101.5t149.5 39.5q58 0 103.5 -18.5t45.5 -57.5q0 -23 -15.5 -41t-42.5 -18q-22 0 -36.5 15.5t-21 34.5t-21.5 34.5t-38 15.5q-26 0 -40 -17t-14 -36q0 -25 33 -58.5t73 -63t73 -73t33 -87.5q0 -64 -62.5 -106t-152.5 -45l-19 -24q50 -7 78 -31.5
t28 -61.5z" />
    <glyph glyph-name="Scaron" unicode="&#x160;" horiz-adv-x="568" 
d="M21 235q46 -87 103.5 -143t115.5 -56q44 0 78.5 30t34.5 87q0 45 -25 74.5t-94 80.5q-41 30 -61 46t-44 41.5t-33.5 52t-9.5 58.5q0 92 79.5 149t193.5 57q43 0 111 -12t89 -13h11q-24 -128 -33 -211q-40 89 -82.5 137t-101.5 48q-47 0 -79.5 -29.5t-32.5 -76.5
q0 -33 19 -55.5t74 -66.5q12 -9 18 -14q92 -73 128 -119t36 -109q0 -97 -78 -150.5t-201 -53.5q-45 0 -113 11t-106 11q4 55 4 155q0 51 -1 71zM393 828l115 108q19 -11 28 -27l-180 -164l-131 125q40 49 59 62z" />
    <glyph glyph-name="scaron" unicode="&#x161;" horiz-adv-x="435" 
d="M276 642l106 104q20 -15 25 -30l-166 -171l-120 141q39 45 63 60zM233 475q-26 0 -40 -17t-14 -36q0 -25 33 -58.5t73 -63t73 -73t33 -87.5q0 -66 -66 -108.5t-159 -42.5q-68 0 -123 23t-55 70q0 24 15 40t41 16q25 0 41 -17.5t23 -38t24.5 -38t44.5 -17.5q33 0 51 22
t18 51q0 28 -20.5 55.5t-50 50t-58.5 46t-49.5 54t-20.5 63.5q0 62 62.5 101.5t149.5 39.5q58 0 103.5 -18.5t45.5 -57.5q0 -23 -15.5 -41t-42.5 -18q-22 0 -36.5 15.5t-21 34.5t-21.5 34.5t-38 15.5z" />
    <glyph glyph-name="Tcommaaccent" unicode="&#x162;" horiz-adv-x="677" 
d="M340 -84l-120 -206l13 206q28 11 55 11q28 0 52 -11zM40 456q14 68 30 173q2 15 9 75q43 -6 108 -6q6 0 110 -1t110 -1q5 0 104 1t106 1q66 0 109 6q-2 -10 -7 -33.5t-8 -41.5q-19 -119 -24 -173q-29 85 -84 139t-120 54q-19 -67 -61 -327q-24 -151 -24 -204
q0 -30 7.5 -51t17 -32t34.5 -35q-99 3 -163 3l-161 -3q50 36 68.5 60.5t34 80t36.5 190.5q44 276 42 318q-79 0 -149 -53.5t-125 -139.5z" />
    <glyph glyph-name="tcommaaccent" unicode="&#x163;" horiz-adv-x="357" 
d="M25 445l6 45h81l23 105l147 20l-26 -125h133l-6 -45h-136l-56 -279q-5 -28 -5 -42q0 -46 46 -46q39 0 80 28q-27 -61 -63 -89t-90 -28q-116 0 -116 117q0 25 6 55l53 280l1 4h-78zM201 -84l-120 -206l13 206q28 11 55 11q28 0 52 -11z" />
    <glyph glyph-name="Tcaron" unicode="&#x164;" horiz-adv-x="677" 
d="M443 828l115 108q19 -11 28 -27l-180 -164l-131 125q40 49 59 62zM40 456q14 68 30 173q2 15 9 75q43 -6 108 -6q6 0 110 -1t110 -1q5 0 104 1t106 1q66 0 109 6q-2 -10 -7 -33.5t-8 -41.5q-19 -119 -24 -173q-29 85 -84 139t-120 54q-19 -67 -61 -327q-24 -151 -24 -204
q0 -30 7.5 -51t17 -32t34.5 -35q-99 3 -163 3l-161 -3q50 36 68.5 60.5t34 80t36.5 190.5q44 276 42 318q-79 0 -149 -53.5t-125 -139.5z" />
    <glyph glyph-name="tcaron" unicode="&#x165;" horiz-adv-x="357" 
d="M25 445l6 45h81l23 105l147 20l-26 -125h133l-6 -45h-136l-56 -279q-5 -28 -5 -42q0 -46 46 -46q39 0 80 28q-27 -61 -63 -89t-90 -28q-116 0 -116 117q0 25 6 55l53 280l1 4h-78zM493 771l-152 -254l44 254q28 11 55 11q28 0 53 -11z" />
    <glyph glyph-name="Tbar" unicode="&#x166;" horiz-adv-x="679" 
d="M40 456q14 68 30 173q2 15 9 75q43 -6 108 -6q6 0 110 -1t110 -1q5 0 104 1t106 1q66 0 109 6q-2 -10 -7 -33.5t-8 -41.5q-19 -119 -24 -173q-29 85 -84 139t-120 54q-16 -54 -57 -303h142q-1 -27 -6 -46h-144q-20 -134 -20 -181q0 -43 12 -64.5t47 -54.5q-99 3 -163 3
l-161 -3q48 35 66 57t33.5 73.5t34.5 169.5h-144q0 26 6 46h145q42 258 40 303q-79 0 -149 -53.5t-125 -139.5z" />
    <glyph glyph-name="tbar" unicode="&#x167;" horiz-adv-x="360" 
d="M26 445l6 45h81l23 105l147 20l-26 -125h133l-6 -45h-136l-30 -149h136l-7 -43h-138l-17 -87q-5 -28 -5 -42q0 -46 46 -46q39 0 80 28q-27 -61 -63 -89t-90 -28q-116 0 -116 117q0 25 6 55l17 92h-58l7 43h59l28 145l1 4h-78z" />
    <glyph glyph-name="Utilde" unicode="&#x168;" horiz-adv-x="720" 
d="M656 368l-20 -125q-10 -61 -36 -108.5t-59 -74.5t-74.5 -44t-77.5 -23t-73 -6q-25 0 -50.5 2.5t-64 13t-67 28.5t-49.5 52.5t-21 81.5q0 18 3 39l26 164q27 168 27 222q0 37 -10 58.5t-36 50.5q92 -3 152 -3l168 4q-39 -25 -56 -39t-35 -41t-27 -64.5t-18 -103.5
l-29 -200q-4 -27 -4 -55q0 -150 137 -150q85 0 139.5 58t70.5 157l30 187q8 55 8 98q0 41 -11.5 68.5t-24.5 40t-49 42.5q82 -1 129 -1l126 3q-42 -34 -60 -63t-30.5 -81.5t-33.5 -187.5zM325 765q-9 14 -9 33q0 31 23 51.5t60 20.5q17 0 67.5 -10.5t74.5 -10.5q30 0 49 24
q19 -18 19 -37q0 -28 -26 -50t-61 -22q-28 0 -80 11t-64 11q-37 0 -53 -21z" />
    <glyph glyph-name="utilde" unicode="&#x169;" 
d="M555 0h-228l59 276q-60 -143 -116.5 -214.5t-126.5 -71.5q-55 0 -81 33t-26 80q0 13 4 35l16 74q29 133 29 180q0 37 -13 57t-44 42l228 10l-46 -217l-26 -122q-5 -22 1.5 -40.5t30.5 -18.5q42 0 85 62.5t73.5 151t46.5 180.5h141l-42 -224q-21 -114 -21 -163
q0 -43 12.5 -64t43.5 -46zM213 594q-9 16 -9 34q0 30 23 50.5t60 20.5q17 0 67.5 -10.5t74.5 -10.5q30 0 49 24q19 -19 19 -38q0 -27 -26.5 -49t-61.5 -22q-28 0 -79.5 11t-63.5 11q-37 0 -53 -21z" />
    <glyph glyph-name="Umacron" unicode="&#x16a;" horiz-adv-x="720" 
d="M656 368l-20 -125q-10 -61 -36 -108.5t-59 -74.5t-74.5 -44t-77.5 -23t-73 -6q-25 0 -50.5 2.5t-64 13t-67 28.5t-49.5 52.5t-21 81.5q0 18 3 39l26 164q27 168 27 222q0 37 -10 58.5t-36 50.5q92 -3 152 -3l168 4q-39 -25 -56 -39t-35 -41t-27 -64.5t-18 -103.5
l-29 -200q-4 -27 -4 -55q0 -150 137 -150q85 0 139.5 58t70.5 157l30 187q8 55 8 98q0 41 -11.5 68.5t-24.5 40t-49 42.5q82 -1 129 -1l126 3q-42 -34 -60 -63t-30.5 -81.5t-33.5 -187.5zM605 796h-296q-2 34 11 73h296q0 -33 -11 -73z" />
    <glyph glyph-name="umacron" unicode="&#x16b;" 
d="M555 0h-228l59 276q-60 -143 -116.5 -214.5t-126.5 -71.5q-55 0 -81 33t-26 80q0 13 4 35l16 74q29 133 29 180q0 37 -13 57t-44 42l228 10l-46 -217l-26 -122q-5 -22 1.5 -40.5t30.5 -18.5q42 0 85 62.5t73.5 151t46.5 180.5h141l-42 -224q-21 -114 -21 -163
q0 -43 12.5 -64t43.5 -46zM498 619h-286q-2 35 11 70h286q0 -35 -11 -70z" />
    <glyph glyph-name="Ubreve" unicode="&#x16c;" horiz-adv-x="720" 
d="M656 368l-20 -125q-10 -61 -36 -108.5t-59 -74.5t-74.5 -44t-77.5 -23t-73 -6q-25 0 -50.5 2.5t-64 13t-67 28.5t-49.5 52.5t-21 81.5q0 18 3 39l26 164q27 168 27 222q0 37 -10 58.5t-36 50.5q92 -3 152 -3l168 4q-39 -25 -56 -39t-35 -41t-27 -64.5t-18 -103.5
l-29 -200q-4 -27 -4 -55q0 -150 137 -150q85 0 139.5 58t70.5 157l30 187q8 55 8 98q0 41 -11.5 68.5t-24.5 40t-49 42.5q82 -1 129 -1l126 3q-42 -34 -60 -63t-30.5 -81.5t-33.5 -187.5zM467 835q81 0 140 69q-8 -58 -50.5 -103t-105.5 -45q-53 0 -80 33.5t-27 82.5
q0 16 3 32q45 -69 120 -69z" />
    <glyph glyph-name="ubreve" unicode="&#x16d;" 
d="M555 0h-228l59 276q-60 -143 -116.5 -214.5t-126.5 -71.5q-55 0 -81 33t-26 80q0 13 4 35l16 74q29 133 29 180q0 37 -13 57t-44 42l228 10l-46 -217l-26 -122q-5 -22 1.5 -40.5t30.5 -18.5q42 0 85 62.5t73.5 151t46.5 180.5h141l-42 -224q-21 -114 -21 -163
q0 -43 12.5 -64t43.5 -46zM350 650q83 0 140 69q-7 -58 -49.5 -103t-105.5 -45q-54 0 -81 33.5t-27 82.5q0 17 3 32q47 -69 120 -69z" />
    <glyph glyph-name="Uring" unicode="&#x16e;" horiz-adv-x="720" 
d="M656 368l-20 -125q-10 -61 -36 -108.5t-59 -74.5t-74.5 -44t-77.5 -23t-73 -6q-25 0 -50.5 2.5t-64 13t-67 28.5t-49.5 52.5t-21 81.5q0 18 3 39l26 164q27 168 27 222q0 37 -10 58.5t-36 50.5q92 -3 152 -3l168 4q-39 -25 -56 -39t-35 -41t-27 -64.5t-18 -103.5
l-29 -200q-4 -27 -4 -55q0 -150 137 -150q85 0 139.5 58t70.5 157l30 187q8 55 8 98q0 41 -11.5 68.5t-24.5 40t-49 42.5q82 -1 129 -1l126 3q-42 -34 -60 -63t-30.5 -81.5t-33.5 -187.5zM455 722q-96 0 -96 95q0 61 40 99t99 38q46 0 70 -24.5t24 -69.5q0 -58 -37.5 -98
t-99.5 -40zM463 774q29 0 46.5 22t17.5 57q0 51 -41 51q-28 0 -45 -23t-17 -58q0 -49 39 -49z" />
    <glyph glyph-name="uring" unicode="&#x16f;" 
d="M555 0h-228l59 276q-60 -143 -116.5 -214.5t-126.5 -71.5q-55 0 -81 33t-26 80q0 13 4 35l16 74q29 133 29 180q0 37 -13 57t-44 42l228 10l-46 -217l-26 -122q-5 -22 1.5 -40.5t30.5 -18.5q42 0 85 62.5t73.5 151t46.5 180.5h141l-42 -224q-21 -114 -21 -163
q0 -43 12.5 -64t43.5 -46zM342 550q-96 0 -96 95q0 60 39 98.5t99 38.5q46 0 70.5 -25t24.5 -70q0 -58 -38 -97.5t-99 -39.5zM350 602q28 0 46 22t18 56q0 52 -42 52q-29 0 -45 -23.5t-16 -57.5q0 -49 39 -49z" />
    <glyph glyph-name="Uhungarumlaut" unicode="&#x170;" horiz-adv-x="720" 
d="M656 368l-20 -125q-10 -61 -36 -108.5t-59 -74.5t-74.5 -44t-77.5 -23t-73 -6q-25 0 -50.5 2.5t-64 13t-67 28.5t-49.5 52.5t-21 81.5q0 18 3 39l26 164q27 168 27 222q0 37 -10 58.5t-36 50.5q92 -3 152 -3l168 4q-39 -25 -56 -39t-35 -41t-27 -64.5t-18 -103.5
l-29 -200q-4 -27 -4 -55q0 -150 137 -150q85 0 139.5 58t70.5 157l30 187q8 55 8 98q0 41 -11.5 68.5t-24.5 40t-49 42.5q82 -1 129 -1l126 3q-42 -34 -60 -63t-30.5 -81.5t-33.5 -187.5zM511 860l-201 -82l153 170q10 14 31 6.5t34 -34.5q21 -44 -17 -60zM669 806l-207 -27
l183 126q15 10 33 -1.5t23 -42.5q7 -50 -32 -55z" />
    <glyph glyph-name="uhungarumlaut" unicode="&#x171;" 
d="M555 0h-228l59 276q-60 -143 -116.5 -214.5t-126.5 -71.5q-55 0 -81 33t-26 80q0 13 4 35l16 74q29 133 29 180q0 37 -13 57t-44 42l228 10l-46 -217l-26 -122q-5 -22 1.5 -40.5t30.5 -18.5q42 0 85 62.5t73.5 151t46.5 180.5h141l-42 -224q-21 -114 -21 -163
q0 -43 12.5 -64t43.5 -46zM406 688l-182 -124l115 195q8 14 25 14q23 0 45 -25q16 -17 16 -32t-19 -28zM565 644l-199 -79l154 167q12 13 31 5.5t31 -33.5q8 -18 8 -28q0 -23 -25 -32z" />
    <glyph glyph-name="Uogonek" unicode="&#x172;" horiz-adv-x="720" 
d="M656 368l-20 -125q-19 -117 -87 -175.5t-159 -73.5q-65 -45 -65 -105q0 -49 43 -49q14 0 33 6q-28 -73 -99 -73q-37 0 -57 19.5t-20 54.5q0 81 129 142q-26 -2 -38 -2q-25 0 -50.5 2.5t-64 13t-67 28.5t-49.5 52.5t-21 81.5q0 18 3 39l26 164q27 168 27 222
q0 37 -10 58.5t-36 50.5q92 -3 152 -3l168 4q-39 -25 -56 -39t-35 -41t-27 -64.5t-18 -103.5l-29 -200q-4 -27 -4 -55q0 -150 137 -150q85 0 139.5 58t70.5 157l30 187q8 55 8 98q0 41 -11.5 68.5t-24.5 40t-49 42.5q82 -1 129 -1l126 3q-42 -34 -60 -63t-30.5 -81.5
t-33.5 -187.5z" />
    <glyph glyph-name="uogonek" unicode="&#x173;" 
d="M480 -145q-28 -73 -99 -73q-37 0 -57 19.5t-20 54.5q0 47 35.5 81t98.5 63h-111l59 276q-60 -143 -116.5 -214.5t-126.5 -71.5q-55 0 -81 33t-26 80q0 13 4 35l16 74q29 133 29 180q0 37 -13 57t-44 42l228 10l-46 -217l-26 -122q-5 -22 1.5 -40.5t30.5 -18.5
q42 0 85 62.5t73.5 151t46.5 180.5h141l-42 -224q-21 -114 -21 -163q0 -43 12.5 -64t43.5 -46h-89q-62 -43 -62 -102q0 -49 43 -49q13 0 33 6z" />
    <glyph glyph-name="Wcircumflex" unicode="&#x174;" horiz-adv-x="1015" 
d="M852 431q52 104 52 158q0 13 -3.5 24.5t-6.5 19t-13 19t-13.5 15t-19 17t-18.5 16.5q113 -5 149 -5l114 5q-6 -7 -18.5 -21t-17 -19t-14 -16.5t-14.5 -18.5t-14.5 -20.5t-17 -26.5t-19 -32.5t-24 -42t-28.5 -52.5q-144 -265 -224 -450q-16 -3 -67 -3t-64 3
q-5 30 -16 104.5l-22 149t-23 140.5l-173 -394q-15 -3 -66 -3t-65 3q-5 33 -20 133.5t-30 196t-30 168.5q-19 94 -30 129.5t-37 71.5q107 -5 143 -5l150 5q-43 -25 -58.5 -48t-15.5 -53q0 -10 2 -34l15 -147l38 -298l164 349l-6 30q-19 88 -33.5 126t-43.5 75q116 -5 153 -5
l141 5q-43 -28 -58 -52t-15 -56q0 -10 2 -34q3 -51 15 -140l48 -296zM558 845l-120 -108q-20 13 -28 27l184 164l128 -125q-44 -52 -59 -62z" />
    <glyph glyph-name="wcircumflex" unicode="&#x175;" horiz-adv-x="861" 
d="M357 119l33 163q-65 -150 -126 -221t-133 -71q-46 0 -71 27.5t-25 75.5q0 18 5 45l16 74q29 134 29 180q0 36 -12.5 56t-44.5 42l228 10l-46 -216l-26 -122q-4 -22 -4 -33q0 -46 34 -46q41 0 85 68.5t75.5 162t46.5 183.5h141l-67 -375q-14 -80 47 -80q48 0 89 49.5
t63 118t22 130.5q0 40 -12 50.5t-50 14.5q-50 6 -50 47q0 58 85 58q71 0 115 -40.5t44 -104.5q0 -54 -32 -120t-83 -123t-122 -95.5t-141 -38.5q-59 0 -88 26.5t-29 70.5q0 10 4 34zM513 659l-111 -104q-20 15 -25 30l171 171l115 -141q-34 -43 -63 -60z" />
    <glyph glyph-name="Ycircumflex" unicode="&#x176;" horiz-adv-x="635" 
d="M498 453l-104 -149q-19 -118 -19 -173q0 -16 1 -28t5 -23.5t5.5 -17.5t10 -16.5t11 -13.5t14.5 -16t15 -16q-101 3 -165 3l-167 -3q6 5 23.5 19t21 17t16.5 16t16 20.5t12.5 23.5t13 32.5t10.5 41.5t12.5 55t11.5 69l2 11l-86 199q-5 11 -15.5 36t-14 33t-12 26t-13 26.5
t-13 22.5t-16.5 26t-19 26q144 -5 181 -5l115 5q-66 -47 -66 -85q0 -18 13 -46l84 -197l71 105q68 99 68 145q0 42 -59 78q99 -5 136 -5l99 5q-18 -15 -35.5 -33t-30 -32t-32.5 -40.5t-29.5 -39.5t-35 -50t-36.5 -52zM407 845l-120 -108q-20 13 -28 27l184 164l128 -125
q-44 -52 -59 -62z" />
    <glyph glyph-name="ycircumflex" unicode="&#x177;" horiz-adv-x="581" 
d="M561 500l-84 -454q-25 -139 -114 -212t-215 -73q-69 0 -115 22t-46 67q0 74 118 95q-5 -20 -5 -37q0 -42 23 -71.5t65 -29.5q31 0 55 19t41.5 57t29 77t24.5 97l47 214q-60 -142 -115.5 -211.5t-129.5 -69.5q-54 0 -79.5 33t-25.5 80q0 13 4 35l16 74q29 134 29 180
q0 36 -12.5 56t-44.5 42l228 10l-46 -216l-26 -122q-5 -22 1.5 -40.5t30.5 -18.5q42 0 85 63t73.5 152t46.5 182h141zM358 659l-111 -104q-20 15 -25 30l171 171l115 -141q-34 -43 -63 -60z" />
    <glyph glyph-name="Ydieresis" unicode="&#x178;" horiz-adv-x="635" 
d="M498 453l-104 -149q-19 -118 -19 -173q0 -16 1 -28t5 -23.5t5.5 -17.5t10 -16.5t11 -13.5t14.5 -16t15 -16q-101 3 -165 3l-167 -3q6 5 23.5 19t21 17t16.5 16t16 20.5t12.5 23.5t13 32.5t10.5 41.5t12.5 55t11.5 69l2 11l-86 199q-5 11 -15.5 36t-14 33t-12 26t-13 26.5
t-13 22.5t-16.5 26t-19 26q144 -5 181 -5l115 5q-66 -47 -66 -85q0 -18 13 -46l84 -197l71 105q68 99 68 145q0 42 -59 78q99 -5 136 -5l99 5q-18 -15 -35.5 -33t-30 -32t-32.5 -40.5t-29.5 -39.5t-35 -50t-36.5 -52zM254 812q0 34 28 61.5t63 27.5q25 0 40.5 -15.5
t15.5 -39.5q0 -34 -29 -61.5t-63 -27.5q-25 0 -40 15.5t-15 39.5zM439 813q0 34 29 61t64 27q24 0 39 -15.5t15 -39.5q0 -34 -28 -61.5t-62 -27.5q-25 0 -41 15.5t-16 40.5z" />
    <glyph glyph-name="Zacute" unicode="&#x179;" horiz-adv-x="638" 
d="M166 47q89 0 162 15t127.5 43.5t89.5 56t74 66.5q-87 -179 -104 -234q-42 6 -107 6h-424l7 47l456 602q-148 0 -232.5 -44t-144.5 -126q6 26 23 133q9 53 13 94q54 -7 105 -7h423l-7 -44zM505 806l-207 -27l185 128q15 10 32 -2t22 -44q7 -49 -32 -55z" />
    <glyph glyph-name="zacute" unicode="&#x17a;" horiz-adv-x="489" 
d="M384 -8q-43 0 -180.5 4t-206.5 4v21l321 351h-135q-46 0 -83 -15t-78 -61q52 172 56 204q28 -1 100 -1h193l85 1v-16l-318 -356q77 -10 180 -10q45 0 78 13.5t88 49.5q-12 -16 -28 -45t-26.5 -49.5t-27 -55t-18.5 -39.5zM409 644l-199 -79l154 167q11 14 29.5 6.5
t32.5 -34.5q8 -18 8 -28q0 -23 -25 -32z" />
    <glyph glyph-name="Zdotaccent" unicode="&#x17b;" horiz-adv-x="638" 
d="M333 813q0 34 28.5 61t63.5 27q26 0 40.5 -15.5t14.5 -39.5q0 -34 -27.5 -61.5t-62.5 -27.5q-25 0 -41 15.5t-16 40.5zM166 47q89 0 162 15t127.5 43.5t89.5 56t74 66.5q-87 -179 -104 -234q-42 6 -107 6h-424l7 47l456 602q-148 0 -232.5 -44t-144.5 -126q6 26 23 133
q9 53 13 94q54 -7 105 -7h423l-7 -44z" />
    <glyph glyph-name="zdotaccent" unicode="&#x17c;" horiz-adv-x="489" 
d="M384 -8q-43 0 -180.5 4t-206.5 4v21l321 351h-135q-46 0 -83 -15t-78 -61q52 172 56 204q28 -1 100 -1h193l85 1v-16l-318 -356q77 -10 180 -10q45 0 78 13.5t88 49.5q-12 -16 -28 -45t-26.5 -49.5t-27 -55t-18.5 -39.5zM234 631q0 34 26 61t61 27q25 0 42.5 -15.5
t17.5 -39.5q0 -34 -27.5 -61.5t-61.5 -27.5q-26 0 -42 15.5t-16 40.5z" />
    <glyph glyph-name="Zcaron" unicode="&#x17d;" horiz-adv-x="638" 
d="M415 828l115 108q19 -11 28 -27l-180 -164l-131 125q40 49 59 62zM166 47q89 0 162 15t127.5 43.5t89.5 56t74 66.5q-87 -179 -104 -234q-42 6 -107 6h-424l7 47l456 602q-148 0 -232.5 -44t-144.5 -126q6 26 23 133q9 53 13 94q54 -7 105 -7h423l-7 -44z" />
    <glyph glyph-name="zcaron" unicode="&#x17e;" horiz-adv-x="489" 
d="M384 -8q-43 0 -180.5 4t-206.5 4v21l321 351h-135q-46 0 -83 -15t-78 -61q52 172 56 204q28 -1 100 -1h193l85 1v-16l-318 -356q77 -10 180 -10q45 0 78 13.5t88 49.5q-12 -16 -28 -45t-26.5 -49.5t-27 -55t-18.5 -39.5zM309 642l106 104q20 -15 25 -30l-166 -171
l-120 141q39 45 63 60z" />
    <glyph glyph-name="uni018F" unicode="&#x18f;" horiz-adv-x="727" 
d="M44 374q59 -2 268 -2q168 0 229 1q4 31 4 71q0 102 -32.5 159t-110.5 57q-135 0 -320 -173q8 42 31 196h10q23 0 127 14.5t164 14.5q156 0 227 -75t71 -203q0 -186 -124.5 -316.5t-300.5 -130.5q-51 0 -93.5 13t-80 42.5t-58.5 85t-21 132.5q0 54 10 114zM316 39
q76 0 135.5 78t81.5 201q-96 2 -147 2q-96 0 -186 -3q-8 -45 -8 -89q0 -81 30 -135t94 -54z" />
    <glyph glyph-name="florin" unicode="&#x192;" horiz-adv-x="448" 
d="M33 281l9 57h98l26 135q47 239 232 239q22 0 37.5 -4t33.5 -23.5t25 -55.5q-47 7 -71 7q-51 0 -71.5 -36t-42.5 -149l-22 -113h126l-9 -57h-128l-49 -262q-14 -74 -40 -128.5t-57.5 -83t-63 -41.5t-64.5 -13q-74 0 -89 80q14 -7 66 -7q38 0 55.5 29.5t38.5 136.5l56 289
h-96z" />
    <glyph glyph-name="uni01C4" unicode="&#x1c4;" horiz-adv-x="1431" 
d="M317 -1q-21 0 -87 2.5t-100 2.5l-158 -4q52 41 71 72t35 113q13 64 28 158q14 79 21 138q7 58 6 99q-1 80 -51 120q103 -3 154 -3l190 3q166 0 256.5 -77.5t90.5 -223.5q0 -177 -126.5 -288.5t-329.5 -111.5zM325 47q112 0 193.5 90t81.5 244q0 120 -52 194t-149 74
q-43 0 -84 -6q-10 -38 -37 -183q-31 -178 -42 -258q-5 -37 -5 -58q0 -55 23.5 -76t70.5 -21zM1208 828l115 108q19 -11 28 -27l-180 -164l-131 125q40 49 59 62zM959 47q89 0 162 15t127.5 43.5t89.5 56t74 66.5q-87 -179 -104 -234q-42 6 -107 6h-424l7 47l456 602
q-148 0 -232.5 -44t-144.5 -126q6 26 23 133q9 53 13 94q54 -7 105 -7h423l-7 -44z" />
    <glyph glyph-name="uni01C5" unicode="&#x1c5;" horiz-adv-x="1282" 
d="M317 -1q-21 0 -87 2.5t-100 2.5l-158 -4q52 41 71 72t35 113q13 64 28 158q14 79 21 138q7 58 6 99q-1 80 -51 120q103 -3 154 -3l190 3q166 0 256.5 -77.5t90.5 -223.5q0 -177 -126.5 -288.5t-329.5 -111.5zM325 47q112 0 193.5 90t81.5 244q0 120 -52 194t-149 74
q-43 0 -84 -6q-10 -38 -37 -183q-31 -178 -42 -258q-5 -37 -5 -58q0 -55 23.5 -76t70.5 -21zM1177 -8q-43 0 -180.5 4t-206.5 4v21l321 351h-135q-46 0 -83 -15t-78 -61q52 172 56 204q28 -1 100 -1h193l85 1v-16l-318 -356q77 -10 180 -10q45 0 78 13.5t88 49.5
q-12 -16 -28 -45t-26.5 -49.5t-27 -55t-18.5 -39.5zM1102 642l106 104q20 -15 25 -30l-166 -171l-120 141q39 45 63 60z" />
    <glyph glyph-name="uni01C6" unicode="&#x1c6;" horiz-adv-x="1057" 
d="M396 502q15 72 15 108q0 28 -9 47.5t-18.5 29t-34.5 30.5l228 10l-91 -452q-21 -101 -21 -158q0 -32 8.5 -54.5t18 -33t31.5 -29.5h-228l59 285q-23 -61 -44 -108t-49 -92.5t-61 -70.5t-68 -25q-55 0 -90 43t-35 122q0 86 39 166.5t115.5 135t171.5 54.5q30 0 63 -8z
M952 -8q-43 0 -180.5 4t-206.5 4v21l321 351h-135q-46 0 -83 -15t-78 -61q52 172 56 204q28 -1 100 -1h193l85 1v-16l-318 -356q77 -10 180 -10q45 0 78 13.5t88 49.5q-12 -16 -28 -45t-26.5 -49.5t-27 -55t-18.5 -39.5zM193 86q35 0 96.5 113t92.5 241q-26 28 -66 28
q-46 0 -83.5 -49.5t-56 -115.5t-18.5 -128q0 -89 35 -89zM877 642l106 104q20 -15 25 -30l-166 -171l-120 141q39 45 63 60z" />
    <glyph glyph-name="uni01C7" unicode="&#x1c7;" horiz-adv-x="924" 
d="M232 696l171 4q-47 -33 -68 -63.5t-39 -97t-41 -210.5l-14 -85q-10 -65 -10 -98q0 -52 19 -75.5t62 -23.5q58 0 117.5 44t151.5 151l-16 -48q-16 -49 -37 -111.5t-29 -89.5q-43 6 -109 6l-129 1l-136 2l-154 -2q45 36 63 62t33.5 85t37.5 195q27 171 27 233
q0 45 -11.5 70.5t-39.5 53.5q93 -3 151 -3zM815 128q-32 -201 -337 -256q157 111 193 341l19 116q31 194 31 250q0 45 -13.5 69.5t-49.5 51.5q102 -3 166 -3l147 3q-41 -34 -58 -62.5t-31.5 -91.5t-37.5 -217q-12 -76 -18.5 -120.5t-8.5 -61t-2 -19.5z" />
    <glyph glyph-name="uni01C8" unicode="&#x1c8;" horiz-adv-x="865" 
d="M232 696l171 4q-47 -33 -68 -63.5t-39 -97t-41 -210.5l-14 -85q-10 -65 -10 -98q0 -52 19 -75.5t62 -23.5q58 0 117.5 44t151.5 151l-16 -48q-16 -49 -37 -111.5t-29 -89.5q-43 6 -109 6l-129 1l-136 2l-154 -2q45 36 63 62t33.5 85t37.5 195q27 171 27 233
q0 45 -11.5 70.5t-39.5 53.5q93 -3 151 -3zM628 93l26 121q23 108 23 162q0 44 -13 66t-44 48l228 10l-44 -217l-50 -254q-7 -50 -35 -94t-71 -78t-82.5 -57t-88.5 -46q35 36 62 81.5t45 98t26 82.5t18 77zM718 668q0 37 26.5 69t62.5 32q30 0 50.5 -23t20.5 -58
q0 -39 -27 -68.5t-61 -29.5q-29 0 -50.5 22t-21.5 56z" />
    <glyph glyph-name="uni01C9" unicode="&#x1c9;" horiz-adv-x="556" 
d="M5 0l91 452q21 102 21 157q0 29 -7.5 49t-17 30.5t-30.5 28.5l228 10l-40 -194l-51 -258q-26 -132 -26 -177q0 -36 12 -56t42 -42h-222zM319 93l26 121q23 108 23 162q0 44 -13 66t-44 48l228 10l-44 -217l-50 -254q-7 -50 -35 -94t-71 -78t-82.5 -57t-88.5 -46
q35 36 62 81.5t45 98t26 82.5t18 77zM409 668q0 37 26.5 69t62.5 32q30 0 50.5 -23t20.5 -58q0 -39 -27 -68.5t-61 -29.5q-29 0 -50.5 22t-21.5 56z" />
    <glyph glyph-name="uni01CA" unicode="&#x1ca;" horiz-adv-x="1108" 
d="M612 222l19 124q15 98 15 157q0 80 -22.5 119t-74.5 78q88 -3 152 -3l125 3q-43 -35 -64 -69.5t-37.5 -100.5t-39.5 -212q-27 -172 -49 -335q-14 -2 -33 -2q-21 0 -31 2l-373 549l-29 -183q-15 -96 -15 -153q0 -55 14 -93.5t31 -56t53 -46.5q-85 3 -149 3l-128 -3
q41 34 61 64t36.5 90t35.5 178q24 153 24 219q0 54 -13.5 84.5t-44.5 63.5q24 -2 113 -2l87 2zM999 128q-32 -201 -337 -256q157 111 193 341l19 116q31 194 31 250q0 45 -13.5 69.5t-49.5 51.5q102 -3 166 -3l147 3q-41 -34 -58 -62.5t-31.5 -91.5t-37.5 -217
q-12 -76 -18.5 -120.5t-8.5 -61t-2 -19.5z" />
    <glyph glyph-name="uni01CB" unicode="&#x1cb;" horiz-adv-x="1041" 
d="M612 222l19 124q15 98 15 157q0 80 -22.5 119t-74.5 78q88 -3 152 -3l125 3q-43 -35 -64 -69.5t-37.5 -100.5t-39.5 -212q-27 -172 -49 -335q-14 -2 -33 -2q-21 0 -31 2l-373 549l-29 -183q-15 -96 -15 -153q0 -55 14 -93.5t31 -56t53 -46.5q-85 3 -149 3l-128 -3
q41 34 61 64t36.5 90t35.5 178q24 153 24 219q0 54 -13.5 84.5t-44.5 63.5q24 -2 113 -2l87 2zM804 93l26 121q23 108 23 162q0 44 -13 66t-44 48l228 10l-44 -217l-50 -254q-7 -50 -35 -94t-71 -78t-82.5 -57t-88.5 -46q35 36 62 81.5t45 98t26 82.5t18 77zM894 668
q0 37 26.5 69t62.5 32q30 0 50.5 -23t20.5 -58q0 -39 -27 -68.5t-61 -29.5q-29 0 -50.5 22t-21.5 56z" />
    <glyph glyph-name="uni01CC" unicode="&#x1cc;" horiz-adv-x="877" 
d="M257 500l-59 -278q60 142 118 215t125 73q56 0 82.5 -34t26.5 -81q0 -17 -3 -33l-16 -74q-29 -133 -29 -184q0 -39 13 -60.5t44 -43.5h-228l46 216l26 122q5 21 -3 40t-32 19q-42 0 -85 -63t-73.5 -152t-46.5 -182h-141l42 227q21 114 21 160q0 29 -8 48t-16.5 27.5
t-31.5 27.5zM640 93l26 121q23 108 23 162q0 44 -13 66t-44 48l228 10l-44 -217l-50 -254q-7 -50 -35 -94t-71 -78t-82.5 -57t-88.5 -46q35 36 62 81.5t45 98t26 82.5t18 77zM730 668q0 37 26.5 69t62.5 32q30 0 50.5 -23t20.5 -58q0 -39 -27 -68.5t-61 -29.5
q-29 0 -50.5 22t-21.5 56z" />
    <glyph glyph-name="uni01D3" unicode="&#x1d3;" horiz-adv-x="720" 
d="M656 368l-20 -125q-10 -61 -36 -108.5t-59 -74.5t-74.5 -44t-77.5 -23t-73 -6q-25 0 -50.5 2.5t-64 13t-67 28.5t-49.5 52.5t-21 81.5q0 18 3 39l26 164q27 168 27 222q0 37 -10 58.5t-36 50.5q92 -3 152 -3l168 4q-39 -25 -56 -39t-35 -41t-27 -64.5t-18 -103.5
l-29 -200q-4 -27 -4 -55q0 -150 137 -150q85 0 139.5 58t70.5 157l30 187q8 55 8 98q0 41 -11.5 68.5t-24.5 40t-49 42.5q82 -1 129 -1l126 3q-42 -34 -60 -63t-30.5 -81.5t-33.5 -187.5zM480 828l115 108q19 -11 28 -27l-180 -164l-131 125q40 49 59 62z" />
    <glyph glyph-name="uni01D4" unicode="&#x1d4;" 
d="M555 0h-228l59 276q-60 -143 -116.5 -214.5t-126.5 -71.5q-55 0 -81 33t-26 80q0 13 4 35l16 74q29 133 29 180q0 37 -13 57t-44 42l228 10l-46 -217l-26 -122q-5 -22 1.5 -40.5t30.5 -18.5q42 0 85 62.5t73.5 151t46.5 180.5h141l-42 -224q-21 -114 -21 -163
q0 -43 12.5 -64t43.5 -46zM366 643l106 104q20 -15 25 -30l-166 -171l-120 141q39 45 63 60z" />
    <glyph glyph-name="uni01E2" unicode="&#x1e2;" horiz-adv-x="923" 
d="M560 466l-13 -82q8 -1 17 -1q79 0 123.5 8.5t65 22.5t50.5 47q-17 -82 -22 -111l-15 -117q-16 28 -22.5 37.5t-21.5 25.5t-31.5 20.5t-44.5 9t-69 4.5q-7 0 -20 -0.5t-18 -0.5l-11 -75q-15 -101 -15 -125q0 -44 21.5 -60.5t79.5 -16.5q79 0 135.5 32t147.5 123l-14 -39
q-14 -39 -32.5 -92t-27.5 -80q-43 6 -108 6l-131 1h-174l-154 -3q38 31 53.5 49.5t30.5 58.5t29 114q-21 0 -59 0.5t-46 0.5q-32 0 -104 -3q-50 -80 -50 -127q0 -50 56 -93q-89 5 -125 5l-123 -5q52 46 87 89t101 136q11 16 17 24l315 447h81q18 0 182 1q163 1 215 7
l-15 -85q-11 -63 -17 -119q-34 89 -79 119t-146 30l-63 -4q-25 -106 -36 -179zM261 269q49 0 117 2l12 72l43 270l-233 -333l-7 -10q21 -1 68 -1zM858 796h-296q-2 34 11 73h296q0 -33 -11 -73z" />
    <glyph glyph-name="uni01E3" unicode="&#x1e3;" horiz-adv-x="788" 
d="M790 407q0 -45 -45.5 -79.5t-110 -53.5t-145.5 -29v-25q0 -71 29.5 -105.5t75.5 -34.5q62 0 121 51q-10 -60 -68 -101t-129 -41q-72 0 -126 44.5t-54 134.5q0 32 7 63q-47 -110 -98.5 -176t-115.5 -66q-54 0 -89 43t-35 118q0 88 39 169.5t114.5 136t169.5 54.5
q50 0 106 -18l95 19l-6 -29q59 28 120 28q70 0 107.5 -30.5t37.5 -72.5zM193 86q53 0 105 104t87 250q-26 28 -66 28q-46 0 -84.5 -49.5t-57.5 -115.5t-19 -128q0 -89 35 -89zM649 619h-286q-2 35 11 70h286q0 -35 -11 -70zM601 465q-41 0 -71.5 -64.5t-38.5 -142.5
q79 19 115 56.5t36 85.5q0 65 -41 65z" />
    <glyph glyph-name="uni01F1" unicode="&#x1f1;" horiz-adv-x="1426" 
d="M317 -1q-21 0 -87 2.5t-100 2.5l-158 -4q52 41 71 72t35 113q13 64 28 158q14 79 21 138q7 58 6 99q-1 80 -51 120q103 -3 154 -3l190 3q166 0 256.5 -77.5t90.5 -223.5q0 -177 -126.5 -288.5t-329.5 -111.5zM325 47q112 0 193.5 90t81.5 244q0 120 -52 194t-149 74
q-43 0 -84 -6q-10 -38 -37 -183q-31 -178 -42 -258q-5 -37 -5 -58q0 -55 23.5 -76t70.5 -21zM954 47q89 0 162 15t127.5 43.5t89.5 56t74 66.5q-87 -179 -104 -234q-42 6 -107 6h-424l7 47l456 602q-148 0 -232.5 -44t-144.5 -126q6 26 23 133q9 53 13 94q54 -7 105 -7h423
l-7 -44z" />
    <glyph glyph-name="uni01F2" unicode="&#x1f2;" horiz-adv-x="1282" 
d="M317 -1q-21 0 -87 2.5t-100 2.5l-158 -4q52 41 71 72t35 113q13 64 28 158q14 79 21 138q7 58 6 99q-1 80 -51 120q103 -3 154 -3l190 3q166 0 256.5 -77.5t90.5 -223.5q0 -177 -126.5 -288.5t-329.5 -111.5zM325 47q112 0 193.5 90t81.5 244q0 120 -52 194t-149 74
q-43 0 -84 -6q-10 -38 -37 -183q-31 -178 -42 -258q-5 -37 -5 -58q0 -55 23.5 -76t70.5 -21zM1177 -8q-43 0 -180.5 4t-206.5 4v21l321 351h-135q-46 0 -83 -15t-78 -61q52 172 56 204q28 -1 100 -1h193l85 1v-16l-318 -356q77 -10 180 -10q45 0 78 13.5t88 49.5
q-12 -16 -28 -45t-26.5 -49.5t-27 -55t-18.5 -39.5z" />
    <glyph glyph-name="uni01F3" unicode="&#x1f3;" horiz-adv-x="1057" 
d="M396 502q15 72 15 108q0 28 -9 47.5t-18.5 29t-34.5 30.5l228 10l-91 -452q-21 -101 -21 -158q0 -32 8.5 -54.5t18 -33t31.5 -29.5h-228l59 285q-23 -61 -44 -108t-49 -92.5t-61 -70.5t-68 -25q-55 0 -90 43t-35 122q0 86 39 166.5t115.5 135t171.5 54.5q30 0 63 -8z
M952 -8q-43 0 -180.5 4t-206.5 4v21l321 351h-135q-46 0 -83 -15t-78 -61q52 172 56 204q28 -1 100 -1h193l85 1v-16l-318 -356q77 -10 180 -10q45 0 78 13.5t88 49.5q-12 -16 -28 -45t-26.5 -49.5t-27 -55t-18.5 -39.5zM193 86q35 0 96.5 113t92.5 241q-26 28 -66 28
q-46 0 -83.5 -49.5t-56 -115.5t-18.5 -128q0 -89 35 -89z" />
    <glyph glyph-name="AEacute" unicode="&#x1fc;" horiz-adv-x="923" 
d="M560 466l-13 -82q8 -1 17 -1q79 0 123.5 8.5t65 22.5t50.5 47q-17 -82 -22 -111l-15 -117q-16 28 -22.5 37.5t-21.5 25.5t-31.5 20.5t-44.5 9t-69 4.5q-7 0 -20 -0.5t-18 -0.5l-11 -75q-15 -101 -15 -125q0 -44 21.5 -60.5t79.5 -16.5q79 0 135.5 32t147.5 123l-14 -39
q-14 -39 -32.5 -92t-27.5 -80q-43 6 -108 6l-131 1h-174l-154 -3q38 31 53.5 49.5t30.5 58.5t29 114q-21 0 -59 0.5t-46 0.5q-32 0 -104 -3q-50 -80 -50 -127q0 -50 56 -93q-89 5 -125 5l-123 -5q52 46 87 89t101 136q11 16 17 24l315 447h81q18 0 182 1q163 1 215 7
l-15 -85q-11 -63 -17 -119q-34 89 -79 119t-146 30l-63 -4q-25 -106 -36 -179zM261 269q49 0 117 2l12 72l43 270l-233 -333l-7 -10q21 -1 68 -1zM847 806l-207 -27l185 128q15 10 32 -2t22 -44q7 -49 -32 -55z" />
    <glyph glyph-name="aeacute" unicode="&#x1fd;" horiz-adv-x="788" 
d="M790 407q0 -45 -45.5 -79.5t-110 -53.5t-145.5 -29v-25q0 -71 29.5 -105.5t75.5 -34.5q62 0 121 51q-10 -60 -68 -101t-129 -41q-72 0 -126 44.5t-54 134.5q0 32 7 63q-47 -110 -98.5 -176t-115.5 -66q-54 0 -89 43t-35 118q0 88 39 169.5t114.5 136t169.5 54.5
q50 0 106 -18l95 19l-6 -29q59 28 120 28q70 0 107.5 -30.5t37.5 -72.5zM193 86q53 0 105 104t87 250q-26 28 -66 28q-46 0 -84.5 -49.5t-57.5 -115.5t-19 -128q0 -89 35 -89zM601 465q-41 0 -71.5 -64.5t-38.5 -142.5q79 19 115 56.5t36 85.5q0 65 -41 65zM677 644
l-199 -79l154 167q11 14 29.5 6.5t32.5 -34.5q8 -18 8 -28q0 -23 -25 -32z" />
    <glyph glyph-name="Oslashacute" unicode="&#x1fe;" horiz-adv-x="778" 
d="M470 712q108 0 181 -50l46 50h63l-74 -80q76 -78 76 -211q0 -183 -129 -308.5t-314 -125.5q-111 0 -182 48l-44 -48h-62l72 78q-71 73 -71 206q0 125 60 227t160.5 158t217.5 56zM363 39q103 0 165.5 107t62.5 268q0 58 -9 104l-356 -386q40 -93 137 -93zM202 272
q0 -50 9 -90l355 388q-38 91 -132 91q-64 0 -111.5 -40t-72.5 -103t-36.5 -125.5t-11.5 -120.5zM578 806l-207 -27l185 128q15 10 32 -2t22 -44q7 -49 -32 -55z" />
    <glyph glyph-name="oslashacute" unicode="&#x1ff;" horiz-adv-x="539" 
d="M317 510q93 0 143 -56l54 52l26 -27l-59 -55q29 -50 29 -122q0 -132 -87.5 -222t-213.5 -90q-88 0 -140 46l-53 -50l-26 22l56 54q-35 49 -35 126q0 130 89.5 226t216.5 96zM295 471q-42 0 -73.5 -48t-45.5 -114.5t-15 -138.5l198 189q-2 56 -17 84t-47 28zM227 28
q55 0 91.5 81t40.5 200l-197 -186q8 -95 65 -95zM485 644l-199 -79l154 167q11 14 29.5 6.5t32.5 -34.5q8 -18 8 -28q0 -23 -25 -32z" />
    <glyph glyph-name="Scommaaccent" unicode="&#x218;" horiz-adv-x="568" 
d="M294 -84l-120 -206l13 206q28 11 55 11q28 0 52 -11zM21 235q46 -87 103.5 -143t115.5 -56q44 0 78.5 30t34.5 87q0 45 -25 74.5t-94 80.5q-41 30 -61 46t-44 41.5t-33.5 52t-9.5 58.5q0 92 79.5 149t193.5 57q43 0 111 -12t89 -13h11q-24 -128 -33 -211
q-40 89 -82.5 137t-101.5 48q-47 0 -79.5 -29.5t-32.5 -76.5q0 -33 19 -55.5t74 -66.5q12 -9 18 -14q92 -73 128 -119t36 -109q0 -97 -78 -150.5t-201 -53.5q-45 0 -113 11t-106 11q4 55 4 155q0 51 -1 71z" />
    <glyph glyph-name="scommaaccent" unicode="&#x219;" horiz-adv-x="435" 
d="M228 -84l-120 -206l13 206q28 11 55 11q28 0 52 -11zM233 475q-26 0 -40 -17t-14 -36q0 -25 33 -58.5t73 -63t73 -73t33 -87.5q0 -66 -66 -108.5t-159 -42.5q-68 0 -123 23t-55 70q0 24 15 40t41 16q25 0 41 -17.5t23 -38t24.5 -38t44.5 -17.5q33 0 51 22t18 51
q0 28 -20.5 55.5t-50 50t-58.5 46t-49.5 54t-20.5 63.5q0 62 62.5 101.5t149.5 39.5q58 0 103.5 -18.5t45.5 -57.5q0 -23 -15.5 -41t-42.5 -18q-22 0 -36.5 15.5t-21 34.5t-21.5 34.5t-38 15.5z" />
    <glyph glyph-name="uni021A" unicode="&#x21a;" horiz-adv-x="677" 
d="M40 456q14 68 30 173q2 15 9 75q43 -6 108 -6q6 0 110 -1t110 -1q5 0 104 1t106 1q66 0 109 6q-2 -10 -7 -33.5t-8 -41.5q-19 -119 -24 -173q-29 85 -84 139t-120 54q-19 -67 -61 -327q-24 -151 -24 -204q0 -30 7.5 -51t17 -32t34.5 -35q-99 3 -163 3l-161 -3
q50 36 68.5 60.5t34 80t36.5 190.5q44 276 42 318q-79 0 -149 -53.5t-125 -139.5zM340 -84l-120 -206l13 206q28 11 55 11q28 0 52 -11z" />
    <glyph glyph-name="uni021B" unicode="&#x21b;" horiz-adv-x="357" 
d="M25 445l6 45h81l23 105l147 20l-26 -125h133l-6 -45h-136l-56 -279q-5 -28 -5 -42q0 -46 46 -46q39 0 80 28q-27 -61 -63 -89t-90 -28q-116 0 -116 117q0 25 6 55l53 280l1 4h-78zM201 -84l-120 -206l13 206q28 11 55 11q28 0 52 -11z" />
    <glyph glyph-name="uni0232" unicode="&#x232;" horiz-adv-x="635" 
d="M498 453l-104 -149q-19 -118 -19 -173q0 -16 1 -28t5 -23.5t5.5 -17.5t10 -16.5t11 -13.5t14.5 -16t15 -16q-101 3 -165 3l-167 -3q6 5 23.5 19t21 17t16.5 16t16 20.5t12.5 23.5t13 32.5t10.5 41.5t12.5 55t11.5 69l2 11l-86 199q-5 11 -15.5 36t-14 33t-12 26t-13 26.5
t-13 22.5t-16.5 26t-19 26q144 -5 181 -5l115 5q-66 -47 -66 -85q0 -18 13 -46l84 -197l71 105q68 99 68 145q0 42 -59 78q99 -5 136 -5l99 5q-18 -15 -35.5 -33t-30 -32t-32.5 -40.5t-29.5 -39.5t-35 -50t-36.5 -52zM554 796h-296q-2 34 11 73h296q0 -33 -11 -73z" />
    <glyph glyph-name="uni0233" unicode="&#x233;" horiz-adv-x="581" 
d="M561 500l-84 -454q-25 -139 -114 -212t-215 -73q-69 0 -115 22t-46 67q0 74 118 95q-5 -20 -5 -37q0 -42 23 -71.5t65 -29.5q31 0 55 19t41.5 57t29 77t24.5 97l47 214q-60 -142 -115.5 -211.5t-129.5 -69.5q-54 0 -79.5 33t-25.5 80q0 13 4 35l16 74q29 134 29 180
q0 36 -12.5 56t-44.5 42l228 10l-46 -216l-26 -122q-5 -22 1.5 -40.5t30.5 -18.5q42 0 85 63t73.5 152t46.5 182h141zM493 619h-286q-2 35 11 70h286q0 -35 -11 -70z" />
    <glyph glyph-name="uni0237" unicode="&#x237;" horiz-adv-x="277" 
d="M40 93l26 121q23 108 23 162q0 44 -13 66t-44 48l228 10l-44 -217l-50 -254q-7 -50 -35 -94t-71 -78t-82.5 -57t-88.5 -46q35 36 62 81.5t45 98t26 82.5t18 77z" />
    <glyph glyph-name="uni0259" unicode="&#x259;" horiz-adv-x="453" 
d="M-16 89q0 35 25 63t68 47.5t93 32t108 20.5q1 8 1 25q0 71 -29.5 105.5t-75.5 34.5q-62 0 -121 -51q10 60 68 101t129 41q72 0 126 -44.5t54 -134.5q0 -54 -21 -113t-58.5 -110.5t-97.5 -85t-130 -33.5t-104.5 30t-34.5 72zM168 32q40 0 70.5 64.5t38.5 142.5
q-150 -37 -150 -143q0 -64 41 -64z" />
    <glyph glyph-name="circumflex" unicode="&#x2c6;" horiz-adv-x="324" 
d="M260 659l-111 -104q-20 15 -25 30l171 171l115 -141q-34 -43 -63 -60z" />
    <glyph glyph-name="caron" unicode="&#x2c7;" horiz-adv-x="324" 
d="M285 642l106 104q20 -15 25 -30l-166 -171l-120 141q39 45 63 60z" />
    <glyph glyph-name="breve" unicode="&#x2d8;" horiz-adv-x="282" 
d="M244 650q83 0 140 69q-7 -58 -49.5 -103t-105.5 -45q-54 0 -81 33.5t-27 82.5q0 17 3 32q47 -69 120 -69z" />
    <glyph glyph-name="dotaccent" unicode="&#x2d9;" horiz-adv-x="187" 
d="M131 631q0 34 26 61t61 27q25 0 42.5 -15.5t17.5 -39.5q0 -34 -27.5 -61.5t-61.5 -27.5q-26 0 -42 15.5t-16 40.5z" />
    <glyph glyph-name="ring" unicode="&#x2da;" horiz-adv-x="250" 
d="M210 550q-96 0 -96 95q0 60 39 98.5t99 38.5q46 0 70.5 -25t24.5 -70q0 -58 -38 -97.5t-99 -39.5zM218 602q28 0 46 22t18 56q0 52 -42 52q-29 0 -45 -23.5t-16 -57.5q0 -49 39 -49z" />
    <glyph glyph-name="ogonek" unicode="&#x2db;" horiz-adv-x="244" 
d="M178 -145q-28 -73 -99 -73q-37 0 -57 19.5t-20 54.5q0 54 46 91t127 70l12 -3q-37 -20 -61 -50.5t-24 -65.5q0 -49 43 -49q13 0 33 6z" />
    <glyph glyph-name="tilde" unicode="&#x2dc;" horiz-adv-x="359" 
d="M163 594q-9 16 -9 34q0 30 23 50.5t60 20.5q17 0 67.5 -10.5t74.5 -10.5q30 0 49 24q19 -19 19 -38q0 -27 -26.5 -49t-61.5 -22q-28 0 -79.5 11t-63.5 11q-37 0 -53 -21z" />
    <glyph glyph-name="hungarumlaut" unicode="&#x2dd;" horiz-adv-x="413" 
d="M502 644l-199 -79l154 167q12 13 31 5.5t31 -33.5q8 -18 8 -28q0 -23 -25 -32zM343 688l-182 -124l115 195q8 14 25 14q23 0 45 -25q16 -17 16 -32t-19 -28z" />
    <glyph glyph-name="dotbelowcmb" unicode="&#x323;" horiz-adv-x="800" 
d="M240 -139q0 34 29 61t64 27q25 0 39.5 -15.5t14.5 -39.5q0 -34 -27.5 -61.5t-61.5 -27.5q-25 0 -41.5 16t-16.5 40z" />
    <glyph glyph-name="uni0394" unicode="&#x394;" horiz-adv-x="491" 
d="M-51 0l370 761l129 -761h-499zM100 97h227l-55 370z" />
    <glyph glyph-name="Sigma" unicode="&#x3a3;" horiz-adv-x="494" 
d="M338 380l-5 -32l-217 -266h319l-12 -82h-444l10 69l243 295l-154 267l11 69h444l-12 -81h-314z" />
    <glyph glyph-name="pi" unicode="&#x3c0;" horiz-adv-x="660" 
d="M69 215q19 123 19 166q0 38 -10 62.5t-35 58.5q106 -4 166 -4h271l200 4q-56 -47 -74 -94t-39 -178q-14 -84 -14 -119q0 -32 10.5 -55.5t37.5 -55.5q-74 4 -132 4l-172 -4q11 11 35.5 33.5t32 31.5t21.5 33t21.5 56.5t15.5 83.5l29 183h-206l-29 -176q-14 -89 -14 -125
q0 -28 8.5 -48.5t18.5 -31.5t39 -40q-98 4 -167 4l-138 -4q57 54 73 85.5t32 129.5z" />
    <glyph glyph-name="uni1E46" unicode="&#x1e46;" horiz-adv-x="772" 
d="M278 -141q0 34 26 61t61 27q25 0 42.5 -15.5t17.5 -39.5q0 -34 -27.5 -61.5t-61.5 -27.5q-26 0 -42 15.5t-16 40.5zM612 222l19 124q15 98 15 157q0 80 -22.5 119t-74.5 78q88 -3 152 -3l125 3q-43 -35 -64 -69.5t-37.5 -100.5t-39.5 -212q-27 -172 -49 -335
q-14 -2 -33 -2q-21 0 -31 2l-373 549l-29 -183q-15 -96 -15 -153q0 -55 14 -93.5t31 -56t53 -46.5q-85 3 -149 3l-128 -3q41 34 61 64t36.5 90t35.5 178q24 153 24 219q0 54 -13.5 84.5t-44.5 63.5q24 -2 113 -2l87 2z" />
    <glyph glyph-name="uni1E47" unicode="&#x1e47;" 
d="M257 500l-59 -278q60 142 118 215t125 73q56 0 82.5 -34t26.5 -81q0 -17 -3 -33l-16 -74q-29 -133 -29 -184q0 -39 13 -60.5t44 -43.5h-228l46 216l26 122q5 21 -3 40t-32 19q-42 0 -85 -63t-73.5 -152t-46.5 -182h-141l42 227q21 114 21 160q0 29 -8 48t-16.5 27.5
t-31.5 27.5zM152 -139q0 34 26 61t61 27q25 0 42.5 -15.5t17.5 -39.5q0 -34 -27.5 -61.5t-61.5 -27.5q-26 0 -42 15.5t-16 40.5z" />
    <glyph glyph-name="uni1E62" unicode="&#x1e62;" horiz-adv-x="568" 
d="M21 235q46 -87 103.5 -143t115.5 -56q44 0 78.5 30t34.5 87q0 45 -25 74.5t-94 80.5q-41 30 -61 46t-44 41.5t-33.5 52t-9.5 58.5q0 92 79.5 149t193.5 57q43 0 111 -12t89 -13h11q-24 -128 -33 -211q-40 89 -82.5 137t-101.5 48q-47 0 -79.5 -29.5t-32.5 -76.5
q0 -33 19 -55.5t74 -66.5q12 -9 18 -14q92 -73 128 -119t36 -109q0 -97 -78 -150.5t-201 -53.5q-45 0 -113 11t-106 11q4 55 4 155q0 51 -1 71zM171 -140q0 34 26 61t61 27q25 0 42.5 -15.5t17.5 -39.5q0 -34 -27.5 -61.5t-61.5 -27.5q-26 0 -42 15.5t-16 40.5z" />
    <glyph glyph-name="uni1E63" unicode="&#x1e63;" horiz-adv-x="435" 
d="M233 475q-26 0 -40 -17t-14 -36q0 -25 33 -58.5t73 -63t73 -73t33 -87.5q0 -66 -66 -108.5t-159 -42.5q-68 0 -123 23t-55 70q0 24 15 40t41 16q25 0 41 -17.5t23 -38t24.5 -38t44.5 -17.5q33 0 51 22t18 51q0 28 -20.5 55.5t-50 50t-58.5 46t-49.5 54t-20.5 63.5
q0 62 62.5 101.5t149.5 39.5q58 0 103.5 -18.5t45.5 -57.5q0 -23 -15.5 -41t-42.5 -18q-22 0 -36.5 15.5t-21 34.5t-21.5 34.5t-38 15.5zM83 -141q0 34 26 61t61 27q25 0 42.5 -15.5t17.5 -39.5q0 -34 -27.5 -61.5t-61.5 -27.5q-26 0 -42 15.5t-16 40.5z" />
    <glyph glyph-name="Wgrave" unicode="&#x1e80;" horiz-adv-x="1015" 
d="M852 431q52 104 52 158q0 13 -3.5 24.5t-6.5 19t-13 19t-13.5 15t-19 17t-18.5 16.5q113 -5 149 -5l114 5q-6 -7 -18.5 -21t-17 -19t-14 -16.5t-14.5 -18.5t-14.5 -20.5t-17 -26.5t-19 -32.5t-24 -42t-28.5 -52.5q-144 -265 -224 -450q-16 -3 -67 -3t-64 3
q-5 30 -16 104.5l-22 149t-23 140.5l-173 -394q-15 -3 -66 -3t-65 3q-5 33 -20 133.5t-30 196t-30 168.5q-19 94 -30 129.5t-37 71.5q107 -5 143 -5l150 5q-43 -25 -58.5 -48t-15.5 -53q0 -10 2 -34l15 -147l38 -298l164 349l-6 30q-19 88 -33.5 126t-43.5 75q116 -5 153 -5
l141 5q-43 -28 -58 -52t-15 -56q0 -10 2 -34q3 -51 15 -140l48 -296zM649 779l-207 27q-33 5 -33 41q0 31 23 52.5t47 3.5z" />
    <glyph glyph-name="wgrave" unicode="&#x1e81;" horiz-adv-x="861" 
d="M357 119l33 163q-65 -150 -126 -221t-133 -71q-46 0 -71 27.5t-25 75.5q0 18 5 45l16 74q29 134 29 180q0 36 -12.5 56t-44.5 42l228 10l-46 -216l-26 -122q-4 -22 -4 -33q0 -46 34 -46q41 0 85 68.5t75.5 162t46.5 183.5h141l-67 -375q-14 -80 47 -80q48 0 89 49.5
t63 118t22 130.5q0 40 -12 50.5t-50 14.5q-50 6 -50 47q0 58 85 58q71 0 115 -40.5t44 -104.5q0 -54 -32 -120t-83 -123t-122 -95.5t-141 -38.5q-59 0 -88 26.5t-29 70.5q0 10 4 34zM559 565l-199 79q-25 9 -25 32q0 10 8 28q14 27 32.5 34.5t29.5 -6.5z" />
    <glyph glyph-name="Wacute" unicode="&#x1e82;" horiz-adv-x="1015" 
d="M852 431q52 104 52 158q0 13 -3.5 24.5t-6.5 19t-13 19t-13.5 15t-19 17t-18.5 16.5q113 -5 149 -5l114 5q-6 -7 -18.5 -21t-17 -19t-14 -16.5t-14.5 -18.5t-14.5 -20.5t-17 -26.5t-19 -32.5t-24 -42t-28.5 -52.5q-144 -265 -224 -450q-16 -3 -67 -3t-64 3
q-5 30 -16 104.5l-22 149t-23 140.5l-173 -394q-15 -3 -66 -3t-65 3q-5 33 -20 133.5t-30 196t-30 168.5q-19 94 -30 129.5t-37 71.5q107 -5 143 -5l150 5q-43 -25 -58.5 -48t-15.5 -53q0 -10 2 -34l15 -147l38 -298l164 349l-6 30q-19 88 -33.5 126t-43.5 75q116 -5 153 -5
l141 5q-43 -28 -58 -52t-15 -56q0 -10 2 -34q3 -51 15 -140l48 -296zM674 806l-207 -27l185 128q15 10 32 -2t22 -44q7 -49 -32 -55z" />
    <glyph glyph-name="wacute" unicode="&#x1e83;" horiz-adv-x="861" 
d="M357 119l33 163q-65 -150 -126 -221t-133 -71q-46 0 -71 27.5t-25 75.5q0 18 5 45l16 74q29 134 29 180q0 36 -12.5 56t-44.5 42l228 10l-46 -216l-26 -122q-4 -22 -4 -33q0 -46 34 -46q41 0 85 68.5t75.5 162t46.5 183.5h141l-67 -375q-14 -80 47 -80q48 0 89 49.5
t63 118t22 130.5q0 40 -12 50.5t-50 14.5q-50 6 -50 47q0 58 85 58q71 0 115 -40.5t44 -104.5q0 -54 -32 -120t-83 -123t-122 -95.5t-141 -38.5q-59 0 -88 26.5t-29 70.5q0 10 4 34zM652 644l-199 -79l154 167q11 14 29.5 6.5t32.5 -34.5q8 -18 8 -28q0 -23 -25 -32z" />
    <glyph glyph-name="Wdieresis" unicode="&#x1e84;" horiz-adv-x="1015" 
d="M852 431q52 104 52 158q0 13 -3.5 24.5t-6.5 19t-13 19t-13.5 15t-19 17t-18.5 16.5q113 -5 149 -5l114 5q-6 -7 -18.5 -21t-17 -19t-14 -16.5t-14.5 -18.5t-14.5 -20.5t-17 -26.5t-19 -32.5t-24 -42t-28.5 -52.5q-144 -265 -224 -450q-16 -3 -67 -3t-64 3
q-5 30 -16 104.5l-22 149t-23 140.5l-173 -394q-15 -3 -66 -3t-65 3q-5 33 -20 133.5t-30 196t-30 168.5q-19 94 -30 129.5t-37 71.5q107 -5 143 -5l150 5q-43 -25 -58.5 -48t-15.5 -53q0 -10 2 -34l15 -147l38 -298l164 349l-6 30q-19 88 -33.5 126t-43.5 75q116 -5 153 -5
l141 5q-43 -28 -58 -52t-15 -56q0 -10 2 -34q3 -51 15 -140l48 -296zM410 812q0 34 28 61.5t63 27.5q25 0 40.5 -15.5t15.5 -39.5q0 -34 -29 -61.5t-63 -27.5q-25 0 -40 15.5t-15 39.5zM595 813q0 34 29 61t64 27q24 0 39 -15.5t15 -39.5q0 -34 -28 -61.5t-62 -27.5
q-25 0 -41 15.5t-16 40.5z" />
    <glyph glyph-name="wdieresis" unicode="&#x1e85;" horiz-adv-x="861" 
d="M357 119l33 163q-65 -150 -126 -221t-133 -71q-46 0 -71 27.5t-25 75.5q0 18 5 45l16 74q29 134 29 180q0 36 -12.5 56t-44.5 42l228 10l-46 -216l-26 -122q-4 -22 -4 -33q0 -46 34 -46q41 0 85 68.5t75.5 162t46.5 183.5h141l-67 -375q-14 -80 47 -80q48 0 89 49.5
t63 118t22 130.5q0 40 -12 50.5t-50 14.5q-50 6 -50 47q0 58 85 58q71 0 115 -40.5t44 -104.5q0 -54 -32 -120t-83 -123t-122 -95.5t-141 -38.5q-59 0 -88 26.5t-29 70.5q0 10 4 34zM363 630q0 34 27.5 61.5t63.5 27.5q25 0 40.5 -15.5t15.5 -39.5q0 -34 -28.5 -61.5
t-62.5 -27.5q-25 0 -40.5 15.5t-15.5 39.5zM548 631q0 34 29 61t64 27q25 0 39.5 -15.5t14.5 -39.5q0 -34 -27.5 -61.5t-61.5 -27.5q-25 0 -41.5 16t-16.5 40z" />
    <glyph glyph-name="uni1EBC" unicode="&#x1ebc;" horiz-adv-x="637" 
d="M274 466l-13 -82q8 -1 17 -1q79 0 123.5 8.5t65 22.5t50.5 47q-17 -81 -22 -111l-15 -117q-16 28 -22.5 37.5t-21.5 25.5t-31.5 20.5t-44 9t-67.5 4.5q-8 0 -21.5 -0.5t-18.5 -0.5l-11 -75q-15 -101 -15 -125q0 -44 21.5 -60.5t80.5 -16.5q79 0 136 32t146 123l-14 -39
q-14 -39 -32.5 -92t-27.5 -80q-43 6 -108 6l-131 1h-174l-154 -3q45 37 63 63t33.5 85t37.5 195q27 169 27 232q0 45 -11.5 70.5t-39.5 53.5q100 -3 153 -3q30 0 287 2q64 0 110 6q-8 -39 -15 -85q-6 -33 -19 -129q-57 92 -100.5 125.5t-119.5 33.5l-66 -4q-22 -90 -36 -179
zM265 765q-9 14 -9 33q0 31 23 51.5t60 20.5q17 0 67.5 -10.5t74.5 -10.5q30 0 49 24q19 -18 19 -37q0 -28 -26 -50t-61 -22q-28 0 -80 11t-64 11q-37 0 -53 -21z" />
    <glyph glyph-name="uni1EBD" unicode="&#x1ebd;" horiz-adv-x="455" 
d="M455 408q0 -46 -45 -81t-107 -53.5t-143 -28.5v-25q0 -71 29.5 -105.5t75.5 -34.5q62 0 121 51q-10 -60 -68 -101t-129 -41q-72 0 -126 44.5t-54 134.5q0 54 21 113t58.5 110.5t97.5 85t130 33.5t104.5 -30t34.5 -72zM200 594q-9 16 -9 34q0 30 23 50.5t60 20.5
q17 0 67.5 -10.5t74.5 -10.5q30 0 49 24q19 -19 19 -38q0 -27 -26.5 -49t-61.5 -22q-28 0 -79.5 11t-63.5 11q-37 0 -53 -21zM271 465q-41 0 -71 -64.5t-38 -142.5q150 36 150 143q0 64 -41 64z" />
    <glyph glyph-name="Ygrave" unicode="&#x1ef2;" horiz-adv-x="635" 
d="M498 453l-104 -149q-19 -118 -19 -173q0 -16 1 -28t5 -23.5t5.5 -17.5t10 -16.5t11 -13.5t14.5 -16t15 -16q-101 3 -165 3l-167 -3q6 5 23.5 19t21 17t16.5 16t16 20.5t12.5 23.5t13 32.5t10.5 41.5t12.5 55t11.5 69l2 11l-86 199q-5 11 -15.5 36t-14 33t-12 26t-13 26.5
t-13 22.5t-16.5 26t-19 26q144 -5 181 -5l115 5q-66 -47 -66 -85q0 -18 13 -46l84 -197l71 105q68 99 68 145q0 42 -59 78q99 -5 136 -5l99 5q-18 -15 -35.5 -33t-30 -32t-32.5 -40.5t-29.5 -39.5t-35 -50t-36.5 -52zM457 779l-207 27q-33 5 -33 41q0 31 23 52.5t47 3.5z
" />
    <glyph glyph-name="ygrave" unicode="&#x1ef3;" horiz-adv-x="581" 
d="M561 500l-84 -454q-25 -139 -114 -212t-215 -73q-69 0 -115 22t-46 67q0 74 118 95q-5 -20 -5 -37q0 -42 23 -71.5t65 -29.5q31 0 55 19t41.5 57t29 77t24.5 97l47 214q-60 -142 -115.5 -211.5t-129.5 -69.5q-54 0 -79.5 33t-25.5 80q0 13 4 35l16 74q29 134 29 180
q0 36 -12.5 56t-44.5 42l228 10l-46 -216l-26 -122q-5 -22 1.5 -40.5t30.5 -18.5q42 0 85 63t73.5 152t46.5 182h141zM382 565l-199 79q-25 9 -25 32q0 10 8 28q14 27 32.5 34.5t29.5 -6.5z" />
    <glyph glyph-name="uni2004" unicode="&#x2004;" horiz-adv-x="320" 
 />
    <glyph glyph-name="uni2007" unicode="&#x2007;" horiz-adv-x="547" 
 />
    <glyph glyph-name="uni2009" unicode="&#x2009;" horiz-adv-x="154" 
 />
    <glyph glyph-name="uni200A" unicode="&#x200a;" horiz-adv-x="77" 
 />
    <glyph glyph-name="uni200B" unicode="&#x200b;" horiz-adv-x="0" 
 />
    <glyph glyph-name="uni2012" unicode="&#x2012;" horiz-adv-x="381" 
d="M-1 197v169h384v-169h-384z" />
    <glyph glyph-name="endash" unicode="&#x2013;" horiz-adv-x="498" 
d="M44 222l14 91h387l-14 -91h-387z" />
    <glyph glyph-name="emdash" unicode="&#x2014;" horiz-adv-x="935" 
d="M43 221l14 91h825l-14 -91h-825z" />
    <glyph glyph-name="quoteleft" unicode="&#x2018;" horiz-adv-x="250" 
d="M324 770q-140 -80 -156 -170q90 0 90 -67q0 -45 -33 -74.5t-71 -29.5q-34 0 -59 26t-25 74q0 83 74 152t180 89z" />
    <glyph glyph-name="quoteright" unicode="&#x2019;" horiz-adv-x="276" 
d="M55 429q140 80 156 170q-90 0 -90 67q0 45 33 74.5t71 29.5q34 0 59 -26t25 -74q0 -83 -74 -152t-180 -89z" />
    <glyph glyph-name="quotesinglbase" unicode="&#x201a;" horiz-adv-x="262" 
d="M-66 -200q140 80 156 170q-90 0 -90 67q0 45 33 74.5t71 29.5q34 0 59 -26t25 -74q0 -83 -74 -152t-180 -89z" />
    <glyph glyph-name="quotedblleft" unicode="&#x201c;" horiz-adv-x="471" 
d="M324 770q-140 -80 -156 -170q90 0 90 -67q0 -45 -33 -74.5t-71 -29.5q-34 0 -59 26t-25 74q0 83 74 152t180 89zM544 770q-140 -80 -156 -170q90 0 90 -67q0 -45 -33 -74.5t-71 -29.5q-34 0 -59 26t-25 74q0 83 74 152t180 89z" />
    <glyph glyph-name="quotedblright" unicode="&#x201d;" horiz-adv-x="496" 
d="M275 429q140 80 156 170q-90 0 -90 67q0 45 33 74.5t71 29.5q34 0 59 -26t25 -74q0 -83 -74 -152t-180 -89zM55 429q140 80 156 170q-90 0 -90 67q0 45 33 74.5t71 29.5q34 0 59 -26t25 -74q0 -83 -74 -152t-180 -89z" />
    <glyph glyph-name="quotedblbase" unicode="&#x201e;" horiz-adv-x="483" 
d="M-66 -200q140 80 156 170q-90 0 -90 67q0 45 33 74.5t71 29.5q34 0 59 -26t25 -74q0 -83 -74 -152t-180 -89zM155 -200q140 80 156 170q-90 0 -90 67q0 45 33 74.5t71 29.5q34 0 59 -26t25 -74q0 -83 -74 -152t-180 -89z" />
    <glyph glyph-name="dagger" unicode="&#x2020;" horiz-adv-x="542" 
d="M171 100q7 42 21 89t35.5 107t31.5 91l-31 40q-3 -1 -18 -7.5t-20 -8.5t-18 -7t-21 -6.5t-20 -3.5t-24 -2q-33 0 -43.5 11.5t-10.5 34.5q0 74 75 74q12 0 23.5 -2t23 -6.5t18 -7t20.5 -10t18 -9.5l40 37q-3 23 -9.5 63t-6.5 57q0 77 78 77q59 0 59 -48q0 -18 -7 -37
t-25.5 -55.5t-27.5 -57.5l31 -38q9 3 34 12t37 13t31 8t33 4q25 0 32.5 -9.5t7.5 -29.5q0 -81 -63 -81q-16 0 -34 5t-49.5 17t-41.5 15l-46 -41v-13q0 -27 2 -83t2 -80q0 -68 -7 -108q-7 -42 -48 -113t-49 -99q0 27 -17.5 85.5t-17.5 102.5q0 9 2 20z" />
    <glyph glyph-name="daggerdbl" unicode="&#x2021;" horiz-adv-x="555" 
d="M170 53q0 52 46 107l-21 27q-3 -1 -18 -7.5t-20 -8.5t-18 -7t-21 -6.5t-20 -3.5t-24 -2q-30 0 -41.5 9.5t-11.5 29.5q0 81 75 81q9 0 17 -1t16.5 -3.5t14 -4t15 -5.5t13 -6t14 -7.5t12.5 -6.5l54 48q9 61 16 97l-35 44q-3 -1 -18 -7.5t-20 -8.5t-18 -7t-21 -6.5t-20 -3.5
t-24 -2q-30 0 -41.5 9.5t-11.5 29.5q0 81 75 81q9 0 17 -1t16.5 -3.5t14 -4t15 -5.5t13 -6t14 -7.5t12.5 -6.5l41 36q-2 22 -8.5 62.5t-6.5 57.5q0 77 78 77q57 0 57 -47q0 -17 -7.5 -36t-24.5 -54t-28 -60l32 -39q7 2 33 11.5t37.5 13.5t30.5 8t34 4q25 0 32.5 -9.5
t7.5 -29.5q0 -81 -63 -81q-17 0 -34.5 4.5t-50 17t-40.5 15.5l-51 -44q-4 -34 -14 -100l40 -50q7 2 33 11.5t37.5 13.5t30.5 8t34 4q25 0 32.5 -9.5t7.5 -29.5q0 -81 -63 -81q-17 0 -34.5 4.5t-50 17t-40.5 15.5l-35 -31q21 -45 21 -67q0 -34 -41.5 -102t-52.5 -97
q-2 33 -21 83.5t-19 77.5z" />
    <glyph glyph-name="bullet" unicode="&#x2022;" horiz-adv-x="330" 
d="M69 246q0 39 32 71.5t73 32.5q33 0 54 -22.5t21 -55.5q0 -43 -32.5 -75.5t-72.5 -32.5q-33 0 -54 22t-21 60z" />
    <glyph glyph-name="ellipsis" unicode="&#x2026;" horiz-adv-x="717" 
d="M1 56q0 43 35 76.5t80 33.5q33 0 52 -19.5t19 -52.5q0 -45 -33 -78.5t-77 -33.5q-34 0 -55 21t-21 53zM231 56q0 43 35 76.5t80 33.5q33 0 52 -19.5t19 -52.5q0 -45 -33 -78.5t-77 -33.5q-34 0 -55 21t-21 53zM461 56q0 43 35 76.5t80 33.5q33 0 52 -19.5t19 -52.5
q0 -45 -33 -78.5t-77 -33.5q-34 0 -55 21t-21 53z" />
    <glyph glyph-name="perthousand" unicode="&#x2030;" horiz-adv-x="1005" 
d="M165 284q-112 0 -112 101q0 69 47 113.5t128 44.5q112 0 112 -98q0 -68 -47.5 -114.5t-127.5 -46.5zM179 314q34 0 50 45.5t16 96.5q0 57 -31 57q-32 0 -49 -44.5t-17 -97.5q0 -57 31 -57zM457 -14q-111 0 -111 100q0 69 47 114t127 45q113 0 113 -99q0 -67 -47.5 -113.5
t-128.5 -46.5zM472 16q34 0 49.5 45.5t15.5 96.5q0 57 -30 57q-22 0 -38 -24.5t-22.5 -56t-6.5 -62.5q0 -56 32 -56zM594 453l-253 -186l-211 -232q-39 -39 -59 -39q-12 0 -21 9.5t-9 22.5q0 28 42 58l254 184l197 224q40 47 66 47q14 0 24.5 -11t10.5 -23q0 -21 -41 -54z
M774 -14q-111 0 -111 100q0 69 47 114t127 45q113 0 113 -99q0 -67 -47.5 -113.5t-128.5 -46.5zM789 16q34 0 49.5 45.5t15.5 96.5q0 57 -30 57q-22 0 -38 -24.5t-22.5 -56t-6.5 -62.5q0 -56 32 -56z" />
    <glyph glyph-name="guilsinglleft" unicode="&#x2039;" horiz-adv-x="294" 
d="M201 49l-178 206l244 207l-106 -204z" />
    <glyph glyph-name="guilsinglright" unicode="&#x203a;" horiz-adv-x="293" 
d="M257 255l-243 -206l106 209l-40 204z" />
    <glyph glyph-name="uni203D" unicode="&#x203d;" horiz-adv-x="568" 
d="M308 225q6 52 60.5 164t54.5 162q0 80 -87 80q-37 0 -80 -16q76 95 181 95q67 0 106 -35t39 -88q0 -40 -24 -83t-60.5 -80t-74.5 -71t-71 -68.5t-44 -59.5zM239 219q-7 25 -67 125t-83 187q-11 42 -11 69q0 39 21 63.5t52 24.5q47 0 72.5 -61t25.5 -159q0 -42 -6.5 -115
t-6.5 -97q0 -22 3 -37zM149 53q0 43 35.5 78t80.5 35q32 0 51 -19.5t19 -51.5q0 -45 -35.5 -79t-78.5 -34q-32 0 -52 20t-20 51z" />
    <glyph glyph-name="fraction" unicode="&#x2044;" horiz-adv-x="250" 
d="M-62 3h-92l292 358l192 334h91l-278 -337z" />
    <glyph glyph-name="zerosuperior" unicode="&#x2070;" horiz-adv-x="459" 
d="M350 949q146 0 146 -178q0 -39 -5.5 -82t-22.5 -95t-44 -91.5t-74 -67t-107 -27.5q-159 0 -159 196q0 91 30.5 168.5t92.5 127t143 49.5zM327 914q-34 0 -58.5 -41.5t-36 -104t-16.5 -115t-5 -93.5q0 -117 48 -117q32 0 57 49.5t37 119.5t17.5 126.5t5.5 89.5
q0 86 -49 86z" />
    <glyph glyph-name="foursuperior" unicode="&#x2074;" horiz-adv-x="465" 
d="M377 416l-119 -9l22 135h-229l10 66l315 331h83l-47 -299h94l-24 -98h-85zM143 639l152 1l31 194z" />
    <glyph glyph-name="fivesuperior" unicode="&#x2075;" horiz-adv-x="399" 
d="M175 474q56 0 80.5 29t24.5 60q0 39 -45 71t-133 63l76 244h297l-29 -98h-256l-23 -64q116 -40 180 -88t64 -121q0 -70 -62.5 -116t-140.5 -46q-60 0 -105 29.5t-50 87.5q50 -51 122 -51z" />
    <glyph glyph-name="sixsuperior" unicode="&#x2076;" horiz-adv-x="478" 
d="M559 912q-152 2 -238.5 -67t-101.5 -181q55 74 137 74q50 0 84 -31t34 -89q0 -83 -66 -146t-166 -63q-77 0 -121.5 42.5t-44.5 128.5q0 67 28.5 130.5t81 116t138 85.5t189.5 35q34 0 52 -1q3 -16 -6 -34zM279 671q-29 0 -61 -13q-9 -66 -9 -102q0 -116 55 -116
q38 0 57.5 53t19.5 104q0 74 -62 74z" />
    <glyph glyph-name="sevensuperior" unicode="&#x2077;" horiz-adv-x="394" 
d="M484 907l-341 -490h-52l298 426h-293l34 98h360z" />
    <glyph glyph-name="eightsuperior" unicode="&#x2078;" horiz-adv-x="443" 
d="M224 403q-73 0 -119 25.5t-46 81.5q0 53 40 87t112 65q-84 61 -84 129q0 60 56 109.5t153 49.5q66 0 104 -25t38 -72q0 -12 -2 -22.5t-8.5 -20.5t-11 -17t-16 -15t-17 -12.5t-20.5 -12l-20 -10t-22.5 -10.5t-20.5 -9q1 -1 16.5 -12.5t20.5 -15.5t19.5 -16t21 -19.5
t17 -21t15.5 -24.5t9 -25.5t4 -28.5q0 -66 -67.5 -112t-171.5 -46zM238 438q32 0 59.5 28.5t27.5 62.5q0 57 -111 128q-16 -20 -26.5 -55.5t-10.5 -71.5q0 -40 15.5 -66t45.5 -26zM335 728q15 15 25.5 48t10.5 65q0 75 -52 75q-31 0 -48.5 -25t-17.5 -51q0 -44 82 -112z" />
    <glyph glyph-name="ninesuperior" unicode="&#x2079;" horiz-adv-x="478" 
d="M39 447q152 -2 238.5 67t101.5 181q-55 -74 -137 -74q-50 0 -84 31t-34 89q0 83 66 146t166 63q77 0 121.5 -42.5t44.5 -128.5q0 -68 -29 -132t-83.5 -117t-142 -85.5t-194.5 -32.5q-26 0 -40 1q-3 16 6 34zM319 688q29 0 61 13q9 66 9 102q0 116 -55 116
q-38 0 -57.5 -53t-19.5 -104q0 -74 62 -74z" />
    <glyph glyph-name="uni207A" unicode="&#x207a;" horiz-adv-x="333" 
d="M156 475l19 123h-106l13 76h106l18 115h74l-18 -115h109l-13 -76h-109l-19 -123h-74z" />
    <glyph glyph-name="minussuperior" unicode="&#x207b;" horiz-adv-x="360" 
d="M90 601l11 71h276l-11 -71h-276z" />
    <glyph glyph-name="uni207C" unicode="&#x207c;" horiz-adv-x="395" 
d="M81 544l11 71h310l-11 -71h-310zM100 662l11 70h310l-11 -70h-310z" />
    <glyph glyph-name="parenleftsuperior" unicode="&#x207d;" horiz-adv-x="216" 
d="M306 953q-68 -66 -102 -170.5t-34 -197.5q0 -128 47 -198q-136 74 -136 224q0 109 66 200t159 142z" />
    <glyph glyph-name="parenrightsuperior" unicode="&#x207e;" horiz-adv-x="216" 
d="M29 388q68 66 101.5 171t33.5 198q0 127 -46 197q136 -75 136 -224q0 -107 -65.5 -198.5t-159.5 -143.5z" />
    <glyph glyph-name="n.superior" unicode="&#x207f;" horiz-adv-x="480" 
d="M260 791l-47 -208q46 109 88.5 162.5t98.5 53.5q54 0 74 -36t11 -77l-12 -53q-21 -97 -21 -137q0 -30 10 -47t33 -34h-184l36 164l19 86q4 16 -2.5 30t-24.5 14q-46 0 -89.5 -92t-62.5 -202h-116l32 172q15 76 15 118q0 7 -0.5 13t-1 10.5t-2.5 9.5t-3 8t-4.5 7.5t-4.5 6
t-5.5 6l-6 6t-7 6.5t-7.5 6z" />
    <glyph glyph-name="zeroinferior" unicode="&#x2080;" horiz-adv-x="460" 
d="M285 534q146 0 146 -178q0 -39 -5.5 -82t-22.5 -95t-44 -91.5t-74 -67t-107 -27.5q-159 0 -159 196q0 91 30.5 168.5t92.5 127t143 49.5zM262 499q-34 0 -58.5 -41.5t-36 -104t-16.5 -115t-5 -93.5q0 -117 48 -117q32 0 57 49.5t37 119.5t17.5 126.5t5.5 89.5
q0 86 -49 86z" />
    <glyph glyph-name="oneinferior" unicode="&#x2081;" horiz-adv-x="290" 
d="M205 262q-15 -100 -15 -146q0 -13 1 -24.5t2 -19.5t5.5 -16.5t6 -12.5t8 -12t8 -10t10.5 -10.5t11 -10.5q-107 2 -137 2l-136 -2q47 31 59 46q29 37 51 164q4 22 8 48q18 110 18 153q0 40 -14.5 58.5t-55.5 40.5l222 25q-19 -72 -52 -273z" />
    <glyph glyph-name="twoinferior" unicode="&#x2082;" horiz-adv-x="412" 
d="M64 404q5 63 52 96t116 33q63 0 104 -32.5t41 -88.5q0 -32 -16 -64.5t-38.5 -57.5t-61 -55t-67 -48.5t-75 -47.5t-67.5 -43l313 4l-34 -100h-361l9 62q149 134 205.5 201.5t56.5 128.5q0 37 -19 56t-48 19q-35 0 -66 -17t-44 -46z" />
    <glyph glyph-name="threeinferior" unicode="&#x2083;" horiz-adv-x="379" 
d="M58 440q37 94 154 94q59 0 97 -25t38 -70q0 -50 -48 -86t-124 -46q78 -9 117 -46t39 -93q0 -77 -65 -127t-152 -50q-53 0 -89.5 22t-40.5 70q48 -29 103 -29q49 0 81 27t32 74q0 46 -33.5 66t-103.5 25l18 50q62 1 96.5 33t34.5 78q0 64 -68 64q-53 0 -86 -31z" />
    <glyph glyph-name="fourinferior" unicode="&#x2084;" horiz-adv-x="464" 
d="M311 1l-119 -9l22 135h-229l10 66l315 331h83l-47 -299h94l-24 -98h-85zM77 224l152 1l31 194z" />
    <glyph glyph-name="fiveinferior" unicode="&#x2085;" horiz-adv-x="402" 
d="M111 59q56 0 80.5 29t24.5 60q0 39 -45 71t-133 63l76 244h297l-29 -98h-256l-23 -64q116 -40 180 -88t64 -121q0 -70 -62.5 -116t-140.5 -46q-60 0 -105 29.5t-50 87.5q50 -51 122 -51z" />
    <glyph glyph-name="sixinferior" unicode="&#x2086;" horiz-adv-x="479" 
d="M494 497q-152 2 -238.5 -67t-101.5 -181q55 74 137 74q50 0 84 -31t34 -89q0 -83 -66 -146t-166 -63q-77 0 -121.5 42.5t-44.5 128.5q0 67 28.5 130.5t81 116t138 85.5t189.5 35q34 0 52 -1q3 -16 -6 -34zM214 256q-28 0 -61 -13q-9 -66 -9 -102q0 -116 55 -116
q38 0 57.5 53t19.5 104q0 74 -62 74z" />
    <glyph glyph-name="seveninferior" unicode="&#x2087;" horiz-adv-x="394" 
d="M418 492l-341 -490h-52l298 426h-293l34 98h360z" />
    <glyph glyph-name="eightinferior" unicode="&#x2088;" horiz-adv-x="443" 
d="M159 -12q-73 0 -119 25.5t-46 81.5q0 53 40 87t112 65q-84 61 -84 129q0 60 56 109.5t153 49.5q66 0 104 -25t38 -72q0 -12 -2 -22.5t-8.5 -20.5t-11 -17t-16 -15t-17 -12.5t-20.5 -12l-20 -10t-22.5 -10.5t-20.5 -9q1 -1 16.5 -12.5t20.5 -15.5t19.5 -16t21 -19.5
t17 -21t15.5 -24.5t9 -25.5t4 -28.5q0 -66 -67.5 -112t-171.5 -46zM173 23q32 0 59.5 28.5t27.5 62.5q0 57 -111 128q-16 -20 -26.5 -55.5t-10.5 -71.5q0 -40 15.5 -66t45.5 -26zM270 313q15 15 25.5 48t10.5 65q0 75 -52 75q-31 0 -48.5 -25t-17.5 -51q0 -44 82 -112z" />
    <glyph glyph-name="nineinferior" unicode="&#x2089;" horiz-adv-x="478" 
d="M-27 32q152 -2 238.5 67t101.5 181q-55 -74 -137 -74q-50 0 -84 31t-34 89q0 83 66 146t166 63q77 0 121.5 -42.5t44.5 -128.5q0 -68 -29 -132t-83.5 -117t-142 -85.5t-194.5 -32.5q-26 0 -40 1q-3 16 6 34zM253 273q29 0 61 13q9 66 9 102q0 116 -55 116
q-38 0 -57.5 -53t-19.5 -104q0 -74 62 -74z" />
    <glyph glyph-name="parenleft.inferior" unicode="&#x208d;" horiz-adv-x="216" 
d="M240 538q-68 -66 -102 -170.5t-34 -197.5q0 -128 47 -198q-136 74 -136 224q0 109 66 200t159 142z" />
    <glyph glyph-name="parenright.inferior" unicode="&#x208e;" horiz-adv-x="216" 
d="M-37 -27q68 66 101.5 171t33.5 198q0 127 -46 197q136 -75 136 -224q0 -107 -65.5 -198.5t-159.5 -143.5z" />
    <glyph glyph-name="colonsign" unicode="&#x20a1;" horiz-adv-x="744" 
d="M311 -81l34 68q-47 2 -69 6l-37 -74h-52l42 84q-185 51 -185 264q0 96 38.5 180.5t101 141.5t143.5 90t166 33q35 0 87 -8l33 65h51l-37 -74q50 -10 66 -12l43 86h52l-366 -731q112 12 229 180q-21 -73 -50 -198q-25 0 -90 -14t-114 -17l-35 -70h-51zM218 304
q0 -135 58 -206l274 545q-32 17 -67 17q-43 0 -87.5 -21.5t-85.5 -62.5t-66.5 -112.5t-25.5 -159.5zM312 65q27 -19 59 -25l251 501q-12 45 -36 72z" />
    <glyph glyph-name="uni20A2" unicode="&#x20a2;" horiz-adv-x="711" 
d="M478 411l-59 -288q8 20 20.5 52.5t20 51t18.5 45.5t19 42.5t19 35t20.5 30.5t21 21.5t24 15t25.5 4.5q35 0 51.5 -19t16.5 -48q0 -27 -18 -51t-45 -24q-9 0 -29 4.5t-27 4.5q-37 0 -75 -73t-67 -177q58 6 120.5 52t112.5 128q-21 -70 -51 -198q-23 0 -100.5 -16.5
t-144.5 -16.5q-151 0 -231.5 70.5t-80.5 209.5q0 127 65.5 231t167.5 159t216 55q50 0 121 -14.5t92 -14.5h11q-20 -92 -31 -196q-34 84 -79.5 128.5t-115.5 44.5q-49 0 -96 -22t-87.5 -64t-65 -111.5t-24.5 -156.5q0 -143 65 -215l7 34q20 100 20 154q0 33 -9 57.5
t-16.5 33.5t-29.5 31z" />
    <glyph glyph-name="franc" unicode="&#x20a3;" horiz-adv-x="846" 
d="M625 395l-59 -288q8 20 20.5 52.5t20 51t18.5 45.5t19 42.5t19 35t20.5 30.5t21 21.5t24 15t25.5 4.5q35 0 51.5 -19t16.5 -48q0 -27 -18 -51t-45 -24q-9 0 -29 4.5t-27 4.5q-39 0 -79.5 -80.5t-69.5 -191.5h-145l23 109q21 97 21 153q0 39 -12 68h-165l-13 -86
q-10 -63 -10 -105q0 -53 17 -78.5t64 -61.5q-111 4 -180 4l-161 -3q45 36 63 61.5t34 85t38 195.5q27 178 27 231q0 46 -11.5 71.5t-40.5 54.5q61 -3 147 -3q98 0 138 1q164 2 184 2q76 0 110 5q-8 -39 -15 -85q-13 -70 -20 -139q-6 9 -26 36.5t-25.5 34.5t-22.5 27.5
t-26 26t-27.5 17.5t-35 15.5t-39.5 7.5t-50 4l-62 -4q-19 -67 -36 -179l-13 -82q16 0 44 0.5t67.5 1.5t59.5 1z" />
    <glyph glyph-name="lira" unicode="&#x20a4;" horiz-adv-x="559" 
d="M563 610q-54 16 -98 15q-134 -2 -156 -144l-5 -32h187l-9 -56h-187l-9 -54h187l-9 -56h-188q-13 -53 -53 -90.5t-122 -58.5h191q87 0 122.5 14.5t54.5 44.5q23 -32 23 -67q0 -52 -49.5 -89t-135.5 -37h-318q119 174 133 259l3 24h-79l9 56h79l8 54h-78l9 56h78l7 43
q16 97 92 158.5t161 61.5q116 0 152 -102z" />
    <glyph glyph-name="mill" unicode="&#x20a5;" horiz-adv-x="970" 
d="M269 -148l88 152l36 152l35 182q5 21 -3 40t-32 19q-42 0 -83.5 -63.5t-70.5 -151.5t-45 -182h-141l42 227q21 114 21 160q0 29 -8 48t-16.5 27.5t-31.5 27.5l228 10l-58 -277q63 149 117.5 218t123.5 69q56 0 82 -39.5t22 -89.5l160 277h62l-106 -183q41 35 90 35
q52 0 78 -34.5t26 -81.5q0 -17 -3 -32l-16 -74q-29 -134 -29 -184q0 -39 13 -60.5t44 -43.5h-228l46 216l26 122q5 21 -3 40t-32 19q-42 0 -83.5 -63.5t-70.5 -151.5t-45 -182h-88l-85 -148h-62z" />
    <glyph glyph-name="uni20A6" unicode="&#x20a6;" horiz-adv-x="822" 
d="M76 420l8 51h68q5 52 5 79q0 55 -13 85.5t-45 63.5q24 -2 113 -2l87 2l161 -228h209q1 12 1 34q0 79 -22.5 117.5t-74.5 77.5q88 -3 152 -3l125 3q-50 -40 -72.5 -83t-42.5 -146h68l-8 -51h-70l-14 -87h70l-8 -50h-70q-21 -135 -43 -300q-14 -2 -33 -2q-21 0 -31 2
l-202 300h-209q-6 -51 -6 -88q0 -55 14 -93t31 -55.5t53 -46.5q-85 3 -149 3l-128 -3q37 31 56.5 58.5t35.5 78.5t33 146h-71l8 50h71l13 87h-70zM194 349l-3 -16h169l-59 87h-96zM496 420l61 -87h96l2 13l10 74h-169zM636 222l9 61h-52zM223 532l-10 -61h53q-3 4 -19 26.5
t-24 34.5z" />
    <glyph glyph-name="uni20A7" unicode="&#x20a7;" horiz-adv-x="1407" 
d="M140 3l-151 -3q45 36 63 62.5t33.5 85t37.5 195.5q27 169 27 232q0 45 -11.5 70.5t-39.5 53.5q95 -3 149 -3q30 0 98 1.5t82 1.5q106 0 162.5 -51.5t56.5 -128.5q0 -66 -29 -116t-78.5 -77.5t-107.5 -41t-124 -13.5q-30 0 -45 1l-4 -28q-11 -74 -11 -111
q0 -47 16.5 -74.5t59.5 -59.5q-115 4 -184 4zM1188 475q-26 0 -40 -17t-14 -36q0 -25 33 -58.5t73 -63t73 -73t33 -87.5q0 -66 -66 -108.5t-159 -42.5q-68 0 -123 23t-55 70q0 24 15 40t41 16q25 0 41 -17.5t23 -38t24.5 -38t44.5 -17.5q33 0 51 22t18 51q0 28 -20.5 55.5
t-49.5 50t-58.5 46t-50 54t-20.5 63.5q0 62 62.5 101.5t149.5 39.5q58 0 103.5 -18.5t45.5 -57.5q0 -23 -15.5 -41t-42.5 -18q-22 0 -36.5 15.5t-21 34.5t-21.5 34.5t-38 15.5zM647 445l6 45h81l23 105l147 20l-26 -125h133l-6 -45h-136l-56 -279q-5 -28 -5 -42
q0 -46 46 -46q39 0 80 28q-27 -61 -63 -89t-90 -28q-116 0 -116 117q0 25 6 55l53 280l1 4h-78zM293 466l-21 -137q27 -10 57 -10q63 0 105.5 47t42.5 139q0 59 -27.5 101.5t-78.5 42.5l-42 -4q-18 -69 -36 -179z" />
    <glyph glyph-name="uni20A8" unicode="&#x20a8;" horiz-adv-x="1030" 
d="M750 27q36 0 55.5 23t19.5 52q0 27 -20.5 53.5t-49.5 49t-58.5 46.5t-50 55t-20.5 64q0 62 63 101t157 39q141 0 141 -77q0 -24 -14.5 -41t-41.5 -17q-24 0 -39.5 15.5t-21.5 34.5t-20 34.5t-36 15.5q-26 0 -41 -17.5t-15 -36.5q0 -20 22 -45t53 -50t62 -52.5t53 -62.5
t22 -71q0 -65 -65 -109t-176 -44q-121 0 -194 22t-118 84q-35 47 -99 195q-11 0 -28 0.5t-21 0.5q-19 -128 -19 -176q0 -21 2.5 -35t14.5 -29t18 -21t31 -28q-104 3 -168 3l-155 -3q29 27 42 41t29.5 39t25.5 55.5t16 76.5l42 265q8 54 8 83q0 45 -12.5 73.5t-40.5 66.5
q96 -5 148 -5q28 0 98.5 2.5t91.5 2.5q110 0 167 -41t57 -117q0 -78 -54.5 -137t-133.5 -84q33 -95 82 -165q89 -129 191 -129zM336 647q-20 -71 -59 -305q38 -5 49 -5q88 0 126.5 48t38.5 119q0 63 -28.5 104.5t-80.5 41.5q-24 0 -46 -3z" />
    <glyph glyph-name="uni20A9" unicode="&#x20a9;" horiz-adv-x="1100" 
d="M93 414l8 51h67l-6 34q-19 94 -30 129.5t-37 71.5q107 -5 143 -5l150 5q-43 -25 -58.5 -48t-15.5 -53q0 -10 2 -34l10 -100h205l2 4l-6 30q-19 88 -33.5 126t-43.5 75q116 -5 153 -5l141 5q-43 -28 -58 -52t-15 -56q0 -10 2 -34q2 -49 8 -93h223q36 81 36 124
q0 13 -3.5 24.5t-6.5 19t-13 19t-13.5 15t-19 17t-18.5 16.5q113 -5 149 -5l114 5q-6 -6 -18.5 -20t-16.5 -18.5t-14 -16.5t-14.5 -18t-13.5 -19.5t-16 -25t-18 -30t-22.5 -39.5t-26.5 -48h88l-8 -51h-107l-46 -87h139l-8 -50h-157q-77 -149 -132 -276q-16 -3 -67 -3t-64 3
q-4 29 -18 123t-23 153h-72l-121 -276q-15 -3 -66 -3q-52 0 -65 3q-6 35 -20 131t-22 145h-129l8 50h113q-4 29 -14 87h-85zM688 414l14 -87h134l43 87h-191zM331 414l11 -87h124l41 87h-176zM710 277l26 -155l76 155h-102zM349 277l20 -157l73 157h-93zM546 395
q-5 -11 -15 -34t-15 -34h42z" />
    <glyph glyph-name="uni20AA" unicode="&#x20aa;" horiz-adv-x="876" 
d="M38 0l109 689q124 19 215 19q150 0 209.5 -49.5t59.5 -142.5q0 -31 -7 -80l-41 -259h-129l37 235q7 49 7 74q0 76 -37 109t-114 33q-35 0 -77 -6l-98 -622h-134zM866 700l-61 -389q-9 -55 -23.5 -98t-44.5 -87t-73.5 -72.5t-112.5 -46.5t-158 -18q-77 0 -158 11l85 538
h131l-75 -471q29 -5 65 -5q57 0 98 18.5t67 57t41.5 85.5t26.5 115l57 362h135z" />
    <glyph glyph-name="dong" unicode="&#x20ab;" horiz-adv-x="538" 
d="M208 571l7 45h155q1 28 -6 47t-15.5 27.5t-30.5 27.5l195 9l-23 -111h32l-7 -45h-34l-46 -230q-18 -91 -18 -134q0 -27 7.5 -46.5t15.5 -28t27 -25.5h-195l51 245q-92 -254 -190 -254q-47 0 -76.5 36.5t-29.5 103.5q0 115 78.5 209.5t199.5 94.5q24 0 53 -7l7 36h-157z
M185 180q30 0 82.5 97t78.5 205q-21 24 -56 24q-39 0 -71 -42t-48 -98.5t-16 -109.5q0 -76 30 -76zM10 2l8 54h441l-8 -54h-441z" />
    <glyph glyph-name="Euro" unicode="&#x20ac;" horiz-adv-x="617" 
d="M32 292l6 42h67q40 94 128.5 150.5t192.5 56.5q40 0 94 -11t70 -11h9q-15 -63 -24 -152q-32 66 -67 100.5t-85 34.5q-56 0 -104 -43.5t-68 -124.5h197l-14 -42h-191q-4 -27 -4 -62h175l-14 -41h-160q7 -82 40.5 -122t79.5 -40q78 0 181 130q1 2 3 4l5 7q-21 -76 -39 -153
q-18 0 -75.5 -12.5t-113.5 -12.5q-238 0 -242 199h-64l7 41h58q3 29 11 62h-59z" />
    <glyph glyph-name="uni20AD" unicode="&#x20ad;" horiz-adv-x="797" 
d="M268 697l149 3q-56 -42 -76 -94t-47 -216h44l3 2l110 112q80 82 80 131q0 42 -54 65q143 -5 173 -5l153 5q-96 -43 -163 -87t-152 -137l-43 -46l23 -40h156l-9 -60h-113q83 -143 127 -207q48 -68 93 -124q-128 4 -166 4l-172 -4q65 33 65 82q0 22 -15 52l-100 190l-6 7
h-43q-23 -155 -23 -208q0 -44 11 -67t42 -55q-94 3 -159 3l-154 -3q44 36 62 61.5t33.5 82.5t35.5 186h-58l9 60h59q20 134 20 186q0 46 -11.5 71t-39.5 53q92 -3 156 -3z" />
    <glyph glyph-name="uni20AE" unicode="&#x20ae;" horiz-adv-x="717" 
d="M60 456q14 68 30 173q2 15 9 75q44 -6 108 -6q6 0 110 -1t110 -1q5 0 104 1t106 1q66 0 109 6q-2 -10 -7 -33.5t-8 -41.5q-19 -119 -24 -173q-29 85 -84 139t-120 54q-12 -42 -38 -189l106 45l-9 -60l-107 -45l-12 -71l108 45l-10 -60l-107 -45q-16 -102 -16 -151
q0 -30 7.5 -51t17 -32t34.5 -35q-99 3 -163 3l-161 -3q40 29 56.5 46t31.5 52.5t28 101.5l-104 -44l10 61l106 44l11 70l-106 -44l10 61l106 44q34 216 32 257q-79 0 -149 -53.5t-125 -139.5z" />
    <glyph glyph-name="uni20B1" unicode="&#x20b1;" horiz-adv-x="735" 
d="M89 527l8 50h67q-1 44 -12 69t-39 53q95 -3 149 -3q30 0 98 1.5t82 1.5q84 0 137.5 -33.5t71.5 -88.5h92l-8 -50h-74v-8q0 -21 -6 -55h70l-8 -51h-80q-37 -73 -122 -108t-192 -35q-16 0 -46 2l-4 -28q-11 -74 -11 -111q0 -47 16.5 -74.5t59.5 -59.5q-115 4 -184 4
l-151 -3q45 36 63 62.5t33.5 85t37.5 195.5l10 70h-76l8 51h76l7 63h-73zM286 329q30 -10 56 -10q44 0 79.5 23.5t53.5 70.5h-176zM307 466l-1 -2h182q3 19 3 41q0 3 -0.5 11t-0.5 11h-173q-1 -5 -4.5 -26.5t-5.5 -34.5zM343 645q-7 -27 -16 -68h152q-28 72 -94 72z" />
    <glyph glyph-name="uni20B4" unicode="&#x20b4;" horiz-adv-x="619" 
d="M34 272l9 57h144l110 67l8 5h-251l9 57h317q51 50 51 105q0 41 -22 69.5t-71 28.5q-31 0 -60 -12.5t-57.5 -39t-48.5 -50t-51 -64.5q25 140 30 192h11q23 1 93.5 13t118.5 12q104 0 157 -39.5t53 -112.5q0 -59 -37 -102h58l-9 -57h-117q-22 -14 -66 -38t-61 -34h233
l-9 -57h-304q-63 -58 -63 -127q0 -54 25.5 -81.5t70.5 -27.5q36 0 69.5 14t62 38t53.5 51.5t52 59.5q7 9 11 14q-41 -116 -64 -204q-39 0 -110.5 -11t-119.5 -11q-215 0 -215 145q0 77 68 140h-78z" />
    <glyph glyph-name="uni20B9" unicode="&#x20b9;" horiz-adv-x="528" 
d="M66 473l9 55h455l-23 -55h-109q19 -25 20 -60h94l-23 -56h-83q-32 -75 -136 -110q40 -103 103 -181q29 -37 60 -42q-52 -53 -122 -53q-74 0 -109 54q-16 23 -44.5 91t-39.5 103h-92l9 54l112 1q96 2 110 83h-209l9 56h197q-15 52 -71 60h-117z" />
    <glyph glyph-name="uni20BA" unicode="&#x20ba;" horiz-adv-x="678" 
d="M59 397l10 61l82 25l35 217h151l-27 -169l180 54l-9 -60l-181 -55l-11 -70l180 54l-9 -60l-180 -55l-40 -254q23 -5 43 -5q79 0 137.5 61t77.5 181q4 19 4 45l150 16q0 -35 -7 -77q-23 -147 -134 -230t-285 -83q-24 0 -37 1q-47 1 -112 13l44 284l-82 -25l9 61l83 25
l11 70z" />
    <glyph glyph-name="uni2113" unicode="&#x2113;" horiz-adv-x="476" 
d="M286 522l-23 -147q57 46 93 106t36 123q0 22 -6.5 32t-25.5 10q-35 0 -49.5 -30.5t-24.5 -93.5zM102 289l31 197q6 40 23 77.5t45.5 72t74.5 55t103 20.5q63 0 99 -31t36 -81q0 -36 -18.5 -71.5t-54 -68t-63 -53.5t-71.5 -49.5t-53 -34.5l-21 -136q-5 -33 -5 -51
q0 -35 14.5 -48t43.5 -13q36 0 80 21l-4 -68q-49 -39 -141 -39q-70 0 -107.5 33t-37.5 92q0 15 3 32l15 92l-59 -42l-14 35z" />
    <glyph glyph-name="uni2116" unicode="&#x2116;" horiz-adv-x="980" 
d="M603 137l8 45h304l-8 -45h-304zM835 540q59 0 91 -34.5t32 -94.5q0 -82 -56 -136.5t-135 -54.5q-57 0 -92.5 31t-35.5 93q0 81 57.5 138.5t138.5 57.5zM778 246q35 0 57 52.5t22 133.5q0 45 -8 64t-28 19q-39 0 -60.5 -59t-21.5 -131q0 -79 39 -79zM508 190l11 69
q10 60 10 106q0 68 -20 101t-64 66q68 -3 119 -3l112 3q-34 -27 -50.5 -54t-29.5 -80t-31 -165q-16 -102 -36 -246q-5 -1 -32 -1t-31 1l-297 405l-20 -123q-10 -60 -10 -105q0 -47 13.5 -80t26 -45.5t45.5 -38.5q-70 2 -121 2l-111 -2q45 37 65.5 85.5t40.5 183.5
q14 98 14 141q0 41 -10 65.5t-35 55.5q18 -2 92 -2l93 2z" />
    <glyph glyph-name="uni2117" unicode="&#x2117;" horiz-adv-x="592" 
d="M248 -7q-104 0 -163 60.5t-59 159.5q0 129 93 224.5t222 95.5q100 0 156.5 -61.5t56.5 -161.5q0 -128 -87 -222.5t-219 -94.5zM255 54q95 0 161 68.5t66 176.5q0 85 -43 129t-114 44q-93 0 -160 -69t-67 -178q0 -84 42.5 -127.5t114.5 -43.5zM219 120l-71 -1q27 22 36 43
t21 100q11 71 11 93q0 29 -22 54q47 -2 71 -2q12 0 44 1t40 1q95 0 95 -75q0 -51 -41.5 -77t-98.5 -26q-18 0 -26 1l-2 -12q-5 -33 -5 -46q0 -19 7 -30t26 -26q-53 2 -85 2zM290 312l-9 -56q11 -3 20 -3q25 0 41.5 21t16.5 54q0 59 -48 59q-10 0 -21 -75z" />
    <glyph glyph-name="uni2120" unicode="&#x2120;" horiz-adv-x="1144" 
d="M77 403q43 -56 78.5 -82.5t72.5 -26.5q33 0 49.5 19t16.5 49q0 26 -16.5 41.5t-74.5 48.5q-41 24 -60 37.5t-35.5 38t-16.5 55.5q0 56 44.5 92.5t121.5 36.5q28 0 79 -6.5t66 -7.5h7q-1 -17 -1 -51q0 -54 1 -71q-47 53 -76 75.5t-60 22.5q-30 0 -44.5 -19t-14.5 -41
t16 -36.5t62 -41.5q81 -48 107.5 -75.5t26.5 -73.5q0 -129 -167 -129q-31 0 -82.5 7t-77.5 7q-9 72 -22 131zM789 367l146 338q45 -3 63 -3q83 0 110 3q-3 -3 -14.5 -15.5t-13 -15.5t-9.5 -15t-9.5 -21t-5 -26t-4.5 -37.5t-1 -48.5v-54q0 -111 9 -141.5t46 -64.5
q-91 2 -135 2l-98 -2q27 25 36 40.5t14 51t5 114.5v112l-138 -320q-5 -2 -39 -2t-39 2l-160 334v-126q0 -23 1 -42.5t2 -34t5 -28.5t5.5 -22.5t8.5 -18.5t9 -14t12 -12.5t12.5 -10.5t15 -11.5t15.5 -11.5q-54 2 -98 2l-86 -2q27 25 36 40.5t14 51t5 114.5v54q0 57 -8 92
t-16.5 47.5t-32.5 39.5q27 -3 89 -3l106 3z" />
    <glyph glyph-name="trademark" unicode="&#x2122;" horiz-adv-x="1290" 
d="M930 367l146 338q45 -3 63 -3q83 0 110 3q-3 -3 -14.5 -15.5t-13 -15.5t-9.5 -15t-9.5 -21t-5 -26t-4.5 -37.5t-1 -48.5v-54q0 -111 9 -141.5t46 -64.5q-91 2 -135 2l-98 -2q27 25 36 40.5t14 51t5 114.5v112l-138 -320q-5 -2 -39 -2t-39 2l-160 334v-126q0 -23 1 -42.5
t2 -34t5 -28.5t5.5 -22.5t8.5 -18.5t9 -14t12 -12.5t12.5 -10.5t15 -11.5t15.5 -11.5q-54 2 -98 2l-86 -2q27 25 36 40.5t14 51t5 114.5v54q0 57 -8 92t-16.5 47.5t-32.5 39.5q27 -3 89 -3l106 3zM115 545q2 24 2 116q0 14 -2 46q42 -4 75 -4q4 0 79.5 -1t80.5 -1q4 0 76 1
t77 1q38 0 75 4q-2 -32 -2 -46q0 -92 2 -116q-39 58 -73 89.5t-76 35.5q-4 1 -12 1q-7 -63 -7 -206q0 -78 5 -111.5t14.5 -48t39.5 -39.5q-77 2 -121 2l-120 -2q30 25 40 39.5t14.5 49.5t4.5 119q0 172 -5 197h-13q-63 -3 -94.5 -32t-59.5 -94z" />
    <glyph glyph-name="Omega" unicode="&#x2126;" horiz-adv-x="663" 
d="M387 624q-84 0 -142.5 -60.5t-58.5 -144.5q0 -106 118 -154l-41 -265h-272l15 98h181l18 111q-56 28 -86.5 70t-30.5 113q0 129 91.5 223.5t219.5 94.5q101 0 162 -62t61 -167q0 -100 -54.5 -169.5t-134.5 -102.5l-18 -111h180l-15 -98h-272l41 265q77 25 126.5 79
t49.5 134q0 67 -36 106.5t-102 39.5z" />
    <glyph glyph-name="estimated" unicode="&#x212e;" horiz-adv-x="612" 
d="M570 235h-428q-4 0 -4 -3v-137q0 -9 6 -17q26 -32 67.5 -53.5t89.5 -21.5q114 0 185 84h24q-85 -99 -209 -99q-115 0 -191 73.5t-76 180.5t76 180.5t191 73.5t192 -73.5t77 -180.5v-7zM465 255v137q0 13 -5 18q-22 28 -67 49.5t-92 21.5t-92 -23t-64 -51q-7 -11 -7 -19
v-133q0 -4 4 -4h322q1 0 1 4z" />
    <glyph glyph-name="onethird" unicode="&#x2153;" horiz-adv-x="970" 
d="M258 439q-15 -101 -15 -146q0 -13 1 -24.5t2 -19.5t5.5 -16.5t6 -12.5t8 -12t8 -10t10.5 -10.5t11 -10.5q-107 2 -137 2l-136 -2q47 31 59 46q29 37 51 164q4 22 8 48q18 109 18 153q0 40 -14.5 58.5t-55.5 40.5l222 25q-19 -72 -52 -273zM640 440q37 94 154 94
q59 0 97 -25t38 -70q0 -50 -48 -86t-124 -46q78 -9 117 -46t39 -93q0 -77 -65 -127t-152 -50q-53 0 -89.5 22t-40.5 70q48 -29 103 -29q49 0 81 27t32 74q0 46 -33.5 66t-103.5 25l18 50q62 1 96.5 33t34.5 78q0 64 -68 64q-53 0 -86 -31zM275 3h-92l292 358l192 334h91
l-278 -337z" />
    <glyph glyph-name="twothirds" unicode="&#x2154;" horiz-adv-x="1037" 
d="M113 582q5 63 52 96t116 33q63 0 104 -32.5t41 -88.5q0 -32 -16 -64.5t-38.5 -57.5t-61 -55t-67 -48.5t-75 -47.5t-67.5 -43l313 4l-34 -100h-361l9 62q149 134 205.5 201.5t56.5 128.5q0 37 -19 56t-48 19q-35 0 -66 -17t-44 -46zM708 440q37 94 154 94q59 0 97 -25
t38 -70q0 -50 -48 -86t-124 -46q78 -9 117 -46t39 -93q0 -77 -65 -127t-152 -50q-53 0 -89.5 22t-40.5 70q48 -29 103 -29q49 0 81 27t32 74q0 46 -33.5 66t-103.5 25l18 50q62 1 96.5 33t34.5 78q0 64 -68 64q-53 0 -86 -31zM354 3h-92l292 358l192 334h91l-278 -337z" />
    <glyph glyph-name="oneeighth" unicode="&#x215b;" horiz-adv-x="991" 
d="M259 439q-15 -101 -15 -146q0 -13 1 -24.5t2 -19.5t5.5 -16.5t6 -12.5t8 -12t8 -10t10.5 -10.5t11 -10.5q-107 2 -137 2l-136 -2q47 31 59 46q29 37 51 164q4 22 8 48q18 109 18 153q0 40 -14.5 58.5t-55.5 40.5l222 25q-19 -72 -52 -273zM281 3h-92l292 358l192 334h91
l-278 -337zM693 -12q-73 0 -119 25.5t-46 81.5q0 53 40 87t112 65q-84 61 -84 129q0 60 56 109.5t153 49.5q66 0 104 -25t38 -72q0 -12 -2 -22.5t-8.5 -20.5t-11 -17t-16 -15t-17 -12.5t-20.5 -12l-20 -10t-22.5 -10.5t-20.5 -9q1 -1 16.5 -12.5t20.5 -15.5t19.5 -16
t21 -19.5t17 -21t15.5 -24.5t9 -25.5t4 -28.5q0 -66 -67.5 -112t-171.5 -46zM707 23q32 0 59.5 28.5t27.5 62.5q0 57 -111 128q-16 -20 -26.5 -55.5t-10.5 -71.5q0 -40 15.5 -66t45.5 -26zM804 313q15 15 25.5 48t10.5 65q0 75 -52 75q-31 0 -48.5 -25t-17.5 -51
q0 -44 82 -112z" />
    <glyph glyph-name="threeeighths" unicode="&#x215c;" horiz-adv-x="1012" 
d="M106 617q37 94 154 94q59 0 97 -25t38 -70q0 -50 -48 -86t-124 -46q78 -9 117 -46t39 -93q0 -77 -65 -127t-152 -50q-53 0 -89.5 22t-40.5 70q48 -29 103 -29q49 0 81 27t32 74q0 46 -33.5 66t-103.5 25l18 50q62 1 96.5 33t34.5 78q0 64 -68 64q-53 0 -86 -31zM298 3
h-92l292 358l192 334h91l-278 -337zM714 -12q-73 0 -119 25.5t-46 81.5q0 53 40 87t112 65q-84 61 -84 129q0 60 56 109.5t153 49.5q66 0 104 -25t38 -72q0 -12 -2 -22.5t-8.5 -20.5t-11 -17t-16 -15t-17 -12.5t-20.5 -12l-20 -10t-22.5 -10.5t-20.5 -9q1 -1 16.5 -12.5
t20.5 -15.5t19.5 -16t21 -19.5t17 -21t15.5 -24.5t9 -25.5t4 -28.5q0 -66 -67.5 -112t-171.5 -46zM728 23q32 0 59.5 28.5t27.5 62.5q0 57 -111 128q-16 -20 -26.5 -55.5t-10.5 -71.5q0 -40 15.5 -66t45.5 -26zM825 313q15 15 25.5 48t10.5 65q0 75 -52 75q-31 0 -48.5 -25
t-17.5 -51q0 -44 82 -112z" />
    <glyph glyph-name="fiveeighths" unicode="&#x215d;" horiz-adv-x="1033" 
d="M154 228q56 0 80.5 29t24.5 60q0 39 -45 71t-133 63l76 244h297l-29 -98h-256l-23 -64q116 -40 180 -88t64 -121q0 -70 -62.5 -116t-140.5 -46q-60 0 -105 29.5t-50 87.5q50 -51 122 -51zM305 3h-92l292 358l192 334h91l-278 -337zM735 -12q-73 0 -119 25.5t-46 81.5
q0 53 40 87t112 65q-84 61 -84 129q0 60 56 109.5t153 49.5q66 0 104 -25t38 -72q0 -12 -2 -22.5t-8.5 -20.5t-11 -17t-16 -15t-17 -12.5t-20.5 -12l-20 -10t-22.5 -10.5t-20.5 -9q1 -1 16.5 -12.5t20.5 -15.5t19.5 -16t21 -19.5t17 -21t15.5 -24.5t9 -25.5t4 -28.5
q0 -66 -67.5 -112t-171.5 -46zM749 23q32 0 59.5 28.5t27.5 62.5q0 57 -111 128q-16 -20 -26.5 -55.5t-10.5 -71.5q0 -40 15.5 -66t45.5 -26zM846 313q15 15 25.5 48t10.5 65q0 75 -52 75q-31 0 -48.5 -25t-17.5 -51q0 -44 82 -112z" />
    <glyph glyph-name="seveneighths" unicode="&#x215e;" horiz-adv-x="945" 
d="M467 662l-341 -490h-52l298 426h-293l34 98h360zM212 3h-92l292 358l192 334h91l-278 -337zM644 -12q-73 0 -119 25.5t-46 81.5q0 53 40 87t112 65q-84 61 -84 129q0 60 56 109.5t153 49.5q66 0 104 -25t38 -72q0 -12 -2 -22.5t-8.5 -20.5t-11 -17t-16 -15t-17 -12.5
t-20.5 -12l-20 -10t-22.5 -10.5t-20.5 -9q1 -1 16.5 -12.5t20.5 -15.5t19.5 -16t21 -19.5t17 -21t15.5 -24.5t9 -25.5t4 -28.5q0 -66 -67.5 -112t-171.5 -46zM658 23q32 0 59.5 28.5t27.5 62.5q0 57 -111 128q-16 -20 -26.5 -55.5t-10.5 -71.5q0 -40 15.5 -66t45.5 -26z
M755 313q15 15 25.5 48t10.5 65q0 75 -52 75q-31 0 -48.5 -25t-17.5 -51q0 -44 82 -112z" />
    <glyph glyph-name="uni2190" unicode="&#x2190;" horiz-adv-x="768" 
d="M278 275q-3 -15 -3 -36q0 -78 30 -181q-142 157 -287 222q160 71 287 222q-30 -104 -30 -158q0 -27 4 -54q108 0 263 34t226 42v-169q-51 7 -214.5 42.5t-275.5 35.5z" />
    <glyph glyph-name="arrowup" unicode="&#x2191;" horiz-adv-x="520" 
d="M261 451q0 -108 34 -263t42 -226h-169q7 51 42.5 214.5t35.5 275.5q-15 3 -36 3q-78 0 -181 -30q157 142 222 287q71 -160 222 -287q-104 30 -158 30q-27 0 -54 -4z" />
    <glyph glyph-name="uni2192" unicode="&#x2192;" horiz-adv-x="768" 
d="M490 275q-112 0 -275.5 -35.5t-214.5 -42.5v169q71 -8 226 -42t263 -34q4 27 4 54q0 54 -30 158q127 -151 287 -222q-145 -65 -287 -222q30 103 30 181q0 21 -3 36z" />
    <glyph glyph-name="arrowdown" unicode="&#x2193;" horiz-adv-x="520" 
d="M261 223q27 -4 54 -4q54 0 158 30q-151 -127 -222 -287q-65 145 -222 287q103 -30 181 -30q21 0 36 3q0 112 -35.5 275.5t-42.5 214.5h169q-8 -71 -42 -226t-34 -263z" />
    <glyph glyph-name="uni2196" unicode="&#x2196;" horiz-adv-x="630" 
d="M233 476q60 -60 123 -105t142 -94t136 -92l-119 -120q-46 57 -131 190.5t-161 209.5q-43 -33 -69 -67.5t-63 -101.5q3 39 3 77q0 155 -49 283q126 -48 292 -48q20 0 68 2q-129 -71 -172 -134z" />
    <glyph glyph-name="uni2197" unicode="&#x2197;" horiz-adv-x="630" 
d="M446 476q-43 63 -172 134q48 -2 68 -2q166 0 292 48q-49 -128 -49 -283q0 -38 3 -77q-37 67 -63 101.5t-69 67.5q-76 -76 -161 -209.5t-131 -190.5l-119 120q57 43 136 92t142 94t123 105z" />
    <glyph glyph-name="uni2198" unicode="&#x2198;" horiz-adv-x="630" 
d="M447 248q-60 60 -123 105t-142 94t-136 92l119 120q46 -57 131 -190.5t161 -209.5q43 33 69 67.5t63 101.5q-3 -39 -3 -77q0 -155 49 -283q-126 48 -292 48q-20 0 -68 -2q129 71 172 134z" />
    <glyph glyph-name="uni2199" unicode="&#x2199;" horiz-adv-x="630" 
d="M234 248q43 -63 172 -134q-48 2 -68 2q-166 0 -292 -48q49 128 49 283q0 38 -3 77q37 -67 63 -101.5t69 -67.5q76 76 161 209.5t131 190.5l119 -120q-57 -43 -136 -92t-142 -94t-123 -105z" />
    <glyph glyph-name="partialdiff" unicode="&#x2202;" horiz-adv-x="569" 
d="M335 510q17 0 25 -1q-26 129 -124 229q139 -52 213.5 -164.5t74.5 -255.5q0 -142 -72.5 -236.5t-213.5 -94.5q-108 0 -161.5 57.5t-53.5 158.5q0 95 46.5 167t116 106t149.5 34zM372 358q0 62 -5 102q-23 10 -43 10q-66 0 -108 -71.5t-42 -192.5q0 -81 20.5 -130.5
t62.5 -49.5q58 0 86.5 92.5t28.5 239.5z" />
    <glyph glyph-name="Delta" unicode="&#x2206;" horiz-adv-x="547" 
d="M-22 0l369 761l129 -761h-498zM128 97h228l-56 370z" />
    <glyph glyph-name="product" unicode="&#x220f;" horiz-adv-x="834" 
d="M285 697q59 -2 194 -2q136 0 197 2l186 3q-36 -28 -49.5 -41.5t-31 -52t-28 -93t-27.5 -164.5q-25 -153 -25 -219q0 -47 11.5 -73.5t39.5 -56.5q-123 3 -188 3l-125 -3q41 34 61.5 66t36.5 93.5t37 189.5l43 274q-47 1 -148 1t-149 -1l-43 -274q-26 -161 -26 -220
q0 -46 11.5 -73t39.5 -56q-65 3 -129 3l-184 -3q42 34 62 65.5t36.5 93.5t37.5 190q28 184 28 234q0 31 -7 52t-16 32t-31 33z" />
    <glyph glyph-name="summation" unicode="&#x2211;" horiz-adv-x="516" 
d="M361 299l-5 -31l-255 -318h321l-13 -81h-433l2 68l269 347l-160 347l20 69h433l-12 -81h-313z" />
    <glyph glyph-name="minus" unicode="&#x2212;" horiz-adv-x="475" 
d="M50 248l14 91h359l-14 -91h-359z" />
    </font>
</defs>
</svg>
