<svg xmlns="http://www.w3.org/2000/svg" viewBox="0 0 587.8 321.6"><defs><style>.cls-1{fill:#f0faf5;}.cls-2{fill:#00ad5c;}.cls-3{isolation:isolate;}.cls-4{fill:#00914d;}.cls-5{fill:#f5f6fe;}.cls-6{fill:#606fea;}.cls-7{fill:none;}</style></defs><title>menu-navigation</title><g id="Layer_2" data-name="Layer 2"><g id="Layer_1-2" data-name="Layer 1"><path class="cls-1" d="M147.9,28.1H254.3a3,3,0,0,1,3,3V55.2a3,3,0,0,1-3,3H147.9a3,3,0,0,1-3-3V31.1A3.08,3.08,0,0,1,147.9,28.1Z"/><path class="cls-2" d="M254.3,58.7H147.9a3.42,3.42,0,0,1-3.5-3.5V31.1a3.54,3.54,0,0,1,3.5-3.5H254.3a3.42,3.42,0,0,1,3.5,3.5V55.2A3.42,3.42,0,0,1,254.3,58.7ZM147.9,28.6a2.61,2.61,0,0,0-2.5,2.5V55.2a2.48,2.48,0,0,0,2.5,2.5H254.3a2.48,2.48,0,0,0,2.5-2.5V31.1a2.48,2.48,0,0,0-2.5-2.5Z"/><g class="cls-3"><path class="cls-4" d="M158.6,39.1h6.1v1.4h-4.4v2.6h3.9v1.4h-3.9v2.6h4.5v1.4h-6.2Z"/><path class="cls-4" d="M174.1,48.5h-1.7L168.2,42h-.1v6.5h-1.7V39.1h1.7l4.2,6.5h.1V39.1h1.7Z"/><path class="cls-4" d="M175.6,39.1h7.5v1.4h-2.9v8h-1.7v-8h-2.9Z"/><path class="cls-4" d="M184.5,39.1h3.6c2.1,0,3.3,1.2,3.3,3a2.62,2.62,0,0,1-1.7,2.6l2,3.8h-1.9L187.9,45h-1.8v3.5h-1.7V39.1Zm3.5,4.5c1.2,0,1.7-.6,1.7-1.6a1.47,1.47,0,0,0-1.6-1.6h-1.8v3.1H188Z"/><path class="cls-4" d="M194.3,39.1l2.3,4.2h.1l2.3-4.2h1.9L197.5,45v3.5h-1.7V45l-3.4-5.9Z"/><path class="cls-4" d="M205.4,39.1h3.5a3,3,0,0,1,3.3,3.1,3,3,0,0,1-3.3,3.1h-1.8v3.2h-1.7Zm3.3,4.8c1.3,0,1.8-.7,1.8-1.7a1.61,1.61,0,0,0-1.8-1.7h-1.6v3.4Z"/><path class="cls-4" d="M217.9,48.6c-2.5,0-4.3-1.8-4.3-4.8s1.9-4.8,4.3-4.8,4.3,1.8,4.3,4.8S220.3,48.6,217.9,48.6Zm0-8.1c-1.5,0-2.6,1.2-2.6,3.3s1.1,3.3,2.6,3.3,2.6-1.2,2.6-3.3S219.4,40.5,217.9,40.5Z"/><path class="cls-4" d="M225.5,48.5h-1.7V39.1h1.7Z"/><path class="cls-4" d="M235.1,48.5h-1.7L229.2,42h-.1v6.5h-1.7V39.1h1.7l4.2,6.5h.1V39.1h1.7Z"/><path class="cls-4" d="M236.5,39.1H244v1.4h-2.9v8h-1.7v-8h-2.9Z"/></g><path class="cls-1" d="M3.5,102.4H159.9a3,3,0,0,1,3,3v24.1a3,3,0,0,1-3,3H3.5a3,3,0,0,1-3-3V105.4A3.08,3.08,0,0,1,3.5,102.4Z"/><path class="cls-2" d="M159.9,133H3.5A3.42,3.42,0,0,1,0,129.5V105.4a3.54,3.54,0,0,1,3.5-3.5H159.9a3.42,3.42,0,0,1,3.5,3.5v24.1A3.48,3.48,0,0,1,159.9,133ZM3.5,102.9A2.61,2.61,0,0,0,1,105.4v24.1A2.48,2.48,0,0,0,3.5,132H159.9a2.48,2.48,0,0,0,2.5-2.5V105.4a2.48,2.48,0,0,0-2.5-2.5Z"/><g class="cls-3"><path class="cls-4" d="M13.2,113.3h3.6c2.1,0,3.3,1.2,3.3,3a2.62,2.62,0,0,1-1.7,2.6l2,3.8H18.5l-1.9-3.5H14.8v3.5H13.1v-9.4Zm3.5,4.6c1.2,0,1.7-.6,1.7-1.6a1.47,1.47,0,0,0-1.6-1.6H15v3.1h1.7Z"/><path class="cls-4" d="M21.7,113.3h6.1v1.4H23.4v2.6h3.9v1.4H23.4v2.6h4.5v1.4H21.7Z"/><path class="cls-4" d="M32.9,114.6c-1.1,0-1.7.5-1.7,1.2s.8,1.1,1.6,1.3l.9.2c1.4.3,2.8,1.1,2.8,2.7s-1.3,2.8-3.6,2.8-3.6-1.1-3.7-2.9h1.7c.1,1,.9,1.5,2,1.5s1.9-.5,1.9-1.3-.7-1.1-1.7-1.3l-1.1-.3c-1.6-.4-2.5-1.2-2.5-2.5,0-1.7,1.5-2.8,3.5-2.8s3.4,1.1,3.4,2.7H34.8A1.79,1.79,0,0,0,32.9,114.6Z"/><path class="cls-4" d="M45.7,113.3v6.2c0,2.1-1.7,3.3-3.8,3.3s-3.8-1.2-3.8-3.3v-6.2h1.7v6.2c0,1.2.9,1.8,2.1,1.8a1.88,1.88,0,0,0,2.1-1.8v-6.2Z"/><path class="cls-4" d="M49.6,113.3l2.8,6.8h.1l2.8-6.8h2.1v9.4H55.7v-6.6h-.1L53,122.5H51.7L49.1,116H49v6.6H47.3v-9.4h2.3Z"/><path class="cls-4" d="M59.4,113.3h6.1v1.4H61.1v2.6H65v1.4H61.1v2.6h4.5v1.4H59.4Z"/><path class="cls-4" d="M70.5,113.3H74a3,3,0,0,1,3.3,3.1,3,3,0,0,1-3.3,3.1H72.2v3.2H70.5Zm3.3,4.9c1.3,0,1.8-.7,1.8-1.7a1.61,1.61,0,0,0-1.8-1.7H72.2v3.4Z"/><path class="cls-4" d="M77.2,122.8l3.5-9.4h1.8l3.5,9.4H84.2l-.7-2.1H79.7l-.7,2.1Zm5.8-3.6-1.3-3.8h-.1l-1.3,3.8Z"/><path class="cls-4" d="M90.6,114.6c-1.1,0-1.7.5-1.7,1.2s.8,1.1,1.6,1.3l.9.2c1.4.3,2.8,1.1,2.8,2.7s-1.3,2.8-3.6,2.8-3.6-1.1-3.7-2.9h1.7c.1,1,.9,1.5,2,1.5s1.9-.5,1.9-1.3-.7-1.1-1.7-1.3l-1.1-.3c-1.6-.4-2.5-1.2-2.5-2.5,0-1.7,1.5-2.8,3.5-2.8s3.4,1.1,3.4,2.7H92.5A1.79,1.79,0,0,0,90.6,114.6Z"/><path class="cls-4" d="M95.2,113.3h7.5v1.4H99.8v8H98.1v-8H95.2Z"/><path class="cls-4" d="M110.8,114.6c-1.1,0-1.7.5-1.7,1.2s.8,1.1,1.6,1.3l.9.2c1.4.3,2.8,1.1,2.8,2.7s-1.3,2.8-3.6,2.8-3.6-1.1-3.7-2.9h1.7c.1,1,.9,1.5,2,1.5s1.9-.5,1.9-1.3-.7-1.1-1.7-1.3l-1.1-.3c-1.6-.4-2.5-1.2-2.5-2.5,0-1.7,1.5-2.8,3.5-2.8s3.4,1.1,3.4,2.7h-1.6A1.79,1.79,0,0,0,110.8,114.6Z"/><path class="cls-4" d="M115.4,113.3h7.5v1.4H120v8h-1.7v-8h-2.9Z"/><path class="cls-4" d="M128.5,122.9c-2.5,0-4.3-1.8-4.3-4.8s1.9-4.8,4.3-4.8,4.3,1.8,4.3,4.8S131,122.9,128.5,122.9Zm0-8.2c-1.5,0-2.6,1.2-2.6,3.3s1.1,3.3,2.6,3.3,2.6-1.2,2.6-3.3S130,114.7,128.5,114.7Z"/><path class="cls-4" d="M134.4,113.3H138c2.1,0,3.3,1.2,3.3,3a2.62,2.62,0,0,1-1.7,2.6l2,3.8h-1.9l-1.9-3.5H136v3.5h-1.7v-9.4Zm3.5,4.6c1.2,0,1.7-.6,1.7-1.6a1.47,1.47,0,0,0-1.6-1.6h-1.8v3.1h1.7Z"/><path class="cls-4" d="M144.2,113.3l2.3,4.2h.1l2.3-4.2h1.9l-3.4,5.9v3.5h-1.7v-3.5l-3.4-5.9Z"/></g><path class="cls-1" d="M180.4,102.4H376.8a3,3,0,0,1,3,3v24.1a3,3,0,0,1-3,3H180.4a3,3,0,0,1-3-3V105.4A3.08,3.08,0,0,1,180.4,102.4Z"/><path class="cls-2" d="M376.8,133H180.4a3.42,3.42,0,0,1-3.5-3.5V105.4a3.54,3.54,0,0,1,3.5-3.5H376.8a3.42,3.42,0,0,1,3.5,3.5v24.1A3.48,3.48,0,0,1,376.8,133ZM180.4,102.9a2.61,2.61,0,0,0-2.5,2.5v24.1a2.48,2.48,0,0,0,2.5,2.5H376.8a2.48,2.48,0,0,0,2.5-2.5V105.4a2.48,2.48,0,0,0-2.5-2.5Z"/><g class="cls-3"><path class="cls-4" d="M194.7,122.8v-9.4H198c2.8,0,4.5,1.8,4.5,4.7s-1.7,4.7-4.6,4.7Zm3.1-1.5c2,0,3-1.1,3-3.2s-1-3.2-2.9-3.2h-1.5v6.5h1.4Z"/><path class="cls-4" d="M205.8,122.8h-1.7v-9.4h1.7Z"/><path class="cls-4" d="M207.7,113.3h3.6c2.1,0,3.3,1.2,3.3,3a2.62,2.62,0,0,1-1.7,2.6l2,3.8H213l-1.9-3.5h-1.8v3.5h-1.7v-9.4Zm3.4,4.6c1.2,0,1.7-.6,1.7-1.6a1.47,1.47,0,0,0-1.6-1.6h-1.8v3.1h1.7Z"/><path class="cls-4" d="M216.1,113.3h6.1v1.4h-4.4v2.6h3.9v1.4h-3.9v2.6h4.5v1.4h-6.2Z"/><path class="cls-4" d="M230.4,116.5a2.16,2.16,0,0,0-2.2-1.8c-1.5,0-2.6,1.2-2.6,3.3s1.1,3.3,2.6,3.3a2.08,2.08,0,0,0,2.2-1.7h1.7a3.93,3.93,0,0,1-4,3.3c-2.5,0-4.3-1.8-4.3-4.8s1.9-4.8,4.3-4.8a3.76,3.76,0,0,1,4,3.3h-1.7Z"/><path class="cls-4" d="M233.3,113.3h7.5v1.4h-2.9v8h-1.7v-8h-2.9Z"/><path class="cls-4" d="M242.2,113.3h1.7v8h4.2v1.4h-5.9v-9.4Z"/><path class="cls-4" d="M249.9,113.3l2.3,4.2h.1l2.3-4.2h1.9l-3.4,5.9v3.5h-1.7v-3.5l-3.4-5.9Z"/><path class="cls-4" d="M267.4,116.5a2.16,2.16,0,0,0-2.2-1.8c-1.5,0-2.6,1.2-2.6,3.3s1.1,3.3,2.6,3.3a2.08,2.08,0,0,0,2.2-1.7h1.7a3.93,3.93,0,0,1-4,3.3c-2.5,0-4.3-1.8-4.3-4.8s1.9-4.8,4.3-4.8a3.76,3.76,0,0,1,4,3.3h-1.7Z"/><path class="cls-4" d="M270.6,113.3h1.7v4h4.2v-4h1.7v9.4h-1.7v-4h-4.2v4h-1.7Z"/><path class="cls-4" d="M284.3,122.9c-2.5,0-4.3-1.8-4.3-4.8s1.9-4.8,4.3-4.8,4.3,1.8,4.3,4.8S286.7,122.9,284.3,122.9Zm0-8.2c-1.5,0-2.6,1.2-2.6,3.3s1.1,3.3,2.6,3.3,2.6-1.2,2.6-3.3S285.8,114.7,284.3,114.7Z"/><path class="cls-4" d="M294.3,122.9c-2.5,0-4.3-1.8-4.3-4.8s1.9-4.8,4.3-4.8,4.3,1.8,4.3,4.8S296.8,122.9,294.3,122.9Zm0-8.2c-1.5,0-2.6,1.2-2.6,3.3s1.1,3.3,2.6,3.3,2.6-1.2,2.6-3.3S295.8,114.7,294.3,114.7Z"/><path class="cls-4" d="M303.6,114.6c-1.1,0-1.7.5-1.7,1.2s.8,1.1,1.6,1.3l.9.2c1.4.3,2.8,1.1,2.8,2.7s-1.3,2.8-3.6,2.8-3.6-1.1-3.7-2.9h1.7c.1,1,.9,1.5,2,1.5s1.9-.5,1.9-1.3-.7-1.1-1.7-1.3l-1.1-.3c-1.6-.4-2.5-1.2-2.5-2.5,0-1.7,1.5-2.8,3.5-2.8s3.4,1.1,3.4,2.7h-1.6A1.79,1.79,0,0,0,303.6,114.6Z"/><path class="cls-4" d="M308.7,113.3h6.1v1.4h-4.4v2.6h3.9v1.4h-3.9v2.6h4.5v1.4h-6.2Z"/><path class="cls-4" d="M323.1,114.6c-1.1,0-1.7.5-1.7,1.2s.8,1.1,1.6,1.3l.9.2c1.4.3,2.8,1.1,2.8,2.7s-1.3,2.8-3.6,2.8-3.6-1.1-3.7-2.9h1.7c.1,1,.9,1.5,2,1.5s1.9-.5,1.9-1.3-.7-1.1-1.7-1.3l-1.1-.3c-1.6-.4-2.5-1.2-2.5-2.5,0-1.7,1.5-2.8,3.5-2.8s3.4,1.1,3.4,2.7H325A1.79,1.79,0,0,0,323.1,114.6Z"/><path class="cls-4" d="M327.8,113.3h7.5v1.4h-2.9v8h-1.7v-8h-2.9Z"/><path class="cls-4" d="M340.8,122.9c-2.5,0-4.3-1.8-4.3-4.8s1.9-4.8,4.3-4.8,4.3,1.8,4.3,4.8S343.3,122.9,340.8,122.9Zm0-8.2c-1.5,0-2.6,1.2-2.6,3.3s1.1,3.3,2.6,3.3,2.6-1.2,2.6-3.3S342.4,114.7,340.8,114.7Z"/><path class="cls-4" d="M346.8,113.3h3.6c2.1,0,3.3,1.2,3.3,3a2.62,2.62,0,0,1-1.7,2.6l2,3.8h-1.9l-1.9-3.5h-1.8v3.5h-1.7v-9.4Zm3.4,4.6c1.2,0,1.7-.6,1.7-1.6a1.47,1.47,0,0,0-1.6-1.6h-1.8v3.1h1.7Z"/><path class="cls-4" d="M356.6,113.3l2.3,4.2h.1l2.3-4.2h1.9l-3.4,5.9v3.5h-1.7v-3.5l-3.4-5.9Z"/></g><path class="cls-1" d="M397.3,102.4H500.7a3,3,0,0,1,3,3v24.1a3,3,0,0,1-3,3H397.3a3,3,0,0,1-3-3V105.4A3.08,3.08,0,0,1,397.3,102.4Z"/><path class="cls-2" d="M500.7,133H397.3a3.42,3.42,0,0,1-3.5-3.5V105.4a3.54,3.54,0,0,1,3.5-3.5H500.7a3.42,3.42,0,0,1,3.5,3.5v24.1A3.48,3.48,0,0,1,500.7,133ZM397.3,102.9a2.61,2.61,0,0,0-2.5,2.5v24.1a2.48,2.48,0,0,0,2.5,2.5H500.7a2.48,2.48,0,0,0,2.5-2.5V105.4a2.48,2.48,0,0,0-2.5-2.5Z"/><g class="cls-3"><path class="cls-4" d="M408.4,113.3h1.7v8h4.2v1.4h-5.9v-9.4Z"/><path class="cls-4" d="M417.4,122.8h-1.7v-9.4h1.7Z"/><path class="cls-4" d="M422.7,114.6c-1.1,0-1.7.5-1.7,1.2s.8,1.1,1.6,1.3l.9.2c1.4.3,2.8,1.1,2.8,2.7s-1.3,2.8-3.6,2.8-3.6-1.1-3.7-2.9h1.7c.1,1,.9,1.5,2,1.5s1.9-.5,1.9-1.3-.7-1.1-1.7-1.3l-1.1-.3c-1.6-.4-2.5-1.2-2.5-2.5,0-1.7,1.5-2.8,3.5-2.8s3.4,1.1,3.4,2.7h-1.6A1.87,1.87,0,0,0,422.7,114.6Z"/><path class="cls-4" d="M427.3,113.3h7.5v1.4h-2.9v8h-1.7v-8h-2.9Z"/><path class="cls-4" d="M443.6,113.2a3.85,3.85,0,0,1,4,3.1h-1.8a2.17,2.17,0,0,0-2.2-1.6c-1.5,0-2.6,1.2-2.6,3.3s1.1,3.3,2.7,3.3a2.18,2.18,0,0,0,2.3-2.2h-2.1v-1.3h3.8v1.1a3.75,3.75,0,0,1-4,3.9c-2.6,0-4.4-1.9-4.4-4.8S441.1,113.2,443.6,113.2Z"/><path class="cls-4" d="M449.3,113.3h6.1v1.4H451v2.6h3.9v1.4H451v2.6h4.5v1.4h-6.2Z"/><path class="cls-4" d="M464.8,122.8h-1.7l-4.2-6.5h-.1v6.5h-1.7v-9.4h1.7l4.2,6.5h.1v-6.5h1.7Z"/><path class="cls-4" d="M466.7,113.3h3.6c2.1,0,3.3,1.2,3.3,3a2.62,2.62,0,0,1-1.7,2.6l2,3.8H472l-1.9-3.5h-1.8v3.5h-1.7v-9.4Zm3.4,4.6c1.2,0,1.7-.6,1.7-1.6a1.47,1.47,0,0,0-1.6-1.6h-1.8v3.1h1.7Z"/><path class="cls-4" d="M475.2,113.3h6.1v1.4h-4.4v2.6h3.9v1.4h-3.9v2.6h4.5v1.4h-6.2Z"/><path class="cls-4" d="M486.4,114.6c-1.1,0-1.7.5-1.7,1.2s.8,1.1,1.6,1.3l.9.2c1.4.3,2.8,1.1,2.8,2.7s-1.3,2.8-3.6,2.8-3.6-1.1-3.7-2.9h1.7c.1,1,.9,1.5,2,1.5s1.9-.5,1.9-1.3-.7-1.1-1.7-1.3l-1.1-.3c-1.6-.4-2.5-1.2-2.5-2.5,0-1.7,1.5-2.8,3.5-2.8s3.4,1.1,3.4,2.7h-1.6A1.79,1.79,0,0,0,486.4,114.6Z"/></g><path class="cls-1" d="M313.7,171H437.1a3,3,0,0,1,3,3v24.1a3,3,0,0,1-3,3H313.7a3,3,0,0,1-3-3V174A3.08,3.08,0,0,1,313.7,171Z"/><path class="cls-2" d="M437.1,201.6H313.7a3.42,3.42,0,0,1-3.5-3.5V174a3.54,3.54,0,0,1,3.5-3.5H437.1a3.42,3.42,0,0,1,3.5,3.5v24.1A3.42,3.42,0,0,1,437.1,201.6ZM313.7,171.5a2.61,2.61,0,0,0-2.5,2.5v24.1a2.48,2.48,0,0,0,2.5,2.5H437.1a2.48,2.48,0,0,0,2.5-2.5V174a2.48,2.48,0,0,0-2.5-2.5Z"/><g class="cls-3"><path class="cls-4" d="M331.6,185.2a2.16,2.16,0,0,0-2.2-1.8c-1.5,0-2.6,1.2-2.6,3.3s1.1,3.3,2.6,3.3a2.08,2.08,0,0,0,2.2-1.7h1.7a3.93,3.93,0,0,1-4,3.3c-2.5,0-4.3-1.8-4.3-4.8s1.9-4.8,4.3-4.8a3.76,3.76,0,0,1,4,3.3h-1.7Z"/><path class="cls-4" d="M334.8,182h1.7v4h4.2v-4h1.7v9.4h-1.7v-4h-4.2v4h-1.7Z"/><path class="cls-4" d="M348.4,191.6c-2.5,0-4.3-1.8-4.3-4.8s1.9-4.8,4.3-4.8,4.3,1.8,4.3,4.8S350.9,191.6,348.4,191.6Zm0-8.2c-1.5,0-2.6,1.2-2.6,3.3s1.1,3.3,2.6,3.3,2.6-1.2,2.6-3.3S350,183.4,348.4,183.4Z"/><path class="cls-4" d="M358.5,191.6c-2.5,0-4.3-1.8-4.3-4.8s1.9-4.8,4.3-4.8,4.3,1.8,4.3,4.8S361,191.6,358.5,191.6Zm0-8.2c-1.5,0-2.6,1.2-2.6,3.3s1.1,3.3,2.6,3.3,2.6-1.2,2.6-3.3S360,183.4,358.5,183.4Z"/><path class="cls-4" d="M367.8,183.3c-1.1,0-1.7.5-1.7,1.2s.8,1.1,1.6,1.3l.9.2c1.4.3,2.8,1.1,2.8,2.7s-1.3,2.8-3.6,2.8-3.6-1.1-3.7-2.9h1.7c.1,1,.9,1.5,2,1.5s1.9-.5,1.9-1.3-.7-1.1-1.7-1.3l-1.1-.3c-1.6-.4-2.5-1.2-2.5-2.5,0-1.7,1.5-2.8,3.5-2.8s3.4,1.1,3.4,2.7h-1.6A1.79,1.79,0,0,0,367.8,183.3Z"/><path class="cls-4" d="M372.9,182H379v1.4h-4.4V186h3.9v1.4h-3.9V190h4.5v1.4h-6.2Z"/><path class="cls-4" d="M388,181.9a3.85,3.85,0,0,1,4,3.1h-1.8a2.17,2.17,0,0,0-2.2-1.6c-1.5,0-2.6,1.2-2.6,3.3s1.1,3.3,2.7,3.3a2.18,2.18,0,0,0,2.3-2.2h-2.1v-1.3h3.8v1.1a3.75,3.75,0,0,1-4,3.9c-2.6,0-4.4-1.9-4.4-4.8S385.6,181.9,388,181.9Z"/><path class="cls-4" d="M393.8,182h6.1v1.4h-4.4V186h3.9v1.4h-3.9V190H400v1.4h-6.2Z"/><path class="cls-4" d="M409.3,191.4h-1.7l-4.2-6.5h-.1v6.5h-1.7V182h1.7l4.2,6.5h.1V182h1.7Z"/><path class="cls-4" d="M411.2,182h3.6c2.1,0,3.3,1.2,3.3,3a2.62,2.62,0,0,1-1.7,2.6l2,3.8h-1.9l-1.9-3.5h-1.8v3.5h-1.7V182Zm3.4,4.6c1.2,0,1.7-.6,1.7-1.6a1.47,1.47,0,0,0-1.6-1.6h-1.8v3.1h1.7Z"/><path class="cls-4" d="M419.7,182h6.1v1.4h-4.4V186h3.9v1.4h-3.9V190h4.5v1.4h-6.2Z"/></g><path class="cls-1" d="M460.9,171H584.3a3,3,0,0,1,3,3v24.1a3,3,0,0,1-3,3H460.9a3,3,0,0,1-3-3V174A3.08,3.08,0,0,1,460.9,171Z"/><path class="cls-2" d="M584.3,201.6H460.9a3.42,3.42,0,0,1-3.5-3.5V174a3.54,3.54,0,0,1,3.5-3.5H584.3a3.42,3.42,0,0,1,3.5,3.5v24.1A3.48,3.48,0,0,1,584.3,201.6ZM460.9,171.5a2.61,2.61,0,0,0-2.5,2.5v24.1a2.48,2.48,0,0,0,2.5,2.5H584.3a2.48,2.48,0,0,0,2.5-2.5V174a2.48,2.48,0,0,0-2.5-2.5Z"/><g class="cls-3"><path class="cls-4" d="M498,181.9a3.85,3.85,0,0,1,4,3.1h-1.8a2.17,2.17,0,0,0-2.2-1.6c-1.5,0-2.6,1.2-2.6,3.3s1.1,3.3,2.6,3.3a2.18,2.18,0,0,0,2.3-2.2h-2.1v-1.3H502v1.1a3.75,3.75,0,0,1-4,3.9c-2.6,0-4.4-1.9-4.4-4.8S495.5,181.9,498,181.9Z"/><path class="cls-4" d="M507.8,191.6c-2.5,0-4.3-1.8-4.3-4.8s1.9-4.8,4.3-4.8,4.3,1.8,4.3,4.8S510.3,191.6,507.8,191.6Zm0-8.2c-1.5,0-2.6,1.2-2.6,3.3s1.1,3.3,2.6,3.3,2.6-1.2,2.6-3.3S509.4,183.4,507.8,183.4Z"/><path class="cls-4" d="M517,182h3.5c2.2,0,3.2,1.1,3.2,2.6a2,2,0,0,1-1.6,2v.1A2.14,2.14,0,0,1,524,189c0,1.5-1.1,2.5-3.3,2.5H517Zm3.4,4c1,0,1.7-.5,1.7-1.3s-.4-1.3-1.6-1.3h-1.8V186Zm.3,4c1.2,0,1.7-.5,1.7-1.3a1.43,1.43,0,0,0-1.6-1.4h-2V190Z"/><path class="cls-4" d="M524.9,191.4l3.5-9.4h1.8l3.5,9.4h-1.8l-.7-2.1h-3.8l-.7,2.1Zm5.9-3.5-1.3-3.8h-.1l-1.3,3.8Z"/><path class="cls-4" d="M541,185.2a2.16,2.16,0,0,0-2.2-1.8c-1.5,0-2.6,1.2-2.6,3.3s1.1,3.3,2.6,3.3a2.08,2.08,0,0,0,2.2-1.7h1.7a3.93,3.93,0,0,1-4,3.3c-2.5,0-4.3-1.8-4.3-4.8s1.9-4.8,4.3-4.8a3.76,3.76,0,0,1,4,3.3H541Z"/><path class="cls-4" d="M544.3,182H546v4.3h.1l3.7-4.3h2.1l-3.7,4.2,3.7,5.2h-2.1l-2.8-4-1,1.2v2.8h-1.7V182Z"/></g><path class="cls-1" d="M313.7,231H437.1a3,3,0,0,1,3,3v24.1a3,3,0,0,1-3,3H313.7a3,3,0,0,1-3-3V234A3.08,3.08,0,0,1,313.7,231Z"/><path class="cls-2" d="M437.1,261.6H313.7a3.42,3.42,0,0,1-3.5-3.5V234a3.54,3.54,0,0,1,3.5-3.5H437.1a3.42,3.42,0,0,1,3.5,3.5v24.1A3.42,3.42,0,0,1,437.1,261.6ZM313.7,231.5a2.61,2.61,0,0,0-2.5,2.5v24.1a2.48,2.48,0,0,0,2.5,2.5H437.1a2.48,2.48,0,0,0,2.5-2.5V234a2.48,2.48,0,0,0-2.5-2.5Z"/><g class="cls-3"><path class="cls-4" d="M331,245.2a2.16,2.16,0,0,0-2.2-1.8c-1.5,0-2.6,1.2-2.6,3.3s1.1,3.3,2.6,3.3a2.08,2.08,0,0,0,2.2-1.7h1.7a3.93,3.93,0,0,1-4,3.3c-2.5,0-4.3-1.8-4.3-4.8s1.9-4.8,4.3-4.8a3.76,3.76,0,0,1,4,3.3H331Z"/><path class="cls-4" d="M334.3,242H336v4h4.2v-4h1.7v9.4h-1.7v-4H336v4h-1.7Z"/><path class="cls-4" d="M347.9,251.5c-2.5,0-4.3-1.8-4.3-4.8s1.9-4.8,4.3-4.8,4.3,1.8,4.3,4.8S350.4,251.5,347.9,251.5Zm0-8.1c-1.5,0-2.6,1.2-2.6,3.3s1.1,3.3,2.6,3.3,2.6-1.2,2.6-3.3S349.4,243.4,347.9,243.4Z"/><path class="cls-4" d="M357.9,251.5c-2.5,0-4.3-1.8-4.3-4.8s1.9-4.8,4.3-4.8,4.3,1.8,4.3,4.8S360.4,251.5,357.9,251.5Zm0-8.1c-1.5,0-2.6,1.2-2.6,3.3s1.1,3.3,2.6,3.3,2.6-1.2,2.6-3.3S359.5,243.4,357.9,243.4Z"/><path class="cls-4" d="M367.3,243.3c-1.1,0-1.7.5-1.7,1.2s.8,1.1,1.6,1.3l.9.2c1.4.3,2.8,1.1,2.8,2.7s-1.3,2.8-3.6,2.8-3.6-1.1-3.7-2.9h1.7c.1,1,.9,1.5,2,1.5s1.9-.5,1.9-1.3-.7-1.1-1.7-1.3l-1.1-.3c-1.6-.4-2.5-1.2-2.5-2.5,0-1.7,1.5-2.8,3.5-2.8s3.4,1.1,3.4,2.7h-1.6A1.87,1.87,0,0,0,367.3,243.3Z"/><path class="cls-4" d="M372.3,242h6.1v1.4H374V246h3.9v1.4H374V250h4.5v1.4h-6.2Z"/><path class="cls-4" d="M386.8,243.3c-1.1,0-1.7.5-1.7,1.2s.8,1.1,1.6,1.3l.9.2c1.4.3,2.8,1.1,2.8,2.7s-1.3,2.8-3.6,2.8-3.6-1.1-3.7-2.9h1.7c.1,1,.9,1.5,2,1.5s1.9-.5,1.9-1.3-.7-1.1-1.7-1.3l-1.1-.3c-1.6-.4-2.5-1.2-2.5-2.5,0-1.7,1.5-2.8,3.5-2.8s3.4,1.1,3.4,2.7h-1.6A1.79,1.79,0,0,0,386.8,243.3Z"/><path class="cls-4" d="M391.4,242h7.5v1.4H396v8h-1.7v-8h-2.9Z"/><path class="cls-4" d="M404.5,251.5c-2.5,0-4.3-1.8-4.3-4.8s1.9-4.8,4.3-4.8,4.3,1.8,4.3,4.8S407,251.5,404.5,251.5Zm0-8.1c-1.5,0-2.6,1.2-2.6,3.3s1.1,3.3,2.6,3.3,2.6-1.2,2.6-3.3S406,243.4,404.5,243.4Z"/><path class="cls-4" d="M410.4,242H414c2.1,0,3.3,1.2,3.3,3a2.62,2.62,0,0,1-1.7,2.6l2,3.8h-1.9l-1.9-3.5H412v3.5h-1.7V242Zm3.5,4.5c1.2,0,1.7-.6,1.7-1.6a1.47,1.47,0,0,0-1.6-1.6h-1.8v3.1h1.7Z"/><path class="cls-4" d="M420.2,242l2.3,4.2h.1l2.3-4.2h1.9l-3.4,5.9v3.5h-1.7v-3.5l-3.4-5.9Z"/></g><path class="cls-5" d="M313.7,291H437.1a3,3,0,0,1,3,3v24.1a3,3,0,0,1-3,3H313.7a3,3,0,0,1-3-3V294A3.08,3.08,0,0,1,313.7,291Z"/><path class="cls-6" d="M437.1,321.6H313.7a3.42,3.42,0,0,1-3.5-3.5V294a3.54,3.54,0,0,1,3.5-3.5H437.1a3.42,3.42,0,0,1,3.5,3.5v24.1A3.42,3.42,0,0,1,437.1,321.6ZM313.7,291.5a2.61,2.61,0,0,0-2.5,2.5v24.1a2.48,2.48,0,0,0,2.5,2.5H437.1a2.48,2.48,0,0,0,2.5-2.5V294a2.48,2.48,0,0,0-2.5-2.5Z"/><path class="cls-6" d="M331.9,303.3c-1.1,0-1.7.5-1.7,1.2s.8,1.1,1.6,1.3l.9.2c1.4.3,2.8,1.1,2.8,2.7s-1.3,2.8-3.6,2.8-3.6-1.1-3.7-2.9h1.7c.1,1,.9,1.5,2,1.5s1.9-.5,1.9-1.3-.7-1.1-1.7-1.3l-1.1-.3c-1.6-.4-2.5-1.2-2.5-2.5,0-1.7,1.5-2.8,3.5-2.8s3.4,1.1,3.4,2.7h-1.6A1.7,1.7,0,0,0,331.9,303.3Z"/><path class="cls-6" d="M336.6,302h7.5v1.4h-2.9v8h-1.7v-8h-2.9Z"/><path class="cls-6" d="M349.6,311.5c-2.5,0-4.3-1.8-4.3-4.8s1.9-4.8,4.3-4.8,4.3,1.8,4.3,4.8S352.1,311.5,349.6,311.5Zm0-8.1c-1.5,0-2.6,1.2-2.6,3.3s1.1,3.3,2.6,3.3,2.6-1.2,2.6-3.3S351.2,303.4,349.6,303.4Z"/><path class="cls-6" d="M355.6,302h3.6c2.1,0,3.3,1.2,3.3,3a2.62,2.62,0,0,1-1.7,2.6l2,3.8h-1.9l-1.9-3.5h-1.8v3.5h-1.7V302Zm3.4,4.5c1.2,0,1.7-.6,1.7-1.6a1.47,1.47,0,0,0-1.6-1.6h-1.8v3.1H359Z"/><path class="cls-6" d="M365.4,302l2.3,4.2h.1l2.3-4.2H372l-3.4,5.9v3.5h-1.7v-3.5l-3.4-5.9Z"/><path class="cls-6" d="M376.5,302H380c2.2,0,3.2,1.1,3.2,2.6a2,2,0,0,1-1.6,2v.1a2.14,2.14,0,0,1,1.9,2.3c0,1.5-1.1,2.5-3.3,2.5h-3.7Zm3.3,4c1,0,1.7-.5,1.7-1.3s-.4-1.3-1.6-1.3h-1.8V306Zm.3,4c1.2,0,1.7-.5,1.7-1.3a1.43,1.43,0,0,0-1.6-1.4h-2V310Z"/><path class="cls-6" d="M385,302h6.1v1.4h-4.4V306h3.9v1.4h-3.9V310h4.5v1.4H385Z"/><path class="cls-6" d="M396.9,301.8a3.85,3.85,0,0,1,4,3.1h-1.8a2.17,2.17,0,0,0-2.2-1.6c-1.5,0-2.6,1.2-2.6,3.3s1.1,3.3,2.7,3.3a2.18,2.18,0,0,0,2.3-2.2h-2.1v-1.3H401v1.1a3.75,3.75,0,0,1-4,3.9c-2.6,0-4.4-1.9-4.4-4.8S394.5,301.8,396.9,301.8Z"/><path class="cls-6" d="M404.4,311.4h-1.7V302h1.7Z"/><path class="cls-6" d="M413.9,311.4h-1.7l-4.2-6.5h-.1v6.5h-1.7V302h1.7l4.2,6.5h.1V302h1.7Z"/><path class="cls-6" d="M419.1,303.3c-1.1,0-1.7.5-1.7,1.2s.8,1.1,1.6,1.3l.9.2c1.4.3,2.8,1.1,2.8,2.7s-1.3,2.8-3.6,2.8-3.6-1.1-3.7-2.9h1.7c.1,1,.9,1.5,2,1.5s1.9-.5,1.9-1.3-.7-1.1-1.7-1.3l-1.1-.3c-1.6-.4-2.5-1.2-2.5-2.5,0-1.7,1.5-2.8,3.5-2.8s3.4,1.1,3.4,2.7H421A1.7,1.7,0,0,0,419.1,303.3Z"/><path class="cls-1" d="M460.9,231H584.3a3,3,0,0,1,3,3v24.1a3,3,0,0,1-3,3H460.9a3,3,0,0,1-3-3V234A3.08,3.08,0,0,1,460.9,231Z"/><path class="cls-2" d="M584.3,261.6H460.9a3.42,3.42,0,0,1-3.5-3.5V234a3.54,3.54,0,0,1,3.5-3.5H584.3a3.42,3.42,0,0,1,3.5,3.5v24.1A3.48,3.48,0,0,1,584.3,261.6ZM460.9,231.5a2.61,2.61,0,0,0-2.5,2.5v24.1a2.48,2.48,0,0,0,2.5,2.5H584.3a2.48,2.48,0,0,0,2.5-2.5V234a2.48,2.48,0,0,0-2.5-2.5Z"/><g class="cls-3"><path class="cls-4" d="M498,241.8a3.85,3.85,0,0,1,4,3.1h-1.8a2.17,2.17,0,0,0-2.2-1.6c-1.5,0-2.6,1.2-2.6,3.3s1.1,3.3,2.6,3.3a2.18,2.18,0,0,0,2.3-2.2h-2.1v-1.3H502v1.1a3.75,3.75,0,0,1-4,3.9c-2.6,0-4.4-1.9-4.4-4.8S495.5,241.8,498,241.8Z"/><path class="cls-4" d="M507.8,251.5c-2.5,0-4.3-1.8-4.3-4.8s1.9-4.8,4.3-4.8,4.3,1.8,4.3,4.8S510.3,251.5,507.8,251.5Zm0-8.1c-1.5,0-2.6,1.2-2.6,3.3s1.1,3.3,2.6,3.3,2.6-1.2,2.6-3.3S509.4,243.4,507.8,243.4Z"/><path class="cls-4" d="M517,242h3.5c2.2,0,3.2,1.1,3.2,2.6a2,2,0,0,1-1.6,2v.1A2.14,2.14,0,0,1,524,249c0,1.5-1.1,2.5-3.3,2.5H517Zm3.4,4c1,0,1.7-.5,1.7-1.3s-.4-1.3-1.6-1.3h-1.8V246Zm.3,4c1.2,0,1.7-.5,1.7-1.3a1.43,1.43,0,0,0-1.6-1.4h-2V250Z"/><path class="cls-4" d="M524.9,251.4l3.5-9.4h1.8l3.5,9.4h-1.8l-.7-2.1h-3.8l-.7,2.1Zm5.9-3.5-1.3-3.8h-.1l-1.3,3.8Z"/><path class="cls-4" d="M541,245.2a2.16,2.16,0,0,0-2.2-1.8c-1.5,0-2.6,1.2-2.6,3.3s1.1,3.3,2.6,3.3a2.08,2.08,0,0,0,2.2-1.7h1.7a3.93,3.93,0,0,1-4,3.3c-2.5,0-4.3-1.8-4.3-4.8s1.9-4.8,4.3-4.8a3.76,3.76,0,0,1,4,3.3H541Z"/><path class="cls-4" d="M544.3,242H546v4.3h.1l3.7-4.3h2.1l-3.7,4.2,3.7,5.2h-2.1l-2.8-4-1,1.2v2.8h-1.7V242Z"/></g><path class="cls-4" d="M142.8.1l2.8,6.8h.1L148.5.1h2.1V9.5h-1.7V2.9h-.1l-2.6,6.4h-1.3l-2.6-6.5h-.1V9.4h-1.7V0h2.3Z"/><path class="cls-4" d="M152.6.1h6.1V1.5h-4.4V4.1h3.9V5.5h-3.9V8.1h4.5V9.5h-6.2Z"/><path class="cls-4" d="M168.1,9.5h-1.7L162.2,3h-.1V9.5h-1.7V.1h1.7l4.2,6.5h.1V.1h1.7Z"/><path class="cls-4" d="M177.6.1V6.3c0,2.1-1.7,3.3-3.8,3.3S170,8.4,170,6.3V.1h1.7V6.3c0,1.2.9,1.8,2.1,1.8a1.88,1.88,0,0,0,2.1-1.8V.1Z"/><path class="cls-4" d="M190.3,9.5h-1.7L184.4,3h-.1V9.5h-1.7V.1h1.7l4.2,6.5h.1V.1h1.7Z"/><path class="cls-4" d="M191.6,9.5,195.1.1h1.8l3.5,9.4h-1.8l-.7-2.1h-3.8l-.7,2.1ZM197.4,6l-1.3-3.8H196L194.7,6Z"/><path class="cls-4" d="M204.3,7.4h.1L206.9.1h1.9l-3.4,9.4h-2L200,.1h1.9Z"/><path class="cls-4" d="M211.7,9.5H210V.1h1.7Z"/><path class="cls-4" d="M217.6,0a3.85,3.85,0,0,1,4,3.1h-1.8a2.17,2.17,0,0,0-2.2-1.6c-1.5,0-2.6,1.2-2.6,3.3s1.1,3.3,2.6,3.3a2.18,2.18,0,0,0,2.3-2.2h-2.1V4.6h3.8V5.7a3.75,3.75,0,0,1-4,3.9c-2.6,0-4.4-1.9-4.4-4.8S215.2,0,217.6,0Z"/><path class="cls-4" d="M222.8,9.5,226.3.1h1.8l3.5,9.4h-1.8l-.7-2.1h-3.8l-.7,2.1ZM228.6,6l-1.3-3.8h-.1L225.9,6Z"/><path class="cls-4" d="M231.4.1h7.5V1.5H236v8h-1.7v-8h-2.9Z"/><path class="cls-4" d="M242,9.5h-1.7V.1H242Z"/><path class="cls-4" d="M248,9.7c-2.5,0-4.3-1.8-4.3-4.8S245.6.1,248,.1s4.3,1.8,4.3,4.8S250.5,9.7,248,9.7Zm0-8.2c-1.5,0-2.6,1.2-2.6,3.3s1.1,3.3,2.6,3.3,2.6-1.2,2.6-3.3S249.5,1.5,248,1.5Z"/><path class="cls-4" d="M261.6,9.5h-1.7L255.7,3h-.1V9.5h-1.7V.1h1.7l4.2,6.5h.1V.1h1.7Z"/><line class="cls-7" x1="201.1" y1="58.2" x2="201.1" y2="102.4"/><rect class="cls-2" x="200.6" y="58.2" width="1" height="44.2"/><polygon class="cls-2" points="449.5 102.4 448.5 102.4 448.5 81.9 82.2 81.9 82.2 102.4 81.2 102.4 81.2 80.9 449.5 80.9 449.5 102.4"/><rect class="cls-2" x="440.1" y="185.6" width="17.7" height="1"/><rect class="cls-2" x="440.1" y="246" width="17.7" height="1"/><polygon class="cls-2" points="380.3 171 379.3 171 379.3 153.5 448.5 153.5 448.5 132.5 449.5 132.5 449.5 154.5 380.3 154.5 380.3 171"/><rect class="cls-2" x="379.3" y="201.1" width="1" height="29.9"/><rect class="cls-2" x="379.3" y="261.1" width="1" height="29.9"/><rect class="cls-2" x="200.6" y="132.5" width="1" height="176"/><polygon class="cls-2" points="310.7 308.9 81.2 308.9 81.2 132.5 82.2 132.5 82.2 307.9 310.7 307.9 310.7 308.9"/></g></g></svg>