<svg xmlns="http://www.w3.org/2000/svg" viewBox="0 0 978.5 330.7"><defs><style>.cls-1{fill:#f2f2f2;}.cls-2{font-size:56.08px;font-family:ProximaSoftExCn-Extrabld, Proxima Soft Extra Condensed;font-weight:700;}.cls-2,.cls-3{fill:#cac4ff;}.cls-3{font-size:42px;font-family:SFProDisplay-Medium, SF Pro Display;}.cls-4{letter-spacing:-0.02em;}.cls-5{letter-spacing:-0.01em;}</style></defs><title>flow_8</title><g id="Layer_2" data-name="Layer 2"><g id="Layer_1-2" data-name="Layer 1"><rect class="cls-1" x="293" y="116.32" width="110.74" height="110.74"/><path d="M403.75,234.56H293a7.5,7.5,0,0,1-7.5-7.5V116.32a7.5,7.5,0,0,1,7.5-7.5H403.75a7.5,7.5,0,0,1,7.5,7.5V227.06A7.5,7.5,0,0,1,403.75,234.56Zm-103.25-15h95.75V123.82H300.5Z"/><rect class="cls-1" x="327.76" y="81.56" width="110.74" height="110.74"/><path d="M438.5,199.81H327.75a7.5,7.5,0,0,1-7.5-7.5V81.56a7.5,7.5,0,0,1,7.5-7.5H438.5a7.5,7.5,0,0,1,7.5,7.5V192.31A7.5,7.5,0,0,1,438.5,199.81Zm-103.25-15H431V89.06H335.25Z"/><path d="M352.86,156.59V115.53c0-4.2,2.22-6.42,6.35-6.42h13.87a5.24,5.24,0,0,1,0,10.47h-8.25v10.3h7.69a5.23,5.23,0,1,1,0,10.46h-7.69v16.25a6,6,0,1,1-12,0Z"/><path d="M414.93,156.67a5.86,5.86,0,0,1-11.41,2l-5.39-13.8-5.32,13.8a6.18,6.18,0,0,1-5.54,4,5.88,5.88,0,0,1-5.87-6,6.06,6.06,0,0,1,.48-2.38L391.07,135l-8.56-18.23a5.49,5.49,0,0,1-.48-2.38,5.78,5.78,0,0,1,5.79-5.86,6,6,0,0,1,5.55,4l4.76,12.92,4.75-12.92a6,6,0,0,1,5.55-4,5.85,5.85,0,0,1,5.87,5.86,5.79,5.79,0,0,1-.56,2.38L405.18,135l9.2,19.34A4.88,4.88,0,0,1,414.93,156.67Z"/><path d="M152.5,231.31H7.5a7.5,7.5,0,0,1-7.5-7.5V177.93a7.5,7.5,0,0,1,15,0v38.38H145V177.93a7.5,7.5,0,0,1,15,0v45.88A7.5,7.5,0,0,1,152.5,231.31Z"/><path d="M47,147.24c12.36,0,17.91,11.57,17.91,27.35S59.32,201.94,47,201.94,29,190.36,29,174.59,34.59,147.24,47,147.24Zm0,10.62c-4.21,0-5.63,7-5.63,16.73s1.42,16.72,5.63,16.72,5.62-7.05,5.62-16.72S51.16,157.86,47,157.86Z"/><path d="M76.84,195.59v-37H73.67a5.24,5.24,0,1,1,0-10.47H92a5.24,5.24,0,1,1,0,10.47H88.89v37a6,6,0,1,1-12,0Z"/><path d="M103.4,195.59V154.53c0-4.2,2.22-6.42,6.34-6.42h13.87a5.24,5.24,0,0,1,0,10.47h-8.24v10.3h7.69a5.23,5.23,0,0,1,0,10.46h-7.69v16.25a6,6,0,1,1-12,0Z"/><path d="M34.07,130.51,30.9,105.23l-3.17,25.36a6.85,6.85,0,0,1-13.56.32L7,89.85a9.77,9.77,0,0,1-.16-1.43,5.81,5.81,0,0,1,11.58-.71l3.25,27.43L25.75,87a5.19,5.19,0,0,1,10.3,0l4.2,28.14,3.17-27.43A5.8,5.8,0,0,1,55,88.34a10.8,10.8,0,0,1-.16,1.51l-7.21,41.06a7,7,0,0,1-6.74,5.71A6.88,6.88,0,0,1,34.07,130.51Z"/><path d="M75.93,82.24c12.36,0,17.91,11.57,17.91,27.35s-5.55,27.35-17.91,27.35S58,125.36,58,109.59,63.56,82.24,75.93,82.24Zm0,10.62c-4.21,0-5.63,7-5.63,16.73s1.42,16.72,5.63,16.72,5.62-7,5.62-16.72S80.13,92.86,75.93,92.86Z"/><path d="M101.06,130.59V89.53c0-4.2,2.21-6.42,6.34-6.42h13.87a5.24,5.24,0,0,1,0,10.47H113v10.3h7.68a5.23,5.23,0,1,1,0,10.46H113v16.25a6,6,0,1,1-12,0Z"/><path d="M133.4,130.59V89.53c0-4.2,2.22-6.42,6.34-6.42h13.87a5.24,5.24,0,0,1,0,10.47h-8.24v10.3h7.69a5.23,5.23,0,0,1,0,10.46h-7.69v16.25a6,6,0,1,1-12,0Z"/><path d="M722,108.56H587a7.5,7.5,0,0,1,0-15H722a7.5,7.5,0,0,1,0,15Z"/><path d="M722,145.56H587a7.5,7.5,0,0,1,0-15H722a7.5,7.5,0,0,1,0,15Z"/><circle cx="613.5" cy="100.56" r="16"/><circle cx="690.5" cy="137.56" r="16"/><path d="M610,237.56a36.5,36.5,0,1,1,36.5-36.5A36.54,36.54,0,0,1,610,237.56Zm0-58a21.5,21.5,0,1,0,21.5,21.5A21.52,21.52,0,0,0,610,179.56Z"/><path d="M610,203.56a7.49,7.49,0,0,1-7.5-7.5v-24a7.5,7.5,0,1,1,15,0v24A7.5,7.5,0,0,1,610,203.56Z"/><path d="M699,237.58a36.6,36.6,0,1,1,12.63-2.27A36.43,36.43,0,0,1,699,237.58Zm0-58a21.49,21.49,0,1,0,9,2A21.53,21.53,0,0,0,699,179.56Z"/><path d="M725.32,220.72a7.49,7.49,0,0,1-3.14-.69L700.39,210a7.5,7.5,0,0,1,6.29-13.62l21.79,10.06a7.5,7.5,0,0,1-3.15,14.31Z"/><path d="M971,213.56H862a7.5,7.5,0,0,1-7.5-7.5v-109a7.5,7.5,0,1,1,15,0v101.5H971a7.5,7.5,0,0,1,0,15Z"/><path d="M896.09,179.16a7.5,7.5,0,0,1-5.3-12.8l72-72a7.5,7.5,0,0,1,10.61,10.6l-72,72A7.48,7.48,0,0,1,896.09,179.16Z"/><path d="M970.73,169.23a7.5,7.5,0,0,1-7.5-7.5V104.52H906a7.5,7.5,0,0,1,0-15h64.71a7.5,7.5,0,0,1,7.5,7.5v64.71A7.5,7.5,0,0,1,970.73,169.23Z"/><text class="cls-2" transform="translate(69.63 46.71)">1</text><text class="cls-2" transform="translate(353.08 46.71)">2</text><text class="cls-2" transform="translate(642.23 46.71)">3</text><text class="cls-2" transform="translate(903.52 46.71)">4</text><text class="cls-3" transform="translate(14.62 311.71)"><tspan class="cls-4">U</tspan><tspan x="28.57" y="0">pload</tspan></text><text class="cls-3" transform="translate(277.45 311.71)">FX Fil<tspan class="cls-5" x="99.13" y="0">t</tspan><tspan x="112.1" y="0">ers</tspan></text><text class="cls-3" transform="translate(564.12 311.71)">Fine-tune</text><text class="cls-3" transform="translate(854.52 311.71)">Export</text></g></g></svg>