<?xml version="1.0" standalone="no"?>
<!DOCTYPE svg PUBLIC "-//W3C//DTD SVG 20010904//EN"
 "http://www.w3.org/TR/2001/REC-SVG-20010904/DTD/svg10.dtd">
<svg version="1.0" xmlns="http://www.w3.org/2000/svg"
 width="680.000000pt" height="680.000000pt" viewBox="0 0 680.000000 680.000000"
 preserveAspectRatio="xMidYMid meet">
<metadata>
Created by potrace 1.14, written by Peter Selinger 2001-2017
</metadata>
<g transform="translate(0.000000,680.000000) scale(0.100000,-0.100000)"
fill="#000000" stroke="none">
<path d="M664 6789 c-85 -14 -220 -68 -297 -119 -170 -111 -290 -277 -343
-475 -18 -68 -19 -153 -19 -2800 0 -2607 1 -2733 18 -2795 79 -282 301 -502
582 -576 67 -18 169 -19 2800 -19 2607 0 2733 1 2795 18 282 79 502 301 576
582 18 67 19 169 19 2800 0 2614 -1 2733 -18 2794 -80 280 -278 482 -564 574
l-68 22 -2715 1 c-1493 1 -2738 -2 -2766 -7z m1912 -1210 c179 -25 357 -97
474 -192 181 -147 288 -350 343 -649 l22 -123 0 -1210 c0 -1123 -1 -1217 -18
-1304 -70 -363 -245 -620 -511 -750 -193 -95 -316 -115 -663 -109 -236 5 -266
7 -353 31 -206 55 -324 119 -445 242 -100 101 -170 218 -218 362 -75 227 -72
154 -72 1523 0 1146 1 1232 18 1330 74 421 279 688 611 799 152 50 226 59 493
60 133 1 276 -4 319 -10z m2902 -481 l2 -438 -415 0 -415 0 0 -360 0 -360 330
0 330 0 0 -450 0 -450 -330 0 -330 0 0 -425 0 -425 430 0 430 0 0 -445 0 -445
-895 0 -895 0 0 2120 0 2120 878 -2 877 -3 3 -437z"/>
<path d="M2183 4710 c-18 -10 -39 -29 -47 -42 -34 -52 -37 -146 -34 -1293 l3
-1130 23 -47 c28 -57 71 -80 152 -80 73 0 114 22 140 78 20 40 20 60 18 1230
-3 1179 -3 1189 -24 1224 -32 55 -77 80 -143 80 -38 0 -66 -6 -88 -20z"/>
</g>
</svg>
