<svg width="32" height="32" viewBox="0 0 32 32" fill="none" xmlns="http://www.w3.org/2000/svg">
<g clip-path="url(#clip0_79_11876)">
<path d="M28.7629 12.19H27.2429V10.66H25.7129V12.19H24.1929V13.71H22.6729V15.24H24.1929V16.76H25.7129V18.28H27.2429V16.76H28.7629V15.24H30.2829V13.71H28.7629V12.19Z" fill="white"/>
<path d="M22.6729 10.66H24.1929V12.19H22.6729V10.66Z" fill="white"/>
<path d="M21.1436 19.8101H22.6736V25.9001H21.1436V19.8101Z" fill="white"/>
<path d="M21.1436 9.13989H22.6736V10.6599H21.1436V9.13989Z" fill="white"/>
<path d="M19.6221 25.8999H21.1421V27.4299H19.6221V25.8999Z" fill="white"/>
<path d="M19.6221 18.28H21.1421V19.81H19.6221V18.28Z" fill="white"/>
<path d="M19.6221 7.62012H21.1421V9.14012H19.6221V7.62012Z" fill="white"/>
<path d="M18.0938 15.24H19.6238V18.28H18.0938V15.24Z" fill="white"/>
<path d="M18.0938 6.09003H19.6238V7.62003H18.0938V6.09003Z" fill="white"/>
<path d="M19.6239 4.57V3.05H18.0939V1.52H16.5739V0H15.0539V1.52H13.5239V3.05H12.0039V4.57H13.5239V6.09H15.0539V7.62H16.5739V6.09H18.0939V4.57H19.6239Z" fill="white"/>
<path d="M12.0034 27.4299V30.4699H10.4834V31.9999H21.1434V30.4699H19.6234V27.4299H12.0034Z" fill="white"/>
<path d="M16.5732 12.1899H18.0932V15.2399H16.5732V12.1899Z" fill="white"/>
<path d="M15.0539 19.81H13.5239V21.33H12.0039V22.85H13.5239V24.38H15.0539V25.9H16.5739V24.38H18.0939V22.85H19.6239V21.33H18.0939V19.81H16.5739V15.24H15.0539V19.81Z" fill="white"/>
<path d="M15.0537 10.6599H16.5737V12.1899H15.0537V10.6599Z" fill="white"/>
<path d="M13.5234 12.19H15.0534V15.24H13.5234V12.19Z" fill="white"/>
<path d="M12.0039 15.24H13.5239V18.28H12.0039V15.24Z" fill="white"/>
<path d="M12.0039 6.09003H13.5239V7.62003H12.0039V6.09003Z" fill="white"/>
<path d="M10.4834 25.8999H12.0034V27.4299H10.4834V25.8999Z" fill="white"/>
<path d="M10.4834 18.28H12.0034V19.81H10.4834V18.28Z" fill="white"/>
<path d="M10.4834 7.62012H12.0034V9.14012H10.4834V7.62012Z" fill="white"/>
<path d="M8.95312 19.81H10.4831V25.9H8.95312V19.81Z" fill="white"/>
<path d="M8.95312 9.14001H10.4831V10.66H8.95312V9.14001Z" fill="white"/>
<path d="M7.43262 10.66H8.95262V12.19H7.43262V10.66Z" fill="white"/>
<path d="M5.90301 10.66H4.38301V12.19H2.86301V13.71H1.33301V15.24H2.86301V16.76H4.38301V18.28H5.90301V16.76H7.43301V15.24H8.95301V13.71H7.43301V12.19H5.90301V10.66Z" fill="white"/>
</g>
<defs>
<clipPath id="clip0_79_11876">
<rect width="32" height="32" fill="white"/>
</clipPath>
</defs>
</svg>
