<svg width="48" height="48" viewBox="0 0 48 48" fill="none" xmlns="http://www.w3.org/2000/svg">
<path d="M41.1525 4.575H43.4325V2.28H45.7125V0H32.0025V2.28H41.1525V4.575Z" fill="white"/>
<path d="M41.1525 4.57495H38.8575V6.85495H41.1525V4.57495Z" fill="white"/>
<path d="M38.8575 6.85498H36.5775V9.14998H38.8575V6.85498Z" fill="white"/>
<path d="M36.5775 9.15002H34.2975V11.43H36.5775V9.15002Z" fill="white"/>
<path d="M34.2975 11.4301H32.0025V16.0051H34.2975V11.4301Z" fill="white"/>
<path d="M34.2975 4.57495H32.0025V6.85495H34.2975V4.57495Z" fill="white"/>
<path d="M32.0025 16.005H29.7225V18.285H32.0025V16.005Z" fill="white"/>
<path d="M32.0025 6.85498H29.7225V9.14998H32.0025V6.85498Z" fill="white"/>
<path d="M32.0025 2.28003H27.4275V4.57503H32.0025V2.28003Z" fill="white"/>
<path d="M29.7225 9.15002H27.4275V11.43H29.7225V9.15002Z" fill="white"/>
<path d="M29.7225 18.285H25.1475V20.58H29.7225V18.285Z" fill="white"/>
<path d="M27.4275 11.4301H25.1475V13.7101H27.4275V11.4301Z" fill="white"/>
<path d="M27.4275 4.57495H25.1475V6.85495H27.4275V4.57495Z" fill="white"/>
<path d="M4.5825 48H25.1475V45.72H27.4275V36.57H25.1475V38.865H13.7175V36.57H9.15V34.29H4.5825V36.57H2.2875V45.72H4.5825V48ZM6.8625 38.865H9.15V43.425H13.725V45.72H9.15V43.425H6.8625V38.865Z" fill="white"/>
<path d="M25.1475 13.71H22.8675V16.005H25.1475V13.71Z" fill="white"/>
<path d="M25.1475 6.85498H22.8675V9.14998H25.1475V6.85498Z" fill="white"/>
<path d="M25.1475 34.29H20.5725V36.57H25.1475V34.29Z" fill="white"/>
<path d="M25.1475 20.58H20.5725V18.285H18.2925V16.005H16.0125V22.86H25.1475V20.58Z" fill="white"/>
<path d="M22.8675 16.005H20.5725V18.285H22.8675V16.005Z" fill="white"/>
<path d="M22.8675 9.15002H20.5725V11.43H22.8675V9.15002Z" fill="white"/>
<path d="M20.5725 11.4301H18.2925V16.0051H20.5725V11.4301Z" fill="white"/>
<path d="M11.4375 29.715H18.2925V34.29H20.5725V29.715H22.8675V27.435H16.0125V22.86H13.7175V27.435H6.8625V29.715H9.1425V34.29H11.4375V29.715Z" fill="white"/>
</svg>
