<svg width="48" height="48" viewBox="0 0 48 48" fill="none" xmlns="http://www.w3.org/2000/svg">
<path d="M44.58 40.005H37.71V42.285H46.86V30.855H44.58V40.005Z" fill="white"/>
<path d="M46.86 19.4249H44.58V26.2949H46.86V19.4249Z" fill="white"/>
<path d="M44.58 14.865H46.86V5.71497H37.71V7.99497H44.58V14.865Z" fill="white"/>
<path d="M44.58 26.2949H42.285V30.8549H44.58V26.2949Z" fill="white"/>
<path d="M44.58 14.865H42.285V19.425H44.58V14.865Z" fill="white"/>
<path d="M37.71 37.71H33.15V40.005H37.71V37.71Z" fill="white"/>
<path d="M40.005 12.5699H7.995V35.4299H40.005V12.5699Z" fill="white"/>
<path d="M30.725 24.5599H28.43V26.8549H30.725V24.5599Z" fill="black"/>
<path d="M28.43 20H26.15V22.28H28.43V20Z" fill="black"/>
<path d="M28.43 26.855H19.295V29.135H28.43V26.855Z" fill="black"/>
<path d="M21.575 20H19.295V22.28H21.575V20Z" fill="black"/>
<path d="M19.295 24.5599H17V26.8549H19.295V24.5599Z" fill="black"/>
<path d="M37.71 7.995H33.15V10.29H37.71V7.995Z" fill="white"/>
<path d="M33.15 40.005H26.295V42.285H33.15V40.005Z" fill="white"/>
<path d="M33.15 5.71497H26.295V7.99497H33.15V5.71497Z" fill="white"/>
<path d="M26.295 37.71H21.72V40.005H26.295V37.71Z" fill="white"/>
<path d="M26.295 7.995H21.72V10.29H26.295V7.995Z" fill="white"/>
<path d="M21.72 40.005H14.865V42.285H21.72V40.005Z" fill="white"/>
<path d="M21.72 5.71497H14.865V7.99497H21.72V5.71497Z" fill="white"/>
<path d="M14.865 37.71H10.29V40.005H14.865V37.71Z" fill="white"/>
<path d="M14.865 7.995H10.29V10.29H14.865V7.995Z" fill="white"/>
<path d="M10.29 40.005H3.435V30.855H1.14V42.285H10.29V40.005Z" fill="white"/>
<path d="M5.715 26.2949H3.435V30.8549H5.715V26.2949Z" fill="white"/>
<path d="M5.715 14.865H3.435V19.425H5.715V14.865Z" fill="white"/>
<path d="M3.435 19.4249H1.14V26.2949H3.435V19.4249Z" fill="white"/>
<path d="M3.435 7.99497H10.29V5.71497H1.14V14.865H3.435V7.99497Z" fill="white"/>
</svg>
