<svg width="508" height="109" viewBox="0 0 508 109" fill="none" xmlns="http://www.w3.org/2000/svg">
<path fill-rule="evenodd" clip-rule="evenodd" d="M0 0H51.555L51.551 51.555H0V0Z" fill="white"/>
<path fill-rule="evenodd" clip-rule="evenodd" d="M56.8191 0H108.374C108.374 17.185 108.377 34.37 108.371 51.555C91.1891 51.552 74.0041 51.555 56.8221 51.555C56.8161 34.37 56.8191 17.185 56.8191 0Z" fill="white"/>
<path fill-rule="evenodd" clip-rule="evenodd" d="M464.909 19.6441C469.662 16.5511 475.803 16.2621 481.159 17.7361C481.206 20.9201 481.165 24.1061 481.18 27.2911C478.635 26.1711 475.64 25.4401 472.963 26.5391C470.838 27.3821 469.574 29.5621 469.244 31.7411C468.845 34.5061 469.104 37.3081 469.036 40.0891C474.474 40.1011 479.911 40.0921 485.348 40.0951C485.389 36.5651 485.305 33.0321 485.395 29.5021C489.092 28.4511 492.748 27.2701 496.427 26.1621C496.458 30.8121 496.384 35.4661 496.468 40.1201C500.143 40.0671 503.822 40.1081 507.5 40.0951V49.1501C503.809 48.9971 500.115 49.1081 496.425 49.0961C496.44 54.3021 496.427 59.5071 496.43 64.7141C496.489 67.5971 496.276 70.4951 496.613 73.3691C496.817 75.0631 497.434 76.9401 499.021 77.8161C501.682 79.3051 505.057 78.6551 507.5 77.0201V86.1631C504.313 87.5471 500.753 87.9691 497.307 87.7241C494.036 87.4821 490.65 86.2941 488.516 83.6921C486.051 80.7541 485.417 76.7751 485.367 73.0531C485.339 65.0651 485.37 57.0761 485.355 49.0841C479.914 49.0801 474.474 49.0781 469.036 49.0871C469.03 61.6241 469.033 74.1621 469.033 86.7001H457.883C457.883 74.1641 457.867 61.6341 457.889 49.1001C455.303 49.0501 452.715 49.1121 450.13 49.0591C450.139 46.0841 450.151 43.1051 450.123 40.1261C452.697 40.0671 455.273 40.0921 457.853 40.1111C458.041 36.1531 457.438 32.0821 458.621 28.2271C459.62 24.7471 461.844 21.6071 464.909 19.6441V19.6441ZM226.183 20.2941C228.431 19.9531 230.864 20.7211 232.354 22.4801C234.101 24.4061 234.423 27.4711 233.128 29.7231C231.697 32.2611 228.496 33.4411 225.706 32.8321C222.811 32.3121 220.399 29.6201 220.528 26.6201C220.445 23.4621 223.086 20.6471 226.183 20.2931V20.2941ZM140.731 21.6751H156.947C161.994 34.4921 167.078 47.2941 172.132 60.1101C173.423 63.3161 174.631 66.5571 175.984 69.7371C182.477 53.7231 189.063 37.7491 195.506 21.7121C200.706 21.6281 205.907 21.6931 211.109 21.6811C211.097 43.3531 211.103 65.0241 211.107 86.6961C207.354 86.6871 203.604 86.7281 199.854 86.6741C199.894 70.6821 199.851 54.6891 199.873 38.6931C199.879 37.9741 199.854 37.2551 199.804 36.5381C199.584 36.8721 199.39 37.2191 199.22 37.5791C192.775 53.9481 186.208 70.2721 179.802 86.6581C177.133 86.7551 174.461 86.6651 171.788 86.7071C165.141 70.3381 158.576 53.9301 151.962 37.5471C151.788 37.2061 151.603 36.8751 151.401 36.5571C151.265 43.5631 151.38 50.5761 151.343 57.5841C151.345 67.2881 151.337 76.9921 151.345 86.6961C147.807 86.7051 144.268 86.6961 140.731 86.7001C140.728 65.0241 140.725 43.3491 140.731 21.6751V21.6751ZM256.869 40.0521C262.249 38.5191 268.053 38.5811 273.431 40.1011C274.54 40.4111 275.613 40.8411 276.612 41.4271C276.549 44.9781 276.612 48.5331 276.577 52.0881C272.981 49.3411 268.421 47.6011 263.851 48.1771C260.221 48.5051 256.76 50.3881 254.59 53.3201C251.799 56.9551 251.155 61.7821 251.636 66.2291C251.995 69.7091 253.434 73.1871 256.141 75.4941C258.952 77.9921 262.893 78.8771 266.572 78.5991C270.208 78.1811 273.639 76.6411 276.577 74.4921C276.608 77.8581 276.561 81.2241 276.602 84.5901C272.043 87.3031 266.579 88.0021 261.361 87.7471C256.023 87.4641 250.7 85.4421 246.836 81.6891C242.637 77.6421 240.358 71.8701 240.088 66.0901C239.816 60.0791 241.039 53.8091 244.498 48.7901C247.396 44.5071 251.93 41.4761 256.869 40.0521V40.0521ZM378.665 39.3431C383.821 38.4351 389.218 39.1011 394.097 40.9501C394.104 44.3691 394.097 47.7831 394.1 51.1991C390.691 48.8551 386.526 47.5941 382.389 47.7401C380.306 47.8211 378.015 48.7041 377.064 50.6851C376.308 52.6451 376.832 55.2151 378.681 56.3891C381.841 58.5041 385.613 59.4021 388.889 61.2961C391.468 62.7461 393.97 64.6401 395.278 67.3721C397.733 72.4871 396.693 79.2471 392.375 83.0621C388.255 86.9131 382.319 87.9781 376.86 87.7741C372.983 87.5231 369.088 86.7581 365.524 85.1721C365.54 81.5781 365.502 77.9861 365.542 74.3941C368.54 76.5711 371.998 78.1281 375.658 78.7601C378.207 79.1741 380.979 79.1941 383.353 78.0541C385.626 76.9241 386.034 73.6941 384.685 71.7181C383.421 70.1951 381.566 69.3571 379.817 68.5331C376.532 67.0561 373.079 65.8201 370.194 63.6071C368.165 62.0241 366.629 59.7951 366.029 57.2801C365.137 53.5741 365.415 49.3971 367.57 46.1581C370.032 42.3831 374.308 40.1201 378.665 39.3431ZM301.543 40.8111C304.62 38.9621 308.531 38.8071 311.891 39.9381C311.876 43.6571 311.891 47.3741 311.882 51.0931C309.683 49.6701 306.94 49.0591 304.346 49.3231C301.18 49.6821 298.672 52.1121 297.373 54.9001C295.96 57.8501 295.694 61.1871 295.783 64.4141C295.783 71.8421 295.787 79.2711 295.783 86.7001H284.791C284.782 71.1741 284.804 55.6461 284.782 40.1201C288.451 40.0731 292.121 40.0921 295.79 40.1101C295.775 42.7771 295.79 45.4421 295.781 48.1121C296.973 45.2111 298.747 42.3931 301.543 40.8101V40.8111ZM221.541 40.1101C225.238 40.0951 228.939 40.0591 232.635 40.1291C232.592 55.6531 232.633 71.1771 232.617 86.7001H221.547C221.538 71.1711 221.551 55.6421 221.541 40.1111V40.1101ZM332.411 39.2501C337.762 38.5691 343.406 38.8731 348.373 41.1331C352.683 43.0771 356.176 46.6721 358.111 50.9771C360.175 55.5571 360.678 60.7051 360.328 65.6751C359.984 70.5261 358.461 75.3881 355.426 79.2431C352.321 83.3371 347.64 86.1111 342.626 87.1421C338.34 88.0341 333.857 88.0301 329.571 87.1301C324.444 86.0331 319.697 83.0581 316.69 78.7291C313.161 73.7131 312.158 67.3351 312.606 61.3241C312.909 56.2241 314.495 51.0841 317.753 47.0841C321.32 42.6031 326.792 39.9591 332.411 39.2501V39.2501ZM335.736 48.1001C333.071 48.2481 330.377 49.1501 328.401 50.9941C325.676 53.4631 324.431 57.1411 324.094 60.7171C323.722 64.6501 323.991 68.7961 325.788 72.3811C327.184 75.1651 329.751 77.3521 332.776 78.1471C335.749 78.9181 338.984 78.8531 341.864 77.7471C344.325 76.7881 346.276 74.7621 347.342 72.3661C348.951 68.8111 349.11 64.8141 348.912 60.9781C348.636 57.4711 347.64 53.7971 345.062 51.2641C342.654 48.8271 339.087 47.8801 335.736 48.1001ZM421.281 39.2341C426.845 38.5451 432.753 38.9181 437.831 41.4831C442.26 43.6971 445.693 47.6981 447.407 52.3231C448.749 55.8621 449.22 59.6831 449.141 63.4511C449.151 69.0801 447.631 74.8581 444.098 79.3231C440.791 83.6461 435.732 86.4551 430.39 87.3371C425.167 88.1821 419.648 87.9631 414.685 86.0091C409.657 84.0311 405.477 79.9921 403.358 75.0191C401.151 69.9511 400.918 64.2471 401.606 58.8321C402.327 53.4151 404.78 48.1211 408.96 44.5201C412.385 41.5141 416.794 39.8111 421.281 39.2341V39.2341ZM424.291 48.1091C421.206 48.2821 418.147 49.6111 416.153 52.0131C413.967 54.5871 413.028 57.9831 412.774 61.2931C412.512 64.7111 412.774 68.2511 414.096 71.4461C415.196 74.1281 417.284 76.4591 419.976 77.5991C422.473 78.6741 425.285 78.8651 427.953 78.4661C430.44 78.1001 432.849 76.9121 434.469 74.9611C436.075 73.0201 436.923 70.5731 437.35 68.1211C437.89 64.8291 437.896 61.4391 437.258 58.1631C436.692 55.3701 435.456 52.5961 433.223 50.7441C430.803 48.6171 427.44 47.8901 424.291 48.1091V48.1091Z" fill="white"/>
<path fill-rule="evenodd" clip-rule="evenodd" d="M0 56.8159C17.185 56.8219 34.37 56.8139 51.555 56.8219C51.558 74.0069 51.555 91.1889 51.555 108.374H0V56.8159Z" fill="white"/>
<path fill-rule="evenodd" clip-rule="evenodd" d="M56.8221 56.8216C74.0041 56.8156 91.1891 56.8186 108.374 56.8186V108.374H56.8191C56.8221 91.1886 56.8161 74.0036 56.8221 56.8216V56.8216Z" fill="white"/>
</svg>
