<?xml version="1.0" encoding="utf-8"?>
<!-- Generator: Adobe Illustrator 22.0.1, SVG Export Plug-In . SVG Version: 6.00 Build 0)  -->
<svg version="1.1" id="Layer_1" xmlns="http://www.w3.org/2000/svg" xmlns:xlink="http://www.w3.org/1999/xlink" x="0px" y="0px"
	 viewBox="0 0 183.1 50.1" style="enable-background:new 0 0 183.1 50.1;" xml:space="preserve">
<style type="text/css">
	.st0{enable-background:new    ;}
	.st1{fill:#FFFFFF;}
</style>
<title>fb.svg</title>
<g id="Layer_2_1_">
	<g id="Layer_1-2">
		<g class="st0">
			<path class="st1" d="M1.7,33.4l3-0.6V18.5H1.2v-4.3h3.4v-2.5c0-2.6,0.7-4.6,2.2-5.9c1.5-1.4,3.6-2.1,6.2-2.1c0.5,0,1.1,0,1.6,0.1
				c0.5,0.1,1.1,0.2,1.8,0.3L16,8.7c-0.3-0.1-0.7-0.1-1-0.1c-0.3,0-0.7-0.1-1.1-0.1c-1,0-1.8,0.3-2.3,0.8c-0.5,0.6-0.8,1.3-0.8,2.4
				v2.5h4.6v4.3h-4.6v14.2l3,0.6v3.7H1.7V33.4z"/>
			<path class="st1" d="M32.1,37.1c-0.2-0.4-0.3-0.8-0.4-1.2c-0.1-0.4-0.2-0.8-0.3-1.2c-0.7,0.8-1.6,1.5-2.7,2.1
				c-1.1,0.5-2.3,0.8-3.6,0.8c-2.2,0-4-0.6-5.3-1.8c-1.3-1.2-2-2.9-2-5c0-2.1,0.9-3.8,2.6-5c1.7-1.2,4.3-1.8,7.6-1.8H31v-2.2
				c0-1.1-0.3-2-1-2.6c-0.6-0.6-1.6-0.9-2.8-0.9c-0.7,0-1.3,0.1-1.9,0.2s-1,0.4-1.3,0.6l-0.4,2.5H19l0-5.1c1.1-0.8,2.4-1.4,3.9-1.9
				c1.5-0.5,3.1-0.8,4.8-0.8c2.8,0,5.1,0.7,6.9,2.1c1.8,1.4,2.7,3.4,2.7,5.9v9.5c0,0.4,0,0.7,0,1c0,0.3,0,0.6,0.1,0.9l1.9,0.3v3.7
				H32.1z M26.7,33c0.9,0,1.8-0.2,2.5-0.6c0.8-0.4,1.4-0.9,1.8-1.5v-3.5h-3.2c-1.3,0-2.3,0.3-3,0.9s-1,1.4-1,2.2
				c0,0.8,0.3,1.4,0.8,1.8C25.1,32.8,25.8,33,26.7,33z"/>
			<path class="st1" d="M52.1,32.8c1.1,0,2-0.3,2.6-1s1-1.5,1-2.6h5.6l0.1,0.1c0.1,2.3-0.8,4.3-2.6,5.8c-1.8,1.6-4,2.3-6.7,2.3
				c-3.4,0-6.1-1.1-7.9-3.2s-2.8-4.9-2.8-8.3v-0.6c0-3.4,0.9-6.1,2.8-8.3c1.9-2.2,4.6-3.3,8.1-3.3c1.9,0,3.5,0.3,5,0.8
				c1.5,0.5,2.7,1.3,3.7,2.3l0.1,6.1h-5l-1-3.6c-0.3-0.3-0.7-0.5-1.1-0.7c-0.5-0.2-1-0.3-1.5-0.3c-1.8,0-3,0.6-3.7,1.9
				s-1.1,2.9-1.1,4.9V26c0,2,0.3,3.7,1,4.9C49.2,32.2,50.4,32.8,52.1,32.8z"/>
		</g>
		<g class="st0">
			<path class="st1" d="M75.1,37.6c-3.3,0-5.9-1.1-7.9-3.2c-2-2.1-3-4.8-3-8.1v-0.8c0-3.4,0.9-6.2,2.8-8.4c1.9-2.2,4.4-3.3,7.5-3.3
				c3.1,0,5.5,0.9,7.2,2.8c1.7,1.9,2.6,4.4,2.6,7.6v3.4H70.7l0,0.1c0.1,1.5,0.6,2.8,1.5,3.7c0.9,1,2.1,1.5,3.7,1.5
				c1.4,0,2.5-0.1,3.4-0.4c0.9-0.3,1.9-0.7,3-1.3l1.7,3.8c-0.9,0.7-2.2,1.4-3.7,1.9C78.7,37.3,77,37.6,75.1,37.6z M74.6,18.5
				c-1.1,0-2,0.4-2.7,1.3c-0.7,0.9-1.1,2-1.2,3.5l0.1,0.1h7.6v-0.6c0-1.3-0.3-2.4-0.9-3.1C76.7,18.9,75.8,18.5,74.6,18.5z"/>
		</g>
		<g class="st0">
			<path class="st1" d="M108.5,26.3c0,3.4-0.8,6.2-2.3,8.2c-1.5,2-3.7,3.1-6.6,3.1c-1.3,0-2.5-0.3-3.5-0.8c-1-0.6-1.8-1.4-2.5-2.4
				l-0.4,2.8h-5.3V8.4l-3.3-0.6V4.1H94v12.6c0.7-0.9,1.5-1.6,2.4-2.1s2-0.7,3.2-0.7c2.9,0,5.1,1.1,6.7,3.3c1.5,2.2,2.3,5.1,2.3,8.8
				V26.3z M102.4,25.8c0-2.2-0.3-4-1-5.3c-0.7-1.3-1.8-2-3.4-2c-1,0-1.8,0.2-2.4,0.6c-0.7,0.4-1.2,1-1.6,1.7v9.7
				c0.4,0.7,0.9,1.2,1.6,1.6c0.7,0.4,1.5,0.6,2.5,0.6c1.6,0,2.7-0.6,3.3-1.7c0.6-1.1,1-2.7,1-4.8V25.8z"/>
			<path class="st1" d="M111.4,25.4c0-3.4,1-6.2,2.9-8.4c1.9-2.2,4.6-3.3,7.9-3.3c3.4,0,6,1.1,8,3.3s2.9,5,2.9,8.4v0.4
				c0,3.4-1,6.3-2.9,8.4c-1.9,2.2-4.6,3.3-7.9,3.3c-3.4,0-6.1-1.1-8-3.3c-1.9-2.2-2.9-5-2.9-8.4V25.4z M117.6,25.9
				c0,2.1,0.4,3.8,1.1,5s1.9,1.9,3.6,1.9c1.6,0,2.8-0.6,3.5-1.9c0.7-1.3,1.1-2.9,1.1-5v-0.4c0-2-0.4-3.7-1.1-5
				c-0.7-1.3-1.9-1.9-3.5-1.9c-1.6,0-2.8,0.6-3.5,1.9s-1.1,2.9-1.1,5V25.9z"/>
		</g>
		<g class="st0">
			<path class="st1" d="M135.7,25.4c0-3.4,1-6.2,2.9-8.4c1.9-2.2,4.6-3.3,7.9-3.3c3.4,0,6,1.1,8,3.3s2.9,5,2.9,8.4v0.4
				c0,3.4-1,6.3-2.9,8.4c-1.9,2.2-4.6,3.3-7.9,3.3c-3.4,0-6.1-1.1-8-3.3c-1.9-2.2-2.9-5-2.9-8.4V25.4z M141.9,25.9
				c0,2.1,0.4,3.8,1.1,5s1.9,1.9,3.6,1.9c1.6,0,2.8-0.6,3.5-1.9c0.7-1.3,1.1-2.9,1.1-5v-0.4c0-2-0.4-3.7-1.1-5
				c-0.7-1.3-1.9-1.9-3.5-1.9c-1.6,0-2.8,0.6-3.5,1.9s-1.1,2.9-1.1,5V25.9z"/>
		</g>
		<g class="st0">
			<path class="st1" d="M158.1,7.8V4.1h9.5v19.1h1.4l3.6-5l-2-0.3v-3.7h11.3v3.7l-2.7,0.6l-4.1,5.7l5.8,8.7l2.4,0.5v3.7h-10.6v-3.7
				l1.3-0.2l-3.5-5.7h-2.6v5.3l2.7,0.6v3.7h-11.8v-3.7l3-0.6V8.4L158.1,7.8z"/>
		</g>
	</g>
</g>
</svg>
