<svg width="142" height="322" viewBox="0 0 142 322" fill="none" xmlns="http://www.w3.org/2000/svg">
<path fill-rule="evenodd" clip-rule="evenodd" d="M89.5 161.5C89.5 112.347 49.6533 72.5 0.5 72.5V69.5C51.3102 69.5 92.5 110.69 92.5 161.5C92.5 212.31 51.3102 253.5 0.5 253.5V250.5C49.6533 250.5 89.5 210.653 89.5 161.5Z" fill="black" fill-opacity="0.18"/>
<path d="M141 321.534L117.268 321.534L117.268 312.898C117.268 310.699 117.869 309.022 119.07 307.866C120.271 306.71 121.949 306.132 124.102 306.132C126.255 306.132 127.933 306.71 129.134 307.866C130.335 309.022 130.936 310.699 130.936 312.898L130.936 318.678L141 318.678L141 321.534ZM128.454 318.678L128.454 312.966C128.454 311.764 128.159 310.835 127.57 310.178C126.958 309.498 126.097 309.158 124.986 309.158L123.218 309.158C122.107 309.158 121.257 309.498 120.668 310.178C120.056 310.835 119.75 311.764 119.75 312.966L119.75 318.678L128.454 318.678Z" fill="black"/>
<path d="M141 298.291L141 301.147L117.268 301.147L117.268 292.511C117.268 290.312 117.869 288.635 119.07 287.479C120.271 286.323 121.949 285.745 124.102 285.745C126.029 285.745 127.57 286.244 128.726 287.241C129.882 288.238 130.551 289.689 130.732 291.593L141 285.541L141 288.737L130.868 294.517L130.868 298.291L141 298.291ZM128.454 292.579C128.454 291.378 128.159 290.448 127.57 289.791C126.958 289.111 126.097 288.771 124.986 288.771L123.218 288.771C122.107 288.771 121.257 289.111 120.668 289.791C120.056 290.448 119.75 291.378 119.75 292.579L119.75 298.291L128.454 298.291L128.454 292.579Z" fill="black"/>
<path d="M141.408 273.62C141.408 275.071 141.136 276.318 140.592 277.36C140.025 278.403 139.221 279.264 138.178 279.944C137.135 280.624 135.855 281.123 134.336 281.44C132.817 281.758 131.083 281.916 129.134 281.916C127.207 281.916 125.485 281.758 123.966 281.44C122.425 281.123 121.133 280.624 120.09 279.944C119.047 279.264 118.254 278.403 117.71 277.36C117.143 276.318 116.86 275.071 116.86 273.62C116.86 272.17 117.143 270.923 117.71 269.88C118.254 268.838 119.047 267.976 120.09 267.296C121.133 266.616 122.425 266.118 123.966 265.8C125.485 265.483 127.207 265.324 129.134 265.324C131.083 265.324 132.817 265.483 134.336 265.8C135.855 266.118 137.135 266.616 138.178 267.296C139.221 267.976 140.025 268.838 140.592 269.88C141.136 270.923 141.408 272.17 141.408 273.62ZM138.926 273.62C138.926 272.668 138.745 271.864 138.382 271.206C137.997 270.549 137.464 270.005 136.784 269.574C136.104 269.144 135.288 268.838 134.336 268.656C133.361 268.452 132.273 268.35 131.072 268.35L127.196 268.35C126.017 268.35 124.941 268.452 123.966 268.656C122.991 268.838 122.164 269.144 121.484 269.574C120.804 270.005 120.283 270.549 119.92 271.206C119.535 271.864 119.342 272.668 119.342 273.62C119.342 274.572 119.535 275.377 119.92 276.034C120.283 276.692 120.804 277.236 121.484 277.666C122.164 278.097 122.991 278.414 123.966 278.618C124.941 278.8 126.017 278.89 127.196 278.89L131.072 278.89C132.273 278.89 133.361 278.8 134.336 278.618C135.288 278.414 136.104 278.097 136.784 277.666C137.464 277.236 137.997 276.692 138.382 276.034C138.745 275.377 138.926 274.572 138.926 273.62Z" fill="black"/>
<path d="M117.268 247.114L134.846 247.114C135.843 247.114 136.75 247.284 137.566 247.624C138.382 247.964 139.073 248.451 139.64 249.086C140.207 249.698 140.649 250.434 140.966 251.296C141.261 252.157 141.408 253.098 141.408 254.118C141.408 255.931 140.943 257.427 140.014 258.606C139.062 259.784 137.736 260.555 136.036 260.918L135.458 258.198C135.934 258.084 136.387 257.937 136.818 257.756C137.226 257.552 137.589 257.291 137.906 256.974C138.201 256.634 138.439 256.226 138.62 255.75C138.801 255.274 138.892 254.707 138.892 254.05C138.892 252.758 138.529 251.76 137.804 251.058C137.056 250.332 135.9 249.97 134.336 249.97L119.75 249.97L119.75 258.538L117.268 258.538L117.268 247.114Z" fill="black"/>
<path d="M141 239.987L117.268 239.987L117.268 225.367L119.75 225.367L119.75 237.131L127.74 237.131L127.74 225.775L130.222 225.775L130.222 237.131L138.518 237.131L138.518 225.367L141 225.367L141 239.987Z" fill="black"/>
<path d="M141.408 211.678C141.408 214.579 140.354 216.744 138.246 218.172C136.138 219.577 133.101 220.28 129.134 220.28C125.167 220.28 122.13 219.577 120.022 218.172C117.914 216.744 116.86 214.579 116.86 211.678C116.86 210.59 117.007 209.649 117.302 208.856C117.597 208.063 117.993 207.383 118.492 206.816C118.991 206.249 119.557 205.773 120.192 205.388C120.804 205.003 121.427 204.663 122.062 204.368L123.184 206.816C122.663 207.02 122.175 207.258 121.722 207.53C121.246 207.802 120.838 208.131 120.498 208.516C120.135 208.879 119.852 209.321 119.648 209.842C119.444 210.341 119.342 210.953 119.342 211.678C119.342 213.559 120.056 214.965 121.484 215.894C122.912 216.801 124.816 217.254 127.196 217.254L131.072 217.254C133.452 217.254 135.356 216.801 136.784 215.894C138.212 214.965 138.926 213.559 138.926 211.678C138.926 210.953 138.824 210.341 138.62 209.842C138.416 209.321 138.144 208.879 137.804 208.516C137.441 208.131 137.033 207.802 136.58 207.53C136.104 207.258 135.605 207.02 135.084 206.816L136.206 204.368C136.863 204.663 137.498 205.003 138.11 205.388C138.722 205.773 139.277 206.249 139.776 206.816C140.275 207.383 140.671 208.063 140.966 208.856C141.261 209.649 141.408 210.59 141.408 211.678Z" fill="black"/>
<path d="M119.75 190.645L141 190.645L141 193.501L119.75 193.501L119.75 201.423L117.268 201.423L117.268 182.723L119.75 182.723L119.75 190.645Z" fill="black"/>
<path d="M141.408 151.368C141.408 153.499 141.023 155.244 140.252 156.604C139.459 157.964 138.45 159.086 137.226 159.97L135.526 157.896C136.682 156.967 137.543 155.992 138.11 154.972C138.677 153.929 138.96 152.694 138.96 151.266C138.96 149.543 138.563 148.229 137.77 147.322C136.977 146.415 135.866 145.962 134.438 145.962C133.282 145.962 132.387 146.291 131.752 146.948C131.095 147.605 130.63 148.75 130.358 150.382L129.916 153.034C129.712 154.19 129.406 155.165 128.998 155.958C128.59 156.729 128.103 157.352 127.536 157.828C126.947 158.304 126.312 158.644 125.632 158.848C124.929 159.052 124.204 159.154 123.456 159.154C121.28 159.154 119.637 158.44 118.526 157.012C117.415 155.584 116.86 153.657 116.86 151.232C116.86 149.328 117.177 147.73 117.812 146.438C118.447 145.123 119.342 144.069 120.498 143.276L122.232 145.282C121.371 145.939 120.668 146.733 120.124 147.662C119.58 148.591 119.308 149.793 119.308 151.266C119.308 152.875 119.648 154.111 120.328 154.972C121.008 155.833 122.028 156.264 123.388 156.264C124.453 156.264 125.326 155.947 126.006 155.312C126.663 154.655 127.139 153.487 127.434 151.81L127.876 149.26C128.08 148.104 128.386 147.129 128.794 146.336C129.202 145.543 129.689 144.908 130.256 144.432C130.823 143.933 131.457 143.582 132.16 143.378C132.863 143.174 133.599 143.072 134.37 143.072C136.569 143.072 138.291 143.797 139.538 145.248C140.785 146.676 141.408 148.716 141.408 151.368Z" fill="black"/>
<path d="M141 138.053L117.268 138.053L117.268 123.433L119.75 123.433L119.75 135.197L127.74 135.197L127.74 123.841L130.222 123.841L130.222 135.197L138.518 135.197L138.518 123.433L141 123.433L141 138.053Z" fill="black"/>
<path d="M141.408 109.745C141.408 112.646 140.354 114.811 138.246 116.239C136.138 117.644 133.101 118.347 129.134 118.347C125.167 118.347 122.13 117.644 120.022 116.239C117.914 114.811 116.86 112.646 116.86 109.745C116.86 108.657 117.007 107.716 117.302 106.923C117.597 106.129 117.993 105.449 118.492 104.883C118.991 104.316 119.557 103.84 120.192 103.455C120.804 103.069 121.427 102.729 122.062 102.435L123.184 104.883C122.663 105.087 122.175 105.325 121.722 105.597C121.246 105.869 120.838 106.197 120.498 106.583C120.135 106.945 119.852 107.387 119.648 107.909C119.444 108.407 119.342 109.019 119.342 109.745C119.342 111.626 120.056 113.031 121.484 113.961C122.912 114.867 124.816 115.321 127.196 115.321L131.072 115.321C133.452 115.321 135.356 114.867 136.784 113.961C138.212 113.031 138.926 111.626 138.926 109.745C138.926 109.019 138.824 108.407 138.62 107.909C138.416 107.387 138.144 106.945 137.804 106.583C137.441 106.197 137.033 105.869 136.58 105.597C136.104 105.325 135.605 105.087 135.084 104.883L136.206 102.435C136.863 102.729 137.498 103.069 138.11 103.455C138.722 103.84 139.277 104.316 139.776 104.883C140.275 105.449 140.671 106.129 140.966 106.923C141.261 107.716 141.408 108.657 141.408 109.745Z" fill="black"/>
<path d="M119.75 88.7118L141 88.7118L141 91.5678L119.75 91.5678L119.75 99.4898L117.268 99.4898L117.268 80.7899L119.75 80.7899L119.75 88.7118Z" fill="black"/>
<path d="M141 77.0971L138.722 77.0971L138.722 71.1811L119.546 71.1811L119.546 77.0971L117.268 77.0971L117.268 62.4091L119.546 62.4091L119.546 68.3251L138.722 68.3251L138.722 62.4091L141 62.4091L141 77.0971Z" fill="black"/>
<path d="M141.408 49.3664C141.408 50.8171 141.136 52.0637 140.592 53.1064C140.025 54.1491 139.221 55.0104 138.178 55.6904C137.135 56.3704 135.855 56.8691 134.336 57.1864C132.817 57.5037 131.083 57.6624 129.134 57.6624C127.207 57.6624 125.485 57.5037 123.966 57.1864C122.425 56.8691 121.133 56.3704 120.09 55.6904C119.047 55.0104 118.254 54.1491 117.71 53.1064C117.143 52.0637 116.86 50.8171 116.86 49.3664C116.86 47.9157 117.143 46.6691 117.71 45.6264C118.254 44.5837 119.047 43.7224 120.09 43.0424C121.133 42.3624 122.425 41.8638 123.966 41.5464C125.485 41.2291 127.207 41.0704 129.134 41.0704C131.083 41.0704 132.817 41.2291 134.336 41.5464C135.855 41.8637 137.135 42.3624 138.178 43.0424C139.221 43.7224 140.025 44.5837 140.592 45.6264C141.136 46.6691 141.408 47.9157 141.408 49.3664ZM138.926 49.3664C138.926 48.4144 138.745 47.6097 138.382 46.9524C137.997 46.2951 137.464 45.7511 136.784 45.3204C136.104 44.8897 135.288 44.5837 134.336 44.4024C133.361 44.1984 132.273 44.0964 131.072 44.0964L127.196 44.0964C126.017 44.0964 124.941 44.1984 123.966 44.4024C122.991 44.5837 122.164 44.8897 121.484 45.3204C120.804 45.7511 120.283 46.2951 119.92 46.9524C119.535 47.6097 119.342 48.4144 119.342 49.3664C119.342 50.3184 119.535 51.1231 119.92 51.7804C120.283 52.4377 120.804 52.9817 121.484 53.4124C122.164 53.8431 122.991 54.1604 123.966 54.3644C124.941 54.5457 126.017 54.6364 127.196 54.6364L131.072 54.6364C132.273 54.6364 133.361 54.5457 134.336 54.3644C135.288 54.1604 136.104 53.8431 136.784 53.4124C137.464 52.9817 137.997 52.4377 138.382 51.7804C138.745 51.1231 138.926 50.3184 138.926 49.3664Z" fill="black"/>
<path d="M120.906 33.6377L120.906 33.8757L141 33.8757L141 36.4597L117.268 36.4597L117.268 32.4137L137.158 24.3217L137.158 24.0837L117.268 24.0837L117.268 21.4997L141 21.4997L141 25.5457L120.906 33.6377Z" fill="black"/>
<path d="M141.408 8.66098C141.408 10.7916 141.023 12.537 140.252 13.897C139.459 15.257 138.45 16.379 137.226 17.263L135.526 15.189C136.682 14.2596 137.543 13.285 138.11 12.265C138.677 11.2223 138.96 9.98696 138.96 8.55896C138.96 6.83629 138.563 5.52163 137.77 4.61496C136.977 3.70829 135.866 3.25497 134.438 3.25497C133.282 3.25497 132.387 3.58363 131.752 4.24097C131.095 4.8983 130.63 6.04296 130.358 7.67496L129.916 10.327C129.712 11.483 129.406 12.4576 128.998 13.251C128.59 14.0216 128.103 14.645 127.536 15.121C126.947 15.597 126.312 15.937 125.632 16.141C124.929 16.345 124.204 16.447 123.456 16.447C121.28 16.447 119.637 15.733 118.526 14.305C117.415 12.877 116.86 10.9503 116.86 8.52496C116.86 6.62096 117.177 5.02296 117.812 3.73096C118.447 2.41629 119.342 1.3623 120.498 0.56897L122.232 2.57498C121.371 3.23232 120.668 4.02562 120.124 4.95496C119.58 5.88429 119.308 7.08563 119.308 8.55896C119.308 10.1683 119.648 11.4036 120.328 12.265C121.008 13.1263 122.028 13.557 123.388 13.557C124.453 13.557 125.326 13.2396 126.006 12.605C126.663 11.9476 127.139 10.7803 127.434 9.10297L127.876 6.55298C128.08 5.39698 128.386 4.4223 128.794 3.62897C129.202 2.83563 129.689 2.20097 130.256 1.72498C130.823 1.22631 131.457 0.874959 132.16 0.670959C132.863 0.466959 133.599 0.364959 134.37 0.364959C136.569 0.364959 138.291 1.09029 139.538 2.54095C140.785 3.96895 141.408 6.00898 141.408 8.66098Z" fill="black"/>
<path fill-rule="evenodd" clip-rule="evenodd" d="M48.006 163.127H1V160.127H48.006L27.9392 140.061L30.0605 137.939L53.7486 161.627L30.0605 185.315L27.9392 183.194L48.006 163.127Z" fill="black" fill-opacity="0.18"/>
</svg>
