<?xml version="1.0" encoding="utf-8"?>
<!-- Generator: Adobe Illustrator 22.0.1, SVG Export Plug-In . SVG Version: 6.00 Build 0)  -->
<svg version="1.1" id="Layer_1" xmlns="http://www.w3.org/2000/svg" xmlns:xlink="http://www.w3.org/1999/xlink" x="0px" y="0px"
	 viewBox="0 0 4798.8 138.5" style="enable-background:new 0 0 4798.8 138.5;" xml:space="preserve">
<style type="text/css">
	.st0{fill:none;}
	.st1{fill:#DFDBE5;}
	.st2{fill:#FFFFFF;}
	.st3{fill:url(#SVGID_1_);}
</style>
<pattern  x="1439.4" y="-549.7" width="52" height="52" patternUnits="userSpaceOnUse" id="New_Pattern" viewBox="0 -52 52 52" style="overflow:visible;">
	<g>
		<rect y="-52" class="st0" width="52" height="52"/>
		<path class="st1" d="M3.8-36c0.6-1.6-0.3-3.3-1.8-3.8v-6.3C4-46.5,5.5-48,5.9-50h6.3c0.6,1.6,2.3,2.4,3.8,1.8
			c1.6-0.6,2.4-2.3,1.8-3.8H0v17.8C1.6-33.6,3.3-34.4,3.8-36z M0,0h17.8c-0.3-0.9-1-1.5-1.8-1.8c-1.6-0.5-3.3,0.3-3.8,1.8H5.9
			C5.5-2,4-3.5,2-3.9v-6.3c1.6-0.6,2.4-2.3,1.8-3.8c-0.6-1.6-2.3-2.4-3.8-1.8V0z M52,0v-15.8c-0.9,0.3-1.5,1-1.8,1.8
			c-0.5,1.6,0.3,3.3,1.8,3.8v6.3C50-3.5,48.5-2,48.1,0h-6.3c-0.3-0.9-1-1.5-1.8-1.8c-1.6-0.5-3.3,0.3-3.8,1.8H52z M0-20.1
			c1.3,0.3,2.7,0,3.8-0.7l4.4,4.4c-0.4,0.8-0.4,1.8,0,2.6c0.7,1.5,2.5,2.1,4,1.4s2.1-2.5,1.4-4s-2.5-2.1-4-1.4l-4.4-4.4
			c1.1-1.7,1.1-3.8,0-5.5l4.4-4.4c0.8,0.4,1.8,0.4,2.6,0c1.5-0.7,2.1-2.5,1.4-4c-0.7-1.5-2.5-2.1-4-1.4s-2.1,2.5-1.4,4l-4.4,4.4
			c-1.1-0.7-2.5-1-3.8-0.7V-20.1L0-20.1z M52-52H36.2c-0.6,1.6,0.3,3.3,1.8,3.8c1.6,0.6,3.3-0.3,3.8-1.8h6.3c0.4,2,1.9,3.5,3.9,3.9
			v6.3c-0.9,0.3-1.5,1-1.8,1.8c-0.5,1.6,0.3,3.3,1.8,3.8V-52z M52-29.8c-0.6,0.1-1.2,0.4-1.7,0.7l-4.4-4.4c0.4-0.8,0.4-1.8,0-2.6
			c-0.7-1.5-2.5-2.1-4-1.4c-1.5,0.7-2.1,2.5-1.4,4s2.5,2.1,4,1.4l4.4,4.4c-1.1,1.7-1.1,3.8,0,5.5l-4.4,4.4c-0.8-0.4-1.8-0.4-2.6,0
			c-1.5,0.7-2.1,2.5-1.4,4c0.7,1.5,2.5,2.1,4,1.4c1.5-0.7,2.1-2.5,1.4-4l4.4-4.4c0.5,0.3,1.1,0.6,1.7,0.7C52-20.1,52-29.8,52-29.8z
			 M22.1-52c-0.3,1.3,0,2.7,0.7,3.8l-4.4,4.4c-0.8-0.4-1.8-0.4-2.6,0c-1.5,0.7-2.1,2.5-1.4,4s2.5,2.1,4,1.4c1.5-0.7,2.1-2.5,1.4-4
			l4.4-4.4c1.7,1.1,3.8,1.1,5.5,0l4.4,4.5c-0.4,0.8-0.4,1.8,0,2.6c0.7,1.5,2.5,2.1,4,1.4c1.5-0.7,2.1-2.5,1.4-4
			c-0.7-1.5-2.5-2.1-4-1.4l-4.4-4.4c0.7-1.1,1-2.5,0.7-3.8L22.1-52L22.1-52z M31.9,0c-0.1-0.6-0.4-1.2-0.7-1.7l4.4-4.4
			c0.8,0.4,1.8,0.4,2.6,0c1.5-0.7,2.1-2.5,1.4-4c-0.7-1.5-2.5-2.1-4-1.4c-1.5,0.7-2.1,2.5-1.4,4l-4.4,4.4c-1.7-1.1-3.8-1.1-5.5,0
			l-4.4-4.4c0.4-0.8,0.4-1.8,0-2.6c-0.7-1.5-2.5-2.1-4-1.4s-2.1,2.5-1.4,4c0.7,1.5,2.5,2.1,4,1.4l4.4,4.4c-0.3,0.5-0.6,1.1-0.7,1.7
			C22.1,0,31.9,0,31.9,0z M38.2-24c0.3,0.9,1,1.5,1.8,1.8c1.6,0.6,3.3-0.3,3.8-1.8c0.6-1.6-0.3-3.3-1.8-3.8
			c-1.6-0.6-3.3,0.3-3.8,1.8h-6.3c-0.4-2-1.9-3.5-3.9-3.9v-6.3c0.9-0.3,1.5-1,1.8-1.8c0.6-1.6-0.3-3.3-1.8-3.8s-3.3,0.3-3.8,1.8
			c-0.6,1.6,0.3,3.3,1.8,3.8v6.3c-2,0.4-3.5,1.9-3.9,3.9h-6.3c-0.3-0.9-1-1.5-1.8-1.8c-1.6-0.6-3.3,0.3-3.8,1.8
			c-0.6,1.6,0.3,3.3,1.8,3.8c1.6,0.6,3.3-0.3,3.8-1.8h6.3c0.4,2,1.9,3.5,3.9,3.9v6.3c-0.9,0.3-1.5,1-1.8,1.8
			c-0.6,1.6,0.3,3.3,1.8,3.8c1.6,0.6,3.3-0.3,3.8-1.8c0.6-1.6-0.3-3.3-1.8-3.8v-6.3c2-0.4,3.5-1.9,3.9-3.9H38.2z"/>
	</g>
</pattern>
<rect x="-7.6" y="-1.7" class="st2" width="4824" height="141"/>
<pattern  id="SVGID_1_" xlink:href="#New_Pattern" patternTransform="matrix(0.9397 0.342 -0.342 0.9397 -2874.9331 2525.0896)">
</pattern>
<rect x="-7.6" y="-1.7" class="st3" width="4824" height="141"/>
</svg>
