<?xml version="1.0" encoding="utf-8"?>
<!-- Generator: Adobe Illustrator 22.0.1, SVG Export Plug-In . SVG Version: 6.00 Build 0)  -->
<svg version="1.1" id="Layer_1" xmlns="http://www.w3.org/2000/svg" xmlns:xlink="http://www.w3.org/1999/xlink" x="0px" y="0px"
	 viewBox="0 0 672.7 192.5" style="enable-background:new 0 0 672.7 192.5;" xml:space="preserve">
<style type="text/css">
	.st0{fill:#065641;}
	.st1{fill:#FCD80C;}
</style>
<g>
	<g>
		<g>
			<path class="st0" d="M46.4,83.5h4.8l-6.7,24.2h-4.8l-5.5-17.2l-5.5,17.2h-4.9L17,83.5h5l4.4,16.6l5.4-16.6h4.9l5.4,16.7
				L46.4,83.5z"/>
			<path class="st0" d="M73.2,98.4h-2.5v9.3H66V83.5h9.4c4.7,0,7.7,3.2,7.7,7.4c0,3.4-2,5.9-5.1,6.9l5.2,9.9h-5.3L73.2,98.4z
				 M74.6,94.3c2.4,0,3.8-1.4,3.8-3.3c0-2-1.4-3.4-3.8-3.4h-3.8v6.7H74.6z"/>
			<path class="st0" d="M98.9,107.7V83.5h4.8v24.2H98.9z"/>
			<path class="st0" d="M130.9,88v19.7h-4.7V88h-7.6v-4.5h20V88H130.9z"/>
			<path class="st0" d="M153.5,107.7V83.5h4.8v24.2H153.5z"/>
			<path class="st0" d="M191,107.7l-11-17.2v17.2h-4.7V83.5h5.9l10.1,16v-16h4.7v24.2H191z"/>
			<path class="st0" d="M231.2,107.7l-0.3-2.8c-1.1,1.6-3.5,3.3-7.1,3.3c-6.5,0-12.1-4.8-12.1-12.6c0-7.8,5.8-12.6,12.4-12.6
				c6.3,0,9.9,3.7,11,7.4l-4.5,1.6c-0.6-2.1-2.6-4.6-6.5-4.6c-3.6,0-7.6,2.5-7.6,8.2c0,5.5,3.6,8.3,7.6,8.3c4.5,0,6.2-3,6.5-4.7
				h-7.6v-4.1H235v12.6H231.2z"/>
			<path class="st0" d="M285.7,102.2h-9.8l-2,5.5h-5l9.3-24.2h5.5l9.2,24.2h-5.1L285.7,102.2z M277.5,97.9h6.7l-3.3-9.1L277.5,97.9z
				"/>
			<path class="st0" d="M316.2,83.5c4.7,0,7.4,2.8,7.4,6.5c0,2.5-1.5,4.5-3.5,5.2c2.4,0.6,4.3,2.7,4.3,5.7c0,3.9-2.9,6.8-7.5,6.8
				h-9.3V83.5H316.2z M315.5,93.5c2.1,0,3.4-1.2,3.4-3c0-1.8-1.2-3-3.5-3h-3.3v6H315.5z M316,103.8c2.3,0,3.6-1.2,3.6-3.1
				c0-1.9-1.2-3.2-3.6-3.2h-3.9v6.4H316z"/>
			<path class="st0" d="M350.9,83c6.6,0,12.4,4.8,12.4,12.6c0,7.8-5.9,12.6-12.4,12.6c-6.5,0-12.4-4.8-12.4-12.6
				C338.5,87.8,344.3,83,350.9,83z M350.9,103.6c3.8,0,7.6-2.6,7.6-8c0-5.5-3.8-8-7.6-8c-3.7,0-7.5,2.6-7.5,8
				C343.3,101,347.2,103.6,350.9,103.6z"/>
			<path class="st0" d="M378.8,99.1V83.5h4.7v15.3c0,3.2,1.8,4.8,4.6,4.8c2.9,0,4.6-1.7,4.6-4.8V83.5h4.7v15.6
				c0,5.9-4.1,9.1-9.3,9.1C382.9,108.2,378.8,105.1,378.8,99.1z"/>
			<path class="st0" d="M424.5,88v19.7h-4.7V88h-7.6v-4.5h20V88H424.5z"/>
			<path class="st0" d="M467,107.7V83.5h8.7c6.9,0,11.9,4.5,11.9,12.1c0,7.6-5.1,12.1-12,12.1H467z M475.5,103.3
				c4,0,7.3-2.5,7.3-7.7c0-5.3-3.3-7.7-7.2-7.7h-3.8v15.4H475.5z"/>
			<path class="st0" d="M503.3,107.7V83.5h15.1V88H508v5.5h9.4v4.2H508v5.6h10.4v4.4H503.3z"/>
			<path class="st0" d="M546.8,90.6c-0.2-1.3-1.3-3.4-4.4-3.4c-2.3,0-3.8,1.5-3.8,3.1c0,1.3,0.9,2.4,2.6,2.7l3.4,0.6
				c4.4,0.9,6.8,3.7,6.8,7.1c0,3.7-3.1,7.5-8.7,7.5c-6.4,0-9.2-4.1-9.6-7.6l4.4-1.2c0.2,2.4,1.9,4.5,5.3,4.5c2.5,0,3.9-1.3,3.9-3
				c0-1.4-1.1-2.5-2.9-2.9l-3.4-0.7c-3.9-0.8-6.3-3.3-6.3-6.9c0-4.3,3.9-7.6,8.4-7.6c5.9,0,8.1,3.5,8.7,6.3L546.8,90.6z"/>
			<path class="st0" d="M566.9,107.7V83.5h4.8v24.2H566.9z"/>
			<path class="st0" d="M606.9,107.7l-0.3-2.8c-1.1,1.6-3.5,3.3-7.1,3.3c-6.5,0-12.1-4.8-12.1-12.6c0-7.8,5.8-12.6,12.4-12.6
				c6.3,0,9.9,3.7,11,7.4l-4.5,1.6c-0.6-2.1-2.6-4.6-6.5-4.6c-3.6,0-7.6,2.5-7.6,8.2c0,5.5,3.6,8.3,7.6,8.3c4.5,0,6.2-3,6.5-4.7
				h-7.6v-4.1h12.1v12.6H606.9z"/>
			<path class="st0" d="M642.7,107.7l-11-17.2v17.2H627V83.5h5.9l10.1,16v-16h4.7v24.2H642.7z"/>
		</g>
		<g>
			<path class="st0" d="M46.4,83.5h4.8l-6.7,24.2h-4.8l-5.5-17.2l-5.5,17.2h-4.9L17,83.5h5l4.4,16.6l5.4-16.6h4.9l5.4,16.7
				L46.4,83.5z"/>
			<path class="st0" d="M73.2,98.4h-2.5v9.3H66V83.5h9.4c4.7,0,7.7,3.2,7.7,7.4c0,3.4-2,5.9-5.1,6.9l5.2,9.9h-5.3L73.2,98.4z
				 M74.6,94.3c2.4,0,3.8-1.4,3.8-3.3c0-2-1.4-3.4-3.8-3.4h-3.8v6.7H74.6z"/>
			<path class="st0" d="M98.9,107.7V83.5h4.8v24.2H98.9z"/>
			<path class="st0" d="M130.9,88v19.7h-4.7V88h-7.6v-4.5h20V88H130.9z"/>
			<path class="st0" d="M153.5,107.7V83.5h4.8v24.2H153.5z"/>
			<path class="st0" d="M191,107.7l-11-17.2v17.2h-4.7V83.5h5.9l10.1,16v-16h4.7v24.2H191z"/>
			<path class="st0" d="M231.2,107.7l-0.3-2.8c-1.1,1.6-3.5,3.3-7.1,3.3c-6.5,0-12.1-4.8-12.1-12.6c0-7.8,5.8-12.6,12.4-12.6
				c6.3,0,9.9,3.7,11,7.4l-4.5,1.6c-0.6-2.1-2.6-4.6-6.5-4.6c-3.6,0-7.6,2.5-7.6,8.2c0,5.5,3.6,8.3,7.6,8.3c4.5,0,6.2-3,6.5-4.7
				h-7.6v-4.1H235v12.6H231.2z"/>
			<path class="st0" d="M285.7,102.2h-9.8l-2,5.5h-5l9.3-24.2h5.5l9.2,24.2h-5.1L285.7,102.2z M277.5,97.9h6.7l-3.3-9.1L277.5,97.9z
				"/>
			<path class="st0" d="M316.2,83.5c4.7,0,7.4,2.8,7.4,6.5c0,2.5-1.5,4.5-3.5,5.2c2.4,0.6,4.3,2.7,4.3,5.7c0,3.9-2.9,6.8-7.5,6.8
				h-9.3V83.5H316.2z M315.5,93.5c2.1,0,3.4-1.2,3.4-3c0-1.8-1.2-3-3.5-3h-3.3v6H315.5z M316,103.8c2.3,0,3.6-1.2,3.6-3.1
				c0-1.9-1.2-3.2-3.6-3.2h-3.9v6.4H316z"/>
			<path class="st0" d="M350.9,83c6.6,0,12.4,4.8,12.4,12.6c0,7.8-5.9,12.6-12.4,12.6c-6.5,0-12.4-4.8-12.4-12.6
				C338.5,87.8,344.3,83,350.9,83z M350.9,103.6c3.8,0,7.6-2.6,7.6-8c0-5.5-3.8-8-7.6-8c-3.7,0-7.5,2.6-7.5,8
				C343.3,101,347.2,103.6,350.9,103.6z"/>
			<path class="st0" d="M378.8,99.1V83.5h4.7v15.3c0,3.2,1.8,4.8,4.6,4.8c2.9,0,4.6-1.7,4.6-4.8V83.5h4.7v15.6
				c0,5.9-4.1,9.1-9.3,9.1C382.9,108.2,378.8,105.1,378.8,99.1z"/>
			<path class="st0" d="M424.5,88v19.7h-4.7V88h-7.6v-4.5h20V88H424.5z"/>
			<path class="st0" d="M467,107.7V83.5h8.7c6.9,0,11.9,4.5,11.9,12.1c0,7.6-5.1,12.1-12,12.1H467z M475.5,103.3
				c4,0,7.3-2.5,7.3-7.7c0-5.3-3.3-7.7-7.2-7.7h-3.8v15.4H475.5z"/>
			<path class="st0" d="M503.3,107.7V83.5h15.1V88H508v5.5h9.4v4.2H508v5.6h10.4v4.4H503.3z"/>
			<path class="st0" d="M546.8,90.6c-0.2-1.3-1.3-3.4-4.4-3.4c-2.3,0-3.8,1.5-3.8,3.1c0,1.3,0.9,2.4,2.6,2.7l3.4,0.6
				c4.4,0.9,6.8,3.7,6.8,7.1c0,3.7-3.1,7.5-8.7,7.5c-6.4,0-9.2-4.1-9.6-7.6l4.4-1.2c0.2,2.4,1.9,4.5,5.3,4.5c2.5,0,3.9-1.3,3.9-3
				c0-1.4-1.1-2.5-2.9-2.9l-3.4-0.7c-3.9-0.8-6.3-3.3-6.3-6.9c0-4.3,3.9-7.6,8.4-7.6c5.9,0,8.1,3.5,8.7,6.3L546.8,90.6z"/>
			<path class="st0" d="M566.9,107.7V83.5h4.8v24.2H566.9z"/>
			<path class="st0" d="M606.9,107.7l-0.3-2.8c-1.1,1.6-3.5,3.3-7.1,3.3c-6.5,0-12.1-4.8-12.1-12.6c0-7.8,5.8-12.6,12.4-12.6
				c6.3,0,9.9,3.7,11,7.4l-4.5,1.6c-0.6-2.1-2.6-4.6-6.5-4.6c-3.6,0-7.6,2.5-7.6,8.2c0,5.5,3.6,8.3,7.6,8.3c4.5,0,6.2-3,6.5-4.7
				h-7.6v-4.1h12.1v12.6H606.9z"/>
			<path class="st0" d="M642.7,107.7l-11-17.2v17.2H627V83.5h5.9l10.1,16v-16h4.7v24.2H642.7z"/>
		</g>
	</g>
	<rect x="16.6" y="122.6" class="st1" width="631" height="8"/>
</g>
</svg>
